<?xml version="1.0" encoding="UTF-8"?>
<!DOCTYPE svg PUBLIC "-//W3C//DTD SVG 1.1//EN" "http://www.w3.org/Graphics/SVG/1.1/DTD/svg11.dtd">
<svg width="303mm" height="170mm" viewBox="0 0 30300 17000" version="1.1" xmlns="http://www.w3.org/2000/svg" xmlns:xlink="http://www.w3.org/1999/xlink" stroke-width="28.222" stroke-linejoin="round" xml:space="preserve">
 <path fill="rgb(255,255,255)" stroke="none" d="M 15472,17000 L 645,17000 645,10 30300,10 30300,17000 15472,17000 Z"/>
 <path fill="none" stroke="rgb(179,179,179)" stroke-linejoin="round" d="M 16074,13294 L 2442,13294 2442,10 29706,10 29706,13294 16074,13294 Z"/>
 <path fill="none" stroke="rgb(179,179,179)" stroke-width="18" stroke-linejoin="round" d="M 29706,13293 L 2442,13293"/>
 <path fill="none" stroke="rgb(179,179,179)" stroke-width="18" stroke-linejoin="round" d="M 29706,12085 L 2442,12085"/>
 <path fill="none" stroke="rgb(179,179,179)" stroke-width="18" stroke-linejoin="round" d="M 29706,10878 L 2442,10878"/>
 <path fill="none" stroke="rgb(179,179,179)" stroke-width="18" stroke-linejoin="round" d="M 29706,9670 L 2442,9670"/>
 <path fill="none" stroke="rgb(179,179,179)" stroke-width="18" stroke-linejoin="round" d="M 29706,8463 L 2442,8463"/>
 <path fill="none" stroke="rgb(179,179,179)" stroke-width="18" stroke-linejoin="round" d="M 29706,7254 L 2442,7254"/>
 <path fill="none" stroke="rgb(179,179,179)" stroke-width="18" stroke-linejoin="round" d="M 29706,6047 L 2442,6047"/>
 <path fill="none" stroke="rgb(179,179,179)" stroke-width="18" stroke-linejoin="round" d="M 29706,4839 L 2442,4839"/>
 <path fill="none" stroke="rgb(179,179,179)" stroke-width="18" stroke-linejoin="round" d="M 29706,3632 L 2442,3632"/>
 <path fill="none" stroke="rgb(179,179,179)" stroke-width="18" stroke-linejoin="round" d="M 29706,2423 L 2442,2423"/>
 <path fill="none" stroke="rgb(179,179,179)" stroke-width="18" stroke-linejoin="round" d="M 29706,1216 L 2442,1216"/>
 <path fill="none" stroke="rgb(179,179,179)" stroke-width="18" stroke-linejoin="round" d="M 2442,13443 L 2442,13293"/>
 <path fill="none" stroke="rgb(179,179,179)" stroke-width="18" stroke-linejoin="round" d="M 2998,13443 L 2998,13293"/>
 <path fill="none" stroke="rgb(179,179,179)" stroke-width="18" stroke-linejoin="round" d="M 3555,13443 L 3555,13293"/>
 <path fill="none" stroke="rgb(179,179,179)" stroke-width="18" stroke-linejoin="round" d="M 4110,13443 L 4110,13293"/>
 <path fill="none" stroke="rgb(179,179,179)" stroke-width="18" stroke-linejoin="round" d="M 4667,13443 L 4667,13293"/>
 <path fill="none" stroke="rgb(179,179,179)" stroke-width="18" stroke-linejoin="round" d="M 5223,13443 L 5223,13293"/>
 <path fill="none" stroke="rgb(179,179,179)" stroke-width="18" stroke-linejoin="round" d="M 5780,13443 L 5780,13293"/>
 <path fill="none" stroke="rgb(179,179,179)" stroke-width="18" stroke-linejoin="round" d="M 6336,13443 L 6336,13293"/>
 <path fill="none" stroke="rgb(179,179,179)" stroke-width="18" stroke-linejoin="round" d="M 6893,13443 L 6893,13293"/>
 <path fill="none" stroke="rgb(179,179,179)" stroke-width="18" stroke-linejoin="round" d="M 7449,13443 L 7449,13293"/>
 <path fill="none" stroke="rgb(179,179,179)" stroke-width="18" stroke-linejoin="round" d="M 8006,13443 L 8006,13293"/>
 <path fill="none" stroke="rgb(179,179,179)" stroke-width="18" stroke-linejoin="round" d="M 8562,13443 L 8562,13293"/>
 <path fill="none" stroke="rgb(179,179,179)" stroke-width="18" stroke-linejoin="round" d="M 9118,13443 L 9118,13293"/>
 <path fill="none" stroke="rgb(179,179,179)" stroke-width="18" stroke-linejoin="round" d="M 9674,13443 L 9674,13293"/>
 <path fill="none" stroke="rgb(179,179,179)" stroke-width="18" stroke-linejoin="round" d="M 10231,13443 L 10231,13293"/>
 <path fill="none" stroke="rgb(179,179,179)" stroke-width="18" stroke-linejoin="round" d="M 10787,13443 L 10787,13293"/>
 <path fill="none" stroke="rgb(179,179,179)" stroke-width="18" stroke-linejoin="round" d="M 11344,13443 L 11344,13293"/>
 <path fill="none" stroke="rgb(179,179,179)" stroke-width="18" stroke-linejoin="round" d="M 11901,13443 L 11901,13293"/>
 <path fill="none" stroke="rgb(179,179,179)" stroke-width="18" stroke-linejoin="round" d="M 12457,13443 L 12457,13293"/>
 <path fill="none" stroke="rgb(179,179,179)" stroke-width="18" stroke-linejoin="round" d="M 13014,13443 L 13014,13293"/>
 <path fill="none" stroke="rgb(179,179,179)" stroke-width="18" stroke-linejoin="round" d="M 13569,13443 L 13569,13293"/>
 <path fill="none" stroke="rgb(179,179,179)" stroke-width="18" stroke-linejoin="round" d="M 14126,13443 L 14126,13293"/>
 <path fill="none" stroke="rgb(179,179,179)" stroke-width="18" stroke-linejoin="round" d="M 14682,13443 L 14682,13293"/>
 <path fill="none" stroke="rgb(179,179,179)" stroke-width="18" stroke-linejoin="round" d="M 15239,13443 L 15239,13293"/>
 <path fill="none" stroke="rgb(179,179,179)" stroke-width="18" stroke-linejoin="round" d="M 15795,13443 L 15795,13293"/>
 <path fill="none" stroke="rgb(179,179,179)" stroke-width="18" stroke-linejoin="round" d="M 16352,13443 L 16352,13293"/>
 <path fill="none" stroke="rgb(179,179,179)" stroke-width="18" stroke-linejoin="round" d="M 16908,13443 L 16908,13293"/>
 <path fill="none" stroke="rgb(179,179,179)" stroke-width="18" stroke-linejoin="round" d="M 17465,13443 L 17465,13293"/>
 <path fill="none" stroke="rgb(179,179,179)" stroke-width="18" stroke-linejoin="round" d="M 18020,13443 L 18020,13293"/>
 <path fill="none" stroke="rgb(179,179,179)" stroke-width="18" stroke-linejoin="round" d="M 18577,13443 L 18577,13293"/>
 <path fill="none" stroke="rgb(179,179,179)" stroke-width="18" stroke-linejoin="round" d="M 19133,13443 L 19133,13293"/>
 <path fill="none" stroke="rgb(179,179,179)" stroke-width="18" stroke-linejoin="round" d="M 19690,13443 L 19690,13293"/>
 <path fill="none" stroke="rgb(179,179,179)" stroke-width="18" stroke-linejoin="round" d="M 20246,13443 L 20246,13293"/>
 <path fill="none" stroke="rgb(179,179,179)" stroke-width="18" stroke-linejoin="round" d="M 20803,13443 L 20803,13293"/>
 <path fill="none" stroke="rgb(179,179,179)" stroke-width="18" stroke-linejoin="round" d="M 21360,13443 L 21360,13293"/>
 <path fill="none" stroke="rgb(179,179,179)" stroke-width="18" stroke-linejoin="round" d="M 21916,13443 L 21916,13293"/>
 <path fill="none" stroke="rgb(179,179,179)" stroke-width="18" stroke-linejoin="round" d="M 22473,13443 L 22473,13293"/>
 <path fill="none" stroke="rgb(179,179,179)" stroke-width="18" stroke-linejoin="round" d="M 23028,13443 L 23028,13293"/>
 <path fill="none" stroke="rgb(179,179,179)" stroke-width="18" stroke-linejoin="round" d="M 23585,13443 L 23585,13293"/>
 <path fill="none" stroke="rgb(179,179,179)" stroke-width="18" stroke-linejoin="round" d="M 24141,13443 L 24141,13293"/>
 <path fill="none" stroke="rgb(179,179,179)" stroke-width="18" stroke-linejoin="round" d="M 24698,13443 L 24698,13293"/>
 <path fill="none" stroke="rgb(179,179,179)" stroke-width="18" stroke-linejoin="round" d="M 25254,13443 L 25254,13293"/>
 <path fill="none" stroke="rgb(179,179,179)" stroke-width="18" stroke-linejoin="round" d="M 25811,13443 L 25811,13293"/>
 <path fill="none" stroke="rgb(179,179,179)" stroke-width="18" stroke-linejoin="round" d="M 26367,13443 L 26367,13293"/>
 <path fill="none" stroke="rgb(179,179,179)" stroke-width="18" stroke-linejoin="round" d="M 26924,13443 L 26924,13293"/>
 <path fill="none" stroke="rgb(179,179,179)" stroke-width="18" stroke-linejoin="round" d="M 27479,13443 L 27479,13293"/>
 <path fill="none" stroke="rgb(179,179,179)" stroke-width="18" stroke-linejoin="round" d="M 28036,13443 L 28036,13293"/>
 <path fill="none" stroke="rgb(179,179,179)" stroke-width="18" stroke-linejoin="round" d="M 28592,13443 L 28592,13293"/>
 <path fill="none" stroke="rgb(179,179,179)" stroke-width="18" stroke-linejoin="round" d="M 29149,13443 L 29149,13293"/>
 <path fill="none" stroke="rgb(179,179,179)" stroke-width="18" stroke-linejoin="round" d="M 29705,13443 L 29705,13293"/>
 <path fill="none" stroke="rgb(179,179,179)" stroke-width="18" stroke-linejoin="round" d="M 2442,13293 L 29706,13293"/>
 <path fill="none" stroke="rgb(179,179,179)" stroke-width="18" stroke-linejoin="round" d="M 2295,13293 L 2442,13293"/>
 <path fill="none" stroke="rgb(179,179,179)" stroke-width="18" stroke-linejoin="round" d="M 2295,12085 L 2442,12085"/>
 <path fill="none" stroke="rgb(179,179,179)" stroke-width="18" stroke-linejoin="round" d="M 2295,10878 L 2442,10878"/>
 <path fill="none" stroke="rgb(179,179,179)" stroke-width="18" stroke-linejoin="round" d="M 2295,9670 L 2442,9670"/>
 <path fill="none" stroke="rgb(179,179,179)" stroke-width="18" stroke-linejoin="round" d="M 2295,8463 L 2442,8463"/>
 <path fill="none" stroke="rgb(179,179,179)" stroke-width="18" stroke-linejoin="round" d="M 2295,7254 L 2442,7254"/>
 <path fill="none" stroke="rgb(179,179,179)" stroke-width="18" stroke-linejoin="round" d="M 2295,6047 L 2442,6047"/>
 <path fill="none" stroke="rgb(179,179,179)" stroke-width="18" stroke-linejoin="round" d="M 2295,4839 L 2442,4839"/>
 <path fill="none" stroke="rgb(179,179,179)" stroke-width="18" stroke-linejoin="round" d="M 2295,3632 L 2442,3632"/>
 <path fill="none" stroke="rgb(179,179,179)" stroke-width="18" stroke-linejoin="round" d="M 2295,2423 L 2442,2423"/>
 <path fill="none" stroke="rgb(179,179,179)" stroke-width="18" stroke-linejoin="round" d="M 2295,1216 L 2442,1216"/>
 <path fill="none" stroke="rgb(179,179,179)" stroke-width="18" stroke-linejoin="round" d="M 2442,13293 L 2442,9"/>
 <path fill="rgb(0,255,0)" stroke="none" d="M 29288,13293 L 29566,13293 29566,13292 29288,13292 29288,13293 Z"/>
 <path fill="rgb(0,255,0)" stroke="none" d="M 28732,13293 L 29010,13293 29010,13266 28732,13266 28732,13293 Z"/>
 <path fill="rgb(255,255,0)" stroke="none" d="M 28175,13293 L 28453,13293 28453,12477 28175,12477 28175,13293 Z"/>
 <path fill="rgb(255,255,0)" stroke="none" d="M 27619,13293 L 27897,13293 27897,12377 27619,12377 27619,13293 Z"/>
 <path fill="rgb(255,255,0)" stroke="none" d="M 27063,13293 L 27340,13293 27340,12241 27063,12241 27063,13293 Z"/>
 <path fill="rgb(255,0,0)" stroke="none" d="M 26506,13293 L 26785,13293 26785,12080 26506,12080 26506,13293 Z"/>
 <path fill="rgb(255,0,0)" stroke="none" d="M 25950,13293 L 26228,13293 26228,12080 25950,12080 25950,13293 Z"/>
 <path fill="rgb(255,0,0)" stroke="none" d="M 25393,13293 L 25672,13293 25672,11596 25393,11596 25393,13293 Z"/>
 <path fill="rgb(255,0,0)" stroke="none" d="M 24837,13293 L 25115,13293 25115,11521 24837,11521 24837,13293 Z"/>
 <path fill="rgb(255,0,0)" stroke="none" d="M 24280,13293 L 24559,13293 24559,11345 24280,11345 24280,13293 Z"/>
 <path fill="rgb(255,0,0)" stroke="none" d="M 23724,13293 L 24002,13293 24002,11285 23724,11285 23724,13293 Z"/>
 <path fill="rgb(255,0,0)" stroke="none" d="M 23167,13293 L 23446,13293 23446,11131 23167,11131 23167,13293 Z"/>
 <path fill="rgb(255,0,0)" stroke="none" d="M 22611,13293 L 22889,13293 22889,10966 22611,10966 22611,13293 Z"/>
 <path fill="rgb(255,0,0)" stroke="none" d="M 22055,13293 L 22333,13293 22333,10813 22055,10813 22055,13293 Z"/>
 <path fill="rgb(255,0,0)" stroke="none" d="M 21499,13293 L 21777,13293 21777,10581 21499,10581 21499,13293 Z"/>
 <path fill="rgb(255,0,0)" stroke="none" d="M 20942,13293 L 21220,13293 21220,10477 20942,10477 20942,13293 Z"/>
 <path fill="rgb(255,0,0)" stroke="none" d="M 20386,13293 L 20664,13293 20664,10469 20386,10469 20386,13293 Z"/>
 <path fill="rgb(255,0,0)" stroke="none" d="M 19829,13293 L 20107,13293 20107,10418 19829,10418 19829,13293 Z"/>
 <path fill="rgb(255,0,0)" stroke="none" d="M 19273,13293 L 19551,13293 19551,10050 19273,10050 19273,13293 Z"/>
 <path fill="rgb(255,0,0)" stroke="none" d="M 18716,13293 L 18994,13293 18994,9910 18716,9910 18716,13293 Z"/>
 <path fill="rgb(255,0,0)" stroke="none" d="M 18159,13293 L 18438,13293 18438,9809 18159,9809 18159,13293 Z"/>
 <path fill="rgb(255,0,0)" stroke="none" d="M 17604,13293 L 17882,13293 17882,9708 17604,9708 17604,13293 Z"/>
 <path fill="rgb(255,0,0)" stroke="none" d="M 17047,13293 L 17326,13293 17326,9609 17047,9609 17047,13293 Z"/>
 <path fill="rgb(255,0,0)" stroke="none" d="M 16491,13293 L 16769,13293 16769,9017 16491,9017 16491,13293 Z"/>
 <path fill="rgb(255,0,0)" stroke="none" d="M 15934,13293 L 16213,13293 16213,9007 15934,9007 15934,13293 Z"/>
 <path fill="rgb(255,0,0)" stroke="none" d="M 15378,13293 L 15656,13293 15656,8758 15378,8758 15378,13293 Z"/>
 <path fill="rgb(255,0,0)" stroke="none" d="M 14821,13293 L 15100,13293 15100,8719 14821,8719 14821,13293 Z"/>
 <path fill="rgb(255,0,0)" stroke="none" d="M 14265,13293 L 14543,13293 14543,8261 14265,8261 14265,13293 Z"/>
 <path fill="rgb(255,0,0)" stroke="none" d="M 13708,13293 L 13987,13293 13987,8186 13708,8186 13708,13293 Z"/>
 <path fill="rgb(255,0,0)" stroke="none" d="M 13153,13293 L 13430,13293 13430,7770 13153,7770 13153,13293 Z"/>
 <path fill="rgb(255,0,0)" stroke="none" d="M 12596,13293 L 12874,13293 12874,6726 12596,6726 12596,13293 Z"/>
 <path fill="rgb(255,0,0)" stroke="none" d="M 12040,13293 L 12318,13293 12318,6009 12040,6009 12040,13293 Z"/>
 <path fill="rgb(255,0,0)" stroke="none" d="M 11483,13293 L 11761,13293 11761,5756 11483,5756 11483,13293 Z"/>
 <path fill="rgb(255,0,0)" stroke="none" d="M 10927,13293 L 11205,13293 11205,5222 10927,5222 10927,13293 Z"/>
 <path fill="rgb(255,0,0)" stroke="none" d="M 10370,13293 L 10648,13293 10648,4714 10370,4714 10370,13293 Z"/>
 <path fill="rgb(255,0,0)" stroke="none" d="M 9814,13293 L 10092,13293 10092,4154 9814,4154 9814,13293 Z"/>
 <path fill="rgb(255,0,0)" stroke="none" d="M 9257,13293 L 9535,13293 9535,3770 9257,3770 9257,13293 Z"/>
 <path fill="rgb(255,0,0)" stroke="none" d="M 8700,13293 L 8979,13293 8979,2972 8700,2972 8700,13293 Z"/>
 <path fill="rgb(255,0,0)" stroke="none" d="M 8145,13293 L 8423,13293 8423,1841 8145,1841 8145,13293 Z"/>
 <path fill="rgb(255,0,0)" stroke="none" d="M 7588,13293 L 7867,13293 7867,1692 7588,1692 7588,13293 Z"/>
 <path fill="rgb(255,0,0)" stroke="none" d="M 7032,13293 L 7310,13293 7310,974 7032,974 7032,13293 Z"/>
 <path fill="rgb(255,0,0)" stroke="none" d="M 6475,13293 L 6754,13293 6754,9 6475,9 6475,13293 Z"/>
 <path fill="rgb(255,0,0)" stroke="none" d="M 5919,13293 L 6197,13293 6197,9 5919,9 5919,13293 Z"/>
 <path fill="rgb(255,0,0)" stroke="none" d="M 5362,13293 L 5641,13293 5641,9 5362,9 5362,13293 Z"/>
 <path fill="rgb(255,0,0)" stroke="none" d="M 4806,13293 L 5084,13293 5084,9 4806,9 4806,13293 Z"/>
 <path fill="rgb(255,0,0)" stroke="none" d="M 4249,13293 L 4527,13293 4527,9 4249,9 4249,13293 Z"/>
 <path fill="rgb(154,0,126)" stroke="none" d="M 3694,13293 L 3971,13293 3971,9 3694,9 3694,13293 Z"/>
 <path fill="rgb(255,0,0)" stroke="none" d="M 3137,13293 L 3415,13293 3415,9 3137,9 3137,13293 Z"/>
 <path fill="rgb(255,0,0)" stroke="none" d="M 2581,13293 L 2859,13293 2859,9 2581,9 2581,13293 Z"/>
 <path fill="none" stroke="rgb(0,69,134)" stroke-linejoin="round" d="M 2442,6340 L 29706,6340"/>
 <text class="TextShape"><tspan class="TextParagraph" font-family="Arial, sans-serif" font-size="353px" font-weight="400"><tspan class="TextPosition" x="1239" y="13414"><tspan fill="rgb(0,0,0)" stroke="none">0,00%</tspan></tspan></tspan></text>
 <text class="TextShape"><tspan class="TextParagraph" font-family="Arial, sans-serif" font-size="353px" font-weight="400"><tspan class="TextPosition" x="1239" y="12206"><tspan fill="rgb(0,0,0)" stroke="none">0,33%</tspan></tspan></tspan></text>
 <text class="TextShape"><tspan class="TextParagraph" font-family="Arial, sans-serif" font-size="353px" font-weight="400"><tspan class="TextPosition" x="1239" y="10998"><tspan fill="rgb(0,0,0)" stroke="none">0,67%</tspan></tspan></tspan></text>
 <text class="TextShape"><tspan class="TextParagraph" font-family="Arial, sans-serif" font-size="353px" font-weight="400"><tspan class="TextPosition" x="1239" y="9790"><tspan fill="rgb(0,0,0)" stroke="none">1,00%</tspan></tspan></tspan></text>
 <text class="TextShape"><tspan class="TextParagraph" font-family="Arial, sans-serif" font-size="353px" font-weight="400"><tspan class="TextPosition" x="1239" y="8583"><tspan fill="rgb(0,0,0)" stroke="none">1,33%</tspan></tspan></tspan></text>
 <text class="TextShape"><tspan class="TextParagraph" font-family="Arial, sans-serif" font-size="353px" font-weight="400"><tspan class="TextPosition" x="1239" y="7375"><tspan fill="rgb(0,0,0)" stroke="none">1,67%</tspan></tspan></tspan></text>
 <text class="TextShape"><tspan class="TextParagraph" font-family="Arial, sans-serif" font-size="353px" font-weight="400"><tspan class="TextPosition" x="1239" y="6168"><tspan fill="rgb(0,0,0)" stroke="none">2,00%</tspan></tspan></tspan></text>
 <text class="TextShape"><tspan class="TextParagraph" font-family="Arial, sans-serif" font-size="353px" font-weight="400"><tspan class="TextPosition" x="1239" y="4959"><tspan fill="rgb(0,0,0)" stroke="none">2,33%</tspan></tspan></tspan></text>
 <text class="TextShape"><tspan class="TextParagraph" font-family="Arial, sans-serif" font-size="353px" font-weight="400"><tspan class="TextPosition" x="1239" y="3752"><tspan fill="rgb(0,0,0)" stroke="none">2,67%</tspan></tspan></tspan></text>
 <text class="TextShape"><tspan class="TextParagraph" font-family="Arial, sans-serif" font-size="353px" font-weight="400"><tspan class="TextPosition" x="1239" y="2544"><tspan fill="rgb(0,0,0)" stroke="none">3,00%</tspan></tspan></tspan></text>
 <text class="TextShape"><tspan class="TextParagraph" font-family="Arial, sans-serif" font-size="353px" font-weight="400"><tspan class="TextPosition" x="1239" y="1337"><tspan fill="rgb(0,0,0)" stroke="none">3,33%</tspan></tspan></tspan></text>
 <text class="TextShape"><tspan class="TextParagraph" font-family="Arial, sans-serif" font-size="459px" font-weight="400"><tspan class="TextPosition" x="7626" y="1021"><tspan fill="rgb(0,0,0)" stroke="none">Active cases per population/ Aktív esetek száma a lakosság %-ában 2021.03.14.</tspan></tspan></tspan></text>
 <path fill="rgb(0,69,134)" stroke="none" d="M 9856,1853 L 9465,1853 9465,1642 10248,1642 10248,1853 9856,1853 Z"/>
 <path fill="none" stroke="rgb(0,69,134)" stroke-linejoin="round" d="M 14950,1747 L 15733,1747"/>
 <text class="TextShape"><tspan class="TextParagraph" font-family="Arial, sans-serif" font-size="353px" font-weight="400"><tspan class="TextPosition" x="10346" y="1867"><tspan fill="rgb(0,0,0)" stroke="none">Active real cases percentage</tspan></tspan></tspan></text>
 <text class="TextShape"><tspan class="TextParagraph" font-family="Arial, sans-serif" font-size="353px" font-weight="400"><tspan class="TextPosition" x="15831" y="1867"><tspan fill="rgb(0,0,0)" stroke="none">Közép (Active real cases percentage)</tspan></tspan></tspan></text>
</svg>