<?xml version="1.0" encoding="UTF-8"?>
<!DOCTYPE svg PUBLIC "-//W3C//DTD SVG 1.1//EN" "http://www.w3.org/Graphics/SVG/1.1/DTD/svg11.dtd">
<svg width="303mm" height="170mm" viewBox="0 0 30300 17000" version="1.1" xmlns="http://www.w3.org/2000/svg" xmlns:xlink="http://www.w3.org/1999/xlink" stroke-width="28.222" stroke-linejoin="round" xml:space="preserve">
 <path fill="rgb(255,255,255)" stroke="none" d="M 15150,17000 L 0,17000 0,10 30300,10 30300,17000 15150,17000 Z"/>
 <path fill="none" stroke="rgb(179,179,179)" stroke-linejoin="round" d="M 15764,13294 L 1836,13294 1836,10 29693,10 29693,13294 15764,13294 Z"/>
 <path fill="none" stroke="rgb(179,179,179)" stroke-width="18" stroke-linejoin="round" d="M 29693,13293 L 1836,13293"/>
 <path fill="none" stroke="rgb(179,179,179)" stroke-width="18" stroke-linejoin="round" d="M 29693,12085 L 1836,12085"/>
 <path fill="none" stroke="rgb(179,179,179)" stroke-width="18" stroke-linejoin="round" d="M 29693,10878 L 1836,10878"/>
 <path fill="none" stroke="rgb(179,179,179)" stroke-width="18" stroke-linejoin="round" d="M 29693,9670 L 1836,9670"/>
 <path fill="none" stroke="rgb(179,179,179)" stroke-width="18" stroke-linejoin="round" d="M 29693,8463 L 1836,8463"/>
 <path fill="none" stroke="rgb(179,179,179)" stroke-width="18" stroke-linejoin="round" d="M 29693,7254 L 1836,7254"/>
 <path fill="none" stroke="rgb(179,179,179)" stroke-width="18" stroke-linejoin="round" d="M 29693,6047 L 1836,6047"/>
 <path fill="none" stroke="rgb(179,179,179)" stroke-width="18" stroke-linejoin="round" d="M 29693,4839 L 1836,4839"/>
 <path fill="none" stroke="rgb(179,179,179)" stroke-width="18" stroke-linejoin="round" d="M 29693,3632 L 1836,3632"/>
 <path fill="none" stroke="rgb(179,179,179)" stroke-width="18" stroke-linejoin="round" d="M 29693,2423 L 1836,2423"/>
 <path fill="none" stroke="rgb(179,179,179)" stroke-width="18" stroke-linejoin="round" d="M 29693,1216 L 1836,1216"/>
 <path fill="none" stroke="rgb(179,179,179)" stroke-width="18" stroke-linejoin="round" d="M 1836,13443 L 1836,13293"/>
 <path fill="none" stroke="rgb(179,179,179)" stroke-width="18" stroke-linejoin="round" d="M 2404,13443 L 2404,13293"/>
 <path fill="none" stroke="rgb(179,179,179)" stroke-width="18" stroke-linejoin="round" d="M 2973,13443 L 2973,13293"/>
 <path fill="none" stroke="rgb(179,179,179)" stroke-width="18" stroke-linejoin="round" d="M 3541,13443 L 3541,13293"/>
 <path fill="none" stroke="rgb(179,179,179)" stroke-width="18" stroke-linejoin="round" d="M 4110,13443 L 4110,13293"/>
 <path fill="none" stroke="rgb(179,179,179)" stroke-width="18" stroke-linejoin="round" d="M 4678,13443 L 4678,13293"/>
 <path fill="none" stroke="rgb(179,179,179)" stroke-width="18" stroke-linejoin="round" d="M 5247,13443 L 5247,13293"/>
 <path fill="none" stroke="rgb(179,179,179)" stroke-width="18" stroke-linejoin="round" d="M 5815,13443 L 5815,13293"/>
 <path fill="none" stroke="rgb(179,179,179)" stroke-width="18" stroke-linejoin="round" d="M 6384,13443 L 6384,13293"/>
 <path fill="none" stroke="rgb(179,179,179)" stroke-width="18" stroke-linejoin="round" d="M 6952,13443 L 6952,13293"/>
 <path fill="none" stroke="rgb(179,179,179)" stroke-width="18" stroke-linejoin="round" d="M 7521,13443 L 7521,13293"/>
 <path fill="none" stroke="rgb(179,179,179)" stroke-width="18" stroke-linejoin="round" d="M 8089,13443 L 8089,13293"/>
 <path fill="none" stroke="rgb(179,179,179)" stroke-width="18" stroke-linejoin="round" d="M 8658,13443 L 8658,13293"/>
 <path fill="none" stroke="rgb(179,179,179)" stroke-width="18" stroke-linejoin="round" d="M 9226,13443 L 9226,13293"/>
 <path fill="none" stroke="rgb(179,179,179)" stroke-width="18" stroke-linejoin="round" d="M 9795,13443 L 9795,13293"/>
 <path fill="none" stroke="rgb(179,179,179)" stroke-width="18" stroke-linejoin="round" d="M 10363,13443 L 10363,13293"/>
 <path fill="none" stroke="rgb(179,179,179)" stroke-width="18" stroke-linejoin="round" d="M 10932,13443 L 10932,13293"/>
 <path fill="none" stroke="rgb(179,179,179)" stroke-width="18" stroke-linejoin="round" d="M 11501,13443 L 11501,13293"/>
 <path fill="none" stroke="rgb(179,179,179)" stroke-width="18" stroke-linejoin="round" d="M 12069,13443 L 12069,13293"/>
 <path fill="none" stroke="rgb(179,179,179)" stroke-width="18" stroke-linejoin="round" d="M 12638,13443 L 12638,13293"/>
 <path fill="none" stroke="rgb(179,179,179)" stroke-width="18" stroke-linejoin="round" d="M 13206,13443 L 13206,13293"/>
 <path fill="none" stroke="rgb(179,179,179)" stroke-width="18" stroke-linejoin="round" d="M 13775,13443 L 13775,13293"/>
 <path fill="none" stroke="rgb(179,179,179)" stroke-width="18" stroke-linejoin="round" d="M 14343,13443 L 14343,13293"/>
 <path fill="none" stroke="rgb(179,179,179)" stroke-width="18" stroke-linejoin="round" d="M 14912,13443 L 14912,13293"/>
 <path fill="none" stroke="rgb(179,179,179)" stroke-width="18" stroke-linejoin="round" d="M 15479,13443 L 15479,13293"/>
 <path fill="none" stroke="rgb(179,179,179)" stroke-width="18" stroke-linejoin="round" d="M 16048,13443 L 16048,13293"/>
 <path fill="none" stroke="rgb(179,179,179)" stroke-width="18" stroke-linejoin="round" d="M 16616,13443 L 16616,13293"/>
 <path fill="none" stroke="rgb(179,179,179)" stroke-width="18" stroke-linejoin="round" d="M 17185,13443 L 17185,13293"/>
 <path fill="none" stroke="rgb(179,179,179)" stroke-width="18" stroke-linejoin="round" d="M 17753,13443 L 17753,13293"/>
 <path fill="none" stroke="rgb(179,179,179)" stroke-width="18" stroke-linejoin="round" d="M 18322,13443 L 18322,13293"/>
 <path fill="none" stroke="rgb(179,179,179)" stroke-width="18" stroke-linejoin="round" d="M 18890,13443 L 18890,13293"/>
 <path fill="none" stroke="rgb(179,179,179)" stroke-width="18" stroke-linejoin="round" d="M 19459,13443 L 19459,13293"/>
 <path fill="none" stroke="rgb(179,179,179)" stroke-width="18" stroke-linejoin="round" d="M 20027,13443 L 20027,13293"/>
 <path fill="none" stroke="rgb(179,179,179)" stroke-width="18" stroke-linejoin="round" d="M 20596,13443 L 20596,13293"/>
 <path fill="none" stroke="rgb(179,179,179)" stroke-width="18" stroke-linejoin="round" d="M 21165,13443 L 21165,13293"/>
 <path fill="none" stroke="rgb(179,179,179)" stroke-width="18" stroke-linejoin="round" d="M 21733,13443 L 21733,13293"/>
 <path fill="none" stroke="rgb(179,179,179)" stroke-width="18" stroke-linejoin="round" d="M 22302,13443 L 22302,13293"/>
 <path fill="none" stroke="rgb(179,179,179)" stroke-width="18" stroke-linejoin="round" d="M 22870,13443 L 22870,13293"/>
 <path fill="none" stroke="rgb(179,179,179)" stroke-width="18" stroke-linejoin="round" d="M 23439,13443 L 23439,13293"/>
 <path fill="none" stroke="rgb(179,179,179)" stroke-width="18" stroke-linejoin="round" d="M 24007,13443 L 24007,13293"/>
 <path fill="none" stroke="rgb(179,179,179)" stroke-width="18" stroke-linejoin="round" d="M 24576,13443 L 24576,13293"/>
 <path fill="none" stroke="rgb(179,179,179)" stroke-width="18" stroke-linejoin="round" d="M 25144,13443 L 25144,13293"/>
 <path fill="none" stroke="rgb(179,179,179)" stroke-width="18" stroke-linejoin="round" d="M 25713,13443 L 25713,13293"/>
 <path fill="none" stroke="rgb(179,179,179)" stroke-width="18" stroke-linejoin="round" d="M 26281,13443 L 26281,13293"/>
 <path fill="none" stroke="rgb(179,179,179)" stroke-width="18" stroke-linejoin="round" d="M 26850,13443 L 26850,13293"/>
 <path fill="none" stroke="rgb(179,179,179)" stroke-width="18" stroke-linejoin="round" d="M 27418,13443 L 27418,13293"/>
 <path fill="none" stroke="rgb(179,179,179)" stroke-width="18" stroke-linejoin="round" d="M 27987,13443 L 27987,13293"/>
 <path fill="none" stroke="rgb(179,179,179)" stroke-width="18" stroke-linejoin="round" d="M 28555,13443 L 28555,13293"/>
 <path fill="none" stroke="rgb(179,179,179)" stroke-width="18" stroke-linejoin="round" d="M 29124,13443 L 29124,13293"/>
 <path fill="none" stroke="rgb(179,179,179)" stroke-width="18" stroke-linejoin="round" d="M 29692,13443 L 29692,13293"/>
 <path fill="none" stroke="rgb(179,179,179)" stroke-width="18" stroke-linejoin="round" d="M 1836,13293 L 29693,13293"/>
 <path fill="none" stroke="rgb(179,179,179)" stroke-width="18" stroke-linejoin="round" d="M 1686,13293 L 1836,13293"/>
 <path fill="none" stroke="rgb(179,179,179)" stroke-width="18" stroke-linejoin="round" d="M 1686,12085 L 1836,12085"/>
 <path fill="none" stroke="rgb(179,179,179)" stroke-width="18" stroke-linejoin="round" d="M 1686,10878 L 1836,10878"/>
 <path fill="none" stroke="rgb(179,179,179)" stroke-width="18" stroke-linejoin="round" d="M 1686,9670 L 1836,9670"/>
 <path fill="none" stroke="rgb(179,179,179)" stroke-width="18" stroke-linejoin="round" d="M 1686,8463 L 1836,8463"/>
 <path fill="none" stroke="rgb(179,179,179)" stroke-width="18" stroke-linejoin="round" d="M 1686,7254 L 1836,7254"/>
 <path fill="none" stroke="rgb(179,179,179)" stroke-width="18" stroke-linejoin="round" d="M 1686,6047 L 1836,6047"/>
 <path fill="none" stroke="rgb(179,179,179)" stroke-width="18" stroke-linejoin="round" d="M 1686,4839 L 1836,4839"/>
 <path fill="none" stroke="rgb(179,179,179)" stroke-width="18" stroke-linejoin="round" d="M 1686,3632 L 1836,3632"/>
 <path fill="none" stroke="rgb(179,179,179)" stroke-width="18" stroke-linejoin="round" d="M 1686,2423 L 1836,2423"/>
 <path fill="none" stroke="rgb(179,179,179)" stroke-width="18" stroke-linejoin="round" d="M 1686,1216 L 1836,1216"/>
 <path fill="none" stroke="rgb(179,179,179)" stroke-width="18" stroke-linejoin="round" d="M 1836,13293 L 1836,9"/>
 <path fill="rgb(0,255,0)" stroke="none" d="M 29266,13293 L 29550,13293 29550,13292 29266,13292 29266,13293 Z"/>
 <path fill="rgb(255,0,0)" stroke="none" d="M 28698,13293 L 28982,13293 28982,11485 28698,11485 28698,13293 Z"/>
 <path fill="rgb(255,0,0)" stroke="none" d="M 28129,13293 L 28413,13293 28413,9726 28129,9726 28129,13293 Z"/>
 <path fill="rgb(255,0,0)" stroke="none" d="M 27561,13293 L 27845,13293 27845,9626 27561,9626 27561,13293 Z"/>
 <path fill="rgb(255,0,0)" stroke="none" d="M 26992,13293 L 27276,13293 27276,9148 26992,9148 26992,13293 Z"/>
 <path fill="rgb(255,0,0)" stroke="none" d="M 26423,13293 L 26708,13293 26708,8296 26423,8296 26423,13293 Z"/>
 <path fill="rgb(255,0,0)" stroke="none" d="M 25855,13293 L 26139,13293 26139,8129 25855,8129 25855,13293 Z"/>
 <path fill="rgb(255,0,0)" stroke="none" d="M 25286,13293 L 25571,13293 25571,8010 25286,8010 25286,13293 Z"/>
 <path fill="rgb(255,0,0)" stroke="none" d="M 24718,13293 L 25002,13293 25002,7803 24718,7803 24718,13293 Z"/>
 <path fill="rgb(255,0,0)" stroke="none" d="M 24149,13293 L 24434,13293 24434,7465 24149,7465 24149,13293 Z"/>
 <path fill="rgb(255,0,0)" stroke="none" d="M 23581,13293 L 23865,13293 23865,7013 23581,7013 23581,13293 Z"/>
 <path fill="rgb(255,0,0)" stroke="none" d="M 23012,13293 L 23297,13293 23297,6460 23012,6460 23012,13293 Z"/>
 <path fill="rgb(255,0,0)" stroke="none" d="M 22444,13293 L 22728,13293 22728,5763 22444,5763 22444,13293 Z"/>
 <path fill="rgb(255,0,0)" stroke="none" d="M 21875,13293 L 22159,13293 22159,4623 21875,4623 21875,13293 Z"/>
 <path fill="rgb(255,0,0)" stroke="none" d="M 21307,13293 L 21591,13293 21591,4233 21307,4233 21307,13293 Z"/>
 <path fill="rgb(255,0,0)" stroke="none" d="M 20738,13293 L 21022,13293 21022,2253 20738,2253 20738,13293 Z"/>
 <path fill="rgb(255,0,0)" stroke="none" d="M 20170,13293 L 20454,13293 20454,392 20170,392 20170,13293 Z"/>
 <path fill="rgb(255,0,0)" stroke="none" d="M 19601,13293 L 19885,13293 19885,9 19601,9 19601,13293 Z"/>
 <path fill="rgb(255,0,0)" stroke="none" d="M 19033,13293 L 19317,13293 19317,9 19033,9 19033,13293 Z"/>
 <path fill="rgb(255,0,0)" stroke="none" d="M 18464,13293 L 18748,13293 18748,9 18464,9 18464,13293 Z"/>
 <path fill="rgb(255,0,0)" stroke="none" d="M 17895,13293 L 18180,13293 18180,9 17895,9 17895,13293 Z"/>
 <path fill="rgb(255,0,0)" stroke="none" d="M 17327,13293 L 17611,13293 17611,9 17327,9 17327,13293 Z"/>
 <path fill="rgb(255,0,0)" stroke="none" d="M 16758,13293 L 17043,13293 17043,9 16758,9 16758,13293 Z"/>
 <path fill="rgb(154,0,126)" stroke="none" d="M 16190,13293 L 16474,13293 16474,9 16190,9 16190,13293 Z"/>
 <path fill="rgb(255,0,0)" stroke="none" d="M 15621,13293 L 15906,13293 15906,9 15621,9 15621,13293 Z"/>
 <path fill="rgb(255,0,0)" stroke="none" d="M 15054,13293 L 15337,13293 15337,9 15054,9 15054,13293 Z"/>
 <path fill="rgb(255,0,0)" stroke="none" d="M 14485,13293 L 14770,13293 14770,9 14485,9 14485,13293 Z"/>
 <path fill="rgb(255,0,0)" stroke="none" d="M 13917,13293 L 14201,13293 14201,9 13917,9 13917,13293 Z"/>
 <path fill="rgb(255,0,0)" stroke="none" d="M 13348,13293 L 13633,13293 13633,9 13348,9 13348,13293 Z"/>
 <path fill="rgb(255,0,0)" stroke="none" d="M 12780,13293 L 13064,13293 13064,9 12780,9 12780,13293 Z"/>
 <path fill="rgb(255,0,0)" stroke="none" d="M 12211,13293 L 12495,13293 12495,9 12211,9 12211,13293 Z"/>
 <path fill="rgb(255,0,0)" stroke="none" d="M 11643,13293 L 11927,13293 11927,9 11643,9 11643,13293 Z"/>
 <path fill="rgb(255,0,0)" stroke="none" d="M 11074,13293 L 11358,13293 11358,9 11074,9 11074,13293 Z"/>
 <path fill="rgb(255,0,0)" stroke="none" d="M 10506,13293 L 10790,13293 10790,9 10506,9 10506,13293 Z"/>
 <path fill="rgb(255,0,0)" stroke="none" d="M 9937,13293 L 10221,13293 10221,9 9937,9 9937,13293 Z"/>
 <path fill="rgb(255,0,0)" stroke="none" d="M 9369,13293 L 9653,13293 9653,9 9369,9 9369,13293 Z"/>
 <path fill="rgb(255,0,0)" stroke="none" d="M 8800,13293 L 9084,13293 9084,9 8800,9 8800,13293 Z"/>
 <path fill="rgb(255,0,0)" stroke="none" d="M 8231,13293 L 8516,13293 8516,9 8231,9 8231,13293 Z"/>
 <path fill="rgb(255,0,0)" stroke="none" d="M 7663,13293 L 7947,13293 7947,9 7663,9 7663,13293 Z"/>
 <path fill="rgb(255,0,0)" stroke="none" d="M 7094,13293 L 7379,13293 7379,9 7094,9 7094,13293 Z"/>
 <path fill="rgb(255,0,0)" stroke="none" d="M 6526,13293 L 6810,13293 6810,9 6526,9 6526,13293 Z"/>
 <path fill="rgb(255,0,0)" stroke="none" d="M 5957,13293 L 6242,13293 6242,9 5957,9 5957,13293 Z"/>
 <path fill="rgb(255,0,0)" stroke="none" d="M 5389,13293 L 5673,13293 5673,9 5389,9 5389,13293 Z"/>
 <path fill="rgb(255,0,0)" stroke="none" d="M 4820,13293 L 5105,13293 5105,9 4820,9 4820,13293 Z"/>
 <path fill="rgb(255,0,0)" stroke="none" d="M 4252,13293 L 4536,13293 4536,9 4252,9 4252,13293 Z"/>
 <path fill="rgb(255,0,0)" stroke="none" d="M 3683,13293 L 3967,13293 3967,9 3683,9 3683,13293 Z"/>
 <path fill="rgb(255,0,0)" stroke="none" d="M 3115,13293 L 3399,13293 3399,9 3115,9 3115,13293 Z"/>
 <path fill="rgb(255,0,0)" stroke="none" d="M 2546,13293 L 2830,13293 2830,9 2546,9 2546,13293 Z"/>
 <path fill="rgb(255,0,0)" stroke="none" d="M 1978,13293 L 2262,13293 2262,9 1978,9 1978,13293 Z"/>
 <text class="TextShape" transform="rotate(-59.9 1641 14709)"><tspan class="TextParagraph" font-family="Arial, sans-serif" font-size="353px" font-weight="400"><tspan class="TextPosition" x="1641" y="14709"><tspan fill="rgb(0,0,0)" stroke="none">Belarus</tspan></tspan></tspan></text>
 <text class="TextShape" transform="rotate(-59.9 2261 14617)"><tspan class="TextParagraph" font-family="Arial, sans-serif" font-size="353px" font-weight="400"><tspan class="TextPosition" x="2261" y="14617"><tspan fill="rgb(0,0,0)" stroke="none">Russia</tspan></tspan></tspan></text>
 <text class="TextShape" transform="rotate(-59.9 2552 15099)"><tspan class="TextParagraph" font-family="Arial, sans-serif" font-size="353px" font-weight="400"><tspan class="TextPosition" x="2552" y="15099"><tspan fill="rgb(0,0,0)" stroke="none">Azerbaijan</tspan></tspan></tspan></text>
 <text class="TextShape" transform="rotate(-59.9 3266 14847)"><tspan class="TextParagraph" font-family="Arial, sans-serif" font-size="353px" font-weight="400"><tspan class="TextPosition" x="3266" y="14847"><tspan fill="rgb(0,0,0)" stroke="none">Slovakia</tspan></tspan></tspan></text>
 <text class="TextShape" transform="rotate(-59.9 3901 14733)"><tspan class="TextParagraph" font-family="Arial, sans-serif" font-size="353px" font-weight="400"><tspan class="TextPosition" x="3901" y="14733"><tspan fill="rgb(0,0,0)" stroke="none">Georgia</tspan></tspan></tspan></text>
 <text class="TextShape" transform="rotate(-59.9 4389 14871)"><tspan class="TextParagraph" font-family="Arial, sans-serif" font-size="353px" font-weight="400"><tspan class="TextPosition" x="4389" y="14871"><tspan fill="rgb(0,0,0)" stroke="none">S. Korea</tspan></tspan></tspan></text>
 <text class="TextShape" transform="rotate(-59.9 5169 14503)"><tspan class="TextParagraph" font-family="Arial, sans-serif" font-size="353px" font-weight="400"><tspan class="TextPosition" x="5169" y="14503"><tspan fill="rgb(0,0,0)" stroke="none">Latvia</tspan></tspan></tspan></text>
 <text class="TextShape" transform="rotate(-59.9 5671 14617)"><tspan class="TextParagraph" font-family="Arial, sans-serif" font-size="353px" font-weight="400"><tspan class="TextPosition" x="5671" y="14617"><tspan fill="rgb(0,0,0)" stroke="none">Poland</tspan></tspan></tspan></text>
 <text class="TextShape" transform="rotate(-59.9 5472 15946)"><tspan class="TextParagraph" font-family="Arial, sans-serif" font-size="353px" font-weight="400"><tspan class="TextPosition" x="5472" y="15946"><tspan fill="rgb(0,0,0)" stroke="none">North Macedonia</tspan></tspan></tspan></text>
 <text class="TextShape" transform="rotate(-59.9 6849 14549)"><tspan class="TextParagraph" font-family="Arial, sans-serif" font-size="353px" font-weight="400"><tspan class="TextPosition" x="6849" y="14549"><tspan fill="rgb(0,0,0)" stroke="none">Serbia</tspan></tspan></tspan></text>
 <text class="TextShape" transform="rotate(-59.9 7285 14779)"><tspan class="TextParagraph" font-family="Arial, sans-serif" font-size="353px" font-weight="400"><tspan class="TextPosition" x="7285" y="14779"><tspan fill="rgb(0,0,0)" stroke="none">Bulgaria</tspan></tspan></tspan></text>
 <text class="TextShape" transform="rotate(-59.9 7894 14709)"><tspan class="TextParagraph" font-family="Arial, sans-serif" font-size="353px" font-weight="400"><tspan class="TextPosition" x="7894" y="14709"><tspan fill="rgb(0,0,0)" stroke="none">Ukraine</tspan></tspan></tspan></text>
 <text class="TextShape" transform="rotate(-59.9 8356 14893)"><tspan class="TextParagraph" font-family="Arial, sans-serif" font-size="353px" font-weight="400"><tspan class="TextPosition" x="8356" y="14893"><tspan fill="rgb(0,0,0)" stroke="none">Denmark</tspan></tspan></tspan></text>
 <text class="TextShape" transform="rotate(-59.9 8977 14801)"><tspan class="TextParagraph" font-family="Arial, sans-serif" font-size="353px" font-weight="400"><tspan class="TextPosition" x="8977" y="14801"><tspan fill="rgb(0,0,0)" stroke="none">Armenia</tspan></tspan></tspan></text>
 <text class="TextShape" transform="rotate(-59.9 9493 14893)"><tspan class="TextParagraph" font-family="Arial, sans-serif" font-size="353px" font-weight="400"><tspan class="TextPosition" x="9493" y="14893"><tspan fill="rgb(0,0,0)" stroke="none">Lithuania</tspan></tspan></tspan></text>
 <text class="TextShape" transform="rotate(-59.9 10194 14664)"><tspan class="TextParagraph" font-family="Arial, sans-serif" font-size="353px" font-weight="400"><tspan class="TextPosition" x="10194" y="14664"><tspan fill="rgb(0,0,0)" stroke="none">Iceland</tspan></tspan></tspan></text>
 <text class="TextShape" transform="rotate(-59.9 10736 14709)"><tspan class="TextParagraph" font-family="Arial, sans-serif" font-size="353px" font-weight="400"><tspan class="TextPosition" x="10736" y="14709"><tspan fill="rgb(0,0,0)" stroke="none">Estonia</tspan></tspan></tspan></text>
 <text class="TextShape" transform="rotate(-59.9 11239 14824)"><tspan class="TextParagraph" font-family="Arial, sans-serif" font-size="353px" font-weight="400"><tspan class="TextPosition" x="11239" y="14824"><tspan fill="rgb(0,0,0)" stroke="none">Moldova</tspan></tspan></tspan></text>
 <text class="TextShape" transform="rotate(-59.9 11911 14641)"><tspan class="TextParagraph" font-family="Arial, sans-serif" font-size="353px" font-weight="400"><tspan class="TextPosition" x="11911" y="14641"><tspan fill="rgb(0,0,0)" stroke="none">Cyprus</tspan></tspan></tspan></text>
 <text class="TextShape" transform="rotate(-59.9 12468 14664)"><tspan class="TextParagraph" font-family="Arial, sans-serif" font-size="353px" font-weight="400"><tspan class="TextPosition" x="12468" y="14664"><tspan fill="rgb(0,0,0)" stroke="none">Greece</tspan></tspan></tspan></text>
 <text class="TextShape" transform="rotate(-59.9 13062 14617)"><tspan class="TextParagraph" font-family="Arial, sans-serif" font-size="353px" font-weight="400"><tspan class="TextPosition" x="13062" y="14617"><tspan fill="rgb(0,0,0)" stroke="none">Turkey</tspan></tspan></tspan></text>
 <text class="TextShape" transform="rotate(-59.9 13485 14871)"><tspan class="TextParagraph" font-family="Arial, sans-serif" font-size="353px" font-weight="400"><tspan class="TextPosition" x="13485" y="14871"><tspan fill="rgb(0,0,0)" stroke="none">Romania</tspan></tspan></tspan></text>
 <text class="TextShape" transform="rotate(-59.9 12863 16932)"><tspan class="TextParagraph" font-family="Arial, sans-serif" font-size="353px" font-weight="400"><tspan class="TextPosition" x="12863" y="16932"><tspan fill="rgb(0,0,0)" stroke="none">Bosnia and Herzegovina</tspan></tspan></tspan></text>
 <text class="TextShape" transform="rotate(-59.9 14742 14664)"><tspan class="TextParagraph" font-family="Arial, sans-serif" font-size="353px" font-weight="400"><tspan class="TextPosition" x="14742" y="14664"><tspan fill="rgb(0,0,0)" stroke="none">Finland</tspan></tspan></tspan></text>
 <text class="TextShape" transform="rotate(-59.9 14952 15283)"><tspan class="TextParagraph" font-family="Arial, sans-serif" font-size="353px" font-weight="400"><tspan class="TextPosition" x="14952" y="15283"><tspan fill="rgb(0,0,0)" stroke="none">Netherlands</tspan></tspan></tspan></text>
 <text class="TextShape" transform="rotate(-59.9 15799 14801)"><tspan class="TextParagraph" font-family="Arial, sans-serif" font-size="353px" font-weight="400"><tspan class="TextPosition" x="15799" y="14801"><tspan fill="rgb(0,0,0)" stroke="none">Hungary</tspan></tspan></tspan></text>
 <text class="TextShape" transform="rotate(-59.9 16460 14641)"><tspan class="TextParagraph" font-family="Arial, sans-serif" font-size="353px" font-weight="400"><tspan class="TextPosition" x="16460" y="14641"><tspan fill="rgb(0,0,0)" stroke="none">Croatia</tspan></tspan></tspan></text>
 <text class="TextShape" transform="rotate(-59.9 16950 14779)"><tspan class="TextParagraph" font-family="Arial, sans-serif" font-size="353px" font-weight="400"><tspan class="TextPosition" x="16950" y="14779"><tspan fill="rgb(0,0,0)" stroke="none">Czechia</tspan></tspan></tspan></text>
 <text class="TextShape" transform="rotate(-59.9 17439 14915)"><tspan class="TextParagraph" font-family="Arial, sans-serif" font-size="353px" font-weight="400"><tspan class="TextPosition" x="17439" y="14915"><tspan fill="rgb(0,0,0)" stroke="none">Germany</tspan></tspan></tspan></text>
 <text class="TextShape" transform="rotate(-59.9 18165 14641)"><tspan class="TextParagraph" font-family="Arial, sans-serif" font-size="353px" font-weight="400"><tspan class="TextPosition" x="18165" y="14641"><tspan fill="rgb(0,0,0)" stroke="none">Austria</tspan></tspan></tspan></text>
 <text class="TextShape" transform="rotate(-59.9 18616 14847)"><tspan class="TextParagraph" font-family="Arial, sans-serif" font-size="353px" font-weight="400"><tspan class="TextPosition" x="18616" y="14847"><tspan fill="rgb(0,0,0)" stroke="none">Slovenia</tspan></tspan></tspan></text>
 <text class="TextShape" transform="rotate(-59.9 19276 14687)"><tspan class="TextParagraph" font-family="Arial, sans-serif" font-size="353px" font-weight="400"><tspan class="TextPosition" x="19276" y="14687"><tspan fill="rgb(0,0,0)" stroke="none">Norway</tspan></tspan></tspan></text>
 <text class="TextShape" transform="rotate(-59.9 19991 14435)"><tspan class="TextParagraph" font-family="Arial, sans-serif" font-size="353px" font-weight="400"><tspan class="TextPosition" x="19991" y="14435"><tspan fill="rgb(0,0,0)" stroke="none">Israel</tspan></tspan></tspan></text>
 <text class="TextShape" transform="rotate(-59.9 20095 15237)"><tspan class="TextParagraph" font-family="Arial, sans-serif" font-size="353px" font-weight="400"><tspan class="TextPosition" x="20095" y="15237"><tspan fill="rgb(0,0,0)" stroke="none">Switzerland</tspan></tspan></tspan></text>
 <text class="TextShape" transform="rotate(-59.9 20652 15259)"><tspan class="TextParagraph" font-family="Arial, sans-serif" font-size="353px" font-weight="400"><tspan class="TextPosition" x="20652" y="15259"><tspan fill="rgb(0,0,0)" stroke="none">Montenegro</tspan></tspan></tspan></text>
 <text class="TextShape" transform="rotate(-59.9 21484 14801)"><tspan class="TextParagraph" font-family="Arial, sans-serif" font-size="353px" font-weight="400"><tspan class="TextPosition" x="21484" y="14801"><tspan fill="rgb(0,0,0)" stroke="none">Portugal</tspan></tspan></tspan></text>
 <text class="TextShape" transform="rotate(-59.9 22159 14617)"><tspan class="TextParagraph" font-family="Arial, sans-serif" font-size="353px" font-weight="400"><tspan class="TextPosition" x="22159" y="14617"><tspan fill="rgb(0,0,0)" stroke="none">France</tspan></tspan></tspan></text>
 <text class="TextShape" transform="rotate(-59.9 22925 14275)"><tspan class="TextParagraph" font-family="Arial, sans-serif" font-size="353px" font-weight="400"><tspan class="TextPosition" x="22925" y="14275"><tspan fill="rgb(0,0,0)" stroke="none">Italy</tspan></tspan></tspan></text>
 <text class="TextShape" transform="rotate(-59.9 23256 14687)"><tspan class="TextParagraph" font-family="Arial, sans-serif" font-size="353px" font-weight="400"><tspan class="TextPosition" x="23256" y="14687"><tspan fill="rgb(0,0,0)" stroke="none">Albania</tspan></tspan></tspan></text>
 <text class="TextShape" transform="rotate(-59.9 24036 14320)"><tspan class="TextParagraph" font-family="Arial, sans-serif" font-size="353px" font-weight="400"><tspan class="TextPosition" x="24036" y="14320"><tspan fill="rgb(0,0,0)" stroke="none">USA</tspan></tspan></tspan></text>
 <text class="TextShape" transform="rotate(-59.9 24341 14779)"><tspan class="TextParagraph" font-family="Arial, sans-serif" font-size="353px" font-weight="400"><tspan class="TextPosition" x="24341" y="14779"><tspan fill="rgb(0,0,0)" stroke="none">Belgium</tspan></tspan></tspan></text>
 <text class="TextShape" transform="rotate(-59.9 25108 14435)"><tspan class="TextParagraph" font-family="Arial, sans-serif" font-size="353px" font-weight="400"><tspan class="TextPosition" x="25108" y="14435"><tspan fill="rgb(0,0,0)" stroke="none">Malta</tspan></tspan></tspan></text>
 <text class="TextShape" transform="rotate(-59.9 25636 14503)"><tspan class="TextParagraph" font-family="Arial, sans-serif" font-size="353px" font-weight="400"><tspan class="TextPosition" x="25636" y="14503"><tspan fill="rgb(0,0,0)" stroke="none">Japan</tspan></tspan></tspan></text>
 <text class="TextShape" transform="rotate(-59.9 25729 15329)"><tspan class="TextParagraph" font-family="Arial, sans-serif" font-size="353px" font-weight="400"><tspan class="TextPosition" x="25729" y="15329"><tspan fill="rgb(0,0,0)" stroke="none">Luxembourg</tspan></tspan></tspan></text>
 <text class="TextShape" transform="rotate(-59.9 26799 14457)"><tspan class="TextParagraph" font-family="Arial, sans-serif" font-size="353px" font-weight="400"><tspan class="TextPosition" x="26799" y="14457"><tspan fill="rgb(0,0,0)" stroke="none">Spain</tspan></tspan></tspan></text>
 <text class="TextShape" transform="rotate(-59.9 27568 14113)"><tspan class="TextParagraph" font-family="Arial, sans-serif" font-size="353px" font-weight="400"><tspan class="TextPosition" x="27568" y="14113"><tspan fill="rgb(0,0,0)" stroke="none">UK</tspan></tspan></tspan></text>
 <text class="TextShape" transform="rotate(-59.9 27858 14595)"><tspan class="TextParagraph" font-family="Arial, sans-serif" font-size="353px" font-weight="400"><tspan class="TextPosition" x="27858" y="14595"><tspan fill="rgb(0,0,0)" stroke="none">Ireland</tspan></tspan></tspan></text>
 <text class="TextShape" transform="rotate(-59.9 28333 14755)"><tspan class="TextParagraph" font-family="Arial, sans-serif" font-size="353px" font-weight="400"><tspan class="TextPosition" x="28333" y="14755"><tspan fill="rgb(0,0,0)" stroke="none">Sweden</tspan></tspan></tspan></text>
 <text class="TextShape" transform="rotate(-59.9 29073 14457)"><tspan class="TextParagraph" font-family="Arial, sans-serif" font-size="353px" font-weight="400"><tspan class="TextPosition" x="29073" y="14457"><tspan fill="rgb(0,0,0)" stroke="none">China</tspan></tspan></tspan></text>
 <text class="TextShape"><tspan class="TextParagraph" font-family="Arial, sans-serif" font-size="353px" font-weight="400"><tspan class="TextPosition" x="607" y="13414"><tspan fill="rgb(0,0,0)" stroke="none">0,00%</tspan></tspan></tspan></text>
 <text class="TextShape"><tspan class="TextParagraph" font-family="Arial, sans-serif" font-size="353px" font-weight="400"><tspan class="TextPosition" x="607" y="12206"><tspan fill="rgb(0,0,0)" stroke="none">0,33%</tspan></tspan></tspan></text>
 <text class="TextShape"><tspan class="TextParagraph" font-family="Arial, sans-serif" font-size="353px" font-weight="400"><tspan class="TextPosition" x="607" y="10998"><tspan fill="rgb(0,0,0)" stroke="none">0,67%</tspan></tspan></tspan></text>
 <text class="TextShape"><tspan class="TextParagraph" font-family="Arial, sans-serif" font-size="353px" font-weight="400"><tspan class="TextPosition" x="607" y="9790"><tspan fill="rgb(0,0,0)" stroke="none">1,00%</tspan></tspan></tspan></text>
 <text class="TextShape"><tspan class="TextParagraph" font-family="Arial, sans-serif" font-size="353px" font-weight="400"><tspan class="TextPosition" x="607" y="8583"><tspan fill="rgb(0,0,0)" stroke="none">1,33%</tspan></tspan></tspan></text>
 <text class="TextShape"><tspan class="TextParagraph" font-family="Arial, sans-serif" font-size="353px" font-weight="400"><tspan class="TextPosition" x="607" y="7375"><tspan fill="rgb(0,0,0)" stroke="none">1,67%</tspan></tspan></tspan></text>
 <text class="TextShape"><tspan class="TextParagraph" font-family="Arial, sans-serif" font-size="353px" font-weight="400"><tspan class="TextPosition" x="607" y="6168"><tspan fill="rgb(0,0,0)" stroke="none">2,00%</tspan></tspan></tspan></text>
 <text class="TextShape"><tspan class="TextParagraph" font-family="Arial, sans-serif" font-size="353px" font-weight="400"><tspan class="TextPosition" x="607" y="4959"><tspan fill="rgb(0,0,0)" stroke="none">2,33%</tspan></tspan></tspan></text>
 <text class="TextShape"><tspan class="TextParagraph" font-family="Arial, sans-serif" font-size="353px" font-weight="400"><tspan class="TextPosition" x="607" y="3752"><tspan fill="rgb(0,0,0)" stroke="none">2,67%</tspan></tspan></tspan></text>
 <text class="TextShape"><tspan class="TextParagraph" font-family="Arial, sans-serif" font-size="353px" font-weight="400"><tspan class="TextPosition" x="607" y="2544"><tspan fill="rgb(0,0,0)" stroke="none">3,00%</tspan></tspan></tspan></text>
 <text class="TextShape"><tspan class="TextParagraph" font-family="Arial, sans-serif" font-size="353px" font-weight="400"><tspan class="TextPosition" x="607" y="1337"><tspan fill="rgb(0,0,0)" stroke="none">3,33%</tspan></tspan></tspan></text>
 <text class="TextShape" transform="rotate(-44.9 1794 13137)"><tspan class="TextParagraph" font-family="Arial, sans-serif" font-size="353px" font-weight="400"><tspan class="TextPosition" x="1794" y="13137"><tspan fill="rgb(160,160,160)" stroke="none">42,34%</tspan></tspan></tspan></text>
 <text class="TextShape" transform="rotate(-44.9 2362 13137)"><tspan class="TextParagraph" font-family="Arial, sans-serif" font-size="353px" font-weight="400"><tspan class="TextPosition" x="2362" y="13137"><tspan fill="rgb(160,160,160)" stroke="none">41,63%</tspan></tspan></tspan></text>
 <text class="TextShape" transform="rotate(-44.9 2931 13137)"><tspan class="TextParagraph" font-family="Arial, sans-serif" font-size="353px" font-weight="400"><tspan class="TextPosition" x="2931" y="13137"><tspan fill="rgb(160,160,160)" stroke="none">25,63%</tspan></tspan></tspan></text>
 <text class="TextShape" transform="rotate(-44.9 3499 13137)"><tspan class="TextParagraph" font-family="Arial, sans-serif" font-size="353px" font-weight="400"><tspan class="TextPosition" x="3499" y="13137"><tspan fill="rgb(160,160,160)" stroke="none">21,06%</tspan></tspan></tspan></text>
 <text class="TextShape" transform="rotate(-44.9 4068 13137)"><tspan class="TextParagraph" font-family="Arial, sans-serif" font-size="353px" font-weight="400"><tspan class="TextPosition" x="4068" y="13137"><tspan fill="rgb(160,160,160)" stroke="none">20,32%</tspan></tspan></tspan></text>
 <text class="TextShape" transform="rotate(-44.9 4636 13137)"><tspan class="TextParagraph" font-family="Arial, sans-serif" font-size="353px" font-weight="400"><tspan class="TextPosition" x="4636" y="13137"><tspan fill="rgb(160,160,160)" stroke="none">16,26%</tspan></tspan></tspan></text>
 <text class="TextShape" transform="rotate(-44.9 5205 13137)"><tspan class="TextParagraph" font-family="Arial, sans-serif" font-size="353px" font-weight="400"><tspan class="TextPosition" x="5205" y="13137"><tspan fill="rgb(160,160,160)" stroke="none">12,90%</tspan></tspan></tspan></text>
 <text class="TextShape" transform="rotate(-44.9 5773 13137)"><tspan class="TextParagraph" font-family="Arial, sans-serif" font-size="353px" font-weight="400"><tspan class="TextPosition" x="5773" y="13137"><tspan fill="rgb(160,160,160)" stroke="none">11,62%</tspan></tspan></tspan></text>
 <text class="TextShape" transform="rotate(-44.9 6342 13137)"><tspan class="TextParagraph" font-family="Arial, sans-serif" font-size="353px" font-weight="400"><tspan class="TextPosition" x="6342" y="13137"><tspan fill="rgb(160,160,160)" stroke="none">11,23%</tspan></tspan></tspan></text>
 <text class="TextShape" transform="rotate(-44.9 6911 13137)"><tspan class="TextParagraph" font-family="Arial, sans-serif" font-size="353px" font-weight="400"><tspan class="TextPosition" x="6911" y="13137"><tspan fill="rgb(160,160,160)" stroke="none">10,61%</tspan></tspan></tspan></text>
 <text class="TextShape" transform="rotate(-44.9 7544 13138)"><tspan class="TextParagraph" font-family="Arial, sans-serif" font-size="353px" font-weight="400"><tspan class="TextPosition" x="7544" y="13138"><tspan fill="rgb(160,160,160)" stroke="none">9,70%</tspan></tspan></tspan></text>
 <text class="TextShape" transform="rotate(-44.9 8113 13138)"><tspan class="TextParagraph" font-family="Arial, sans-serif" font-size="353px" font-weight="400"><tspan class="TextPosition" x="8113" y="13138"><tspan fill="rgb(160,160,160)" stroke="none">9,34%</tspan></tspan></tspan></text>
 <text class="TextShape" transform="rotate(-44.9 8681 13138)"><tspan class="TextParagraph" font-family="Arial, sans-serif" font-size="353px" font-weight="400"><tspan class="TextPosition" x="8681" y="13138"><tspan fill="rgb(160,160,160)" stroke="none">9,34%</tspan></tspan></tspan></text>
 <text class="TextShape" transform="rotate(-44.9 9250 13138)"><tspan class="TextParagraph" font-family="Arial, sans-serif" font-size="353px" font-weight="400"><tspan class="TextPosition" x="9250" y="13138"><tspan fill="rgb(160,160,160)" stroke="none">9,31%</tspan></tspan></tspan></text>
 <text class="TextShape" transform="rotate(-44.9 9818 13138)"><tspan class="TextParagraph" font-family="Arial, sans-serif" font-size="353px" font-weight="400"><tspan class="TextPosition" x="9818" y="13138"><tspan fill="rgb(160,160,160)" stroke="none">9,13%</tspan></tspan></tspan></text>
 <text class="TextShape" transform="rotate(-44.9 10387 13138)"><tspan class="TextParagraph" font-family="Arial, sans-serif" font-size="353px" font-weight="400"><tspan class="TextPosition" x="10387" y="13138"><tspan fill="rgb(160,160,160)" stroke="none">8,73%</tspan></tspan></tspan></text>
 <text class="TextShape" transform="rotate(-44.9 10955 13138)"><tspan class="TextParagraph" font-family="Arial, sans-serif" font-size="353px" font-weight="400"><tspan class="TextPosition" x="10955" y="13138"><tspan fill="rgb(160,160,160)" stroke="none">8,67%</tspan></tspan></tspan></text>
 <text class="TextShape" transform="rotate(-44.9 11524 13138)"><tspan class="TextParagraph" font-family="Arial, sans-serif" font-size="353px" font-weight="400"><tspan class="TextPosition" x="11524" y="13138"><tspan fill="rgb(160,160,160)" stroke="none">8,62%</tspan></tspan></tspan></text>
 <text class="TextShape" transform="rotate(-44.9 12092 13138)"><tspan class="TextParagraph" font-family="Arial, sans-serif" font-size="353px" font-weight="400"><tspan class="TextPosition" x="12092" y="13138"><tspan fill="rgb(160,160,160)" stroke="none">8,12%</tspan></tspan></tspan></text>
 <text class="TextShape" transform="rotate(-44.9 12661 13138)"><tspan class="TextParagraph" font-family="Arial, sans-serif" font-size="353px" font-weight="400"><tspan class="TextPosition" x="12661" y="13138"><tspan fill="rgb(160,160,160)" stroke="none">8,09%</tspan></tspan></tspan></text>
 <text class="TextShape" transform="rotate(-44.9 13228 13138)"><tspan class="TextParagraph" font-family="Arial, sans-serif" font-size="353px" font-weight="400"><tspan class="TextPosition" x="13228" y="13138"><tspan fill="rgb(160,160,160)" stroke="none">7,63%</tspan></tspan></tspan></text>
 <text class="TextShape" transform="rotate(-44.9 13797 13138)"><tspan class="TextParagraph" font-family="Arial, sans-serif" font-size="353px" font-weight="400"><tspan class="TextPosition" x="13797" y="13138"><tspan fill="rgb(160,160,160)" stroke="none">6,48%</tspan></tspan></tspan></text>
 <text class="TextShape" transform="rotate(-44.9 14365 13138)"><tspan class="TextParagraph" font-family="Arial, sans-serif" font-size="353px" font-weight="400"><tspan class="TextPosition" x="14365" y="13138"><tspan fill="rgb(160,160,160)" stroke="none">6,28%</tspan></tspan></tspan></text>
 <text class="TextShape" transform="rotate(-44.9 14934 13138)"><tspan class="TextParagraph" font-family="Arial, sans-serif" font-size="353px" font-weight="400"><tspan class="TextPosition" x="14934" y="13138"><tspan fill="rgb(160,160,160)" stroke="none">5,84%</tspan></tspan></tspan></text>
 <text class="TextShape" transform="rotate(-44.9 15503 13138)"><tspan class="TextParagraph" font-family="Arial, sans-serif" font-size="353px" font-weight="400"><tspan class="TextPosition" x="15503" y="13138"><tspan fill="rgb(160,160,160)" stroke="none">5,09%</tspan></tspan></tspan></text>
 <text class="TextShape" transform="rotate(-44.9 16071 13138)"><tspan class="TextParagraph" font-family="Arial, sans-serif" font-size="353px" font-weight="400"><tspan class="TextPosition" x="16071" y="13138"><tspan fill="rgb(160,160,160)" stroke="none">4,99%</tspan></tspan></tspan></text>
 <text class="TextShape" transform="rotate(-44.9 16640 13138)"><tspan class="TextParagraph" font-family="Arial, sans-serif" font-size="353px" font-weight="400"><tspan class="TextPosition" x="16640" y="13138"><tspan fill="rgb(160,160,160)" stroke="none">4,96%</tspan></tspan></tspan></text>
 <text class="TextShape" transform="rotate(-44.9 17208 13138)"><tspan class="TextParagraph" font-family="Arial, sans-serif" font-size="353px" font-weight="400"><tspan class="TextPosition" x="17208" y="13138"><tspan fill="rgb(160,160,160)" stroke="none">4,93%</tspan></tspan></tspan></text>
 <text class="TextShape" transform="rotate(-44.9 17777 13138)"><tspan class="TextParagraph" font-family="Arial, sans-serif" font-size="353px" font-weight="400"><tspan class="TextPosition" x="17777" y="13138"><tspan fill="rgb(160,160,160)" stroke="none">4,80%</tspan></tspan></tspan></text>
 <text class="TextShape" transform="rotate(-44.9 18345 13138)"><tspan class="TextParagraph" font-family="Arial, sans-serif" font-size="353px" font-weight="400"><tspan class="TextPosition" x="18345" y="13138"><tspan fill="rgb(160,160,160)" stroke="none">4,76%</tspan></tspan></tspan></text>
 <text class="TextShape" transform="rotate(-44.9 18914 13138)"><tspan class="TextParagraph" font-family="Arial, sans-serif" font-size="353px" font-weight="400"><tspan class="TextPosition" x="18914" y="13138"><tspan fill="rgb(160,160,160)" stroke="none">4,47%</tspan></tspan></tspan></text>
 <text class="TextShape" transform="rotate(-44.9 19482 13138)"><tspan class="TextParagraph" font-family="Arial, sans-serif" font-size="353px" font-weight="400"><tspan class="TextPosition" x="19482" y="13138"><tspan fill="rgb(160,160,160)" stroke="none">4,40%</tspan></tspan></tspan></text>
 <text class="TextShape" transform="rotate(-44.9 20051 13138)"><tspan class="TextParagraph" font-family="Arial, sans-serif" font-size="353px" font-weight="400"><tspan class="TextPosition" x="20051" y="13138"><tspan fill="rgb(160,160,160)" stroke="none">3,56%</tspan></tspan></tspan></text>
 <text class="TextShape" transform="rotate(-44.9 20619 13138)"><tspan class="TextParagraph" font-family="Arial, sans-serif" font-size="353px" font-weight="400"><tspan class="TextPosition" x="20619" y="13138"><tspan fill="rgb(160,160,160)" stroke="none">3,05%</tspan></tspan></tspan></text>
 <text class="TextShape" transform="rotate(-44.9 21188 13138)"><tspan class="TextParagraph" font-family="Arial, sans-serif" font-size="353px" font-weight="400"><tspan class="TextPosition" x="21188" y="13138"><tspan fill="rgb(160,160,160)" stroke="none">2,50%</tspan></tspan></tspan></text>
 <text class="TextShape" transform="rotate(-44.9 21756 13138)"><tspan class="TextParagraph" font-family="Arial, sans-serif" font-size="353px" font-weight="400"><tspan class="TextPosition" x="21756" y="13138"><tspan fill="rgb(160,160,160)" stroke="none">2,39%</tspan></tspan></tspan></text>
 <text class="TextShape" transform="rotate(-44.9 22325 13138)"><tspan class="TextParagraph" font-family="Arial, sans-serif" font-size="353px" font-weight="400"><tspan class="TextPosition" x="22325" y="13138"><tspan fill="rgb(160,160,160)" stroke="none">2,08%</tspan></tspan></tspan></text>
 <text class="TextShape" transform="rotate(-44.9 22893 13138)"><tspan class="TextParagraph" font-family="Arial, sans-serif" font-size="353px" font-weight="400"><tspan class="TextPosition" x="22893" y="13138"><tspan fill="rgb(160,160,160)" stroke="none">1,89%</tspan></tspan></tspan></text>
 <text class="TextShape" transform="rotate(-44.9 23462 13138)"><tspan class="TextParagraph" font-family="Arial, sans-serif" font-size="353px" font-weight="400"><tspan class="TextPosition" x="23462" y="13138"><tspan fill="rgb(160,160,160)" stroke="none">1,73%</tspan></tspan></tspan></text>
 <text class="TextShape" transform="rotate(-44.9 24030 13138)"><tspan class="TextParagraph" font-family="Arial, sans-serif" font-size="353px" font-weight="400"><tspan class="TextPosition" x="24030" y="13138"><tspan fill="rgb(160,160,160)" stroke="none">1,61%</tspan></tspan></tspan></text>
 <text class="TextShape" transform="rotate(-44.9 24599 13138)"><tspan class="TextParagraph" font-family="Arial, sans-serif" font-size="353px" font-weight="400"><tspan class="TextPosition" x="24599" y="13138"><tspan fill="rgb(160,160,160)" stroke="none">1,52%</tspan></tspan></tspan></text>
 <text class="TextShape" transform="rotate(-44.9 25168 13138)"><tspan class="TextParagraph" font-family="Arial, sans-serif" font-size="353px" font-weight="400"><tspan class="TextPosition" x="25168" y="13138"><tspan fill="rgb(160,160,160)" stroke="none">1,46%</tspan></tspan></tspan></text>
 <text class="TextShape" transform="rotate(-44.9 25736 13138)"><tspan class="TextParagraph" font-family="Arial, sans-serif" font-size="353px" font-weight="400"><tspan class="TextPosition" x="25736" y="13138"><tspan fill="rgb(160,160,160)" stroke="none">1,43%</tspan></tspan></tspan></text>
 <text class="TextShape" transform="rotate(-44.9 26305 13138)"><tspan class="TextParagraph" font-family="Arial, sans-serif" font-size="353px" font-weight="400"><tspan class="TextPosition" x="26305" y="13138"><tspan fill="rgb(160,160,160)" stroke="none">1,38%</tspan></tspan></tspan></text>
 <text class="TextShape" transform="rotate(-44.9 26873 13138)"><tspan class="TextParagraph" font-family="Arial, sans-serif" font-size="353px" font-weight="400"><tspan class="TextPosition" x="26873" y="13138"><tspan fill="rgb(160,160,160)" stroke="none">1,14%</tspan></tspan></tspan></text>
 <text class="TextShape" transform="rotate(-44.9 27442 13138)"><tspan class="TextParagraph" font-family="Arial, sans-serif" font-size="353px" font-weight="400"><tspan class="TextPosition" x="27442" y="13138"><tspan fill="rgb(160,160,160)" stroke="none">1,01%</tspan></tspan></tspan></text>
 <text class="TextShape" transform="rotate(-44.9 28010 13138)"><tspan class="TextParagraph" font-family="Arial, sans-serif" font-size="353px" font-weight="400"><tspan class="TextPosition" x="28010" y="13138"><tspan fill="rgb(160,160,160)" stroke="none">0,98%</tspan></tspan></tspan></text>
 <text class="TextShape" transform="rotate(-44.9 28579 13138)"><tspan class="TextParagraph" font-family="Arial, sans-serif" font-size="353px" font-weight="400"><tspan class="TextPosition" x="28579" y="13138"><tspan fill="rgb(160,160,160)" stroke="none">0,50%</tspan></tspan></tspan></text>
 <text class="TextShape" transform="rotate(-44.9 29147 13138)"><tspan class="TextParagraph" font-family="Arial, sans-serif" font-size="353px" font-weight="400"><tspan class="TextPosition" x="29147" y="13138"><tspan fill="rgb(160,160,160)" stroke="none">0,00%</tspan></tspan></tspan></text>
 <text class="TextShape"><tspan class="TextParagraph" font-family="Arial, sans-serif" font-size="459px" font-weight="400"><tspan class="TextPosition" x="7133" y="1021"><tspan fill="rgb(0,0,0)" stroke="none">Active cases per population/ Aktív esetek száma a lakosság %-ában 2022.02.17.</tspan></tspan></tspan></text>
 <path fill="rgb(0,69,134)" stroke="none" d="M 9412,1853 L 9012,1853 9012,1642 9812,1642 9812,1853 9412,1853 Z"/>
 <path fill="none" stroke="rgb(0,69,134)" stroke-linejoin="round" d="M 14617,1747 L 15416,1747"/>
 <text class="TextShape"><tspan class="TextParagraph" font-family="Arial, sans-serif" font-size="353px" font-weight="400"><tspan class="TextPosition" x="9912" y="1867"><tspan fill="rgb(0,0,0)" stroke="none">Active real cases percentage</tspan></tspan></tspan></text>
 <text class="TextShape"><tspan class="TextParagraph" font-family="Arial, sans-serif" font-size="353px" font-weight="400"><tspan class="TextPosition" x="15516" y="1867"><tspan fill="rgb(0,0,0)" stroke="none">Közép (Active real cases percentage)</tspan></tspan></tspan></text>
</svg>