<?xml version="1.0" encoding="UTF-8"?>
<!DOCTYPE svg PUBLIC "-//W3C//DTD SVG 1.1//EN" "http://www.w3.org/Graphics/SVG/1.1/DTD/svg11.dtd">
<svg width="303mm" height="170mm" viewBox="0 0 30300 17000" version="1.1" xmlns="http://www.w3.org/2000/svg" xmlns:xlink="http://www.w3.org/1999/xlink" stroke-width="28.222" stroke-linejoin="round" xml:space="preserve">
 <path fill="rgb(255,255,255)" stroke="none" d="M 15150,16999 L 0,16999 0,0 30299,0 30299,16999 15150,16999 Z"/>
 <path fill="none" stroke="rgb(179,179,179)" stroke-linejoin="round" d="M 15728,13265 L 1825,13265 1825,2380 29632,2380 29632,13265 15728,13265 Z"/>
 <path fill="none" stroke="rgb(179,179,179)" stroke-width="18" stroke-linejoin="round" d="M 29632,13264 L 1825,13264"/>
 <path fill="none" stroke="rgb(179,179,179)" stroke-width="18" stroke-linejoin="round" d="M 29632,12054 L 1825,12054"/>
 <path fill="none" stroke="rgb(179,179,179)" stroke-width="18" stroke-linejoin="round" d="M 29632,10844 L 1825,10844"/>
 <path fill="none" stroke="rgb(179,179,179)" stroke-width="18" stroke-linejoin="round" d="M 29632,9635 L 1825,9635"/>
 <path fill="none" stroke="rgb(179,179,179)" stroke-width="18" stroke-linejoin="round" d="M 29632,8426 L 1825,8426"/>
 <path fill="none" stroke="rgb(179,179,179)" stroke-width="18" stroke-linejoin="round" d="M 29632,7217 L 1825,7217"/>
 <path fill="none" stroke="rgb(179,179,179)" stroke-width="18" stroke-linejoin="round" d="M 29632,6007 L 1825,6007"/>
 <path fill="none" stroke="rgb(179,179,179)" stroke-width="18" stroke-linejoin="round" d="M 29632,4798 L 1825,4798"/>
 <path fill="none" stroke="rgb(179,179,179)" stroke-width="18" stroke-linejoin="round" d="M 29632,3588 L 1825,3588"/>
 <path fill="none" stroke="rgb(179,179,179)" stroke-width="18" stroke-linejoin="round" d="M 29632,2379 L 1825,2379"/>
 <path fill="none" stroke="rgb(179,179,179)" stroke-width="18" stroke-linejoin="round" d="M 1825,13414 L 1825,13264"/>
 <path fill="none" stroke="rgb(179,179,179)" stroke-width="18" stroke-linejoin="round" d="M 2392,13414 L 2392,13264"/>
 <path fill="none" stroke="rgb(179,179,179)" stroke-width="18" stroke-linejoin="round" d="M 2960,13414 L 2960,13264"/>
 <path fill="none" stroke="rgb(179,179,179)" stroke-width="18" stroke-linejoin="round" d="M 3527,13414 L 3527,13264"/>
 <path fill="none" stroke="rgb(179,179,179)" stroke-width="18" stroke-linejoin="round" d="M 4095,13414 L 4095,13264"/>
 <path fill="none" stroke="rgb(179,179,179)" stroke-width="18" stroke-linejoin="round" d="M 4662,13414 L 4662,13264"/>
 <path fill="none" stroke="rgb(179,179,179)" stroke-width="18" stroke-linejoin="round" d="M 5230,13414 L 5230,13264"/>
 <path fill="none" stroke="rgb(179,179,179)" stroke-width="18" stroke-linejoin="round" d="M 5797,13414 L 5797,13264"/>
 <path fill="none" stroke="rgb(179,179,179)" stroke-width="18" stroke-linejoin="round" d="M 6365,13414 L 6365,13264"/>
 <path fill="none" stroke="rgb(179,179,179)" stroke-width="18" stroke-linejoin="round" d="M 6932,13414 L 6932,13264"/>
 <path fill="none" stroke="rgb(179,179,179)" stroke-width="18" stroke-linejoin="round" d="M 7500,13414 L 7500,13264"/>
 <path fill="none" stroke="rgb(179,179,179)" stroke-width="18" stroke-linejoin="round" d="M 8067,13414 L 8067,13264"/>
 <path fill="none" stroke="rgb(179,179,179)" stroke-width="18" stroke-linejoin="round" d="M 8635,13414 L 8635,13264"/>
 <path fill="none" stroke="rgb(179,179,179)" stroke-width="18" stroke-linejoin="round" d="M 9202,13414 L 9202,13264"/>
 <path fill="none" stroke="rgb(179,179,179)" stroke-width="18" stroke-linejoin="round" d="M 9770,13414 L 9770,13264"/>
 <path fill="none" stroke="rgb(179,179,179)" stroke-width="18" stroke-linejoin="round" d="M 10337,13414 L 10337,13264"/>
 <path fill="none" stroke="rgb(179,179,179)" stroke-width="18" stroke-linejoin="round" d="M 10905,13414 L 10905,13264"/>
 <path fill="none" stroke="rgb(179,179,179)" stroke-width="18" stroke-linejoin="round" d="M 11472,13414 L 11472,13264"/>
 <path fill="none" stroke="rgb(179,179,179)" stroke-width="18" stroke-linejoin="round" d="M 12040,13414 L 12040,13264"/>
 <path fill="none" stroke="rgb(179,179,179)" stroke-width="18" stroke-linejoin="round" d="M 12607,13414 L 12607,13264"/>
 <path fill="none" stroke="rgb(179,179,179)" stroke-width="18" stroke-linejoin="round" d="M 13175,13414 L 13175,13264"/>
 <path fill="none" stroke="rgb(179,179,179)" stroke-width="18" stroke-linejoin="round" d="M 13742,13414 L 13742,13264"/>
 <path fill="none" stroke="rgb(179,179,179)" stroke-width="18" stroke-linejoin="round" d="M 14310,13414 L 14310,13264"/>
 <path fill="none" stroke="rgb(179,179,179)" stroke-width="18" stroke-linejoin="round" d="M 14877,13414 L 14877,13264"/>
 <path fill="none" stroke="rgb(179,179,179)" stroke-width="18" stroke-linejoin="round" d="M 15444,13414 L 15444,13264"/>
 <path fill="none" stroke="rgb(179,179,179)" stroke-width="18" stroke-linejoin="round" d="M 16011,13414 L 16011,13264"/>
 <path fill="none" stroke="rgb(179,179,179)" stroke-width="18" stroke-linejoin="round" d="M 16579,13414 L 16579,13264"/>
 <path fill="none" stroke="rgb(179,179,179)" stroke-width="18" stroke-linejoin="round" d="M 17146,13414 L 17146,13264"/>
 <path fill="none" stroke="rgb(179,179,179)" stroke-width="18" stroke-linejoin="round" d="M 17714,13414 L 17714,13264"/>
 <path fill="none" stroke="rgb(179,179,179)" stroke-width="18" stroke-linejoin="round" d="M 18281,13414 L 18281,13264"/>
 <path fill="none" stroke="rgb(179,179,179)" stroke-width="18" stroke-linejoin="round" d="M 18849,13414 L 18849,13264"/>
 <path fill="none" stroke="rgb(179,179,179)" stroke-width="18" stroke-linejoin="round" d="M 19416,13414 L 19416,13264"/>
 <path fill="none" stroke="rgb(179,179,179)" stroke-width="18" stroke-linejoin="round" d="M 19984,13414 L 19984,13264"/>
 <path fill="none" stroke="rgb(179,179,179)" stroke-width="18" stroke-linejoin="round" d="M 20551,13414 L 20551,13264"/>
 <path fill="none" stroke="rgb(179,179,179)" stroke-width="18" stroke-linejoin="round" d="M 21119,13414 L 21119,13264"/>
 <path fill="none" stroke="rgb(179,179,179)" stroke-width="18" stroke-linejoin="round" d="M 21686,13414 L 21686,13264"/>
 <path fill="none" stroke="rgb(179,179,179)" stroke-width="18" stroke-linejoin="round" d="M 22254,13414 L 22254,13264"/>
 <path fill="none" stroke="rgb(179,179,179)" stroke-width="18" stroke-linejoin="round" d="M 22821,13414 L 22821,13264"/>
 <path fill="none" stroke="rgb(179,179,179)" stroke-width="18" stroke-linejoin="round" d="M 23389,13414 L 23389,13264"/>
 <path fill="none" stroke="rgb(179,179,179)" stroke-width="18" stroke-linejoin="round" d="M 23956,13414 L 23956,13264"/>
 <path fill="none" stroke="rgb(179,179,179)" stroke-width="18" stroke-linejoin="round" d="M 24524,13414 L 24524,13264"/>
 <path fill="none" stroke="rgb(179,179,179)" stroke-width="18" stroke-linejoin="round" d="M 25091,13414 L 25091,13264"/>
 <path fill="none" stroke="rgb(179,179,179)" stroke-width="18" stroke-linejoin="round" d="M 25659,13414 L 25659,13264"/>
 <path fill="none" stroke="rgb(179,179,179)" stroke-width="18" stroke-linejoin="round" d="M 26226,13414 L 26226,13264"/>
 <path fill="none" stroke="rgb(179,179,179)" stroke-width="18" stroke-linejoin="round" d="M 26794,13414 L 26794,13264"/>
 <path fill="none" stroke="rgb(179,179,179)" stroke-width="18" stroke-linejoin="round" d="M 27361,13414 L 27361,13264"/>
 <path fill="none" stroke="rgb(179,179,179)" stroke-width="18" stroke-linejoin="round" d="M 27929,13414 L 27929,13264"/>
 <path fill="none" stroke="rgb(179,179,179)" stroke-width="18" stroke-linejoin="round" d="M 28496,13414 L 28496,13264"/>
 <path fill="none" stroke="rgb(179,179,179)" stroke-width="18" stroke-linejoin="round" d="M 29064,13414 L 29064,13264"/>
 <path fill="none" stroke="rgb(179,179,179)" stroke-width="18" stroke-linejoin="round" d="M 29632,13414 L 29632,13264"/>
 <path fill="none" stroke="rgb(179,179,179)" stroke-width="18" stroke-linejoin="round" d="M 1825,13264 L 29632,13264"/>
 <path fill="none" stroke="rgb(179,179,179)" stroke-width="18" stroke-linejoin="round" d="M 1675,13264 L 1825,13264"/>
 <path fill="none" stroke="rgb(179,179,179)" stroke-width="18" stroke-linejoin="round" d="M 1675,12054 L 1825,12054"/>
 <path fill="none" stroke="rgb(179,179,179)" stroke-width="18" stroke-linejoin="round" d="M 1675,10844 L 1825,10844"/>
 <path fill="none" stroke="rgb(179,179,179)" stroke-width="18" stroke-linejoin="round" d="M 1675,9635 L 1825,9635"/>
 <path fill="none" stroke="rgb(179,179,179)" stroke-width="18" stroke-linejoin="round" d="M 1675,8426 L 1825,8426"/>
 <path fill="none" stroke="rgb(179,179,179)" stroke-width="18" stroke-linejoin="round" d="M 1675,7217 L 1825,7217"/>
 <path fill="none" stroke="rgb(179,179,179)" stroke-width="18" stroke-linejoin="round" d="M 1675,6007 L 1825,6007"/>
 <path fill="none" stroke="rgb(179,179,179)" stroke-width="18" stroke-linejoin="round" d="M 1675,4798 L 1825,4798"/>
 <path fill="none" stroke="rgb(179,179,179)" stroke-width="18" stroke-linejoin="round" d="M 1675,3588 L 1825,3588"/>
 <path fill="none" stroke="rgb(179,179,179)" stroke-width="18" stroke-linejoin="round" d="M 1675,2379 L 1825,2379"/>
 <path fill="none" stroke="rgb(179,179,179)" stroke-width="18" stroke-linejoin="round" d="M 1825,13264 L 1825,2379"/>
 <path fill="rgb(0,69,134)" stroke="none" d="M 29206,13264 L 29490,13264 29490,13263 29206,13263 29206,13264 Z"/>
 <path fill="rgb(0,69,134)" stroke="none" d="M 28638,13264 L 28922,13264 28922,13251 28638,13251 28638,13264 Z"/>
 <path fill="rgb(0,69,134)" stroke="none" d="M 28071,13264 L 28355,13264 28355,13251 28071,13251 28071,13264 Z"/>
 <path fill="rgb(0,69,134)" stroke="none" d="M 27503,13264 L 27787,13264 27787,13246 27503,13246 27503,13264 Z"/>
 <path fill="rgb(0,69,134)" stroke="none" d="M 26936,13264 L 27220,13264 27220,13242 26936,13242 26936,13264 Z"/>
 <path fill="rgb(0,69,134)" stroke="none" d="M 26368,13264 L 26652,13264 26652,13241 26368,13241 26368,13264 Z"/>
 <path fill="rgb(0,69,134)" stroke="none" d="M 25801,13264 L 26085,13264 26085,13239 25801,13239 25801,13264 Z"/>
 <path fill="rgb(0,69,134)" stroke="none" d="M 25233,13264 L 25517,13264 25517,13237 25233,13237 25233,13264 Z"/>
 <path fill="rgb(0,69,134)" stroke="none" d="M 24666,13264 L 24950,13264 24950,13217 24666,13217 24666,13264 Z"/>
 <path fill="rgb(0,69,134)" stroke="none" d="M 24098,13264 L 24382,13264 24382,13203 24098,13203 24098,13264 Z"/>
 <path fill="rgb(0,69,134)" stroke="none" d="M 23531,13264 L 23815,13264 23815,13192 23531,13192 23531,13264 Z"/>
 <path fill="rgb(0,69,134)" stroke="none" d="M 22963,13264 L 23247,13264 23247,13190 22963,13190 22963,13264 Z"/>
 <path fill="rgb(0,69,134)" stroke="none" d="M 22396,13264 L 22680,13264 22680,13189 22396,13189 22396,13264 Z"/>
 <path fill="rgb(0,69,134)" stroke="none" d="M 21828,13264 L 22112,13264 22112,13158 21828,13158 21828,13264 Z"/>
 <path fill="rgb(255,0,0)" stroke="none" d="M 21261,13264 L 21544,13264 21544,13149 21261,13149 21261,13264 Z"/>
 <path fill="rgb(0,69,134)" stroke="none" d="M 20693,13264 L 20977,13264 20977,13147 20693,13147 20693,13264 Z"/>
 <path fill="rgb(0,69,134)" stroke="none" d="M 20126,13264 L 20409,13264 20409,13140 20126,13140 20126,13264 Z"/>
 <path fill="rgb(0,69,134)" stroke="none" d="M 19558,13264 L 19842,13264 19842,13129 19558,13129 19558,13264 Z"/>
 <path fill="rgb(0,69,134)" stroke="none" d="M 18991,13264 L 19274,13264 19274,13095 18991,13095 18991,13264 Z"/>
 <path fill="rgb(0,69,134)" stroke="none" d="M 18423,13264 L 18707,13264 18707,13065 18423,13065 18423,13264 Z"/>
 <path fill="rgb(0,69,134)" stroke="none" d="M 17856,13264 L 18139,13264 18139,13029 17856,13029 17856,13264 Z"/>
 <path fill="rgb(0,69,134)" stroke="none" d="M 17288,13264 L 17572,13264 17572,13014 17288,13014 17288,13264 Z"/>
 <path fill="rgb(0,69,134)" stroke="none" d="M 16721,13264 L 17004,13264 17004,13014 16721,13014 16721,13264 Z"/>
 <path fill="rgb(0,69,134)" stroke="none" d="M 16153,13264 L 16437,13264 16437,12915 16153,12915 16153,13264 Z"/>
 <path fill="rgb(0,69,134)" stroke="none" d="M 15586,13264 L 15869,13264 15869,12898 15586,12898 15586,13264 Z"/>
 <path fill="rgb(0,69,134)" stroke="none" d="M 15019,13264 L 15302,13264 15302,12896 15019,12896 15019,13264 Z"/>
 <path fill="rgb(0,69,134)" stroke="none" d="M 14452,13264 L 14735,13264 14735,12864 14452,12864 14452,13264 Z"/>
 <path fill="rgb(0,69,134)" stroke="none" d="M 13884,13264 L 14168,13264 14168,12846 13884,12846 13884,13264 Z"/>
 <path fill="rgb(0,69,134)" stroke="none" d="M 13317,13264 L 13600,13264 13600,12803 13317,12803 13317,13264 Z"/>
 <path fill="rgb(0,69,134)" stroke="none" d="M 12749,13264 L 13033,13264 13033,12707 12749,12707 12749,13264 Z"/>
 <path fill="rgb(0,69,134)" stroke="none" d="M 12182,13264 L 12465,13264 12465,12634 12182,12634 12182,13264 Z"/>
 <path fill="rgb(0,69,134)" stroke="none" d="M 11614,13264 L 11898,13264 11898,12582 11614,12582 11614,13264 Z"/>
 <path fill="rgb(0,69,134)" stroke="none" d="M 11047,13264 L 11330,13264 11330,12550 11047,12550 11047,13264 Z"/>
 <path fill="rgb(0,69,134)" stroke="none" d="M 10479,13264 L 10763,13264 10763,12503 10479,12503 10479,13264 Z"/>
 <path fill="rgb(0,69,134)" stroke="none" d="M 9912,13264 L 10195,13264 10195,12501 9912,12501 9912,13264 Z"/>
 <path fill="rgb(0,69,134)" stroke="none" d="M 9344,13264 L 9628,13264 9628,12466 9344,12466 9344,13264 Z"/>
 <path fill="rgb(0,69,134)" stroke="none" d="M 8777,13264 L 9060,13264 9060,12432 8777,12432 8777,13264 Z"/>
 <path fill="rgb(0,69,134)" stroke="none" d="M 8209,13264 L 8493,13264 8493,12403 8209,12403 8209,13264 Z"/>
 <path fill="rgb(0,69,134)" stroke="none" d="M 7641,13264 L 7925,13264 7925,12248 7641,12248 7641,13264 Z"/>
 <path fill="rgb(0,69,134)" stroke="none" d="M 7074,13264 L 7358,13264 7358,12182 7074,12182 7074,13264 Z"/>
 <path fill="rgb(0,69,134)" stroke="none" d="M 6506,13264 L 6790,13264 6790,11907 6506,11907 6506,13264 Z"/>
 <path fill="rgb(0,69,134)" stroke="none" d="M 5939,13264 L 6223,13264 6223,11753 5939,11753 5939,13264 Z"/>
 <path fill="rgb(0,69,134)" stroke="none" d="M 5371,13264 L 5655,13264 5655,11332 5371,11332 5371,13264 Z"/>
 <path fill="rgb(0,69,134)" stroke="none" d="M 4804,13264 L 5088,13264 5088,10921 4804,10921 4804,13264 Z"/>
 <path fill="rgb(0,69,134)" stroke="none" d="M 4236,13264 L 4520,13264 4520,10584 4236,10584 4236,13264 Z"/>
 <path fill="rgb(0,69,134)" stroke="none" d="M 3669,13264 L 3953,13264 3953,10581 3669,10581 3669,13264 Z"/>
 <path fill="rgb(0,69,134)" stroke="none" d="M 3101,13264 L 3385,13264 3385,9546 3101,9546 3101,13264 Z"/>
 <path fill="rgb(0,69,134)" stroke="none" d="M 2534,13264 L 2818,13264 2818,7335 2534,7335 2534,13264 Z"/>
 <path fill="rgb(0,69,134)" stroke="none" d="M 1966,13264 L 2250,13264 2250,7040 1966,7040 1966,13264 Z"/>
 <path fill="none" stroke="rgb(0,69,134)" stroke-linejoin="round" d="M 1825,12415 L 29632,12415"/>
 <text class="TextShape" transform="rotate(-49.9 1740 14265)"><tspan class="TextParagraph" font-family="Arial, sans-serif" font-size="353px" font-weight="400"><tspan class="TextPosition" x="1740" y="14265"><tspan fill="rgb(0,0,0)" stroke="none">USA</tspan></tspan></tspan></text>
 <text class="TextShape" transform="rotate(-49.9 1609 15096)"><tspan class="TextParagraph" font-family="Arial, sans-serif" font-size="353px" font-weight="400"><tspan class="TextPosition" x="1609" y="15096"><tspan fill="rgb(0,0,0)" stroke="none">Montenegro</tspan></tspan></tspan></text>
 <text class="TextShape" transform="rotate(-49.9 2126 15158)"><tspan class="TextParagraph" font-family="Arial, sans-serif" font-size="353px" font-weight="400"><tspan class="TextPosition" x="2126" y="15158"><tspan fill="rgb(0,0,0)" stroke="none">Luxembourg</tspan></tspan></tspan></text>
 <text class="TextShape" transform="rotate(-49.9 3356 14368)"><tspan class="TextParagraph" font-family="Arial, sans-serif" font-size="353px" font-weight="400"><tspan class="TextPosition" x="3356" y="14368"><tspan fill="rgb(0,0,0)" stroke="none">Israel</tspan></tspan></tspan></text>
 <text class="TextShape" transform="rotate(-49.9 2801 15705)"><tspan class="TextParagraph" font-family="Arial, sans-serif" font-size="353px" font-weight="400"><tspan class="TextPosition" x="2801" y="15705"><tspan fill="rgb(0,0,0)" stroke="none">North Macedonia</tspan></tspan></tspan></text>
 <text class="TextShape" transform="rotate(-49.9 4220 14691)"><tspan class="TextParagraph" font-family="Arial, sans-serif" font-size="353px" font-weight="400"><tspan class="TextPosition" x="4220" y="14691"><tspan fill="rgb(0,0,0)" stroke="none">Armenia</tspan></tspan></tspan></text>
 <text class="TextShape" transform="rotate(-49.9 3205 16576)"><tspan class="TextParagraph" font-family="Arial, sans-serif" font-size="353px" font-weight="400"><tspan class="TextPosition" x="3205" y="16576"><tspan fill="rgb(0,0,0)" stroke="none">Bosnia and Herzegovina</tspan></tspan></tspan></text>
 <text class="TextShape" transform="rotate(-49.9 5338 14711)"><tspan class="TextParagraph" font-family="Arial, sans-serif" font-size="353px" font-weight="400"><tspan class="TextPosition" x="5338" y="14711"><tspan fill="rgb(0,0,0)" stroke="none">Moldova</tspan></tspan></tspan></text>
 <text class="TextShape" transform="rotate(-49.9 5871 14752)"><tspan class="TextParagraph" font-family="Arial, sans-serif" font-size="353px" font-weight="400"><tspan class="TextPosition" x="5871" y="14752"><tspan fill="rgb(0,0,0)" stroke="none">Romania</tspan></tspan></tspan></text>
 <text class="TextShape" transform="rotate(-49.9 6745 14388)"><tspan class="TextParagraph" font-family="Arial, sans-serif" font-size="353px" font-weight="400"><tspan class="TextPosition" x="6745" y="14388"><tspan fill="rgb(0,0,0)" stroke="none">Spain</tspan></tspan></tspan></text>
 <text class="TextShape" transform="rotate(-49.9 7074 14671)"><tspan class="TextParagraph" font-family="Arial, sans-serif" font-size="353px" font-weight="400"><tspan class="TextPosition" x="7074" y="14671"><tspan fill="rgb(0,0,0)" stroke="none">Belgium</tspan></tspan></tspan></text>
 <text class="TextShape" transform="rotate(-49.9 7659 14651)"><tspan class="TextParagraph" font-family="Arial, sans-serif" font-size="353px" font-weight="400"><tspan class="TextPosition" x="7659" y="14651"><tspan fill="rgb(0,0,0)" stroke="none">Sweden</tspan></tspan></tspan></text>
 <text class="TextShape" transform="rotate(-49.9 8277 14590)"><tspan class="TextParagraph" font-family="Arial, sans-serif" font-size="353px" font-weight="400"><tspan class="TextPosition" x="8277" y="14590"><tspan fill="rgb(0,0,0)" stroke="none">Albania</tspan></tspan></tspan></text>
 <text class="TextShape" transform="rotate(-49.9 8896 14529)"><tspan class="TextParagraph" font-family="Arial, sans-serif" font-size="353px" font-weight="400"><tspan class="TextPosition" x="8896" y="14529"><tspan fill="rgb(0,0,0)" stroke="none">France</tspan></tspan></tspan></text>
 <text class="TextShape" transform="rotate(-49.9 9514 14468)"><tspan class="TextParagraph" font-family="Arial, sans-serif" font-size="353px" font-weight="400"><tspan class="TextPosition" x="9514" y="14468"><tspan fill="rgb(0,0,0)" stroke="none">Serbia</tspan></tspan></tspan></text>
 <text class="TextShape" transform="rotate(-49.9 9674 14954)"><tspan class="TextParagraph" font-family="Arial, sans-serif" font-size="353px" font-weight="400"><tspan class="TextPosition" x="9674" y="14954"><tspan fill="rgb(0,0,0)" stroke="none">Azerbaijan</tspan></tspan></tspan></text>
 <text class="TextShape" transform="rotate(-49.9 10462 14691)"><tspan class="TextParagraph" font-family="Arial, sans-serif" font-size="353px" font-weight="400"><tspan class="TextPosition" x="10462" y="14691"><tspan fill="rgb(0,0,0)" stroke="none">Portugal</tspan></tspan></tspan></text>
 <text class="TextShape" transform="rotate(-49.9 11540 14083)"><tspan class="TextParagraph" font-family="Arial, sans-serif" font-size="353px" font-weight="400"><tspan class="TextPosition" x="11540" y="14083"><tspan fill="rgb(0,0,0)" stroke="none">UK</tspan></tspan></tspan></text>
 <text class="TextShape" transform="rotate(-49.9 11614 14671)"><tspan class="TextParagraph" font-family="Arial, sans-serif" font-size="353px" font-weight="400"><tspan class="TextPosition" x="11614" y="14671"><tspan fill="rgb(0,0,0)" stroke="none">Bulgaria</tspan></tspan></tspan></text>
 <text class="TextShape" transform="rotate(-49.9 11842 15076)"><tspan class="TextParagraph" font-family="Arial, sans-serif" font-size="353px" font-weight="400"><tspan class="TextPosition" x="11842" y="15076"><tspan fill="rgb(0,0,0)" stroke="none">Switzerland</tspan></tspan></tspan></text>
 <text class="TextShape" transform="rotate(-49.9 12850 14550)"><tspan class="TextParagraph" font-family="Arial, sans-serif" font-size="353px" font-weight="400"><tspan class="TextPosition" x="12850" y="14550"><tspan fill="rgb(0,0,0)" stroke="none">Croatia</tspan></tspan></tspan></text>
 <text class="TextShape" transform="rotate(-49.9 12942 15117)"><tspan class="TextParagraph" font-family="Arial, sans-serif" font-size="353px" font-weight="400"><tspan class="TextPosition" x="12942" y="15117"><tspan fill="rgb(0,0,0)" stroke="none">Netherlands</tspan></tspan></tspan></text>
 <text class="TextShape" transform="rotate(-49.9 14002 14529)"><tspan class="TextParagraph" font-family="Arial, sans-serif" font-size="353px" font-weight="400"><tspan class="TextPosition" x="14002" y="14529"><tspan fill="rgb(0,0,0)" stroke="none">Russia</tspan></tspan></tspan></text>
 <text class="TextShape" transform="rotate(-49.9 14553 14550)"><tspan class="TextParagraph" font-family="Arial, sans-serif" font-size="353px" font-weight="400"><tspan class="TextPosition" x="14553" y="14550"><tspan fill="rgb(0,0,0)" stroke="none">Austria</tspan></tspan></tspan></text>
 <text class="TextShape" transform="rotate(-49.9 15138 14529)"><tspan class="TextParagraph" font-family="Arial, sans-serif" font-size="353px" font-weight="400"><tspan class="TextPosition" x="15138" y="14529"><tspan fill="rgb(0,0,0)" stroke="none">Turkey</tspan></tspan></tspan></text>
 <text class="TextShape" transform="rotate(-49.9 15534 14732)"><tspan class="TextParagraph" font-family="Arial, sans-serif" font-size="353px" font-weight="400"><tspan class="TextPosition" x="15534" y="14732"><tspan fill="rgb(0,0,0)" stroke="none">Slovenia</tspan></tspan></tspan></text>
 <text class="TextShape" transform="rotate(-49.9 16273 14529)"><tspan class="TextParagraph" font-family="Arial, sans-serif" font-size="353px" font-weight="400"><tspan class="TextPosition" x="16273" y="14529"><tspan fill="rgb(0,0,0)" stroke="none">Poland</tspan></tspan></tspan></text>
 <text class="TextShape" transform="rotate(-49.9 16772 14610)"><tspan class="TextParagraph" font-family="Arial, sans-serif" font-size="353px" font-weight="400"><tspan class="TextPosition" x="16772" y="14610"><tspan fill="rgb(0,0,0)" stroke="none">Ukraine</tspan></tspan></tspan></text>
 <text class="TextShape" transform="rotate(-49.9 17663 14225)"><tspan class="TextParagraph" font-family="Arial, sans-serif" font-size="353px" font-weight="400"><tspan class="TextPosition" x="17663" y="14225"><tspan fill="rgb(0,0,0)" stroke="none">Italy</tspan></tspan></tspan></text>
 <text class="TextShape" transform="rotate(-49.9 17856 14671)"><tspan class="TextParagraph" font-family="Arial, sans-serif" font-size="353px" font-weight="400"><tspan class="TextPosition" x="17856" y="14671"><tspan fill="rgb(0,0,0)" stroke="none">Czechia</tspan></tspan></tspan></text>
 <text class="TextShape" transform="rotate(-49.9 18560 14509)"><tspan class="TextParagraph" font-family="Arial, sans-serif" font-size="353px" font-weight="400"><tspan class="TextPosition" x="18560" y="14509"><tspan fill="rgb(0,0,0)" stroke="none">Ireland</tspan></tspan></tspan></text>
 <text class="TextShape" transform="rotate(-49.9 18889 14792)"><tspan class="TextParagraph" font-family="Arial, sans-serif" font-size="353px" font-weight="400"><tspan class="TextPosition" x="18889" y="14792"><tspan fill="rgb(0,0,0)" stroke="none">Germany</tspan></tspan></tspan></text>
 <text class="TextShape" transform="rotate(-49.9 19474 14772)"><tspan class="TextParagraph" font-family="Arial, sans-serif" font-size="353px" font-weight="400"><tspan class="TextPosition" x="19474" y="14772"><tspan fill="rgb(0,0,0)" stroke="none">Denmark</tspan></tspan></tspan></text>
 <text class="TextShape" transform="rotate(-49.9 20330 14428)"><tspan class="TextParagraph" font-family="Arial, sans-serif" font-size="353px" font-weight="400"><tspan class="TextPosition" x="20330" y="14428"><tspan fill="rgb(0,0,0)" stroke="none">Japan</tspan></tspan></tspan></text>
 <text class="TextShape" transform="rotate(-49.9 20677 14691)"><tspan class="TextParagraph" font-family="Arial, sans-serif" font-size="353px" font-weight="400"><tspan class="TextPosition" x="20677" y="14691"><tspan fill="rgb(0,0,0)" stroke="none">Hungary</tspan></tspan></tspan></text>
 <text class="TextShape" transform="rotate(-49.9 21176 14772)"><tspan class="TextParagraph" font-family="Arial, sans-serif" font-size="353px" font-weight="400"><tspan class="TextPosition" x="21176" y="14772"><tspan fill="rgb(0,0,0)" stroke="none">Lithuania</tspan></tspan></tspan></text>
 <text class="TextShape" transform="rotate(-49.9 21914 14570)"><tspan class="TextParagraph" font-family="Arial, sans-serif" font-size="353px" font-weight="400"><tspan class="TextPosition" x="21914" y="14570"><tspan fill="rgb(0,0,0)" stroke="none">Greece</tspan></tspan></tspan></text>
 <text class="TextShape" transform="rotate(-49.9 22481 14570)"><tspan class="TextParagraph" font-family="Arial, sans-serif" font-size="353px" font-weight="400"><tspan class="TextPosition" x="22481" y="14570"><tspan fill="rgb(0,0,0)" stroke="none">Iceland</tspan></tspan></tspan></text>
 <text class="TextShape" transform="rotate(-49.9 23015 14610)"><tspan class="TextParagraph" font-family="Arial, sans-serif" font-size="353px" font-weight="400"><tspan class="TextPosition" x="23015" y="14610"><tspan fill="rgb(0,0,0)" stroke="none">Belarus</tspan></tspan></tspan></text>
 <text class="TextShape" transform="rotate(-49.9 23633 14550)"><tspan class="TextParagraph" font-family="Arial, sans-serif" font-size="353px" font-weight="400"><tspan class="TextPosition" x="23633" y="14550"><tspan fill="rgb(0,0,0)" stroke="none">Cyprus</tspan></tspan></tspan></text>
 <text class="TextShape" transform="rotate(-49.9 24184 14570)"><tspan class="TextParagraph" font-family="Arial, sans-serif" font-size="353px" font-weight="400"><tspan class="TextPosition" x="24184" y="14570"><tspan fill="rgb(0,0,0)" stroke="none">Finland</tspan></tspan></tspan></text>
 <text class="TextShape" transform="rotate(-49.9 24614 14732)"><tspan class="TextParagraph" font-family="Arial, sans-serif" font-size="353px" font-weight="400"><tspan class="TextPosition" x="24614" y="14732"><tspan fill="rgb(0,0,0)" stroke="none">Slovakia</tspan></tspan></tspan></text>
 <text class="TextShape" transform="rotate(-49.9 25302 14590)"><tspan class="TextParagraph" font-family="Arial, sans-serif" font-size="353px" font-weight="400"><tspan class="TextPosition" x="25302" y="14590"><tspan fill="rgb(0,0,0)" stroke="none">Norway</tspan></tspan></tspan></text>
 <text class="TextShape" transform="rotate(-49.9 26005 14428)"><tspan class="TextParagraph" font-family="Arial, sans-serif" font-size="353px" font-weight="400"><tspan class="TextPosition" x="26005" y="14428"><tspan fill="rgb(0,0,0)" stroke="none">Latvia</tspan></tspan></tspan></text>
 <text class="TextShape" transform="rotate(-49.9 26301 14752)"><tspan class="TextParagraph" font-family="Arial, sans-serif" font-size="353px" font-weight="400"><tspan class="TextPosition" x="26301" y="14752"><tspan fill="rgb(0,0,0)" stroke="none">S. Korea</tspan></tspan></tspan></text>
 <text class="TextShape" transform="rotate(-49.9 26987 14610)"><tspan class="TextParagraph" font-family="Arial, sans-serif" font-size="353px" font-weight="400"><tspan class="TextPosition" x="26987" y="14610"><tspan fill="rgb(0,0,0)" stroke="none">Estonia</tspan></tspan></tspan></text>
 <text class="TextShape" transform="rotate(-49.9 27758 14368)"><tspan class="TextParagraph" font-family="Arial, sans-serif" font-size="353px" font-weight="400"><tspan class="TextPosition" x="27758" y="14368"><tspan fill="rgb(0,0,0)" stroke="none">Malta</tspan></tspan></tspan></text>
 <text class="TextShape" transform="rotate(-49.9 28105 14631)"><tspan class="TextParagraph" font-family="Arial, sans-serif" font-size="353px" font-weight="400"><tspan class="TextPosition" x="28105" y="14631"><tspan fill="rgb(0,0,0)" stroke="none">Georgia</tspan></tspan></tspan></text>
 <text class="TextShape" transform="rotate(-49.9 28877 14388)"><tspan class="TextParagraph" font-family="Arial, sans-serif" font-size="353px" font-weight="400"><tspan class="TextPosition" x="28877" y="14388"><tspan fill="rgb(0,0,0)" stroke="none">China</tspan></tspan></tspan></text>
 <text class="TextShape"><tspan class="TextParagraph" font-family="Arial, sans-serif" font-size="353px" font-weight="400"><tspan class="TextPosition" x="596" y="13385"><tspan fill="rgb(0,0,0)" stroke="none">0,00%</tspan></tspan></tspan></text>
 <text class="TextShape"><tspan class="TextParagraph" font-family="Arial, sans-serif" font-size="353px" font-weight="400"><tspan class="TextPosition" x="596" y="12175"><tspan fill="rgb(0,0,0)" stroke="none">0,33%</tspan></tspan></tspan></text>
 <text class="TextShape"><tspan class="TextParagraph" font-family="Arial, sans-serif" font-size="353px" font-weight="400"><tspan class="TextPosition" x="596" y="10965"><tspan fill="rgb(0,0,0)" stroke="none">0,67%</tspan></tspan></tspan></text>
 <text class="TextShape"><tspan class="TextParagraph" font-family="Arial, sans-serif" font-size="353px" font-weight="400"><tspan class="TextPosition" x="596" y="9756"><tspan fill="rgb(0,0,0)" stroke="none">1,00%</tspan></tspan></tspan></text>
 <text class="TextShape"><tspan class="TextParagraph" font-family="Arial, sans-serif" font-size="353px" font-weight="400"><tspan class="TextPosition" x="596" y="8546"><tspan fill="rgb(0,0,0)" stroke="none">1,33%</tspan></tspan></tspan></text>
 <text class="TextShape"><tspan class="TextParagraph" font-family="Arial, sans-serif" font-size="353px" font-weight="400"><tspan class="TextPosition" x="596" y="7337"><tspan fill="rgb(0,0,0)" stroke="none">1,67%</tspan></tspan></tspan></text>
 <text class="TextShape"><tspan class="TextParagraph" font-family="Arial, sans-serif" font-size="353px" font-weight="400"><tspan class="TextPosition" x="596" y="6127"><tspan fill="rgb(0,0,0)" stroke="none">2,00%</tspan></tspan></tspan></text>
 <text class="TextShape"><tspan class="TextParagraph" font-family="Arial, sans-serif" font-size="353px" font-weight="400"><tspan class="TextPosition" x="596" y="4918"><tspan fill="rgb(0,0,0)" stroke="none">2,33%</tspan></tspan></tspan></text>
 <text class="TextShape"><tspan class="TextParagraph" font-family="Arial, sans-serif" font-size="353px" font-weight="400"><tspan class="TextPosition" x="596" y="3708"><tspan fill="rgb(0,0,0)" stroke="none">2,67%</tspan></tspan></tspan></text>
 <text class="TextShape"><tspan class="TextParagraph" font-family="Arial, sans-serif" font-size="353px" font-weight="400"><tspan class="TextPosition" x="596" y="2499"><tspan fill="rgb(0,0,0)" stroke="none">3,00%</tspan></tspan></tspan></text>
 <text class="TextShape"><tspan class="TextParagraph" font-family="Arial, sans-serif" font-size="459px" font-weight="400"><tspan class="TextPosition" x="7133" y="1011"><tspan fill="rgb(0,0,0)" stroke="none">Active cases per population/ Aktív esetek száma a lakosság %-ában 2020.07.19.</tspan></tspan></tspan></text>
 <path fill="rgb(0,69,134)" stroke="none" d="M 9412,1844 L 9012,1844 9012,1633 9812,1633 9812,1844 9412,1844 Z"/>
 <path fill="none" stroke="rgb(0,69,134)" stroke-linejoin="round" d="M 14617,1738 L 15416,1738"/>
 <text class="TextShape"><tspan class="TextParagraph" font-family="Arial, sans-serif" font-size="353px" font-weight="400"><tspan class="TextPosition" x="9912" y="1858"><tspan fill="rgb(0,0,0)" stroke="none">Active real cases percentage</tspan></tspan></tspan></text>
 <text class="TextShape"><tspan class="TextParagraph" font-family="Arial, sans-serif" font-size="353px" font-weight="400"><tspan class="TextPosition" x="15516" y="1858"><tspan fill="rgb(0,0,0)" stroke="none">Közép (Active real cases percentage)</tspan></tspan></tspan></text>
</svg>