<?xml version="1.0" encoding="UTF-8"?>
<!DOCTYPE svg PUBLIC "-//W3C//DTD SVG 1.1//EN" "http://www.w3.org/Graphics/SVG/1.1/DTD/svg11.dtd">
<svg width="303mm" height="170mm" viewBox="0 0 30300 17000" version="1.1" xmlns="http://www.w3.org/2000/svg" xmlns:xlink="http://www.w3.org/1999/xlink" stroke-width="28.222" stroke-linejoin="round" xml:space="preserve">
 <path fill="rgb(255,255,255)" stroke="none" d="M 15150,16999 L 0,16999 0,0 30299,0 30299,16999 15150,16999 Z"/>
 <path fill="none" stroke="rgb(179,179,179)" stroke-linejoin="round" d="M 15740,13269 L 1825,13269 1825,2376 29656,2376 29656,13269 15740,13269 Z"/>
 <path fill="none" stroke="rgb(179,179,179)" stroke-width="18" stroke-linejoin="round" d="M 29656,13268 L 1825,13268"/>
 <path fill="none" stroke="rgb(179,179,179)" stroke-width="18" stroke-linejoin="round" d="M 29656,12057 L 1825,12057"/>
 <path fill="none" stroke="rgb(179,179,179)" stroke-width="18" stroke-linejoin="round" d="M 29656,10847 L 1825,10847"/>
 <path fill="none" stroke="rgb(179,179,179)" stroke-width="18" stroke-linejoin="round" d="M 29656,9636 L 1825,9636"/>
 <path fill="none" stroke="rgb(179,179,179)" stroke-width="18" stroke-linejoin="round" d="M 29656,8427 L 1825,8427"/>
 <path fill="none" stroke="rgb(179,179,179)" stroke-width="18" stroke-linejoin="round" d="M 29656,7216 L 1825,7216"/>
 <path fill="none" stroke="rgb(179,179,179)" stroke-width="18" stroke-linejoin="round" d="M 29656,6006 L 1825,6006"/>
 <path fill="none" stroke="rgb(179,179,179)" stroke-width="18" stroke-linejoin="round" d="M 29656,4795 L 1825,4795"/>
 <path fill="none" stroke="rgb(179,179,179)" stroke-width="18" stroke-linejoin="round" d="M 29656,3585 L 1825,3585"/>
 <path fill="none" stroke="rgb(179,179,179)" stroke-width="18" stroke-linejoin="round" d="M 29656,2375 L 1825,2375"/>
 <path fill="none" stroke="rgb(179,179,179)" stroke-width="18" stroke-linejoin="round" d="M 1825,13418 L 1825,13268"/>
 <path fill="none" stroke="rgb(179,179,179)" stroke-width="18" stroke-linejoin="round" d="M 2393,13418 L 2393,13268"/>
 <path fill="none" stroke="rgb(179,179,179)" stroke-width="18" stroke-linejoin="round" d="M 2961,13418 L 2961,13268"/>
 <path fill="none" stroke="rgb(179,179,179)" stroke-width="18" stroke-linejoin="round" d="M 3529,13418 L 3529,13268"/>
 <path fill="none" stroke="rgb(179,179,179)" stroke-width="18" stroke-linejoin="round" d="M 4097,13418 L 4097,13268"/>
 <path fill="none" stroke="rgb(179,179,179)" stroke-width="18" stroke-linejoin="round" d="M 4665,13418 L 4665,13268"/>
 <path fill="none" stroke="rgb(179,179,179)" stroke-width="18" stroke-linejoin="round" d="M 5233,13418 L 5233,13268"/>
 <path fill="none" stroke="rgb(179,179,179)" stroke-width="18" stroke-linejoin="round" d="M 5801,13418 L 5801,13268"/>
 <path fill="none" stroke="rgb(179,179,179)" stroke-width="18" stroke-linejoin="round" d="M 6369,13418 L 6369,13268"/>
 <path fill="none" stroke="rgb(179,179,179)" stroke-width="18" stroke-linejoin="round" d="M 6936,13418 L 6936,13268"/>
 <path fill="none" stroke="rgb(179,179,179)" stroke-width="18" stroke-linejoin="round" d="M 7504,13418 L 7504,13268"/>
 <path fill="none" stroke="rgb(179,179,179)" stroke-width="18" stroke-linejoin="round" d="M 8072,13418 L 8072,13268"/>
 <path fill="none" stroke="rgb(179,179,179)" stroke-width="18" stroke-linejoin="round" d="M 8641,13418 L 8641,13268"/>
 <path fill="none" stroke="rgb(179,179,179)" stroke-width="18" stroke-linejoin="round" d="M 9209,13418 L 9209,13268"/>
 <path fill="none" stroke="rgb(179,179,179)" stroke-width="18" stroke-linejoin="round" d="M 9777,13418 L 9777,13268"/>
 <path fill="none" stroke="rgb(179,179,179)" stroke-width="18" stroke-linejoin="round" d="M 10344,13418 L 10344,13268"/>
 <path fill="none" stroke="rgb(179,179,179)" stroke-width="18" stroke-linejoin="round" d="M 10913,13418 L 10913,13268"/>
 <path fill="none" stroke="rgb(179,179,179)" stroke-width="18" stroke-linejoin="round" d="M 11481,13418 L 11481,13268"/>
 <path fill="none" stroke="rgb(179,179,179)" stroke-width="18" stroke-linejoin="round" d="M 12048,13418 L 12048,13268"/>
 <path fill="none" stroke="rgb(179,179,179)" stroke-width="18" stroke-linejoin="round" d="M 12617,13418 L 12617,13268"/>
 <path fill="none" stroke="rgb(179,179,179)" stroke-width="18" stroke-linejoin="round" d="M 13184,13418 L 13184,13268"/>
 <path fill="none" stroke="rgb(179,179,179)" stroke-width="18" stroke-linejoin="round" d="M 13753,13418 L 13753,13268"/>
 <path fill="none" stroke="rgb(179,179,179)" stroke-width="18" stroke-linejoin="round" d="M 14320,13418 L 14320,13268"/>
 <path fill="none" stroke="rgb(179,179,179)" stroke-width="18" stroke-linejoin="round" d="M 14888,13418 L 14888,13268"/>
 <path fill="none" stroke="rgb(179,179,179)" stroke-width="18" stroke-linejoin="round" d="M 15456,13418 L 15456,13268"/>
 <path fill="none" stroke="rgb(179,179,179)" stroke-width="18" stroke-linejoin="round" d="M 16024,13418 L 16024,13268"/>
 <path fill="none" stroke="rgb(179,179,179)" stroke-width="18" stroke-linejoin="round" d="M 16592,13418 L 16592,13268"/>
 <path fill="none" stroke="rgb(179,179,179)" stroke-width="18" stroke-linejoin="round" d="M 17160,13418 L 17160,13268"/>
 <path fill="none" stroke="rgb(179,179,179)" stroke-width="18" stroke-linejoin="round" d="M 17728,13418 L 17728,13268"/>
 <path fill="none" stroke="rgb(179,179,179)" stroke-width="18" stroke-linejoin="round" d="M 18296,13418 L 18296,13268"/>
 <path fill="none" stroke="rgb(179,179,179)" stroke-width="18" stroke-linejoin="round" d="M 18863,13418 L 18863,13268"/>
 <path fill="none" stroke="rgb(179,179,179)" stroke-width="18" stroke-linejoin="round" d="M 19431,13418 L 19431,13268"/>
 <path fill="none" stroke="rgb(179,179,179)" stroke-width="18" stroke-linejoin="round" d="M 20000,13418 L 20000,13268"/>
 <path fill="none" stroke="rgb(179,179,179)" stroke-width="18" stroke-linejoin="round" d="M 20568,13418 L 20568,13268"/>
 <path fill="none" stroke="rgb(179,179,179)" stroke-width="18" stroke-linejoin="round" d="M 21136,13418 L 21136,13268"/>
 <path fill="none" stroke="rgb(179,179,179)" stroke-width="18" stroke-linejoin="round" d="M 21703,13418 L 21703,13268"/>
 <path fill="none" stroke="rgb(179,179,179)" stroke-width="18" stroke-linejoin="round" d="M 22271,13418 L 22271,13268"/>
 <path fill="none" stroke="rgb(179,179,179)" stroke-width="18" stroke-linejoin="round" d="M 22840,13418 L 22840,13268"/>
 <path fill="none" stroke="rgb(179,179,179)" stroke-width="18" stroke-linejoin="round" d="M 23408,13418 L 23408,13268"/>
 <path fill="none" stroke="rgb(179,179,179)" stroke-width="18" stroke-linejoin="round" d="M 23975,13418 L 23975,13268"/>
 <path fill="none" stroke="rgb(179,179,179)" stroke-width="18" stroke-linejoin="round" d="M 24543,13418 L 24543,13268"/>
 <path fill="none" stroke="rgb(179,179,179)" stroke-width="18" stroke-linejoin="round" d="M 25111,13418 L 25111,13268"/>
 <path fill="none" stroke="rgb(179,179,179)" stroke-width="18" stroke-linejoin="round" d="M 25680,13418 L 25680,13268"/>
 <path fill="none" stroke="rgb(179,179,179)" stroke-width="18" stroke-linejoin="round" d="M 26248,13418 L 26248,13268"/>
 <path fill="none" stroke="rgb(179,179,179)" stroke-width="18" stroke-linejoin="round" d="M 26815,13418 L 26815,13268"/>
 <path fill="none" stroke="rgb(179,179,179)" stroke-width="18" stroke-linejoin="round" d="M 27383,13418 L 27383,13268"/>
 <path fill="none" stroke="rgb(179,179,179)" stroke-width="18" stroke-linejoin="round" d="M 27951,13418 L 27951,13268"/>
 <path fill="none" stroke="rgb(179,179,179)" stroke-width="18" stroke-linejoin="round" d="M 28520,13418 L 28520,13268"/>
 <path fill="none" stroke="rgb(179,179,179)" stroke-width="18" stroke-linejoin="round" d="M 29088,13418 L 29088,13268"/>
 <path fill="none" stroke="rgb(179,179,179)" stroke-width="18" stroke-linejoin="round" d="M 29655,13418 L 29655,13268"/>
 <path fill="none" stroke="rgb(179,179,179)" stroke-width="18" stroke-linejoin="round" d="M 1825,13268 L 29656,13268"/>
 <path fill="none" stroke="rgb(179,179,179)" stroke-width="18" stroke-linejoin="round" d="M 1675,13268 L 1825,13268"/>
 <path fill="none" stroke="rgb(179,179,179)" stroke-width="18" stroke-linejoin="round" d="M 1675,12057 L 1825,12057"/>
 <path fill="none" stroke="rgb(179,179,179)" stroke-width="18" stroke-linejoin="round" d="M 1675,10847 L 1825,10847"/>
 <path fill="none" stroke="rgb(179,179,179)" stroke-width="18" stroke-linejoin="round" d="M 1675,9636 L 1825,9636"/>
 <path fill="none" stroke="rgb(179,179,179)" stroke-width="18" stroke-linejoin="round" d="M 1675,8427 L 1825,8427"/>
 <path fill="none" stroke="rgb(179,179,179)" stroke-width="18" stroke-linejoin="round" d="M 1675,7216 L 1825,7216"/>
 <path fill="none" stroke="rgb(179,179,179)" stroke-width="18" stroke-linejoin="round" d="M 1675,6006 L 1825,6006"/>
 <path fill="none" stroke="rgb(179,179,179)" stroke-width="18" stroke-linejoin="round" d="M 1675,4795 L 1825,4795"/>
 <path fill="none" stroke="rgb(179,179,179)" stroke-width="18" stroke-linejoin="round" d="M 1675,3585 L 1825,3585"/>
 <path fill="none" stroke="rgb(179,179,179)" stroke-width="18" stroke-linejoin="round" d="M 1675,2375 L 1825,2375"/>
 <path fill="none" stroke="rgb(179,179,179)" stroke-width="18" stroke-linejoin="round" d="M 1825,13268 L 1825,2375"/>
 <path fill="rgb(0,69,134)" stroke="none" d="M 29230,13268 L 29514,13268 29514,13267 29230,13267 29230,13268 Z"/>
 <path fill="rgb(0,69,134)" stroke="none" d="M 28662,13268 L 28946,13268 28946,13262 28662,13262 28662,13268 Z"/>
 <path fill="rgb(0,69,134)" stroke="none" d="M 28094,13268 L 28378,13268 28378,13260 28094,13260 28094,13268 Z"/>
 <path fill="rgb(0,69,134)" stroke="none" d="M 27526,13268 L 27810,13268 27810,13256 27526,13256 27526,13268 Z"/>
 <path fill="rgb(0,69,134)" stroke="none" d="M 26958,13268 L 27242,13268 27242,13249 26958,13249 26958,13268 Z"/>
 <path fill="rgb(0,69,134)" stroke="none" d="M 26390,13268 L 26674,13268 26674,13247 26390,13247 26390,13268 Z"/>
 <path fill="rgb(0,69,134)" stroke="none" d="M 25822,13268 L 26106,13268 26106,13246 25822,13246 25822,13268 Z"/>
 <path fill="rgb(0,69,134)" stroke="none" d="M 25254,13268 L 25538,13268 25538,13246 25254,13246 25254,13268 Z"/>
 <path fill="rgb(0,69,134)" stroke="none" d="M 24686,13268 L 24970,13268 24970,13243 24686,13243 24686,13268 Z"/>
 <path fill="rgb(0,69,134)" stroke="none" d="M 24118,13268 L 24402,13268 24402,13242 24118,13242 24118,13268 Z"/>
 <path fill="rgb(0,69,134)" stroke="none" d="M 23550,13268 L 23834,13268 23834,13220 23550,13220 23550,13268 Z"/>
 <path fill="rgb(255,0,0)" stroke="none" d="M 22982,13268 L 23266,13268 23266,13220 22982,13220 22982,13268 Z"/>
 <path fill="rgb(0,69,134)" stroke="none" d="M 22414,13268 L 22698,13268 22698,13219 22414,13219 22414,13268 Z"/>
 <path fill="rgb(0,69,134)" stroke="none" d="M 21846,13268 L 22130,13268 22130,13214 21846,13214 21846,13268 Z"/>
 <path fill="rgb(0,69,134)" stroke="none" d="M 21278,13268 L 21562,13268 21562,13201 21278,13201 21278,13268 Z"/>
 <path fill="rgb(0,69,134)" stroke="none" d="M 20710,13268 L 20994,13268 20994,13136 20710,13136 20710,13268 Z"/>
 <path fill="rgb(0,69,134)" stroke="none" d="M 20142,13268 L 20426,13268 20426,13126 20142,13126 20142,13268 Z"/>
 <path fill="rgb(0,69,134)" stroke="none" d="M 19574,13268 L 19858,13268 19858,13125 19574,13125 19574,13268 Z"/>
 <path fill="rgb(0,69,134)" stroke="none" d="M 19006,13268 L 19290,13268 19290,13112 19006,13112 19006,13268 Z"/>
 <path fill="rgb(0,69,134)" stroke="none" d="M 18438,13268 L 18722,13268 18722,13098 18438,13098 18438,13268 Z"/>
 <path fill="rgb(0,69,134)" stroke="none" d="M 17870,13268 L 18154,13268 18154,13064 17870,13064 17870,13268 Z"/>
 <path fill="rgb(0,69,134)" stroke="none" d="M 17302,13268 L 17586,13268 17586,13055 17302,13055 17302,13268 Z"/>
 <path fill="rgb(0,69,134)" stroke="none" d="M 16734,13268 L 17018,13268 17018,13033 16734,13033 16734,13268 Z"/>
 <path fill="rgb(0,69,134)" stroke="none" d="M 16166,13268 L 16450,13268 16450,12979 16166,12979 16166,13268 Z"/>
 <path fill="rgb(0,69,134)" stroke="none" d="M 15598,13268 L 15882,13268 15882,12945 15598,12945 15598,13268 Z"/>
 <path fill="rgb(0,69,134)" stroke="none" d="M 15031,13268 L 15314,13268 15314,12940 15031,12940 15031,13268 Z"/>
 <path fill="rgb(0,69,134)" stroke="none" d="M 14463,13268 L 14747,13268 14747,12938 14463,12938 14463,13268 Z"/>
 <path fill="rgb(0,69,134)" stroke="none" d="M 13895,13268 L 14179,13268 14179,12876 13895,12876 13895,13268 Z"/>
 <path fill="rgb(0,69,134)" stroke="none" d="M 13327,13268 L 13611,13268 13611,12866 13327,12866 13327,13268 Z"/>
 <path fill="rgb(0,69,134)" stroke="none" d="M 12759,13268 L 13043,13268 13043,12859 12759,12859 12759,13268 Z"/>
 <path fill="rgb(0,69,134)" stroke="none" d="M 12191,13268 L 12475,13268 12475,12849 12191,12849 12191,13268 Z"/>
 <path fill="rgb(0,69,134)" stroke="none" d="M 11623,13268 L 11907,13268 11907,12831 11623,12831 11623,13268 Z"/>
 <path fill="rgb(0,69,134)" stroke="none" d="M 11055,13268 L 11339,13268 11339,12728 11055,12728 11055,13268 Z"/>
 <path fill="rgb(0,69,134)" stroke="none" d="M 10487,13268 L 10771,13268 10771,12689 10487,12689 10487,13268 Z"/>
 <path fill="rgb(0,69,134)" stroke="none" d="M 9919,13268 L 10203,13268 10203,12659 9919,12659 9919,13268 Z"/>
 <path fill="rgb(0,69,134)" stroke="none" d="M 9351,13268 L 9635,13268 9635,12645 9351,12645 9351,13268 Z"/>
 <path fill="rgb(0,69,134)" stroke="none" d="M 8783,13268 L 9067,13268 9067,12620 8783,12620 8783,13268 Z"/>
 <path fill="rgb(0,69,134)" stroke="none" d="M 8215,13268 L 8499,13268 8499,12546 8215,12546 8215,13268 Z"/>
 <path fill="rgb(0,69,134)" stroke="none" d="M 7647,13268 L 7931,13268 7931,12379 7647,12379 7647,13268 Z"/>
 <path fill="rgb(0,69,134)" stroke="none" d="M 7079,13268 L 7363,13268 7363,12356 7079,12356 7079,13268 Z"/>
 <path fill="rgb(0,69,134)" stroke="none" d="M 6511,13268 L 6795,13268 6795,12322 6511,12322 6511,13268 Z"/>
 <path fill="rgb(0,69,134)" stroke="none" d="M 5943,13268 L 6227,13268 6227,12244 5943,12244 5943,13268 Z"/>
 <path fill="rgb(0,69,134)" stroke="none" d="M 5375,13268 L 5659,13268 5659,12209 5375,12209 5375,13268 Z"/>
 <path fill="rgb(0,69,134)" stroke="none" d="M 4807,13268 L 5091,13268 5091,11882 4807,11882 4807,13268 Z"/>
 <path fill="rgb(0,69,134)" stroke="none" d="M 4239,13268 L 4523,13268 4523,11592 4239,11592 4239,13268 Z"/>
 <path fill="rgb(0,69,134)" stroke="none" d="M 3671,13268 L 3955,13268 3955,10767 3671,10767 3671,13268 Z"/>
 <path fill="rgb(0,69,134)" stroke="none" d="M 3103,13268 L 3387,13268 3387,10429 3103,10429 3103,13268 Z"/>
 <path fill="rgb(0,69,134)" stroke="none" d="M 2535,13268 L 2819,13268 2819,9666 2535,9666 2535,13268 Z"/>
 <path fill="rgb(0,69,134)" stroke="none" d="M 1967,13268 L 2251,13268 2251,8460 1967,8460 1967,13268 Z"/>
 <path fill="none" stroke="rgb(255,0,0)" stroke-linejoin="round" d="M 1825,12645 L 29656,12645"/>
 <text class="TextShape" transform="rotate(-44.9 1688 14248)"><tspan class="TextParagraph" font-family="Arial, sans-serif" font-size="353px" font-weight="400"><tspan class="TextPosition" x="1688" y="14248"><tspan fill="rgb(0,0,0)" stroke="none">USA</tspan></tspan></tspan></text>
 <text class="TextShape" transform="rotate(-44.9 1862 14641)"><tspan class="TextParagraph" font-family="Arial, sans-serif" font-size="353px" font-weight="400"><tspan class="TextPosition" x="1862" y="14641"><tspan fill="rgb(0,0,0)" stroke="none">Armenia</tspan></tspan></tspan></text>
 <text class="TextShape" transform="rotate(-44.9 1494 15577)"><tspan class="TextParagraph" font-family="Arial, sans-serif" font-size="353px" font-weight="400"><tspan class="TextPosition" x="1494" y="15577"><tspan fill="rgb(0,0,0)" stroke="none">North Macedonia</tspan></tspan></tspan></text>
 <text class="TextShape" transform="rotate(-44.9 3035 14604)"><tspan class="TextParagraph" font-family="Arial, sans-serif" font-size="353px" font-weight="400"><tspan class="TextPosition" x="3035" y="14604"><tspan fill="rgb(0,0,0)" stroke="none">Sweden</tspan></tspan></tspan></text>
 <text class="TextShape" transform="rotate(-44.9 3548 14659)"><tspan class="TextParagraph" font-family="Arial, sans-serif" font-size="353px" font-weight="400"><tspan class="TextPosition" x="3548" y="14659"><tspan fill="rgb(0,0,0)" stroke="none">Moldova</tspan></tspan></tspan></text>
 <text class="TextShape" transform="rotate(-44.9 2394 16381)"><tspan class="TextParagraph" font-family="Arial, sans-serif" font-size="353px" font-weight="400"><tspan class="TextPosition" x="2394" y="16381"><tspan fill="rgb(0,0,0)" stroke="none">Bosnia and Herzegovina</tspan></tspan></tspan></text>
 <text class="TextShape" transform="rotate(-44.9 5001 14343)"><tspan class="TextParagraph" font-family="Arial, sans-serif" font-size="353px" font-weight="400"><tspan class="TextPosition" x="5001" y="14343"><tspan fill="rgb(0,0,0)" stroke="none">Israel</tspan></tspan></tspan></text>
 <text class="TextShape" transform="rotate(-44.9 5831 14079)"><tspan class="TextParagraph" font-family="Arial, sans-serif" font-size="353px" font-weight="400"><tspan class="TextPosition" x="5831" y="14079"><tspan fill="rgb(0,0,0)" stroke="none">UK</tspan></tspan></tspan></text>
 <text class="TextShape" transform="rotate(-44.9 5594 14885)"><tspan class="TextParagraph" font-family="Arial, sans-serif" font-size="353px" font-weight="400"><tspan class="TextPosition" x="5594" y="14885"><tspan fill="rgb(0,0,0)" stroke="none">Azerbaijan</tspan></tspan></tspan></text>
 <text class="TextShape" transform="rotate(-44.9 5975 15073)"><tspan class="TextParagraph" font-family="Arial, sans-serif" font-size="353px" font-weight="400"><tspan class="TextPosition" x="5975" y="15073"><tspan fill="rgb(0,0,0)" stroke="none">Luxembourg</tspan></tspan></tspan></text>
 <text class="TextShape" transform="rotate(-44.9 6974 14641)"><tspan class="TextParagraph" font-family="Arial, sans-serif" font-size="353px" font-weight="400"><tspan class="TextPosition" x="6974" y="14641"><tspan fill="rgb(0,0,0)" stroke="none">Portugal</tspan></tspan></tspan></text>
 <text class="TextShape" transform="rotate(-44.9 7168 15015)"><tspan class="TextParagraph" font-family="Arial, sans-serif" font-size="353px" font-weight="400"><tspan class="TextPosition" x="7168" y="15015"><tspan fill="rgb(0,0,0)" stroke="none">Montenegro</tspan></tspan></tspan></text>
 <text class="TextShape" transform="rotate(-44.9 8054 14697)"><tspan class="TextParagraph" font-family="Arial, sans-serif" font-size="353px" font-weight="400"><tspan class="TextPosition" x="8054" y="14697"><tspan fill="rgb(0,0,0)" stroke="none">Romania</tspan></tspan></tspan></text>
 <text class="TextShape" transform="rotate(-44.9 8772 14548)"><tspan class="TextParagraph" font-family="Arial, sans-serif" font-size="353px" font-weight="400"><tspan class="TextPosition" x="8772" y="14548"><tspan fill="rgb(0,0,0)" stroke="none">Albania</tspan></tspan></tspan></text>
 <text class="TextShape" transform="rotate(-44.9 9396 14491)"><tspan class="TextParagraph" font-family="Arial, sans-serif" font-size="353px" font-weight="400"><tspan class="TextPosition" x="9396" y="14491"><tspan fill="rgb(0,0,0)" stroke="none">France</tspan></tspan></tspan></text>
 <text class="TextShape" transform="rotate(-44.9 9963 14491)"><tspan class="TextParagraph" font-family="Arial, sans-serif" font-size="353px" font-weight="400"><tspan class="TextPosition" x="9963" y="14491"><tspan fill="rgb(0,0,0)" stroke="none">Turkey</tspan></tspan></tspan></text>
 <text class="TextShape" transform="rotate(-44.9 10400 14623)"><tspan class="TextParagraph" font-family="Arial, sans-serif" font-size="353px" font-weight="400"><tspan class="TextPosition" x="10400" y="14623"><tspan fill="rgb(0,0,0)" stroke="none">Belgium</tspan></tspan></tspan></text>
 <text class="TextShape" transform="rotate(-44.9 10967 14623)"><tspan class="TextParagraph" font-family="Arial, sans-serif" font-size="353px" font-weight="400"><tspan class="TextPosition" x="10967" y="14623"><tspan fill="rgb(0,0,0)" stroke="none">Bulgaria</tspan></tspan></tspan></text>
 <text class="TextShape" transform="rotate(-44.9 11798 14361)"><tspan class="TextParagraph" font-family="Arial, sans-serif" font-size="353px" font-weight="400"><tspan class="TextPosition" x="11798" y="14361"><tspan fill="rgb(0,0,0)" stroke="none">Spain</tspan></tspan></tspan></text>
 <text class="TextShape" transform="rotate(-44.9 12103 14623)"><tspan class="TextParagraph" font-family="Arial, sans-serif" font-size="353px" font-weight="400"><tspan class="TextPosition" x="12103" y="14623"><tspan fill="rgb(0,0,0)" stroke="none">Czechia</tspan></tspan></tspan></text>
 <text class="TextShape" transform="rotate(-44.9 12803 14491)"><tspan class="TextParagraph" font-family="Arial, sans-serif" font-size="353px" font-weight="400"><tspan class="TextPosition" x="12803" y="14491"><tspan fill="rgb(0,0,0)" stroke="none">Russia</tspan></tspan></tspan></text>
 <text class="TextShape" transform="rotate(-44.9 13352 14511)"><tspan class="TextParagraph" font-family="Arial, sans-serif" font-size="353px" font-weight="400"><tspan class="TextPosition" x="13352" y="14511"><tspan fill="rgb(0,0,0)" stroke="none">Croatia</tspan></tspan></tspan></text>
 <text class="TextShape" transform="rotate(-44.9 13995 14435)"><tspan class="TextParagraph" font-family="Arial, sans-serif" font-size="353px" font-weight="400"><tspan class="TextPosition" x="13995" y="14435"><tspan fill="rgb(0,0,0)" stroke="none">Serbia</tspan></tspan></tspan></text>
 <text class="TextShape" transform="rotate(-44.9 13964 15035)"><tspan class="TextParagraph" font-family="Arial, sans-serif" font-size="353px" font-weight="400"><tspan class="TextPosition" x="13964" y="15035"><tspan fill="rgb(0,0,0)" stroke="none">Netherlands</tspan></tspan></tspan></text>
 <text class="TextShape" transform="rotate(-44.9 15000 14567)"><tspan class="TextParagraph" font-family="Arial, sans-serif" font-size="353px" font-weight="400"><tspan class="TextPosition" x="15000" y="14567"><tspan fill="rgb(0,0,0)" stroke="none">Ukraine</tspan></tspan></tspan></text>
 <text class="TextShape" transform="rotate(-44.9 15137 14997)"><tspan class="TextParagraph" font-family="Arial, sans-serif" font-size="353px" font-weight="400"><tspan class="TextPosition" x="15137" y="14997"><tspan fill="rgb(0,0,0)" stroke="none">Switzerland</tspan></tspan></tspan></text>
 <text class="TextShape" transform="rotate(-44.9 16492 14211)"><tspan class="TextParagraph" font-family="Arial, sans-serif" font-size="353px" font-weight="400"><tspan class="TextPosition" x="16492" y="14211"><tspan fill="rgb(0,0,0)" stroke="none">Italy</tspan></tspan></tspan></text>
 <text class="TextShape" transform="rotate(-44.9 16780 14491)"><tspan class="TextParagraph" font-family="Arial, sans-serif" font-size="353px" font-weight="400"><tspan class="TextPosition" x="16780" y="14491"><tspan fill="rgb(0,0,0)" stroke="none">Poland</tspan></tspan></tspan></text>
 <text class="TextShape" transform="rotate(-44.9 17160 14679)"><tspan class="TextParagraph" font-family="Arial, sans-serif" font-size="353px" font-weight="400"><tspan class="TextPosition" x="17160" y="14679"><tspan fill="rgb(0,0,0)" stroke="none">Slovenia</tspan></tspan></tspan></text>
 <text class="TextShape" transform="rotate(-44.9 17896 14511)"><tspan class="TextParagraph" font-family="Arial, sans-serif" font-size="353px" font-weight="400"><tspan class="TextPosition" x="17896" y="14511"><tspan fill="rgb(0,0,0)" stroke="none">Austria</tspan></tspan></tspan></text>
 <text class="TextShape" transform="rotate(-44.9 18259 14716)"><tspan class="TextParagraph" font-family="Arial, sans-serif" font-size="353px" font-weight="400"><tspan class="TextPosition" x="18259" y="14716"><tspan fill="rgb(0,0,0)" stroke="none">Denmark</tspan></tspan></tspan></text>
 <text class="TextShape" transform="rotate(-44.9 18808 14735)"><tspan class="TextParagraph" font-family="Arial, sans-serif" font-size="353px" font-weight="400"><tspan class="TextPosition" x="18808" y="14735"><tspan fill="rgb(0,0,0)" stroke="none">Germany</tspan></tspan></tspan></text>
 <text class="TextShape" transform="rotate(-44.9 19545 14567)"><tspan class="TextParagraph" font-family="Arial, sans-serif" font-size="353px" font-weight="400"><tspan class="TextPosition" x="19545" y="14567"><tspan fill="rgb(0,0,0)" stroke="none">Belarus</tspan></tspan></tspan></text>
 <text class="TextShape" transform="rotate(-44.9 20206 14473)"><tspan class="TextParagraph" font-family="Arial, sans-serif" font-size="353px" font-weight="400"><tspan class="TextPosition" x="20206" y="14473"><tspan fill="rgb(0,0,0)" stroke="none">Ireland</tspan></tspan></tspan></text>
 <text class="TextShape" transform="rotate(-44.9 20699 14548)"><tspan class="TextParagraph" font-family="Arial, sans-serif" font-size="353px" font-weight="400"><tspan class="TextPosition" x="20699" y="14548"><tspan fill="rgb(0,0,0)" stroke="none">Norway</tspan></tspan></tspan></text>
 <text class="TextShape" transform="rotate(-44.9 21285 14529)"><tspan class="TextParagraph" font-family="Arial, sans-serif" font-size="353px" font-weight="400"><tspan class="TextPosition" x="21285" y="14529"><tspan fill="rgb(0,0,0)" stroke="none">Greece</tspan></tspan></tspan></text>
 <text class="TextShape" transform="rotate(-44.9 21853 14529)"><tspan class="TextParagraph" font-family="Arial, sans-serif" font-size="353px" font-weight="400"><tspan class="TextPosition" x="21853" y="14529"><tspan fill="rgb(0,0,0)" stroke="none">Iceland</tspan></tspan></tspan></text>
 <text class="TextShape" transform="rotate(-44.9 22309 14641)"><tspan class="TextParagraph" font-family="Arial, sans-serif" font-size="353px" font-weight="400"><tspan class="TextPosition" x="22309" y="14641"><tspan fill="rgb(0,0,0)" stroke="none">Hungary</tspan></tspan></tspan></text>
 <text class="TextShape" transform="rotate(-44.9 22989 14529)"><tspan class="TextParagraph" font-family="Arial, sans-serif" font-size="353px" font-weight="400"><tspan class="TextPosition" x="22989" y="14529"><tspan fill="rgb(0,0,0)" stroke="none">Finland</tspan></tspan></tspan></text>
 <text class="TextShape" transform="rotate(-44.9 23406 14679)"><tspan class="TextParagraph" font-family="Arial, sans-serif" font-size="353px" font-weight="400"><tspan class="TextPosition" x="23406" y="14679"><tspan fill="rgb(0,0,0)" stroke="none">Slovakia</tspan></tspan></tspan></text>
 <text class="TextShape" transform="rotate(-44.9 24256 14398)"><tspan class="TextParagraph" font-family="Arial, sans-serif" font-size="353px" font-weight="400"><tspan class="TextPosition" x="24256" y="14398"><tspan fill="rgb(0,0,0)" stroke="none">Japan</tspan></tspan></tspan></text>
 <text class="TextShape" transform="rotate(-44.9 24880 14343)"><tspan class="TextParagraph" font-family="Arial, sans-serif" font-size="353px" font-weight="400"><tspan class="TextPosition" x="24880" y="14343"><tspan fill="rgb(0,0,0)" stroke="none">Malta</tspan></tspan></tspan></text>
 <text class="TextShape" transform="rotate(-44.9 25093 14697)"><tspan class="TextParagraph" font-family="Arial, sans-serif" font-size="353px" font-weight="400"><tspan class="TextPosition" x="25093" y="14697"><tspan fill="rgb(0,0,0)" stroke="none">S. Korea</tspan></tspan></tspan></text>
 <text class="TextShape" transform="rotate(-44.9 25846 14511)"><tspan class="TextParagraph" font-family="Arial, sans-serif" font-size="353px" font-weight="400"><tspan class="TextPosition" x="25846" y="14511"><tspan fill="rgb(0,0,0)" stroke="none">Cyprus</tspan></tspan></tspan></text>
 <text class="TextShape" transform="rotate(-44.9 26210 14716)"><tspan class="TextParagraph" font-family="Arial, sans-serif" font-size="353px" font-weight="400"><tspan class="TextPosition" x="26210" y="14716"><tspan fill="rgb(0,0,0)" stroke="none">Lithuania</tspan></tspan></tspan></text>
 <text class="TextShape" transform="rotate(-44.9 26927 14567)"><tspan class="TextParagraph" font-family="Arial, sans-serif" font-size="353px" font-weight="400"><tspan class="TextPosition" x="26927" y="14567"><tspan fill="rgb(0,0,0)" stroke="none">Estonia</tspan></tspan></tspan></text>
 <text class="TextShape" transform="rotate(-44.9 27665 14398)"><tspan class="TextParagraph" font-family="Arial, sans-serif" font-size="353px" font-weight="400"><tspan class="TextPosition" x="27665" y="14398"><tspan fill="rgb(0,0,0)" stroke="none">Latvia</tspan></tspan></tspan></text>
 <text class="TextShape" transform="rotate(-44.9 28045 14585)"><tspan class="TextParagraph" font-family="Arial, sans-serif" font-size="353px" font-weight="400"><tspan class="TextPosition" x="28045" y="14585"><tspan fill="rgb(0,0,0)" stroke="none">Georgia</tspan></tspan></tspan></text>
 <text class="TextShape" transform="rotate(-44.9 28836 14361)"><tspan class="TextParagraph" font-family="Arial, sans-serif" font-size="353px" font-weight="400"><tspan class="TextPosition" x="28836" y="14361"><tspan fill="rgb(0,0,0)" stroke="none">China</tspan></tspan></tspan></text>
 <text class="TextShape"><tspan class="TextParagraph" font-family="Arial, sans-serif" font-size="353px" font-weight="400"><tspan class="TextPosition" x="596" y="13389"><tspan fill="rgb(0,0,0)" stroke="none">0,00%</tspan></tspan></tspan></text>
 <text class="TextShape"><tspan class="TextParagraph" font-family="Arial, sans-serif" font-size="353px" font-weight="400"><tspan class="TextPosition" x="596" y="12178"><tspan fill="rgb(0,0,0)" stroke="none">0,33%</tspan></tspan></tspan></text>
 <text class="TextShape"><tspan class="TextParagraph" font-family="Arial, sans-serif" font-size="353px" font-weight="400"><tspan class="TextPosition" x="596" y="10968"><tspan fill="rgb(0,0,0)" stroke="none">0,67%</tspan></tspan></tspan></text>
 <text class="TextShape"><tspan class="TextParagraph" font-family="Arial, sans-serif" font-size="353px" font-weight="400"><tspan class="TextPosition" x="596" y="9757"><tspan fill="rgb(0,0,0)" stroke="none">1,00%</tspan></tspan></tspan></text>
 <text class="TextShape"><tspan class="TextParagraph" font-family="Arial, sans-serif" font-size="353px" font-weight="400"><tspan class="TextPosition" x="596" y="8547"><tspan fill="rgb(0,0,0)" stroke="none">1,33%</tspan></tspan></tspan></text>
 <text class="TextShape"><tspan class="TextParagraph" font-family="Arial, sans-serif" font-size="353px" font-weight="400"><tspan class="TextPosition" x="596" y="7336"><tspan fill="rgb(0,0,0)" stroke="none">1,67%</tspan></tspan></tspan></text>
 <text class="TextShape"><tspan class="TextParagraph" font-family="Arial, sans-serif" font-size="353px" font-weight="400"><tspan class="TextPosition" x="596" y="6126"><tspan fill="rgb(0,0,0)" stroke="none">2,00%</tspan></tspan></tspan></text>
 <text class="TextShape"><tspan class="TextParagraph" font-family="Arial, sans-serif" font-size="353px" font-weight="400"><tspan class="TextPosition" x="596" y="4915"><tspan fill="rgb(0,0,0)" stroke="none">2,33%</tspan></tspan></tspan></text>
 <text class="TextShape"><tspan class="TextParagraph" font-family="Arial, sans-serif" font-size="353px" font-weight="400"><tspan class="TextPosition" x="596" y="3705"><tspan fill="rgb(0,0,0)" stroke="none">2,67%</tspan></tspan></tspan></text>
 <text class="TextShape"><tspan class="TextParagraph" font-family="Arial, sans-serif" font-size="353px" font-weight="400"><tspan class="TextPosition" x="596" y="2495"><tspan fill="rgb(0,0,0)" stroke="none">3,00%</tspan></tspan></tspan></text>
 <text class="TextShape"><tspan class="TextParagraph" font-family="Arial, sans-serif" font-size="459px" font-weight="400"><tspan class="TextPosition" x="7133" y="1011"><tspan fill="rgb(0,0,0)" stroke="none">Active cases per population/ Aktív esetek száma a lakosság %-ában 2020.06.29.</tspan></tspan></tspan></text>
 <path fill="rgb(0,69,134)" stroke="none" d="M 9412,1844 L 9012,1844 9012,1633 9812,1633 9812,1844 9412,1844 Z"/>
 <path fill="none" stroke="rgb(255,0,0)" stroke-linejoin="round" d="M 14617,1738 L 15416,1738"/>
 <text class="TextShape"><tspan class="TextParagraph" font-family="Arial, sans-serif" font-size="353px" font-weight="400"><tspan class="TextPosition" x="9912" y="1858"><tspan fill="rgb(0,0,0)" stroke="none">Active real cases percentage</tspan></tspan></tspan></text>
 <text class="TextShape"><tspan class="TextParagraph" font-family="Arial, sans-serif" font-size="353px" font-weight="400"><tspan class="TextPosition" x="15516" y="1858"><tspan fill="rgb(0,0,0)" stroke="none">Közép (Active real cases percentage)</tspan></tspan></tspan></text>
</svg>