<?xml version="1.0" encoding="UTF-8"?>
<!DOCTYPE svg PUBLIC "-//W3C//DTD SVG 1.1//EN" "http://www.w3.org/Graphics/SVG/1.1/DTD/svg11.dtd">
<svg width="303mm" height="170mm" viewBox="0 0 30300 17000" version="1.1" xmlns="http://www.w3.org/2000/svg" xmlns:xlink="http://www.w3.org/1999/xlink" stroke-width="28.222" stroke-linejoin="round" xml:space="preserve">
 <path fill="rgb(255,255,255)" stroke="none" d="M 15150,17000 L 0,17000 0,0 30300,0 30300,17000 15150,17000 Z"/>
 <path fill="none" stroke="rgb(179,179,179)" stroke-linejoin="round" d="M 15742,13271 L 1825,13271 1825,2376 29659,2376 29659,13271 15742,13271 Z"/>
 <path fill="none" stroke="rgb(179,179,179)" stroke-width="18" stroke-linejoin="round" d="M 29659,13270 L 1825,13270"/>
 <path fill="none" stroke="rgb(179,179,179)" stroke-width="18" stroke-linejoin="round" d="M 29659,12059 L 1825,12059"/>
 <path fill="none" stroke="rgb(179,179,179)" stroke-width="18" stroke-linejoin="round" d="M 29659,10848 L 1825,10848"/>
 <path fill="none" stroke="rgb(179,179,179)" stroke-width="18" stroke-linejoin="round" d="M 29659,9638 L 1825,9638"/>
 <path fill="none" stroke="rgb(179,179,179)" stroke-width="18" stroke-linejoin="round" d="M 29659,8428 L 1825,8428"/>
 <path fill="none" stroke="rgb(179,179,179)" stroke-width="18" stroke-linejoin="round" d="M 29659,7217 L 1825,7217"/>
 <path fill="none" stroke="rgb(179,179,179)" stroke-width="18" stroke-linejoin="round" d="M 29659,6007 L 1825,6007"/>
 <path fill="none" stroke="rgb(179,179,179)" stroke-width="18" stroke-linejoin="round" d="M 29659,4796 L 1825,4796"/>
 <path fill="none" stroke="rgb(179,179,179)" stroke-width="18" stroke-linejoin="round" d="M 29659,3585 L 1825,3585"/>
 <path fill="none" stroke="rgb(179,179,179)" stroke-width="18" stroke-linejoin="round" d="M 29659,2375 L 1825,2375"/>
 <path fill="none" stroke="rgb(179,179,179)" stroke-width="18" stroke-linejoin="round" d="M 1825,13420 L 1825,13270"/>
 <path fill="none" stroke="rgb(179,179,179)" stroke-width="18" stroke-linejoin="round" d="M 2393,13420 L 2393,13270"/>
 <path fill="none" stroke="rgb(179,179,179)" stroke-width="18" stroke-linejoin="round" d="M 2961,13420 L 2961,13270"/>
 <path fill="none" stroke="rgb(179,179,179)" stroke-width="18" stroke-linejoin="round" d="M 3529,13420 L 3529,13270"/>
 <path fill="none" stroke="rgb(179,179,179)" stroke-width="18" stroke-linejoin="round" d="M 4097,13420 L 4097,13270"/>
 <path fill="none" stroke="rgb(179,179,179)" stroke-width="18" stroke-linejoin="round" d="M 4665,13420 L 4665,13270"/>
 <path fill="none" stroke="rgb(179,179,179)" stroke-width="18" stroke-linejoin="round" d="M 5233,13420 L 5233,13270"/>
 <path fill="none" stroke="rgb(179,179,179)" stroke-width="18" stroke-linejoin="round" d="M 5801,13420 L 5801,13270"/>
 <path fill="none" stroke="rgb(179,179,179)" stroke-width="18" stroke-linejoin="round" d="M 6369,13420 L 6369,13270"/>
 <path fill="none" stroke="rgb(179,179,179)" stroke-width="18" stroke-linejoin="round" d="M 6937,13420 L 6937,13270"/>
 <path fill="none" stroke="rgb(179,179,179)" stroke-width="18" stroke-linejoin="round" d="M 7505,13420 L 7505,13270"/>
 <path fill="none" stroke="rgb(179,179,179)" stroke-width="18" stroke-linejoin="round" d="M 8073,13420 L 8073,13270"/>
 <path fill="none" stroke="rgb(179,179,179)" stroke-width="18" stroke-linejoin="round" d="M 8641,13420 L 8641,13270"/>
 <path fill="none" stroke="rgb(179,179,179)" stroke-width="18" stroke-linejoin="round" d="M 9209,13420 L 9209,13270"/>
 <path fill="none" stroke="rgb(179,179,179)" stroke-width="18" stroke-linejoin="round" d="M 9777,13420 L 9777,13270"/>
 <path fill="none" stroke="rgb(179,179,179)" stroke-width="18" stroke-linejoin="round" d="M 10345,13420 L 10345,13270"/>
 <path fill="none" stroke="rgb(179,179,179)" stroke-width="18" stroke-linejoin="round" d="M 10913,13420 L 10913,13270"/>
 <path fill="none" stroke="rgb(179,179,179)" stroke-width="18" stroke-linejoin="round" d="M 11482,13420 L 11482,13270"/>
 <path fill="none" stroke="rgb(179,179,179)" stroke-width="18" stroke-linejoin="round" d="M 12050,13420 L 12050,13270"/>
 <path fill="none" stroke="rgb(179,179,179)" stroke-width="18" stroke-linejoin="round" d="M 12618,13420 L 12618,13270"/>
 <path fill="none" stroke="rgb(179,179,179)" stroke-width="18" stroke-linejoin="round" d="M 13186,13420 L 13186,13270"/>
 <path fill="none" stroke="rgb(179,179,179)" stroke-width="18" stroke-linejoin="round" d="M 13754,13420 L 13754,13270"/>
 <path fill="none" stroke="rgb(179,179,179)" stroke-width="18" stroke-linejoin="round" d="M 14322,13420 L 14322,13270"/>
 <path fill="none" stroke="rgb(179,179,179)" stroke-width="18" stroke-linejoin="round" d="M 14890,13420 L 14890,13270"/>
 <path fill="none" stroke="rgb(179,179,179)" stroke-width="18" stroke-linejoin="round" d="M 15457,13420 L 15457,13270"/>
 <path fill="none" stroke="rgb(179,179,179)" stroke-width="18" stroke-linejoin="round" d="M 16025,13420 L 16025,13270"/>
 <path fill="none" stroke="rgb(179,179,179)" stroke-width="18" stroke-linejoin="round" d="M 16593,13420 L 16593,13270"/>
 <path fill="none" stroke="rgb(179,179,179)" stroke-width="18" stroke-linejoin="round" d="M 17161,13420 L 17161,13270"/>
 <path fill="none" stroke="rgb(179,179,179)" stroke-width="18" stroke-linejoin="round" d="M 17729,13420 L 17729,13270"/>
 <path fill="none" stroke="rgb(179,179,179)" stroke-width="18" stroke-linejoin="round" d="M 18297,13420 L 18297,13270"/>
 <path fill="none" stroke="rgb(179,179,179)" stroke-width="18" stroke-linejoin="round" d="M 18865,13420 L 18865,13270"/>
 <path fill="none" stroke="rgb(179,179,179)" stroke-width="18" stroke-linejoin="round" d="M 19433,13420 L 19433,13270"/>
 <path fill="none" stroke="rgb(179,179,179)" stroke-width="18" stroke-linejoin="round" d="M 20001,13420 L 20001,13270"/>
 <path fill="none" stroke="rgb(179,179,179)" stroke-width="18" stroke-linejoin="round" d="M 20570,13420 L 20570,13270"/>
 <path fill="none" stroke="rgb(179,179,179)" stroke-width="18" stroke-linejoin="round" d="M 21138,13420 L 21138,13270"/>
 <path fill="none" stroke="rgb(179,179,179)" stroke-width="18" stroke-linejoin="round" d="M 21706,13420 L 21706,13270"/>
 <path fill="none" stroke="rgb(179,179,179)" stroke-width="18" stroke-linejoin="round" d="M 22274,13420 L 22274,13270"/>
 <path fill="none" stroke="rgb(179,179,179)" stroke-width="18" stroke-linejoin="round" d="M 22842,13420 L 22842,13270"/>
 <path fill="none" stroke="rgb(179,179,179)" stroke-width="18" stroke-linejoin="round" d="M 23410,13420 L 23410,13270"/>
 <path fill="none" stroke="rgb(179,179,179)" stroke-width="18" stroke-linejoin="round" d="M 23978,13420 L 23978,13270"/>
 <path fill="none" stroke="rgb(179,179,179)" stroke-width="18" stroke-linejoin="round" d="M 24546,13420 L 24546,13270"/>
 <path fill="none" stroke="rgb(179,179,179)" stroke-width="18" stroke-linejoin="round" d="M 25114,13420 L 25114,13270"/>
 <path fill="none" stroke="rgb(179,179,179)" stroke-width="18" stroke-linejoin="round" d="M 25682,13420 L 25682,13270"/>
 <path fill="none" stroke="rgb(179,179,179)" stroke-width="18" stroke-linejoin="round" d="M 26250,13420 L 26250,13270"/>
 <path fill="none" stroke="rgb(179,179,179)" stroke-width="18" stroke-linejoin="round" d="M 26818,13420 L 26818,13270"/>
 <path fill="none" stroke="rgb(179,179,179)" stroke-width="18" stroke-linejoin="round" d="M 27386,13420 L 27386,13270"/>
 <path fill="none" stroke="rgb(179,179,179)" stroke-width="18" stroke-linejoin="round" d="M 27954,13420 L 27954,13270"/>
 <path fill="none" stroke="rgb(179,179,179)" stroke-width="18" stroke-linejoin="round" d="M 28522,13420 L 28522,13270"/>
 <path fill="none" stroke="rgb(179,179,179)" stroke-width="18" stroke-linejoin="round" d="M 29090,13420 L 29090,13270"/>
 <path fill="none" stroke="rgb(179,179,179)" stroke-width="18" stroke-linejoin="round" d="M 29659,13420 L 29659,13270"/>
 <path fill="none" stroke="rgb(179,179,179)" stroke-width="18" stroke-linejoin="round" d="M 1825,13270 L 29659,13270"/>
 <path fill="none" stroke="rgb(179,179,179)" stroke-width="18" stroke-linejoin="round" d="M 1675,13270 L 1825,13270"/>
 <path fill="none" stroke="rgb(179,179,179)" stroke-width="18" stroke-linejoin="round" d="M 1675,12059 L 1825,12059"/>
 <path fill="none" stroke="rgb(179,179,179)" stroke-width="18" stroke-linejoin="round" d="M 1675,10848 L 1825,10848"/>
 <path fill="none" stroke="rgb(179,179,179)" stroke-width="18" stroke-linejoin="round" d="M 1675,9638 L 1825,9638"/>
 <path fill="none" stroke="rgb(179,179,179)" stroke-width="18" stroke-linejoin="round" d="M 1675,8428 L 1825,8428"/>
 <path fill="none" stroke="rgb(179,179,179)" stroke-width="18" stroke-linejoin="round" d="M 1675,7217 L 1825,7217"/>
 <path fill="none" stroke="rgb(179,179,179)" stroke-width="18" stroke-linejoin="round" d="M 1675,6007 L 1825,6007"/>
 <path fill="none" stroke="rgb(179,179,179)" stroke-width="18" stroke-linejoin="round" d="M 1675,4796 L 1825,4796"/>
 <path fill="none" stroke="rgb(179,179,179)" stroke-width="18" stroke-linejoin="round" d="M 1675,3585 L 1825,3585"/>
 <path fill="none" stroke="rgb(179,179,179)" stroke-width="18" stroke-linejoin="round" d="M 1675,2375 L 1825,2375"/>
 <path fill="none" stroke="rgb(179,179,179)" stroke-width="18" stroke-linejoin="round" d="M 1825,13270 L 1825,2375"/>
 <path fill="rgb(0,69,134)" stroke="none" d="M 29232,13270 L 29516,13270 29516,13269 29232,13269 29232,13270 Z"/>
 <path fill="rgb(0,69,134)" stroke="none" d="M 28664,13270 L 28948,13270 28948,13264 28664,13264 28664,13270 Z"/>
 <path fill="rgb(0,69,134)" stroke="none" d="M 28096,13270 L 28380,13270 28380,13264 28096,13264 28096,13270 Z"/>
 <path fill="rgb(0,69,134)" stroke="none" d="M 27528,13270 L 27812,13270 27812,13255 27528,13255 27528,13270 Z"/>
 <path fill="rgb(0,69,134)" stroke="none" d="M 26960,13270 L 27244,13270 27244,13251 26960,13251 26960,13270 Z"/>
 <path fill="rgb(0,69,134)" stroke="none" d="M 26392,13270 L 26676,13270 26676,13249 26392,13249 26392,13270 Z"/>
 <path fill="rgb(0,69,134)" stroke="none" d="M 25824,13270 L 26108,13270 26108,13249 25824,13249 25824,13270 Z"/>
 <path fill="rgb(0,69,134)" stroke="none" d="M 25256,13270 L 25540,13270 25540,13248 25256,13248 25256,13270 Z"/>
 <path fill="rgb(0,69,134)" stroke="none" d="M 24688,13270 L 24972,13270 24972,13245 24688,13245 24688,13270 Z"/>
 <path fill="rgb(0,69,134)" stroke="none" d="M 24120,13270 L 24404,13270 24404,13239 24120,13239 24120,13270 Z"/>
 <path fill="rgb(0,69,134)" stroke="none" d="M 23552,13270 L 23836,13270 23836,13230 23552,13230 23552,13270 Z"/>
 <path fill="rgb(0,69,134)" stroke="none" d="M 22984,13270 L 23268,13270 23268,13216 22984,13216 22984,13270 Z"/>
 <path fill="rgb(255,0,0)" stroke="none" d="M 22416,13270 L 22700,13270 22700,13215 22416,13215 22416,13270 Z"/>
 <path fill="rgb(0,69,134)" stroke="none" d="M 21848,13270 L 22132,13270 22132,13209 21848,13209 21848,13270 Z"/>
 <path fill="rgb(0,69,134)" stroke="none" d="M 21280,13270 L 21564,13270 21564,13184 21280,13184 21280,13270 Z"/>
 <path fill="rgb(0,69,134)" stroke="none" d="M 20712,13270 L 20996,13270 20996,13162 20712,13162 20712,13270 Z"/>
 <path fill="rgb(0,69,134)" stroke="none" d="M 20143,13270 L 20428,13270 20428,13147 20143,13147 20143,13270 Z"/>
 <path fill="rgb(0,69,134)" stroke="none" d="M 19575,13270 L 19859,13270 19859,13112 19575,13112 19575,13270 Z"/>
 <path fill="rgb(0,69,134)" stroke="none" d="M 19007,13270 L 19291,13270 19291,13100 19007,13100 19007,13270 Z"/>
 <path fill="rgb(0,69,134)" stroke="none" d="M 18439,13270 L 18723,13270 18723,13097 18439,13097 18439,13270 Z"/>
 <path fill="rgb(0,69,134)" stroke="none" d="M 17871,13270 L 18155,13270 18155,13036 17871,13036 17871,13270 Z"/>
 <path fill="rgb(0,69,134)" stroke="none" d="M 17303,13270 L 17587,13270 17587,13035 17303,13035 17303,13270 Z"/>
 <path fill="rgb(0,69,134)" stroke="none" d="M 16735,13270 L 17019,13270 17019,13028 16735,13028 16735,13270 Z"/>
 <path fill="rgb(0,69,134)" stroke="none" d="M 16167,13270 L 16451,13270 16451,13022 16167,13022 16167,13270 Z"/>
 <path fill="rgb(0,69,134)" stroke="none" d="M 15599,13270 L 15883,13270 15883,13013 15599,13013 15599,13270 Z"/>
 <path fill="rgb(0,69,134)" stroke="none" d="M 15032,13270 L 15315,13270 15315,12958 15032,12958 15032,13270 Z"/>
 <path fill="rgb(0,69,134)" stroke="none" d="M 14464,13270 L 14748,13270 14748,12944 14464,12944 14464,13270 Z"/>
 <path fill="rgb(0,69,134)" stroke="none" d="M 13896,13270 L 14180,13270 14180,12934 13896,12934 13896,13270 Z"/>
 <path fill="rgb(0,69,134)" stroke="none" d="M 13328,13270 L 13612,13270 13612,12928 13328,12928 13328,13270 Z"/>
 <path fill="rgb(0,69,134)" stroke="none" d="M 12760,13270 L 13044,13270 13044,12853 12760,12853 12760,13270 Z"/>
 <path fill="rgb(0,69,134)" stroke="none" d="M 12192,13270 L 12476,13270 12476,12834 12192,12834 12192,13270 Z"/>
 <path fill="rgb(0,69,134)" stroke="none" d="M 11624,13270 L 11908,13270 11908,12781 11624,12781 11624,13270 Z"/>
 <path fill="rgb(0,69,134)" stroke="none" d="M 11055,13270 L 11340,13270 11340,12715 11055,12715 11055,13270 Z"/>
 <path fill="rgb(0,69,134)" stroke="none" d="M 10487,13270 L 10771,13270 10771,12712 10487,12712 10487,13270 Z"/>
 <path fill="rgb(0,69,134)" stroke="none" d="M 9919,13270 L 10203,13270 10203,12692 9919,12692 9919,13270 Z"/>
 <path fill="rgb(0,69,134)" stroke="none" d="M 9351,13270 L 9635,13270 9635,12685 9351,12685 9351,13270 Z"/>
 <path fill="rgb(0,69,134)" stroke="none" d="M 8783,13270 L 9067,13270 9067,12631 8783,12631 8783,13270 Z"/>
 <path fill="rgb(0,69,134)" stroke="none" d="M 8215,13270 L 8499,13270 8499,12514 8215,12514 8215,13270 Z"/>
 <path fill="rgb(0,69,134)" stroke="none" d="M 7647,13270 L 7931,13270 7931,12505 7647,12505 7647,13270 Z"/>
 <path fill="rgb(0,69,134)" stroke="none" d="M 7079,13270 L 7363,13270 7363,12400 7079,12400 7079,13270 Z"/>
 <path fill="rgb(0,69,134)" stroke="none" d="M 6511,13270 L 6795,13270 6795,12374 6511,12374 6511,13270 Z"/>
 <path fill="rgb(0,69,134)" stroke="none" d="M 5943,13270 L 6227,13270 6227,12323 5943,12323 5943,13270 Z"/>
 <path fill="rgb(0,69,134)" stroke="none" d="M 5375,13270 L 5659,13270 5659,12275 5375,12275 5375,13270 Z"/>
 <path fill="rgb(0,69,134)" stroke="none" d="M 4807,13270 L 5091,13270 5091,12217 4807,12217 4807,13270 Z"/>
 <path fill="rgb(0,69,134)" stroke="none" d="M 4239,13270 L 4523,13270 4523,10935 4239,10935 4239,13270 Z"/>
 <path fill="rgb(0,69,134)" stroke="none" d="M 3671,13270 L 3955,13270 3955,10629 3671,10629 3671,13270 Z"/>
 <path fill="rgb(0,69,134)" stroke="none" d="M 3103,13270 L 3387,13270 3387,9630 3103,9630 3103,13270 Z"/>
 <path fill="rgb(0,69,134)" stroke="none" d="M 2535,13270 L 2819,13270 2819,8855 2535,8855 2535,13270 Z"/>
 <path fill="rgb(0,69,134)" stroke="none" d="M 1967,13270 L 2251,13270 2251,8651 1967,8651 1967,13270 Z"/>
 <path fill="none" stroke="rgb(255,0,0)" stroke-linejoin="round" d="M 1825,12619 L 29659,12619"/>
 <text class="TextShape" transform="rotate(-44.9 1688 14250)"><tspan class="TextParagraph" font-family="Arial, sans-serif" font-size="353px" font-weight="400"><tspan class="TextPosition" x="1688" y="14250"><tspan fill="rgb(0,0,0)" stroke="none">USA</tspan></tspan></tspan></text>
 <text class="TextShape" transform="rotate(-44.9 1899 14606)"><tspan class="TextParagraph" font-family="Arial, sans-serif" font-size="353px" font-weight="400"><tspan class="TextPosition" x="1899" y="14606"><tspan fill="rgb(0,0,0)" stroke="none">Sweden</tspan></tspan></tspan></text>
 <text class="TextShape" transform="rotate(-44.9 2430 14643)"><tspan class="TextParagraph" font-family="Arial, sans-serif" font-size="353px" font-weight="400"><tspan class="TextPosition" x="2430" y="14643"><tspan fill="rgb(0,0,0)" stroke="none">Armenia</tspan></tspan></tspan></text>
 <text class="TextShape" transform="rotate(-44.9 2062 15579)"><tspan class="TextParagraph" font-family="Arial, sans-serif" font-size="353px" font-weight="400"><tspan class="TextPosition" x="2062" y="15579"><tspan fill="rgb(0,0,0)" stroke="none">North Macedonia</tspan></tspan></tspan></text>
 <text class="TextShape" transform="rotate(-44.9 3548 14661)"><tspan class="TextParagraph" font-family="Arial, sans-serif" font-size="353px" font-weight="400"><tspan class="TextPosition" x="3548" y="14661"><tspan fill="rgb(0,0,0)" stroke="none">Moldova</tspan></tspan></tspan></text>
 <text class="TextShape" transform="rotate(-44.9 4433 14345)"><tspan class="TextParagraph" font-family="Arial, sans-serif" font-size="353px" font-weight="400"><tspan class="TextPosition" x="4433" y="14345"><tspan fill="rgb(0,0,0)" stroke="none">Israel</tspan></tspan></tspan></text>
 <text class="TextShape" transform="rotate(-44.9 5264 14081)"><tspan class="TextParagraph" font-family="Arial, sans-serif" font-size="353px" font-weight="400"><tspan class="TextPosition" x="5264" y="14081"><tspan fill="rgb(0,0,0)" stroke="none">UK</tspan></tspan></tspan></text>
 <text class="TextShape" transform="rotate(-44.9 5026 14887)"><tspan class="TextParagraph" font-family="Arial, sans-serif" font-size="353px" font-weight="400"><tspan class="TextPosition" x="5026" y="14887"><tspan fill="rgb(0,0,0)" stroke="none">Azerbaijan</tspan></tspan></tspan></text>
 <text class="TextShape" transform="rotate(-44.9 5838 14643)"><tspan class="TextParagraph" font-family="Arial, sans-serif" font-size="353px" font-weight="400"><tspan class="TextPosition" x="5838" y="14643"><tspan fill="rgb(0,0,0)" stroke="none">Portugal</tspan></tspan></tspan></text>
 <text class="TextShape" transform="rotate(-44.9 4666 16383)"><tspan class="TextParagraph" font-family="Arial, sans-serif" font-size="353px" font-weight="400"><tspan class="TextPosition" x="4666" y="16383"><tspan fill="rgb(0,0,0)" stroke="none">Bosnia and Herzegovina</tspan></tspan></tspan></text>
 <text class="TextShape" transform="rotate(-44.9 6992 14625)"><tspan class="TextParagraph" font-family="Arial, sans-serif" font-size="353px" font-weight="400"><tspan class="TextPosition" x="6992" y="14625"><tspan fill="rgb(0,0,0)" stroke="none">Belgium</tspan></tspan></tspan></text>
 <text class="TextShape" transform="rotate(-44.9 7111 15075)"><tspan class="TextParagraph" font-family="Arial, sans-serif" font-size="353px" font-weight="400"><tspan class="TextPosition" x="7111" y="15075"><tspan fill="rgb(0,0,0)" stroke="none">Luxembourg</tspan></tspan></tspan></text>
 <text class="TextShape" transform="rotate(-44.9 8054 14699)"><tspan class="TextParagraph" font-family="Arial, sans-serif" font-size="353px" font-weight="400"><tspan class="TextPosition" x="8054" y="14699"><tspan fill="rgb(0,0,0)" stroke="none">Romania</tspan></tspan></tspan></text>
 <text class="TextShape" transform="rotate(-44.9 8828 14493)"><tspan class="TextParagraph" font-family="Arial, sans-serif" font-size="353px" font-weight="400"><tspan class="TextPosition" x="8828" y="14493"><tspan fill="rgb(0,0,0)" stroke="none">Turkey</tspan></tspan></tspan></text>
 <text class="TextShape" transform="rotate(-44.9 9340 14550)"><tspan class="TextParagraph" font-family="Arial, sans-serif" font-size="353px" font-weight="400"><tspan class="TextPosition" x="9340" y="14550"><tspan fill="rgb(0,0,0)" stroke="none">Albania</tspan></tspan></tspan></text>
 <text class="TextShape" transform="rotate(-44.9 9964 14493)"><tspan class="TextParagraph" font-family="Arial, sans-serif" font-size="353px" font-weight="400"><tspan class="TextPosition" x="9964" y="14493"><tspan fill="rgb(0,0,0)" stroke="none">France</tspan></tspan></tspan></text>
 <text class="TextShape" transform="rotate(-44.9 10009 15017)"><tspan class="TextParagraph" font-family="Arial, sans-serif" font-size="353px" font-weight="400"><tspan class="TextPosition" x="10009" y="15017"><tspan fill="rgb(0,0,0)" stroke="none">Montenegro</tspan></tspan></tspan></text>
 <text class="TextShape" transform="rotate(-44.9 10969 14625)"><tspan class="TextParagraph" font-family="Arial, sans-serif" font-size="353px" font-weight="400"><tspan class="TextPosition" x="10969" y="14625"><tspan fill="rgb(0,0,0)" stroke="none">Bulgaria</tspan></tspan></tspan></text>
 <text class="TextShape" transform="rotate(-44.9 11799 14363)"><tspan class="TextParagraph" font-family="Arial, sans-serif" font-size="353px" font-weight="400"><tspan class="TextPosition" x="11799" y="14363"><tspan fill="rgb(0,0,0)" stroke="none">Spain</tspan></tspan></tspan></text>
 <text class="TextShape" transform="rotate(-44.9 12237 14493)"><tspan class="TextParagraph" font-family="Arial, sans-serif" font-size="353px" font-weight="400"><tspan class="TextPosition" x="12237" y="14493"><tspan fill="rgb(0,0,0)" stroke="none">Russia</tspan></tspan></tspan></text>
 <text class="TextShape" transform="rotate(-44.9 12730 14569)"><tspan class="TextParagraph" font-family="Arial, sans-serif" font-size="353px" font-weight="400"><tspan class="TextPosition" x="12730" y="14569"><tspan fill="rgb(0,0,0)" stroke="none">Ukraine</tspan></tspan></tspan></text>
 <text class="TextShape" transform="rotate(-44.9 13353 14513)"><tspan class="TextParagraph" font-family="Arial, sans-serif" font-size="353px" font-weight="400"><tspan class="TextPosition" x="13353" y="14513"><tspan fill="rgb(0,0,0)" stroke="none">Croatia</tspan></tspan></tspan></text>
 <text class="TextShape" transform="rotate(-44.9 13397 15037)"><tspan class="TextParagraph" font-family="Arial, sans-serif" font-size="353px" font-weight="400"><tspan class="TextPosition" x="13397" y="15037"><tspan fill="rgb(0,0,0)" stroke="none">Netherlands</tspan></tspan></tspan></text>
 <text class="TextShape" transform="rotate(-44.9 14377 14625)"><tspan class="TextParagraph" font-family="Arial, sans-serif" font-size="353px" font-weight="400"><tspan class="TextPosition" x="14377" y="14625"><tspan fill="rgb(0,0,0)" stroke="none">Czechia</tspan></tspan></tspan></text>
 <text class="TextShape" transform="rotate(-44.9 14571 14999)"><tspan class="TextParagraph" font-family="Arial, sans-serif" font-size="353px" font-weight="400"><tspan class="TextPosition" x="14571" y="14999"><tspan fill="rgb(0,0,0)" stroke="none">Switzerland</tspan></tspan></tspan></text>
 <text class="TextShape" transform="rotate(-44.9 15701 14437)"><tspan class="TextParagraph" font-family="Arial, sans-serif" font-size="353px" font-weight="400"><tspan class="TextPosition" x="15701" y="14437"><tspan fill="rgb(0,0,0)" stroke="none">Serbia</tspan></tspan></tspan></text>
 <text class="TextShape" transform="rotate(-44.9 16213 14493)"><tspan class="TextParagraph" font-family="Arial, sans-serif" font-size="353px" font-weight="400"><tspan class="TextPosition" x="16213" y="14493"><tspan fill="rgb(0,0,0)" stroke="none">Poland</tspan></tspan></tspan></text>
 <text class="TextShape" transform="rotate(-44.9 17061 14213)"><tspan class="TextParagraph" font-family="Arial, sans-serif" font-size="353px" font-weight="400"><tspan class="TextPosition" x="17061" y="14213"><tspan fill="rgb(0,0,0)" stroke="none">Italy</tspan></tspan></tspan></text>
 <text class="TextShape" transform="rotate(-44.9 17161 14681)"><tspan class="TextParagraph" font-family="Arial, sans-serif" font-size="353px" font-weight="400"><tspan class="TextPosition" x="17161" y="14681"><tspan fill="rgb(0,0,0)" stroke="none">Slovenia</tspan></tspan></tspan></text>
 <text class="TextShape" transform="rotate(-44.9 17673 14737)"><tspan class="TextParagraph" font-family="Arial, sans-serif" font-size="353px" font-weight="400"><tspan class="TextPosition" x="17673" y="14737"><tspan fill="rgb(0,0,0)" stroke="none">Germany</tspan></tspan></tspan></text>
 <text class="TextShape" transform="rotate(-44.9 18261 14718)"><tspan class="TextParagraph" font-family="Arial, sans-serif" font-size="353px" font-weight="400"><tspan class="TextPosition" x="18261" y="14718"><tspan fill="rgb(0,0,0)" stroke="none">Denmark</tspan></tspan></tspan></text>
 <text class="TextShape" transform="rotate(-44.9 18978 14569)"><tspan class="TextParagraph" font-family="Arial, sans-serif" font-size="353px" font-weight="400"><tspan class="TextPosition" x="18978" y="14569"><tspan fill="rgb(0,0,0)" stroke="none">Belarus</tspan></tspan></tspan></text>
 <text class="TextShape" transform="rotate(-44.9 19601 14513)"><tspan class="TextParagraph" font-family="Arial, sans-serif" font-size="353px" font-weight="400"><tspan class="TextPosition" x="19601" y="14513"><tspan fill="rgb(0,0,0)" stroke="none">Austria</tspan></tspan></tspan></text>
 <text class="TextShape" transform="rotate(-44.9 20208 14475)"><tspan class="TextParagraph" font-family="Arial, sans-serif" font-size="353px" font-weight="400"><tspan class="TextPosition" x="20208" y="14475"><tspan fill="rgb(0,0,0)" stroke="none">Ireland</tspan></tspan></tspan></text>
 <text class="TextShape" transform="rotate(-44.9 20702 14550)"><tspan class="TextParagraph" font-family="Arial, sans-serif" font-size="353px" font-weight="400"><tspan class="TextPosition" x="20702" y="14550"><tspan fill="rgb(0,0,0)" stroke="none">Norway</tspan></tspan></tspan></text>
 <text class="TextShape" transform="rotate(-44.9 21288 14531)"><tspan class="TextParagraph" font-family="Arial, sans-serif" font-size="353px" font-weight="400"><tspan class="TextPosition" x="21288" y="14531"><tspan fill="rgb(0,0,0)" stroke="none">Finland</tspan></tspan></tspan></text>
 <text class="TextShape" transform="rotate(-44.9 21743 14643)"><tspan class="TextParagraph" font-family="Arial, sans-serif" font-size="353px" font-weight="400"><tspan class="TextPosition" x="21743" y="14643"><tspan fill="rgb(0,0,0)" stroke="none">Hungary</tspan></tspan></tspan></text>
 <text class="TextShape" transform="rotate(-44.9 22423 14531)"><tspan class="TextParagraph" font-family="Arial, sans-serif" font-size="353px" font-weight="400"><tspan class="TextPosition" x="22423" y="14531"><tspan fill="rgb(0,0,0)" stroke="none">Greece</tspan></tspan></tspan></text>
 <text class="TextShape" transform="rotate(-44.9 22991 14531)"><tspan class="TextParagraph" font-family="Arial, sans-serif" font-size="353px" font-weight="400"><tspan class="TextPosition" x="22991" y="14531"><tspan fill="rgb(0,0,0)" stroke="none">Iceland</tspan></tspan></tspan></text>
 <text class="TextShape" transform="rotate(-44.9 23409 14681)"><tspan class="TextParagraph" font-family="Arial, sans-serif" font-size="353px" font-weight="400"><tspan class="TextPosition" x="23409" y="14681"><tspan fill="rgb(0,0,0)" stroke="none">Slovakia</tspan></tspan></tspan></text>
 <text class="TextShape" transform="rotate(-44.9 24145 14513)"><tspan class="TextParagraph" font-family="Arial, sans-serif" font-size="353px" font-weight="400"><tspan class="TextPosition" x="24145" y="14513"><tspan fill="rgb(0,0,0)" stroke="none">Cyprus</tspan></tspan></tspan></text>
 <text class="TextShape" transform="rotate(-44.9 24882 14345)"><tspan class="TextParagraph" font-family="Arial, sans-serif" font-size="353px" font-weight="400"><tspan class="TextPosition" x="24882" y="14345"><tspan fill="rgb(0,0,0)" stroke="none">Malta</tspan></tspan></tspan></text>
 <text class="TextShape" transform="rotate(-44.9 25395 14400)"><tspan class="TextParagraph" font-family="Arial, sans-serif" font-size="353px" font-weight="400"><tspan class="TextPosition" x="25395" y="14400"><tspan fill="rgb(0,0,0)" stroke="none">Japan</tspan></tspan></tspan></text>
 <text class="TextShape" transform="rotate(-44.9 25663 14699)"><tspan class="TextParagraph" font-family="Arial, sans-serif" font-size="353px" font-weight="400"><tspan class="TextPosition" x="25663" y="14699"><tspan fill="rgb(0,0,0)" stroke="none">S. Korea</tspan></tspan></tspan></text>
 <text class="TextShape" transform="rotate(-44.9 26213 14718)"><tspan class="TextParagraph" font-family="Arial, sans-serif" font-size="353px" font-weight="400"><tspan class="TextPosition" x="26213" y="14718"><tspan fill="rgb(0,0,0)" stroke="none">Lithuania</tspan></tspan></tspan></text>
 <text class="TextShape" transform="rotate(-44.9 26930 14569)"><tspan class="TextParagraph" font-family="Arial, sans-serif" font-size="353px" font-weight="400"><tspan class="TextPosition" x="26930" y="14569"><tspan fill="rgb(0,0,0)" stroke="none">Estonia</tspan></tspan></tspan></text>
 <text class="TextShape" transform="rotate(-44.9 27479 14587)"><tspan class="TextParagraph" font-family="Arial, sans-serif" font-size="353px" font-weight="400"><tspan class="TextPosition" x="27479" y="14587"><tspan fill="rgb(0,0,0)" stroke="none">Georgia</tspan></tspan></tspan></text>
 <text class="TextShape" transform="rotate(-44.9 28235 14400)"><tspan class="TextParagraph" font-family="Arial, sans-serif" font-size="353px" font-weight="400"><tspan class="TextPosition" x="28235" y="14400"><tspan fill="rgb(0,0,0)" stroke="none">Latvia</tspan></tspan></tspan></text>
 <text class="TextShape" transform="rotate(-44.9 28839 14363)"><tspan class="TextParagraph" font-family="Arial, sans-serif" font-size="353px" font-weight="400"><tspan class="TextPosition" x="28839" y="14363"><tspan fill="rgb(0,0,0)" stroke="none">China</tspan></tspan></tspan></text>
 <text class="TextShape"><tspan class="TextParagraph" font-family="Arial, sans-serif" font-size="353px" font-weight="400"><tspan class="TextPosition" x="596" y="13391"><tspan fill="rgb(0,0,0)" stroke="none">0,00%</tspan></tspan></tspan></text>
 <text class="TextShape"><tspan class="TextParagraph" font-family="Arial, sans-serif" font-size="353px" font-weight="400"><tspan class="TextPosition" x="596" y="12180"><tspan fill="rgb(0,0,0)" stroke="none">0,33%</tspan></tspan></tspan></text>
 <text class="TextShape"><tspan class="TextParagraph" font-family="Arial, sans-serif" font-size="353px" font-weight="400"><tspan class="TextPosition" x="596" y="10969"><tspan fill="rgb(0,0,0)" stroke="none">0,67%</tspan></tspan></tspan></text>
 <text class="TextShape"><tspan class="TextParagraph" font-family="Arial, sans-serif" font-size="353px" font-weight="400"><tspan class="TextPosition" x="596" y="9759"><tspan fill="rgb(0,0,0)" stroke="none">1,00%</tspan></tspan></tspan></text>
 <text class="TextShape"><tspan class="TextParagraph" font-family="Arial, sans-serif" font-size="353px" font-weight="400"><tspan class="TextPosition" x="596" y="8548"><tspan fill="rgb(0,0,0)" stroke="none">1,33%</tspan></tspan></tspan></text>
 <text class="TextShape"><tspan class="TextParagraph" font-family="Arial, sans-serif" font-size="353px" font-weight="400"><tspan class="TextPosition" x="596" y="7337"><tspan fill="rgb(0,0,0)" stroke="none">1,67%</tspan></tspan></tspan></text>
 <text class="TextShape"><tspan class="TextParagraph" font-family="Arial, sans-serif" font-size="353px" font-weight="400"><tspan class="TextPosition" x="596" y="6127"><tspan fill="rgb(0,0,0)" stroke="none">2,00%</tspan></tspan></tspan></text>
 <text class="TextShape"><tspan class="TextParagraph" font-family="Arial, sans-serif" font-size="353px" font-weight="400"><tspan class="TextPosition" x="596" y="4916"><tspan fill="rgb(0,0,0)" stroke="none">2,33%</tspan></tspan></tspan></text>
 <text class="TextShape"><tspan class="TextParagraph" font-family="Arial, sans-serif" font-size="353px" font-weight="400"><tspan class="TextPosition" x="596" y="3705"><tspan fill="rgb(0,0,0)" stroke="none">2,67%</tspan></tspan></tspan></text>
 <text class="TextShape"><tspan class="TextParagraph" font-family="Arial, sans-serif" font-size="353px" font-weight="400"><tspan class="TextPosition" x="596" y="2495"><tspan fill="rgb(0,0,0)" stroke="none">3,00%</tspan></tspan></tspan></text>
 <text class="TextShape"><tspan class="TextParagraph" font-family="Arial, sans-serif" font-size="459px" font-weight="400"><tspan class="TextPosition" x="7133" y="1011"><tspan fill="rgb(0,0,0)" stroke="none">Active cases per population/ Aktív esetek száma a lakosság %-ában 2020.06.27.</tspan></tspan></tspan></text>
 <path fill="rgb(0,69,134)" stroke="none" d="M 9412,1844 L 9012,1844 9012,1633 9812,1633 9812,1844 9412,1844 Z"/>
 <path fill="none" stroke="rgb(255,0,0)" stroke-linejoin="round" d="M 14617,1738 L 15416,1738"/>
 <text class="TextShape"><tspan class="TextParagraph" font-family="Arial, sans-serif" font-size="353px" font-weight="400"><tspan class="TextPosition" x="9912" y="1858"><tspan fill="rgb(0,0,0)" stroke="none">Active real cases percentage</tspan></tspan></tspan></text>
 <text class="TextShape"><tspan class="TextParagraph" font-family="Arial, sans-serif" font-size="353px" font-weight="400"><tspan class="TextPosition" x="15516" y="1858"><tspan fill="rgb(0,0,0)" stroke="none">Közép (Active real cases percentage)</tspan></tspan></tspan></text>
</svg>