<?xml version="1.0" encoding="UTF-8"?>
<!DOCTYPE svg PUBLIC "-//W3C//DTD SVG 1.1//EN" "http://www.w3.org/Graphics/SVG/1.1/DTD/svg11.dtd">
<svg width="303mm" height="170mm" viewBox="0 0 30300 17000" version="1.1" xmlns="http://www.w3.org/2000/svg" xmlns:xlink="http://www.w3.org/1999/xlink" stroke-width="28.222" stroke-linejoin="round" xml:space="preserve">
 <path fill="rgb(255,255,255)" stroke="none" d="M 15150,17000 L 0,17000 0,0 30300,0 30300,17000 15150,17000 Z"/>
 <path fill="none" stroke="rgb(179,179,179)" stroke-linejoin="round" d="M 15765,13293 L 1836,13293 1836,2378 29694,2378 29694,13293 15765,13293 Z"/>
 <path fill="none" stroke="rgb(179,179,179)" stroke-width="18" stroke-linejoin="round" d="M 29694,13292 L 1836,13292"/>
 <path fill="none" stroke="rgb(179,179,179)" stroke-width="18" stroke-linejoin="round" d="M 29694,12079 L 1836,12079"/>
 <path fill="none" stroke="rgb(179,179,179)" stroke-width="18" stroke-linejoin="round" d="M 29694,10866 L 1836,10866"/>
 <path fill="none" stroke="rgb(179,179,179)" stroke-width="18" stroke-linejoin="round" d="M 29694,9653 L 1836,9653"/>
 <path fill="none" stroke="rgb(179,179,179)" stroke-width="18" stroke-linejoin="round" d="M 29694,8441 L 1836,8441"/>
 <path fill="none" stroke="rgb(179,179,179)" stroke-width="18" stroke-linejoin="round" d="M 29694,7228 L 1836,7228"/>
 <path fill="none" stroke="rgb(179,179,179)" stroke-width="18" stroke-linejoin="round" d="M 29694,6015 L 1836,6015"/>
 <path fill="none" stroke="rgb(179,179,179)" stroke-width="18" stroke-linejoin="round" d="M 29694,4802 L 1836,4802"/>
 <path fill="none" stroke="rgb(179,179,179)" stroke-width="18" stroke-linejoin="round" d="M 29694,3589 L 1836,3589"/>
 <path fill="none" stroke="rgb(179,179,179)" stroke-width="18" stroke-linejoin="round" d="M 29694,2377 L 1836,2377"/>
 <path fill="none" stroke="rgb(179,179,179)" stroke-width="18" stroke-linejoin="round" d="M 1836,13442 L 1836,13292"/>
 <path fill="none" stroke="rgb(179,179,179)" stroke-width="18" stroke-linejoin="round" d="M 2404,13442 L 2404,13292"/>
 <path fill="none" stroke="rgb(179,179,179)" stroke-width="18" stroke-linejoin="round" d="M 2973,13442 L 2973,13292"/>
 <path fill="none" stroke="rgb(179,179,179)" stroke-width="18" stroke-linejoin="round" d="M 3541,13442 L 3541,13292"/>
 <path fill="none" stroke="rgb(179,179,179)" stroke-width="18" stroke-linejoin="round" d="M 4110,13442 L 4110,13292"/>
 <path fill="none" stroke="rgb(179,179,179)" stroke-width="18" stroke-linejoin="round" d="M 4678,13442 L 4678,13292"/>
 <path fill="none" stroke="rgb(179,179,179)" stroke-width="18" stroke-linejoin="round" d="M 5247,13442 L 5247,13292"/>
 <path fill="none" stroke="rgb(179,179,179)" stroke-width="18" stroke-linejoin="round" d="M 5815,13442 L 5815,13292"/>
 <path fill="none" stroke="rgb(179,179,179)" stroke-width="18" stroke-linejoin="round" d="M 6384,13442 L 6384,13292"/>
 <path fill="none" stroke="rgb(179,179,179)" stroke-width="18" stroke-linejoin="round" d="M 6952,13442 L 6952,13292"/>
 <path fill="none" stroke="rgb(179,179,179)" stroke-width="18" stroke-linejoin="round" d="M 7521,13442 L 7521,13292"/>
 <path fill="none" stroke="rgb(179,179,179)" stroke-width="18" stroke-linejoin="round" d="M 8090,13442 L 8090,13292"/>
 <path fill="none" stroke="rgb(179,179,179)" stroke-width="18" stroke-linejoin="round" d="M 8658,13442 L 8658,13292"/>
 <path fill="none" stroke="rgb(179,179,179)" stroke-width="18" stroke-linejoin="round" d="M 9227,13442 L 9227,13292"/>
 <path fill="none" stroke="rgb(179,179,179)" stroke-width="18" stroke-linejoin="round" d="M 9795,13442 L 9795,13292"/>
 <path fill="none" stroke="rgb(179,179,179)" stroke-width="18" stroke-linejoin="round" d="M 10364,13442 L 10364,13292"/>
 <path fill="none" stroke="rgb(179,179,179)" stroke-width="18" stroke-linejoin="round" d="M 10932,13442 L 10932,13292"/>
 <path fill="none" stroke="rgb(179,179,179)" stroke-width="18" stroke-linejoin="round" d="M 11501,13442 L 11501,13292"/>
 <path fill="none" stroke="rgb(179,179,179)" stroke-width="18" stroke-linejoin="round" d="M 12069,13442 L 12069,13292"/>
 <path fill="none" stroke="rgb(179,179,179)" stroke-width="18" stroke-linejoin="round" d="M 12638,13442 L 12638,13292"/>
 <path fill="none" stroke="rgb(179,179,179)" stroke-width="18" stroke-linejoin="round" d="M 13207,13442 L 13207,13292"/>
 <path fill="none" stroke="rgb(179,179,179)" stroke-width="18" stroke-linejoin="round" d="M 13775,13442 L 13775,13292"/>
 <path fill="none" stroke="rgb(179,179,179)" stroke-width="18" stroke-linejoin="round" d="M 14344,13442 L 14344,13292"/>
 <path fill="none" stroke="rgb(179,179,179)" stroke-width="18" stroke-linejoin="round" d="M 14912,13442 L 14912,13292"/>
 <path fill="none" stroke="rgb(179,179,179)" stroke-width="18" stroke-linejoin="round" d="M 15480,13442 L 15480,13292"/>
 <path fill="none" stroke="rgb(179,179,179)" stroke-width="18" stroke-linejoin="round" d="M 16048,13442 L 16048,13292"/>
 <path fill="none" stroke="rgb(179,179,179)" stroke-width="18" stroke-linejoin="round" d="M 16617,13442 L 16617,13292"/>
 <path fill="none" stroke="rgb(179,179,179)" stroke-width="18" stroke-linejoin="round" d="M 17185,13442 L 17185,13292"/>
 <path fill="none" stroke="rgb(179,179,179)" stroke-width="18" stroke-linejoin="round" d="M 17754,13442 L 17754,13292"/>
 <path fill="none" stroke="rgb(179,179,179)" stroke-width="18" stroke-linejoin="round" d="M 18322,13442 L 18322,13292"/>
 <path fill="none" stroke="rgb(179,179,179)" stroke-width="18" stroke-linejoin="round" d="M 18891,13442 L 18891,13292"/>
 <path fill="none" stroke="rgb(179,179,179)" stroke-width="18" stroke-linejoin="round" d="M 19460,13442 L 19460,13292"/>
 <path fill="none" stroke="rgb(179,179,179)" stroke-width="18" stroke-linejoin="round" d="M 20028,13442 L 20028,13292"/>
 <path fill="none" stroke="rgb(179,179,179)" stroke-width="18" stroke-linejoin="round" d="M 20597,13442 L 20597,13292"/>
 <path fill="none" stroke="rgb(179,179,179)" stroke-width="18" stroke-linejoin="round" d="M 21165,13442 L 21165,13292"/>
 <path fill="none" stroke="rgb(179,179,179)" stroke-width="18" stroke-linejoin="round" d="M 21734,13442 L 21734,13292"/>
 <path fill="none" stroke="rgb(179,179,179)" stroke-width="18" stroke-linejoin="round" d="M 22302,13442 L 22302,13292"/>
 <path fill="none" stroke="rgb(179,179,179)" stroke-width="18" stroke-linejoin="round" d="M 22871,13442 L 22871,13292"/>
 <path fill="none" stroke="rgb(179,179,179)" stroke-width="18" stroke-linejoin="round" d="M 23439,13442 L 23439,13292"/>
 <path fill="none" stroke="rgb(179,179,179)" stroke-width="18" stroke-linejoin="round" d="M 24008,13442 L 24008,13292"/>
 <path fill="none" stroke="rgb(179,179,179)" stroke-width="18" stroke-linejoin="round" d="M 24577,13442 L 24577,13292"/>
 <path fill="none" stroke="rgb(179,179,179)" stroke-width="18" stroke-linejoin="round" d="M 25145,13442 L 25145,13292"/>
 <path fill="none" stroke="rgb(179,179,179)" stroke-width="18" stroke-linejoin="round" d="M 25714,13442 L 25714,13292"/>
 <path fill="none" stroke="rgb(179,179,179)" stroke-width="18" stroke-linejoin="round" d="M 26282,13442 L 26282,13292"/>
 <path fill="none" stroke="rgb(179,179,179)" stroke-width="18" stroke-linejoin="round" d="M 26851,13442 L 26851,13292"/>
 <path fill="none" stroke="rgb(179,179,179)" stroke-width="18" stroke-linejoin="round" d="M 27419,13442 L 27419,13292"/>
 <path fill="none" stroke="rgb(179,179,179)" stroke-width="18" stroke-linejoin="round" d="M 27988,13442 L 27988,13292"/>
 <path fill="none" stroke="rgb(179,179,179)" stroke-width="18" stroke-linejoin="round" d="M 28556,13442 L 28556,13292"/>
 <path fill="none" stroke="rgb(179,179,179)" stroke-width="18" stroke-linejoin="round" d="M 29125,13442 L 29125,13292"/>
 <path fill="none" stroke="rgb(179,179,179)" stroke-width="18" stroke-linejoin="round" d="M 29693,13442 L 29693,13292"/>
 <path fill="none" stroke="rgb(179,179,179)" stroke-width="18" stroke-linejoin="round" d="M 1836,13292 L 29694,13292"/>
 <path fill="none" stroke="rgb(179,179,179)" stroke-width="18" stroke-linejoin="round" d="M 1686,13292 L 1836,13292"/>
 <path fill="none" stroke="rgb(179,179,179)" stroke-width="18" stroke-linejoin="round" d="M 1686,12079 L 1836,12079"/>
 <path fill="none" stroke="rgb(179,179,179)" stroke-width="18" stroke-linejoin="round" d="M 1686,10866 L 1836,10866"/>
 <path fill="none" stroke="rgb(179,179,179)" stroke-width="18" stroke-linejoin="round" d="M 1686,9653 L 1836,9653"/>
 <path fill="none" stroke="rgb(179,179,179)" stroke-width="18" stroke-linejoin="round" d="M 1686,8441 L 1836,8441"/>
 <path fill="none" stroke="rgb(179,179,179)" stroke-width="18" stroke-linejoin="round" d="M 1686,7228 L 1836,7228"/>
 <path fill="none" stroke="rgb(179,179,179)" stroke-width="18" stroke-linejoin="round" d="M 1686,6015 L 1836,6015"/>
 <path fill="none" stroke="rgb(179,179,179)" stroke-width="18" stroke-linejoin="round" d="M 1686,4802 L 1836,4802"/>
 <path fill="none" stroke="rgb(179,179,179)" stroke-width="18" stroke-linejoin="round" d="M 1686,3589 L 1836,3589"/>
 <path fill="none" stroke="rgb(179,179,179)" stroke-width="18" stroke-linejoin="round" d="M 1686,2377 L 1836,2377"/>
 <path fill="none" stroke="rgb(179,179,179)" stroke-width="18" stroke-linejoin="round" d="M 1836,13292 L 1836,2377"/>
 <path fill="rgb(0,69,134)" stroke="none" d="M 29267,13292 L 29551,13292 29551,13292 29267,13292 Z"/>
 <path fill="rgb(0,69,134)" stroke="none" d="M 28699,13292 L 28983,13292 28983,13291 28699,13291 28699,13292 Z"/>
 <path fill="rgb(0,69,134)" stroke="none" d="M 28130,13292 L 28414,13292 28414,13289 28130,13289 28130,13292 Z"/>
 <path fill="rgb(0,69,134)" stroke="none" d="M 27561,13292 L 27846,13292 27846,13288 27561,13288 27561,13292 Z"/>
 <path fill="rgb(0,69,134)" stroke="none" d="M 26993,13292 L 27277,13292 27277,13288 26993,13288 26993,13292 Z"/>
 <path fill="rgb(0,69,134)" stroke="none" d="M 26424,13292 L 26709,13292 26709,13282 26424,13282 26424,13292 Z"/>
 <path fill="rgb(0,69,134)" stroke="none" d="M 25856,13292 L 26140,13292 26140,13282 25856,13282 25856,13292 Z"/>
 <path fill="rgb(0,69,134)" stroke="none" d="M 25287,13292 L 25572,13292 25572,13281 25287,13281 25287,13292 Z"/>
 <path fill="rgb(0,69,134)" stroke="none" d="M 24719,13292 L 25003,13292 25003,13279 24719,13279 24719,13292 Z"/>
 <path fill="rgb(0,69,134)" stroke="none" d="M 24150,13292 L 24434,13292 24434,13268 24150,13268 24150,13292 Z"/>
 <path fill="rgb(0,69,134)" stroke="none" d="M 23582,13292 L 23866,13292 23866,13264 23582,13264 23582,13292 Z"/>
 <path fill="rgb(0,69,134)" stroke="none" d="M 23013,13292 L 23297,13292 23297,13258 23013,13258 23013,13292 Z"/>
 <path fill="rgb(0,69,134)" stroke="none" d="M 22444,13292 L 22729,13292 22729,13252 22444,13252 22444,13292 Z"/>
 <path fill="rgb(0,69,134)" stroke="none" d="M 21876,13292 L 22160,13292 22160,13251 21876,13251 21876,13292 Z"/>
 <path fill="rgb(0,69,134)" stroke="none" d="M 21307,13292 L 21592,13292 21592,13248 21307,13248 21307,13292 Z"/>
 <path fill="rgb(0,69,134)" stroke="none" d="M 20739,13292 L 21023,13292 21023,13245 20739,13245 20739,13292 Z"/>
 <path fill="rgb(0,69,134)" stroke="none" d="M 20170,13292 L 20455,13292 20455,13242 20170,13242 20170,13292 Z"/>
 <path fill="rgb(0,69,134)" stroke="none" d="M 19602,13292 L 19886,13292 19886,13205 19602,13205 19602,13292 Z"/>
 <path fill="rgb(0,69,134)" stroke="none" d="M 19033,13292 L 19317,13292 19317,13204 19033,13204 19033,13292 Z"/>
 <path fill="rgb(0,69,134)" stroke="none" d="M 18465,13292 L 18749,13292 18749,13199 18465,13199 18465,13292 Z"/>
 <path fill="rgb(0,69,134)" stroke="none" d="M 17896,13292 L 18180,13292 18180,13195 17896,13195 17896,13292 Z"/>
 <path fill="rgb(0,69,134)" stroke="none" d="M 17328,13292 L 17612,13292 17612,13166 17328,13166 17328,13292 Z"/>
 <path fill="rgb(0,69,134)" stroke="none" d="M 16759,13292 L 17043,13292 17043,13163 16759,13163 16759,13292 Z"/>
 <path fill="rgb(255,0,0)" stroke="none" d="M 16190,13292 L 16475,13292 16475,13138 16190,13138 16190,13292 Z"/>
 <path fill="rgb(0,69,134)" stroke="none" d="M 15622,13292 L 15906,13292 15906,13133 15622,13133 15622,13292 Z"/>
 <path fill="rgb(0,69,134)" stroke="none" d="M 15054,13292 L 15338,13292 15338,13120 15054,13120 15054,13292 Z"/>
 <path fill="rgb(0,69,134)" stroke="none" d="M 14486,13292 L 14770,13292 14770,13114 14486,13114 14486,13292 Z"/>
 <path fill="rgb(0,69,134)" stroke="none" d="M 13917,13292 L 14201,13292 14201,13078 13917,13078 13917,13292 Z"/>
 <path fill="rgb(0,69,134)" stroke="none" d="M 13349,13292 L 13633,13292 13633,13061 13349,13061 13349,13292 Z"/>
 <path fill="rgb(0,69,134)" stroke="none" d="M 12780,13292 L 13064,13292 13064,13030 12780,13030 12780,13292 Z"/>
 <path fill="rgb(0,69,134)" stroke="none" d="M 12212,13292 L 12496,13292 12496,12989 12212,12989 12212,13292 Z"/>
 <path fill="rgb(0,69,134)" stroke="none" d="M 11643,13292 L 11927,13292 11927,12984 11643,12984 11643,13292 Z"/>
 <path fill="rgb(0,69,134)" stroke="none" d="M 11074,13292 L 11359,13292 11359,12935 11074,12935 11074,13292 Z"/>
 <path fill="rgb(0,69,134)" stroke="none" d="M 10506,13292 L 10790,13292 10790,12906 10506,12906 10506,13292 Z"/>
 <path fill="rgb(0,69,134)" stroke="none" d="M 9937,13292 L 10222,13292 10222,12852 9937,12852 9937,13292 Z"/>
 <path fill="rgb(0,69,134)" stroke="none" d="M 9369,13292 L 9653,13292 9653,12851 9369,12851 9369,13292 Z"/>
 <path fill="rgb(0,69,134)" stroke="none" d="M 8800,13292 L 9085,13292 9085,12809 8800,12809 8800,13292 Z"/>
 <path fill="rgb(0,69,134)" stroke="none" d="M 8232,13292 L 8516,13292 8516,12802 8232,12802 8232,13292 Z"/>
 <path fill="rgb(0,69,134)" stroke="none" d="M 7663,13292 L 7947,13292 7947,12714 7663,12714 7663,13292 Z"/>
 <path fill="rgb(0,69,134)" stroke="none" d="M 7095,13292 L 7379,13292 7379,12669 7095,12669 7095,13292 Z"/>
 <path fill="rgb(0,69,134)" stroke="none" d="M 6526,13292 L 6810,13292 6810,12495 6526,12495 6526,13292 Z"/>
 <path fill="rgb(0,69,134)" stroke="none" d="M 5957,13292 L 6242,13292 6242,12122 5957,12122 5957,13292 Z"/>
 <path fill="rgb(0,69,134)" stroke="none" d="M 5389,13292 L 5673,13292 5673,12098 5389,12098 5389,13292 Z"/>
 <path fill="rgb(0,69,134)" stroke="none" d="M 4820,13292 L 5105,13292 5105,12012 4820,12012 4820,13292 Z"/>
 <path fill="rgb(0,69,134)" stroke="none" d="M 4252,13292 L 4536,13292 4536,11957 4252,11957 4252,13292 Z"/>
 <path fill="rgb(0,69,134)" stroke="none" d="M 3683,13292 L 3968,13292 3968,11432 3683,11432 3683,13292 Z"/>
 <path fill="rgb(0,69,134)" stroke="none" d="M 3115,13292 L 3399,13292 3399,11359 3115,11359 3115,13292 Z"/>
 <path fill="rgb(0,69,134)" stroke="none" d="M 2546,13292 L 2830,13292 2830,10678 2546,10678 2546,13292 Z"/>
 <path fill="rgb(0,69,134)" stroke="none" d="M 1978,13292 L 2262,13292 2262,9993 1978,9993 1978,13292 Z"/>
 <text class="TextShape" transform="rotate(-44.9 1342 14628)"><tspan class="TextParagraph" font-family="Arial, sans-serif" font-size="353px" font-weight="400"><tspan class="TextPosition" x="1342" y="14628"><tspan fill="rgb(0,0,0)" stroke="none">Sweden</tspan></tspan></tspan></text>
 <text class="TextShape" transform="rotate(-44.9 2267 14272)"><tspan class="TextParagraph" font-family="Arial, sans-serif" font-size="353px" font-weight="400"><tspan class="TextPosition" x="2267" y="14272"><tspan fill="rgb(0,0,0)" stroke="none">USA</tspan></tspan></tspan></text>
 <text class="TextShape" transform="rotate(-44.9 2442 14665)"><tspan class="TextParagraph" font-family="Arial, sans-serif" font-size="353px" font-weight="400"><tspan class="TextPosition" x="2442" y="14665"><tspan fill="rgb(0,0,0)" stroke="none">Armenia</tspan></tspan></tspan></text>
 <text class="TextShape" transform="rotate(-44.9 3572 14103)"><tspan class="TextParagraph" font-family="Arial, sans-serif" font-size="353px" font-weight="400"><tspan class="TextPosition" x="3572" y="14103"><tspan fill="rgb(0,0,0)" stroke="none">UK</tspan></tspan></tspan></text>
 <text class="TextShape" transform="rotate(-44.9 3729 14515)"><tspan class="TextParagraph" font-family="Arial, sans-serif" font-size="353px" font-weight="400"><tspan class="TextPosition" x="3729" y="14515"><tspan fill="rgb(0,0,0)" stroke="none">France</tspan></tspan></tspan></text>
 <text class="TextShape" transform="rotate(-44.9 3212 15601)"><tspan class="TextParagraph" font-family="Arial, sans-serif" font-size="353px" font-weight="400"><tspan class="TextPosition" x="3212" y="15601"><tspan fill="rgb(0,0,0)" stroke="none">North Macedonia</tspan></tspan></tspan></text>
 <text class="TextShape" transform="rotate(-44.9 4698 14683)"><tspan class="TextParagraph" font-family="Arial, sans-serif" font-size="353px" font-weight="400"><tspan class="TextPosition" x="4698" y="14683"><tspan fill="rgb(0,0,0)" stroke="none">Moldova</tspan></tspan></tspan></text>
 <text class="TextShape" transform="rotate(-44.9 5303 14647)"><tspan class="TextParagraph" font-family="Arial, sans-serif" font-size="353px" font-weight="400"><tspan class="TextPosition" x="5303" y="14647"><tspan fill="rgb(0,0,0)" stroke="none">Belgium</tspan></tspan></tspan></text>
 <text class="TextShape" transform="rotate(-44.9 5853 14665)"><tspan class="TextParagraph" font-family="Arial, sans-serif" font-size="353px" font-weight="400"><tspan class="TextPosition" x="5853" y="14665"><tspan fill="rgb(0,0,0)" stroke="none">Portugal</tspan></tspan></tspan></text>
 <text class="TextShape" transform="rotate(-44.9 6702 14385)"><tspan class="TextParagraph" font-family="Arial, sans-serif" font-size="353px" font-weight="400"><tspan class="TextPosition" x="6702" y="14385"><tspan fill="rgb(0,0,0)" stroke="none">Spain</tspan></tspan></tspan></text>
 <text class="TextShape" transform="rotate(-44.9 6596 15059)"><tspan class="TextParagraph" font-family="Arial, sans-serif" font-size="353px" font-weight="400"><tspan class="TextPosition" x="6596" y="15059"><tspan fill="rgb(0,0,0)" stroke="none">Netherlands</tspan></tspan></tspan></text>
 <text class="TextShape" transform="rotate(-44.9 7727 14497)"><tspan class="TextParagraph" font-family="Arial, sans-serif" font-size="353px" font-weight="400"><tspan class="TextPosition" x="7727" y="14497"><tspan fill="rgb(0,0,0)" stroke="none">Ireland</tspan></tspan></tspan></text>
 <text class="TextShape" transform="rotate(-44.9 8277 14515)"><tspan class="TextParagraph" font-family="Arial, sans-serif" font-size="353px" font-weight="400"><tspan class="TextPosition" x="8277" y="14515"><tspan fill="rgb(0,0,0)" stroke="none">Russia</tspan></tspan></tspan></text>
 <text class="TextShape" transform="rotate(-44.9 9126 14235)"><tspan class="TextParagraph" font-family="Arial, sans-serif" font-size="353px" font-weight="400"><tspan class="TextPosition" x="9126" y="14235"><tspan fill="rgb(0,0,0)" stroke="none">Italy</tspan></tspan></tspan></text>
 <text class="TextShape" transform="rotate(-44.9 9414 14515)"><tspan class="TextParagraph" font-family="Arial, sans-serif" font-size="353px" font-weight="400"><tspan class="TextPosition" x="9414" y="14515"><tspan fill="rgb(0,0,0)" stroke="none">Turkey</tspan></tspan></tspan></text>
 <text class="TextShape" transform="rotate(-44.9 9589 14909)"><tspan class="TextParagraph" font-family="Arial, sans-serif" font-size="353px" font-weight="400"><tspan class="TextPosition" x="9589" y="14909"><tspan fill="rgb(0,0,0)" stroke="none">Azerbaijan</tspan></tspan></tspan></text>
 <text class="TextShape" transform="rotate(-44.9 10477 14591)"><tspan class="TextParagraph" font-family="Arial, sans-serif" font-size="353px" font-weight="400"><tspan class="TextPosition" x="10477" y="14591"><tspan fill="rgb(0,0,0)" stroke="none">Belarus</tspan></tspan></tspan></text>
 <text class="TextShape" transform="rotate(-44.9 11120 14515)"><tspan class="TextParagraph" font-family="Arial, sans-serif" font-size="353px" font-weight="400"><tspan class="TextPosition" x="11120" y="14515"><tspan fill="rgb(0,0,0)" stroke="none">Poland</tspan></tspan></tspan></text>
 <text class="TextShape" transform="rotate(-44.9 11483 14721)"><tspan class="TextParagraph" font-family="Arial, sans-serif" font-size="353px" font-weight="400"><tspan class="TextPosition" x="11483" y="14721"><tspan fill="rgb(0,0,0)" stroke="none">Romania</tspan></tspan></tspan></text>
 <text class="TextShape" transform="rotate(-44.9 12033 14740)"><tspan class="TextParagraph" font-family="Arial, sans-serif" font-size="353px" font-weight="400"><tspan class="TextPosition" x="12033" y="14740"><tspan fill="rgb(0,0,0)" stroke="none">Denmark</tspan></tspan></tspan></text>
 <text class="TextShape" transform="rotate(-44.9 12788 14553)"><tspan class="TextParagraph" font-family="Arial, sans-serif" font-size="353px" font-weight="400"><tspan class="TextPosition" x="12788" y="14553"><tspan fill="rgb(0,0,0)" stroke="none">Finland</tspan></tspan></tspan></text>
 <text class="TextShape" transform="rotate(-44.9 11504 16405)"><tspan class="TextParagraph" font-family="Arial, sans-serif" font-size="353px" font-weight="400"><tspan class="TextPosition" x="11504" y="16405"><tspan fill="rgb(0,0,0)" stroke="none">Bosnia and Herzegovina</tspan></tspan></tspan></text>
 <text class="TextShape" transform="rotate(-44.9 14112 14367)"><tspan class="TextParagraph" font-family="Arial, sans-serif" font-size="353px" font-weight="400"><tspan class="TextPosition" x="14112" y="14367"><tspan fill="rgb(0,0,0)" stroke="none">Israel</tspan></tspan></tspan></text>
 <text class="TextShape" transform="rotate(-44.9 14475 14572)"><tspan class="TextParagraph" font-family="Arial, sans-serif" font-size="353px" font-weight="400"><tspan class="TextPosition" x="14475" y="14572"><tspan fill="rgb(0,0,0)" stroke="none">Albania</tspan></tspan></tspan></text>
 <text class="TextShape" transform="rotate(-44.9 15025 14591)"><tspan class="TextParagraph" font-family="Arial, sans-serif" font-size="353px" font-weight="400"><tspan class="TextPosition" x="15025" y="14591"><tspan fill="rgb(0,0,0)" stroke="none">Ukraine</tspan></tspan></tspan></text>
 <text class="TextShape" transform="rotate(-44.9 15519 14665)"><tspan class="TextParagraph" font-family="Arial, sans-serif" font-size="353px" font-weight="400"><tspan class="TextPosition" x="15519" y="14665"><tspan fill="rgb(0,0,0)" stroke="none">Hungary</tspan></tspan></tspan></text>
 <text class="TextShape" transform="rotate(-44.9 15656 15097)"><tspan class="TextParagraph" font-family="Arial, sans-serif" font-size="353px" font-weight="400"><tspan class="TextPosition" x="15656" y="15097"><tspan fill="rgb(0,0,0)" stroke="none">Luxembourg</tspan></tspan></tspan></text>
 <text class="TextShape" transform="rotate(-44.9 16562 14759)"><tspan class="TextParagraph" font-family="Arial, sans-serif" font-size="353px" font-weight="400"><tspan class="TextPosition" x="16562" y="14759"><tspan fill="rgb(0,0,0)" stroke="none">Germany</tspan></tspan></tspan></text>
 <text class="TextShape" transform="rotate(-44.9 17299 14591)"><tspan class="TextParagraph" font-family="Arial, sans-serif" font-size="353px" font-weight="400"><tspan class="TextPosition" x="17299" y="14591"><tspan fill="rgb(0,0,0)" stroke="none">Estonia</tspan></tspan></tspan></text>
 <text class="TextShape" transform="rotate(-44.9 17811 14647)"><tspan class="TextParagraph" font-family="Arial, sans-serif" font-size="353px" font-weight="400"><tspan class="TextPosition" x="17811" y="14647"><tspan fill="rgb(0,0,0)" stroke="none">Czechia</tspan></tspan></tspan></text>
 <text class="TextShape" transform="rotate(-44.9 18005 15021)"><tspan class="TextParagraph" font-family="Arial, sans-serif" font-size="353px" font-weight="400"><tspan class="TextPosition" x="18005" y="15021"><tspan fill="rgb(0,0,0)" stroke="none">Switzerland</tspan></tspan></tspan></text>
 <text class="TextShape" transform="rotate(-44.9 19060 14535)"><tspan class="TextParagraph" font-family="Arial, sans-serif" font-size="353px" font-weight="400"><tspan class="TextPosition" x="19060" y="14535"><tspan fill="rgb(0,0,0)" stroke="none">Austria</tspan></tspan></tspan></text>
 <text class="TextShape" transform="rotate(-44.9 19704 14459)"><tspan class="TextParagraph" font-family="Arial, sans-serif" font-size="353px" font-weight="400"><tspan class="TextPosition" x="19704" y="14459"><tspan fill="rgb(0,0,0)" stroke="none">Serbia</tspan></tspan></tspan></text>
 <text class="TextShape" transform="rotate(-44.9 19993 14740)"><tspan class="TextParagraph" font-family="Arial, sans-serif" font-size="353px" font-weight="400"><tspan class="TextPosition" x="19993" y="14740"><tspan fill="rgb(0,0,0)" stroke="none">Lithuania</tspan></tspan></tspan></text>
 <text class="TextShape" transform="rotate(-44.9 20654 14647)"><tspan class="TextParagraph" font-family="Arial, sans-serif" font-size="353px" font-weight="400"><tspan class="TextPosition" x="20654" y="14647"><tspan fill="rgb(0,0,0)" stroke="none">Bulgaria</tspan></tspan></tspan></text>
 <text class="TextShape" transform="rotate(-44.9 21298 14572)"><tspan class="TextParagraph" font-family="Arial, sans-serif" font-size="353px" font-weight="400"><tspan class="TextPosition" x="21298" y="14572"><tspan fill="rgb(0,0,0)" stroke="none">Norway</tspan></tspan></tspan></text>
 <text class="TextShape" transform="rotate(-44.9 21902 14535)"><tspan class="TextParagraph" font-family="Arial, sans-serif" font-size="353px" font-weight="400"><tspan class="TextPosition" x="21902" y="14535"><tspan fill="rgb(0,0,0)" stroke="none">Cyprus</tspan></tspan></tspan></text>
 <text class="TextShape" transform="rotate(-44.9 22639 14367)"><tspan class="TextParagraph" font-family="Arial, sans-serif" font-size="353px" font-weight="400"><tspan class="TextPosition" x="22639" y="14367"><tspan fill="rgb(0,0,0)" stroke="none">Malta</tspan></tspan></tspan></text>
 <text class="TextShape" transform="rotate(-44.9 22965 14609)"><tspan class="TextParagraph" font-family="Arial, sans-serif" font-size="353px" font-weight="400"><tspan class="TextPosition" x="22965" y="14609"><tspan fill="rgb(0,0,0)" stroke="none">Georgia</tspan></tspan></tspan></text>
 <text class="TextShape" transform="rotate(-44.9 23421 14721)"><tspan class="TextParagraph" font-family="Arial, sans-serif" font-size="353px" font-weight="400"><tspan class="TextPosition" x="23421" y="14721"><tspan fill="rgb(0,0,0)" stroke="none">S. Korea</tspan></tspan></tspan></text>
 <text class="TextShape" transform="rotate(-44.9 24290 14422)"><tspan class="TextParagraph" font-family="Arial, sans-serif" font-size="353px" font-weight="400"><tspan class="TextPosition" x="24290" y="14422"><tspan fill="rgb(0,0,0)" stroke="none">Japan</tspan></tspan></tspan></text>
 <text class="TextShape" transform="rotate(-44.9 24726 14553)"><tspan class="TextParagraph" font-family="Arial, sans-serif" font-size="353px" font-weight="400"><tspan class="TextPosition" x="24726" y="14553"><tspan fill="rgb(0,0,0)" stroke="none">Greece</tspan></tspan></tspan></text>
 <text class="TextShape" transform="rotate(-44.9 25427 14422)"><tspan class="TextParagraph" font-family="Arial, sans-serif" font-size="353px" font-weight="400"><tspan class="TextPosition" x="25427" y="14422"><tspan fill="rgb(0,0,0)" stroke="none">Latvia</tspan></tspan></tspan></text>
 <text class="TextShape" transform="rotate(-44.9 25713 14703)"><tspan class="TextParagraph" font-family="Arial, sans-serif" font-size="353px" font-weight="400"><tspan class="TextPosition" x="25713" y="14703"><tspan fill="rgb(0,0,0)" stroke="none">Slovenia</tspan></tspan></tspan></text>
 <text class="TextShape" transform="rotate(-44.9 26282 14703)"><tspan class="TextParagraph" font-family="Arial, sans-serif" font-size="353px" font-weight="400"><tspan class="TextPosition" x="26282" y="14703"><tspan fill="rgb(0,0,0)" stroke="none">Slovakia</tspan></tspan></tspan></text>
 <text class="TextShape" transform="rotate(-44.9 27001 14553)"><tspan class="TextParagraph" font-family="Arial, sans-serif" font-size="353px" font-weight="400"><tspan class="TextPosition" x="27001" y="14553"><tspan fill="rgb(0,0,0)" stroke="none">Iceland</tspan></tspan></tspan></text>
 <text class="TextShape" transform="rotate(-44.9 27587 14535)"><tspan class="TextParagraph" font-family="Arial, sans-serif" font-size="353px" font-weight="400"><tspan class="TextPosition" x="27587" y="14535"><tspan fill="rgb(0,0,0)" stroke="none">Croatia</tspan></tspan></tspan></text>
 <text class="TextShape" transform="rotate(-44.9 28306 14385)"><tspan class="TextParagraph" font-family="Arial, sans-serif" font-size="353px" font-weight="400"><tspan class="TextPosition" x="28306" y="14385"><tspan fill="rgb(0,0,0)" stroke="none">China</tspan></tspan></tspan></text>
 <text class="TextShape" transform="rotate(-44.9 28220 15039)"><tspan class="TextParagraph" font-family="Arial, sans-serif" font-size="353px" font-weight="400"><tspan class="TextPosition" x="28220" y="15039"><tspan fill="rgb(0,0,0)" stroke="none">Montenegro</tspan></tspan></tspan></text>
 <text class="TextShape"><tspan class="TextParagraph" font-family="Arial, sans-serif" font-size="353px" font-weight="400"><tspan class="TextPosition" x="607" y="13413"><tspan fill="rgb(0,0,0)" stroke="none">0,00%</tspan></tspan></tspan></text>
 <text class="TextShape"><tspan class="TextParagraph" font-family="Arial, sans-serif" font-size="353px" font-weight="400"><tspan class="TextPosition" x="607" y="12200"><tspan fill="rgb(0,0,0)" stroke="none">0,33%</tspan></tspan></tspan></text>
 <text class="TextShape"><tspan class="TextParagraph" font-family="Arial, sans-serif" font-size="353px" font-weight="400"><tspan class="TextPosition" x="607" y="10987"><tspan fill="rgb(0,0,0)" stroke="none">0,67%</tspan></tspan></tspan></text>
 <text class="TextShape"><tspan class="TextParagraph" font-family="Arial, sans-serif" font-size="353px" font-weight="400"><tspan class="TextPosition" x="607" y="9774"><tspan fill="rgb(0,0,0)" stroke="none">1,00%</tspan></tspan></tspan></text>
 <text class="TextShape"><tspan class="TextParagraph" font-family="Arial, sans-serif" font-size="353px" font-weight="400"><tspan class="TextPosition" x="607" y="8561"><tspan fill="rgb(0,0,0)" stroke="none">1,33%</tspan></tspan></tspan></text>
 <text class="TextShape"><tspan class="TextParagraph" font-family="Arial, sans-serif" font-size="353px" font-weight="400"><tspan class="TextPosition" x="607" y="7348"><tspan fill="rgb(0,0,0)" stroke="none">1,67%</tspan></tspan></tspan></text>
 <text class="TextShape"><tspan class="TextParagraph" font-family="Arial, sans-serif" font-size="353px" font-weight="400"><tspan class="TextPosition" x="607" y="6135"><tspan fill="rgb(0,0,0)" stroke="none">2,00%</tspan></tspan></tspan></text>
 <text class="TextShape"><tspan class="TextParagraph" font-family="Arial, sans-serif" font-size="353px" font-weight="400"><tspan class="TextPosition" x="607" y="4922"><tspan fill="rgb(0,0,0)" stroke="none">2,33%</tspan></tspan></tspan></text>
 <text class="TextShape"><tspan class="TextParagraph" font-family="Arial, sans-serif" font-size="353px" font-weight="400"><tspan class="TextPosition" x="607" y="3709"><tspan fill="rgb(0,0,0)" stroke="none">2,67%</tspan></tspan></tspan></text>
 <text class="TextShape"><tspan class="TextParagraph" font-family="Arial, sans-serif" font-size="353px" font-weight="400"><tspan class="TextPosition" x="607" y="2497"><tspan fill="rgb(0,0,0)" stroke="none">3,00%</tspan></tspan></tspan></text>
 <text class="TextShape"><tspan class="TextParagraph" font-family="Arial, sans-serif" font-size="459px" font-weight="400"><tspan class="TextPosition" x="7133" y="1011"><tspan fill="rgb(0,0,0)" stroke="none">Active cases per population/ Aktív esetek száma a lakosság %-ában 2020.06.01.</tspan></tspan></tspan></text>
 <path fill="rgb(0,69,134)" stroke="none" d="M 12863,1844 L 12758,1844 12758,1633 12969,1633 12969,1844 12863,1844 Z"/>
 <text class="TextShape"><tspan class="TextParagraph" font-family="Arial, sans-serif" font-size="353px" font-weight="400"><tspan class="TextPosition" x="13069" y="1858"><tspan fill="rgb(0,0,0)" stroke="none">Active real cases percentage</tspan></tspan></tspan></text>
</svg>