<?xml version="1.0" encoding="UTF-8"?>
<!DOCTYPE svg PUBLIC "-//W3C//DTD SVG 1.1//EN" "http://www.w3.org/Graphics/SVG/1.1/DTD/svg11.dtd">
<svg width="303mm" height="170mm" viewBox="0 0 30300 17000" version="1.1" xmlns="http://www.w3.org/2000/svg" xmlns:xlink="http://www.w3.org/1999/xlink" stroke-width="28.222" stroke-linejoin="round" xml:space="preserve">
 <path fill="rgb(255,255,255)" stroke="none" d="M 15150,17000 L 0,17000 0,0 30300,0 30300,17000 15150,17000 Z"/>
 <path fill="none" stroke="rgb(179,179,179)" stroke-linejoin="round" d="M 15750,13282 L 1825,13282 1825,2376 29676,2376 29676,13282 15750,13282 Z"/>
 <path fill="none" stroke="rgb(179,179,179)" stroke-width="18" stroke-linejoin="round" d="M 29676,13281 L 1825,13281"/>
 <path fill="none" stroke="rgb(179,179,179)" stroke-width="18" stroke-linejoin="round" d="M 29676,12069 L 1825,12069"/>
 <path fill="none" stroke="rgb(179,179,179)" stroke-width="18" stroke-linejoin="round" d="M 29676,10857 L 1825,10857"/>
 <path fill="none" stroke="rgb(179,179,179)" stroke-width="18" stroke-linejoin="round" d="M 29676,9645 L 1825,9645"/>
 <path fill="none" stroke="rgb(179,179,179)" stroke-width="18" stroke-linejoin="round" d="M 29676,8434 L 1825,8434"/>
 <path fill="none" stroke="rgb(179,179,179)" stroke-width="18" stroke-linejoin="round" d="M 29676,7222 L 1825,7222"/>
 <path fill="none" stroke="rgb(179,179,179)" stroke-width="18" stroke-linejoin="round" d="M 29676,6010 L 1825,6010"/>
 <path fill="none" stroke="rgb(179,179,179)" stroke-width="18" stroke-linejoin="round" d="M 29676,4798 L 1825,4798"/>
 <path fill="none" stroke="rgb(179,179,179)" stroke-width="18" stroke-linejoin="round" d="M 29676,3586 L 1825,3586"/>
 <path fill="none" stroke="rgb(179,179,179)" stroke-width="18" stroke-linejoin="round" d="M 29676,2375 L 1825,2375"/>
 <path fill="none" stroke="rgb(179,179,179)" stroke-width="18" stroke-linejoin="round" d="M 1825,13431 L 1825,13281"/>
 <path fill="none" stroke="rgb(179,179,179)" stroke-width="18" stroke-linejoin="round" d="M 2393,13431 L 2393,13281"/>
 <path fill="none" stroke="rgb(179,179,179)" stroke-width="18" stroke-linejoin="round" d="M 2961,13431 L 2961,13281"/>
 <path fill="none" stroke="rgb(179,179,179)" stroke-width="18" stroke-linejoin="round" d="M 3530,13431 L 3530,13281"/>
 <path fill="none" stroke="rgb(179,179,179)" stroke-width="18" stroke-linejoin="round" d="M 4098,13431 L 4098,13281"/>
 <path fill="none" stroke="rgb(179,179,179)" stroke-width="18" stroke-linejoin="round" d="M 4667,13431 L 4667,13281"/>
 <path fill="none" stroke="rgb(179,179,179)" stroke-width="18" stroke-linejoin="round" d="M 5235,13431 L 5235,13281"/>
 <path fill="none" stroke="rgb(179,179,179)" stroke-width="18" stroke-linejoin="round" d="M 5803,13431 L 5803,13281"/>
 <path fill="none" stroke="rgb(179,179,179)" stroke-width="18" stroke-linejoin="round" d="M 6372,13431 L 6372,13281"/>
 <path fill="none" stroke="rgb(179,179,179)" stroke-width="18" stroke-linejoin="round" d="M 6940,13431 L 6940,13281"/>
 <path fill="none" stroke="rgb(179,179,179)" stroke-width="18" stroke-linejoin="round" d="M 7509,13431 L 7509,13281"/>
 <path fill="none" stroke="rgb(179,179,179)" stroke-width="18" stroke-linejoin="round" d="M 8077,13431 L 8077,13281"/>
 <path fill="none" stroke="rgb(179,179,179)" stroke-width="18" stroke-linejoin="round" d="M 8645,13431 L 8645,13281"/>
 <path fill="none" stroke="rgb(179,179,179)" stroke-width="18" stroke-linejoin="round" d="M 9214,13431 L 9214,13281"/>
 <path fill="none" stroke="rgb(179,179,179)" stroke-width="18" stroke-linejoin="round" d="M 9782,13431 L 9782,13281"/>
 <path fill="none" stroke="rgb(179,179,179)" stroke-width="18" stroke-linejoin="round" d="M 10351,13431 L 10351,13281"/>
 <path fill="none" stroke="rgb(179,179,179)" stroke-width="18" stroke-linejoin="round" d="M 10919,13431 L 10919,13281"/>
 <path fill="none" stroke="rgb(179,179,179)" stroke-width="18" stroke-linejoin="round" d="M 11487,13431 L 11487,13281"/>
 <path fill="none" stroke="rgb(179,179,179)" stroke-width="18" stroke-linejoin="round" d="M 12056,13431 L 12056,13281"/>
 <path fill="none" stroke="rgb(179,179,179)" stroke-width="18" stroke-linejoin="round" d="M 12624,13431 L 12624,13281"/>
 <path fill="none" stroke="rgb(179,179,179)" stroke-width="18" stroke-linejoin="round" d="M 13193,13431 L 13193,13281"/>
 <path fill="none" stroke="rgb(179,179,179)" stroke-width="18" stroke-linejoin="round" d="M 13761,13431 L 13761,13281"/>
 <path fill="none" stroke="rgb(179,179,179)" stroke-width="18" stroke-linejoin="round" d="M 14329,13431 L 14329,13281"/>
 <path fill="none" stroke="rgb(179,179,179)" stroke-width="18" stroke-linejoin="round" d="M 14898,13431 L 14898,13281"/>
 <path fill="none" stroke="rgb(179,179,179)" stroke-width="18" stroke-linejoin="round" d="M 15465,13431 L 15465,13281"/>
 <path fill="none" stroke="rgb(179,179,179)" stroke-width="18" stroke-linejoin="round" d="M 16034,13431 L 16034,13281"/>
 <path fill="none" stroke="rgb(179,179,179)" stroke-width="18" stroke-linejoin="round" d="M 16602,13431 L 16602,13281"/>
 <path fill="none" stroke="rgb(179,179,179)" stroke-width="18" stroke-linejoin="round" d="M 17171,13431 L 17171,13281"/>
 <path fill="none" stroke="rgb(179,179,179)" stroke-width="18" stroke-linejoin="round" d="M 17739,13431 L 17739,13281"/>
 <path fill="none" stroke="rgb(179,179,179)" stroke-width="18" stroke-linejoin="round" d="M 18307,13431 L 18307,13281"/>
 <path fill="none" stroke="rgb(179,179,179)" stroke-width="18" stroke-linejoin="round" d="M 18876,13431 L 18876,13281"/>
 <path fill="none" stroke="rgb(179,179,179)" stroke-width="18" stroke-linejoin="round" d="M 19444,13431 L 19444,13281"/>
 <path fill="none" stroke="rgb(179,179,179)" stroke-width="18" stroke-linejoin="round" d="M 20013,13431 L 20013,13281"/>
 <path fill="none" stroke="rgb(179,179,179)" stroke-width="18" stroke-linejoin="round" d="M 20581,13431 L 20581,13281"/>
 <path fill="none" stroke="rgb(179,179,179)" stroke-width="18" stroke-linejoin="round" d="M 21149,13431 L 21149,13281"/>
 <path fill="none" stroke="rgb(179,179,179)" stroke-width="18" stroke-linejoin="round" d="M 21718,13431 L 21718,13281"/>
 <path fill="none" stroke="rgb(179,179,179)" stroke-width="18" stroke-linejoin="round" d="M 22286,13431 L 22286,13281"/>
 <path fill="none" stroke="rgb(179,179,179)" stroke-width="18" stroke-linejoin="round" d="M 22855,13431 L 22855,13281"/>
 <path fill="none" stroke="rgb(179,179,179)" stroke-width="18" stroke-linejoin="round" d="M 23423,13431 L 23423,13281"/>
 <path fill="none" stroke="rgb(179,179,179)" stroke-width="18" stroke-linejoin="round" d="M 23991,13431 L 23991,13281"/>
 <path fill="none" stroke="rgb(179,179,179)" stroke-width="18" stroke-linejoin="round" d="M 24560,13431 L 24560,13281"/>
 <path fill="none" stroke="rgb(179,179,179)" stroke-width="18" stroke-linejoin="round" d="M 25128,13431 L 25128,13281"/>
 <path fill="none" stroke="rgb(179,179,179)" stroke-width="18" stroke-linejoin="round" d="M 25697,13431 L 25697,13281"/>
 <path fill="none" stroke="rgb(179,179,179)" stroke-width="18" stroke-linejoin="round" d="M 26265,13431 L 26265,13281"/>
 <path fill="none" stroke="rgb(179,179,179)" stroke-width="18" stroke-linejoin="round" d="M 26833,13431 L 26833,13281"/>
 <path fill="none" stroke="rgb(179,179,179)" stroke-width="18" stroke-linejoin="round" d="M 27402,13431 L 27402,13281"/>
 <path fill="none" stroke="rgb(179,179,179)" stroke-width="18" stroke-linejoin="round" d="M 27970,13431 L 27970,13281"/>
 <path fill="none" stroke="rgb(179,179,179)" stroke-width="18" stroke-linejoin="round" d="M 28539,13431 L 28539,13281"/>
 <path fill="none" stroke="rgb(179,179,179)" stroke-width="18" stroke-linejoin="round" d="M 29107,13431 L 29107,13281"/>
 <path fill="none" stroke="rgb(179,179,179)" stroke-width="18" stroke-linejoin="round" d="M 29675,13431 L 29675,13281"/>
 <path fill="none" stroke="rgb(179,179,179)" stroke-width="18" stroke-linejoin="round" d="M 1825,13281 L 29676,13281"/>
 <path fill="none" stroke="rgb(179,179,179)" stroke-width="18" stroke-linejoin="round" d="M 1675,13281 L 1825,13281"/>
 <path fill="none" stroke="rgb(179,179,179)" stroke-width="18" stroke-linejoin="round" d="M 1675,12069 L 1825,12069"/>
 <path fill="none" stroke="rgb(179,179,179)" stroke-width="18" stroke-linejoin="round" d="M 1675,10857 L 1825,10857"/>
 <path fill="none" stroke="rgb(179,179,179)" stroke-width="18" stroke-linejoin="round" d="M 1675,9645 L 1825,9645"/>
 <path fill="none" stroke="rgb(179,179,179)" stroke-width="18" stroke-linejoin="round" d="M 1675,8434 L 1825,8434"/>
 <path fill="none" stroke="rgb(179,179,179)" stroke-width="18" stroke-linejoin="round" d="M 1675,7222 L 1825,7222"/>
 <path fill="none" stroke="rgb(179,179,179)" stroke-width="18" stroke-linejoin="round" d="M 1675,6010 L 1825,6010"/>
 <path fill="none" stroke="rgb(179,179,179)" stroke-width="18" stroke-linejoin="round" d="M 1675,4798 L 1825,4798"/>
 <path fill="none" stroke="rgb(179,179,179)" stroke-width="18" stroke-linejoin="round" d="M 1675,3586 L 1825,3586"/>
 <path fill="none" stroke="rgb(179,179,179)" stroke-width="18" stroke-linejoin="round" d="M 1675,2375 L 1825,2375"/>
 <path fill="none" stroke="rgb(179,179,179)" stroke-width="18" stroke-linejoin="round" d="M 1825,13281 L 1825,2375"/>
 <path fill="rgb(0,69,134)" stroke="none" d="M 29249,13281 L 29533,13281 29533,13279 29249,13279 29249,13281 Z"/>
 <path fill="rgb(0,69,134)" stroke="none" d="M 28681,13281 L 28965,13281 28965,13272 28681,13272 28681,13281 Z"/>
 <path fill="rgb(0,69,134)" stroke="none" d="M 28112,13281 L 28397,13281 28397,13268 28112,13268 28112,13281 Z"/>
 <path fill="rgb(0,69,134)" stroke="none" d="M 27544,13281 L 27828,13281 27828,13265 27544,13265 27544,13281 Z"/>
 <path fill="rgb(0,69,134)" stroke="none" d="M 26976,13281 L 27260,13281 27260,13264 26976,13264 26976,13281 Z"/>
 <path fill="rgb(0,69,134)" stroke="none" d="M 26407,13281 L 26691,13281 26691,13264 26407,13264 26407,13281 Z"/>
 <path fill="rgb(0,69,134)" stroke="none" d="M 25839,13281 L 26123,13281 26123,13262 25839,13262 25839,13281 Z"/>
 <path fill="rgb(255,0,0)" stroke="none" d="M 25270,13281 L 25555,13281 25555,13262 25270,13262 25270,13281 Z"/>
 <path fill="rgb(0,69,134)" stroke="none" d="M 24702,13281 L 24986,13281 24986,13259 24702,13259 24702,13281 Z"/>
 <path fill="rgb(0,69,134)" stroke="none" d="M 24134,13281 L 24418,13281 24418,13253 24134,13253 24134,13281 Z"/>
 <path fill="rgb(0,69,134)" stroke="none" d="M 23565,13281 L 23849,13281 23849,13248 23565,13248 23565,13281 Z"/>
 <path fill="rgb(0,69,134)" stroke="none" d="M 22997,13281 L 23281,13281 23281,13248 22997,13248 22997,13281 Z"/>
 <path fill="rgb(0,69,134)" stroke="none" d="M 22428,13281 L 22713,13281 22713,13244 22428,13244 22428,13281 Z"/>
 <path fill="rgb(0,69,134)" stroke="none" d="M 21860,13281 L 22144,13281 22144,13217 21860,13217 21860,13281 Z"/>
 <path fill="rgb(0,69,134)" stroke="none" d="M 21291,13281 L 21576,13281 21576,13200 21291,13200 21291,13281 Z"/>
 <path fill="rgb(0,69,134)" stroke="none" d="M 20723,13281 L 21007,13281 21007,13197 20723,13197 20723,13281 Z"/>
 <path fill="rgb(0,69,134)" stroke="none" d="M 20155,13281 L 20439,13281 20439,13196 20155,13196 20155,13281 Z"/>
 <path fill="rgb(0,69,134)" stroke="none" d="M 19586,13281 L 19870,13281 19870,13182 19586,13182 19586,13281 Z"/>
 <path fill="rgb(0,69,134)" stroke="none" d="M 19018,13281 L 19302,13281 19302,13158 19018,13158 19018,13281 Z"/>
 <path fill="rgb(0,69,134)" stroke="none" d="M 18449,13281 L 18734,13281 18734,13156 18449,13156 18449,13281 Z"/>
 <path fill="rgb(0,69,134)" stroke="none" d="M 17881,13281 L 18165,13281 18165,13153 17881,13153 17881,13281 Z"/>
 <path fill="rgb(0,69,134)" stroke="none" d="M 17313,13281 L 17597,13281 17597,13126 17313,13126 17313,13281 Z"/>
 <path fill="rgb(0,69,134)" stroke="none" d="M 16744,13281 L 17028,13281 17028,13117 16744,13117 16744,13281 Z"/>
 <path fill="rgb(0,69,134)" stroke="none" d="M 16176,13281 L 16460,13281 16460,13080 16176,13080 16176,13281 Z"/>
 <path fill="rgb(0,69,134)" stroke="none" d="M 15607,13281 L 15892,13281 15892,13052 15607,13052 15607,13281 Z"/>
 <path fill="rgb(0,69,134)" stroke="none" d="M 15040,13281 L 15323,13281 15323,13050 15040,13050 15040,13281 Z"/>
 <path fill="rgb(0,69,134)" stroke="none" d="M 14472,13281 L 14756,13281 14756,13025 14472,13025 14472,13281 Z"/>
 <path fill="rgb(0,69,134)" stroke="none" d="M 13903,13281 L 14187,13281 14187,12996 13903,12996 13903,13281 Z"/>
 <path fill="rgb(0,69,134)" stroke="none" d="M 13335,13281 L 13619,13281 13619,12959 13335,12959 13335,13281 Z"/>
 <path fill="rgb(0,69,134)" stroke="none" d="M 12766,13281 L 13051,13281 13051,12958 12766,12958 12766,13281 Z"/>
 <path fill="rgb(0,69,134)" stroke="none" d="M 12198,13281 L 12482,13281 12482,12918 12198,12918 12198,13281 Z"/>
 <path fill="rgb(0,69,134)" stroke="none" d="M 11630,13281 L 11914,13281 11914,12892 11630,12892 11630,13281 Z"/>
 <path fill="rgb(0,69,134)" stroke="none" d="M 11061,13281 L 11345,13281 11345,12809 11061,12809 11061,13281 Z"/>
 <path fill="rgb(0,69,134)" stroke="none" d="M 10493,13281 L 10777,13281 10777,12777 10493,12777 10493,13281 Z"/>
 <path fill="rgb(0,69,134)" stroke="none" d="M 9924,13281 L 10209,13281 10209,12771 9924,12771 9924,13281 Z"/>
 <path fill="rgb(0,69,134)" stroke="none" d="M 9356,13281 L 9640,13281 9640,12757 9356,12757 9356,13281 Z"/>
 <path fill="rgb(0,69,134)" stroke="none" d="M 8788,13281 L 9072,13281 9072,12710 8788,12710 8788,13281 Z"/>
 <path fill="rgb(0,69,134)" stroke="none" d="M 8219,13281 L 8503,13281 8503,12708 8219,12708 8219,13281 Z"/>
 <path fill="rgb(0,69,134)" stroke="none" d="M 7651,13281 L 7935,13281 7935,12682 7651,12682 7651,13281 Z"/>
 <path fill="rgb(0,69,134)" stroke="none" d="M 7082,13281 L 7366,13281 7366,12682 7082,12682 7082,13281 Z"/>
 <path fill="rgb(0,69,134)" stroke="none" d="M 6514,13281 L 6798,13281 6798,12641 6514,12641 6514,13281 Z"/>
 <path fill="rgb(0,69,134)" stroke="none" d="M 5945,13281 L 6230,13281 6230,12409 5945,12409 5945,13281 Z"/>
 <path fill="rgb(0,69,134)" stroke="none" d="M 5377,13281 L 5661,13281 5661,12357 5377,12357 5377,13281 Z"/>
 <path fill="rgb(0,69,134)" stroke="none" d="M 4809,13281 L 5093,13281 5093,12100 4809,12100 4809,13281 Z"/>
 <path fill="rgb(0,69,134)" stroke="none" d="M 4240,13281 L 4524,13281 4524,10621 4240,10621 4240,13281 Z"/>
 <path fill="rgb(0,69,134)" stroke="none" d="M 3672,13281 L 3956,13281 3956,10572 3672,10572 3672,13281 Z"/>
 <path fill="rgb(0,69,134)" stroke="none" d="M 3103,13281 L 3388,13281 3388,10302 3103,10302 3103,13281 Z"/>
 <path fill="rgb(0,69,134)" stroke="none" d="M 2535,13281 L 2819,13281 2819,10183 2535,10183 2535,13281 Z"/>
 <path fill="rgb(0,69,134)" stroke="none" d="M 1967,13281 L 2251,13281 2251,9233 1967,9233 1967,13281 Z"/>
 <text class="TextShape" transform="rotate(-44.9 1331 14617)"><tspan class="TextParagraph" font-family="Arial, sans-serif" font-size="353px" font-weight="400"><tspan class="TextPosition" x="1331" y="14617"><tspan fill="rgb(0,0,0)" stroke="none">Sweden</tspan></tspan></tspan></text>
 <text class="TextShape" transform="rotate(-44.9 2256 14261)"><tspan class="TextParagraph" font-family="Arial, sans-serif" font-size="353px" font-weight="400"><tspan class="TextPosition" x="2256" y="14261"><tspan fill="rgb(0,0,0)" stroke="none">USA</tspan></tspan></tspan></text>
 <text class="TextShape" transform="rotate(-44.9 1495 15590)"><tspan class="TextParagraph" font-family="Arial, sans-serif" font-size="353px" font-weight="400"><tspan class="TextPosition" x="1495" y="15590"><tspan fill="rgb(0,0,0)" stroke="none">North Macedonia</tspan></tspan></tspan></text>
 <text class="TextShape" transform="rotate(-44.9 2999 14654)"><tspan class="TextParagraph" font-family="Arial, sans-serif" font-size="353px" font-weight="400"><tspan class="TextPosition" x="2999" y="14654"><tspan fill="rgb(0,0,0)" stroke="none">Armenia</tspan></tspan></tspan></text>
 <text class="TextShape" transform="rotate(-44.9 3549 14672)"><tspan class="TextParagraph" font-family="Arial, sans-serif" font-size="353px" font-weight="400"><tspan class="TextPosition" x="3549" y="14672"><tspan fill="rgb(0,0,0)" stroke="none">Moldova</tspan></tspan></tspan></text>
 <text class="TextShape" transform="rotate(-44.9 4698 14092)"><tspan class="TextParagraph" font-family="Arial, sans-serif" font-size="353px" font-weight="400"><tspan class="TextPosition" x="4698" y="14092"><tspan fill="rgb(0,0,0)" stroke="none">UK</tspan></tspan></tspan></text>
 <text class="TextShape" transform="rotate(-44.9 4704 14654)"><tspan class="TextParagraph" font-family="Arial, sans-serif" font-size="353px" font-weight="400"><tspan class="TextPosition" x="4704" y="14654"><tspan fill="rgb(0,0,0)" stroke="none">Portugal</tspan></tspan></tspan></text>
 <text class="TextShape" transform="rotate(-44.9 3533 16394)"><tspan class="TextParagraph" font-family="Arial, sans-serif" font-size="353px" font-weight="400"><tspan class="TextPosition" x="3533" y="16394"><tspan fill="rgb(0,0,0)" stroke="none">Bosnia and Herzegovina</tspan></tspan></tspan></text>
 <text class="TextShape" transform="rotate(-44.9 5597 14898)"><tspan class="TextParagraph" font-family="Arial, sans-serif" font-size="353px" font-weight="400"><tspan class="TextPosition" x="5597" y="14898"><tspan fill="rgb(0,0,0)" stroke="none">Azerbaijan</tspan></tspan></tspan></text>
 <text class="TextShape" transform="rotate(-44.9 6559 14504)"><tspan class="TextParagraph" font-family="Arial, sans-serif" font-size="353px" font-weight="400"><tspan class="TextPosition" x="6559" y="14504"><tspan fill="rgb(0,0,0)" stroke="none">Turkey</tspan></tspan></tspan></text>
 <text class="TextShape" transform="rotate(-44.9 7277 14356)"><tspan class="TextParagraph" font-family="Arial, sans-serif" font-size="353px" font-weight="400"><tspan class="TextPosition" x="7277" y="14356"><tspan fill="rgb(0,0,0)" stroke="none">Israel</tspan></tspan></tspan></text>
 <text class="TextShape" transform="rotate(-44.9 7640 14561)"><tspan class="TextParagraph" font-family="Arial, sans-serif" font-size="353px" font-weight="400"><tspan class="TextPosition" x="7640" y="14561"><tspan fill="rgb(0,0,0)" stroke="none">Albania</tspan></tspan></tspan></text>
 <text class="TextShape" transform="rotate(-44.9 8265 14504)"><tspan class="TextParagraph" font-family="Arial, sans-serif" font-size="353px" font-weight="400"><tspan class="TextPosition" x="8265" y="14504"><tspan fill="rgb(0,0,0)" stroke="none">France</tspan></tspan></tspan></text>
 <text class="TextShape" transform="rotate(-44.9 8627 14710)"><tspan class="TextParagraph" font-family="Arial, sans-serif" font-size="353px" font-weight="400"><tspan class="TextPosition" x="8627" y="14710"><tspan fill="rgb(0,0,0)" stroke="none">Romania</tspan></tspan></tspan></text>
 <text class="TextShape" transform="rotate(-44.9 9269 14636)"><tspan class="TextParagraph" font-family="Arial, sans-serif" font-size="353px" font-weight="400"><tspan class="TextPosition" x="9269" y="14636"><tspan fill="rgb(0,0,0)" stroke="none">Belgium</tspan></tspan></tspan></text>
 <text class="TextShape" transform="rotate(-44.9 9426 15048)"><tspan class="TextParagraph" font-family="Arial, sans-serif" font-size="353px" font-weight="400"><tspan class="TextPosition" x="9426" y="15048"><tspan fill="rgb(0,0,0)" stroke="none">Netherlands</tspan></tspan></tspan></text>
 <text class="TextShape" transform="rotate(-44.9 10538 14504)"><tspan class="TextParagraph" font-family="Arial, sans-serif" font-size="353px" font-weight="400"><tspan class="TextPosition" x="10538" y="14504"><tspan fill="rgb(0,0,0)" stroke="none">Russia</tspan></tspan></tspan></text>
 <text class="TextShape" transform="rotate(-44.9 10975 14636)"><tspan class="TextParagraph" font-family="Arial, sans-serif" font-size="353px" font-weight="400"><tspan class="TextPosition" x="10975" y="14636"><tspan fill="rgb(0,0,0)" stroke="none">Bulgaria</tspan></tspan></tspan></text>
 <text class="TextShape" transform="rotate(-44.9 11805 14374)"><tspan class="TextParagraph" font-family="Arial, sans-serif" font-size="353px" font-weight="400"><tspan class="TextPosition" x="11805" y="14374"><tspan fill="rgb(0,0,0)" stroke="none">Spain</tspan></tspan></tspan></text>
 <text class="TextShape" transform="rotate(-44.9 12243 14504)"><tspan class="TextParagraph" font-family="Arial, sans-serif" font-size="353px" font-weight="400"><tspan class="TextPosition" x="12243" y="14504"><tspan fill="rgb(0,0,0)" stroke="none">Poland</tspan></tspan></tspan></text>
 <text class="TextShape" transform="rotate(-44.9 13092 14224)"><tspan class="TextParagraph" font-family="Arial, sans-serif" font-size="353px" font-weight="400"><tspan class="TextPosition" x="13092" y="14224"><tspan fill="rgb(0,0,0)" stroke="none">Italy</tspan></tspan></tspan></text>
 <text class="TextShape" transform="rotate(-44.9 13305 14580)"><tspan class="TextParagraph" font-family="Arial, sans-serif" font-size="353px" font-weight="400"><tspan class="TextPosition" x="13305" y="14580"><tspan fill="rgb(0,0,0)" stroke="none">Ukraine</tspan></tspan></tspan></text>
 <text class="TextShape" transform="rotate(-44.9 13874 14580)"><tspan class="TextParagraph" font-family="Arial, sans-serif" font-size="353px" font-weight="400"><tspan class="TextPosition" x="13874" y="14580"><tspan fill="rgb(0,0,0)" stroke="none">Belarus</tspan></tspan></tspan></text>
 <text class="TextShape" transform="rotate(-44.9 14293 14729)"><tspan class="TextParagraph" font-family="Arial, sans-serif" font-size="353px" font-weight="400"><tspan class="TextPosition" x="14293" y="14729"><tspan fill="rgb(0,0,0)" stroke="none">Denmark</tspan></tspan></tspan></text>
 <text class="TextShape" transform="rotate(-44.9 14504 15086)"><tspan class="TextParagraph" font-family="Arial, sans-serif" font-size="353px" font-weight="400"><tspan class="TextPosition" x="14504" y="15086"><tspan fill="rgb(0,0,0)" stroke="none">Luxembourg</tspan></tspan></tspan></text>
 <text class="TextShape" transform="rotate(-44.9 15410 14748)"><tspan class="TextParagraph" font-family="Arial, sans-serif" font-size="353px" font-weight="400"><tspan class="TextPosition" x="15410" y="14748"><tspan fill="rgb(0,0,0)" stroke="none">Germany</tspan></tspan></tspan></text>
 <text class="TextShape" transform="rotate(-44.9 15698 15028)"><tspan class="TextParagraph" font-family="Arial, sans-serif" font-size="353px" font-weight="400"><tspan class="TextPosition" x="15698" y="15028"><tspan fill="rgb(0,0,0)" stroke="none">Montenegro</tspan></tspan></tspan></text>
 <text class="TextShape" transform="rotate(-44.9 16659 14636)"><tspan class="TextParagraph" font-family="Arial, sans-serif" font-size="353px" font-weight="400"><tspan class="TextPosition" x="16659" y="14636"><tspan fill="rgb(0,0,0)" stroke="none">Czechia</tspan></tspan></tspan></text>
 <text class="TextShape" transform="rotate(-44.9 17377 14486)"><tspan class="TextParagraph" font-family="Arial, sans-serif" font-size="353px" font-weight="400"><tspan class="TextPosition" x="17377" y="14486"><tspan fill="rgb(0,0,0)" stroke="none">Ireland</tspan></tspan></tspan></text>
 <text class="TextShape" transform="rotate(-44.9 17984 14448)"><tspan class="TextParagraph" font-family="Arial, sans-serif" font-size="353px" font-weight="400"><tspan class="TextPosition" x="17984" y="14448"><tspan fill="rgb(0,0,0)" stroke="none">Serbia</tspan></tspan></tspan></text>
 <text class="TextShape" transform="rotate(-44.9 17990 15010)"><tspan class="TextParagraph" font-family="Arial, sans-serif" font-size="353px" font-weight="400"><tspan class="TextPosition" x="17990" y="15010"><tspan fill="rgb(0,0,0)" stroke="none">Switzerland</tspan></tspan></tspan></text>
 <text class="TextShape" transform="rotate(-44.9 19044 14524)"><tspan class="TextParagraph" font-family="Arial, sans-serif" font-size="353px" font-weight="400"><tspan class="TextPosition" x="19044" y="14524"><tspan fill="rgb(0,0,0)" stroke="none">Austria</tspan></tspan></tspan></text>
 <text class="TextShape" transform="rotate(-44.9 19577 14561)"><tspan class="TextParagraph" font-family="Arial, sans-serif" font-size="353px" font-weight="400"><tspan class="TextPosition" x="19577" y="14561"><tspan fill="rgb(0,0,0)" stroke="none">Norway</tspan></tspan></tspan></text>
 <text class="TextShape" transform="rotate(-44.9 20013 14692)"><tspan class="TextParagraph" font-family="Arial, sans-serif" font-size="353px" font-weight="400"><tspan class="TextPosition" x="20013" y="14692"><tspan fill="rgb(0,0,0)" stroke="none">Slovenia</tspan></tspan></tspan></text>
 <text class="TextShape" transform="rotate(-44.9 20732 14542)"><tspan class="TextParagraph" font-family="Arial, sans-serif" font-size="353px" font-weight="400"><tspan class="TextPosition" x="20732" y="14542"><tspan fill="rgb(0,0,0)" stroke="none">Greece</tspan></tspan></tspan></text>
 <text class="TextShape" transform="rotate(-44.9 21487 14356)"><tspan class="TextParagraph" font-family="Arial, sans-serif" font-size="353px" font-weight="400"><tspan class="TextPosition" x="21487" y="14356"><tspan fill="rgb(0,0,0)" stroke="none">Malta</tspan></tspan></tspan></text>
 <text class="TextShape" transform="rotate(-44.9 21681 14729)"><tspan class="TextParagraph" font-family="Arial, sans-serif" font-size="353px" font-weight="400"><tspan class="TextPosition" x="21681" y="14729"><tspan fill="rgb(0,0,0)" stroke="none">Lithuania</tspan></tspan></tspan></text>
 <text class="TextShape" transform="rotate(-44.9 22436 14542)"><tspan class="TextParagraph" font-family="Arial, sans-serif" font-size="353px" font-weight="400"><tspan class="TextPosition" x="22436" y="14542"><tspan fill="rgb(0,0,0)" stroke="none">Finland</tspan></tspan></tspan></text>
 <text class="TextShape" transform="rotate(-44.9 23022 14524)"><tspan class="TextParagraph" font-family="Arial, sans-serif" font-size="353px" font-weight="400"><tspan class="TextPosition" x="23022" y="14524"><tspan fill="rgb(0,0,0)" stroke="none">Croatia</tspan></tspan></tspan></text>
 <text class="TextShape" transform="rotate(-44.9 23573 14542)"><tspan class="TextParagraph" font-family="Arial, sans-serif" font-size="353px" font-weight="400"><tspan class="TextPosition" x="23573" y="14542"><tspan fill="rgb(0,0,0)" stroke="none">Iceland</tspan></tspan></tspan></text>
 <text class="TextShape" transform="rotate(-44.9 23973 14710)"><tspan class="TextParagraph" font-family="Arial, sans-serif" font-size="353px" font-weight="400"><tspan class="TextPosition" x="23973" y="14710"><tspan fill="rgb(0,0,0)" stroke="none">S. Korea</tspan></tspan></tspan></text>
 <text class="TextShape" transform="rotate(-44.9 24597 14654)"><tspan class="TextParagraph" font-family="Arial, sans-serif" font-size="353px" font-weight="400"><tspan class="TextPosition" x="24597" y="14654"><tspan fill="rgb(0,0,0)" stroke="none">Hungary</tspan></tspan></tspan></text>
 <text class="TextShape" transform="rotate(-44.9 25241 14580)"><tspan class="TextParagraph" font-family="Arial, sans-serif" font-size="353px" font-weight="400"><tspan class="TextPosition" x="25241" y="14580"><tspan fill="rgb(0,0,0)" stroke="none">Estonia</tspan></tspan></tspan></text>
 <text class="TextShape" transform="rotate(-44.9 25978 14411)"><tspan class="TextParagraph" font-family="Arial, sans-serif" font-size="353px" font-weight="400"><tspan class="TextPosition" x="25978" y="14411"><tspan fill="rgb(0,0,0)" stroke="none">Latvia</tspan></tspan></tspan></text>
 <text class="TextShape" transform="rotate(-44.9 26547 14411)"><tspan class="TextParagraph" font-family="Arial, sans-serif" font-size="353px" font-weight="400"><tspan class="TextPosition" x="26547" y="14411"><tspan fill="rgb(0,0,0)" stroke="none">Japan</tspan></tspan></tspan></text>
 <text class="TextShape" transform="rotate(-44.9 26927 14598)"><tspan class="TextParagraph" font-family="Arial, sans-serif" font-size="353px" font-weight="400"><tspan class="TextPosition" x="26927" y="14598"><tspan fill="rgb(0,0,0)" stroke="none">Georgia</tspan></tspan></tspan></text>
 <text class="TextShape" transform="rotate(-44.9 27401 14692)"><tspan class="TextParagraph" font-family="Arial, sans-serif" font-size="353px" font-weight="400"><tspan class="TextPosition" x="27401" y="14692"><tspan fill="rgb(0,0,0)" stroke="none">Slovakia</tspan></tspan></tspan></text>
 <text class="TextShape" transform="rotate(-44.9 28138 14524)"><tspan class="TextParagraph" font-family="Arial, sans-serif" font-size="353px" font-weight="400"><tspan class="TextPosition" x="28138" y="14524"><tspan fill="rgb(0,0,0)" stroke="none">Cyprus</tspan></tspan></tspan></text>
 <text class="TextShape" transform="rotate(-44.9 28856 14374)"><tspan class="TextParagraph" font-family="Arial, sans-serif" font-size="353px" font-weight="400"><tspan class="TextPosition" x="28856" y="14374"><tspan fill="rgb(0,0,0)" stroke="none">China</tspan></tspan></tspan></text>
 <text class="TextShape"><tspan class="TextParagraph" font-family="Arial, sans-serif" font-size="353px" font-weight="400"><tspan class="TextPosition" x="596" y="13402"><tspan fill="rgb(0,0,0)" stroke="none">0,00%</tspan></tspan></tspan></text>
 <text class="TextShape"><tspan class="TextParagraph" font-family="Arial, sans-serif" font-size="353px" font-weight="400"><tspan class="TextPosition" x="596" y="12190"><tspan fill="rgb(0,0,0)" stroke="none">0,33%</tspan></tspan></tspan></text>
 <text class="TextShape"><tspan class="TextParagraph" font-family="Arial, sans-serif" font-size="353px" font-weight="400"><tspan class="TextPosition" x="596" y="10978"><tspan fill="rgb(0,0,0)" stroke="none">0,67%</tspan></tspan></tspan></text>
 <text class="TextShape"><tspan class="TextParagraph" font-family="Arial, sans-serif" font-size="353px" font-weight="400"><tspan class="TextPosition" x="596" y="9766"><tspan fill="rgb(0,0,0)" stroke="none">1,00%</tspan></tspan></tspan></text>
 <text class="TextShape"><tspan class="TextParagraph" font-family="Arial, sans-serif" font-size="353px" font-weight="400"><tspan class="TextPosition" x="596" y="8554"><tspan fill="rgb(0,0,0)" stroke="none">1,33%</tspan></tspan></tspan></text>
 <text class="TextShape"><tspan class="TextParagraph" font-family="Arial, sans-serif" font-size="353px" font-weight="400"><tspan class="TextPosition" x="596" y="7342"><tspan fill="rgb(0,0,0)" stroke="none">1,67%</tspan></tspan></tspan></text>
 <text class="TextShape"><tspan class="TextParagraph" font-family="Arial, sans-serif" font-size="353px" font-weight="400"><tspan class="TextPosition" x="596" y="6130"><tspan fill="rgb(0,0,0)" stroke="none">2,00%</tspan></tspan></tspan></text>
 <text class="TextShape"><tspan class="TextParagraph" font-family="Arial, sans-serif" font-size="353px" font-weight="400"><tspan class="TextPosition" x="596" y="4918"><tspan fill="rgb(0,0,0)" stroke="none">2,33%</tspan></tspan></tspan></text>
 <text class="TextShape"><tspan class="TextParagraph" font-family="Arial, sans-serif" font-size="353px" font-weight="400"><tspan class="TextPosition" x="596" y="3706"><tspan fill="rgb(0,0,0)" stroke="none">2,67%</tspan></tspan></tspan></text>
 <text class="TextShape"><tspan class="TextParagraph" font-family="Arial, sans-serif" font-size="353px" font-weight="400"><tspan class="TextPosition" x="596" y="2495"><tspan fill="rgb(0,0,0)" stroke="none">3,00%</tspan></tspan></tspan></text>
 <text class="TextShape"><tspan class="TextParagraph" font-family="Arial, sans-serif" font-size="459px" font-weight="400"><tspan class="TextPosition" x="7133" y="1011"><tspan fill="rgb(0,0,0)" stroke="none">Active cases per population/ Aktív esetek száma a lakosság %-ában 2020.06.19.</tspan></tspan></tspan></text>
 <path fill="rgb(0,69,134)" stroke="none" d="M 12863,1844 L 12758,1844 12758,1633 12969,1633 12969,1844 12863,1844 Z"/>
 <text class="TextShape"><tspan class="TextParagraph" font-family="Arial, sans-serif" font-size="353px" font-weight="400"><tspan class="TextPosition" x="13069" y="1858"><tspan fill="rgb(0,0,0)" stroke="none">Active real cases percentage</tspan></tspan></tspan></text>
</svg>