<?xml version="1.0" encoding="UTF-8"?>
<!DOCTYPE svg PUBLIC "-//W3C//DTD SVG 1.1//EN" "http://www.w3.org/Graphics/SVG/1.1/DTD/svg11.dtd">
<svg width="350mm" height="130mm" viewBox="0 0 35000 13000" version="1.1" xmlns="http://www.w3.org/2000/svg" xmlns:xlink="http://www.w3.org/1999/xlink" stroke-width="28.222" stroke-linejoin="round" xml:space="preserve">
 <path fill="rgb(255,255,255)" stroke="none" d="M 17500,13000 L 0,13000 0,0 35000,0 35000,13000 17500,13000 Z"/>
 <path fill="none" stroke="rgb(179,179,179)" stroke-linejoin="round" d="M 18115,9373 L 1930,9373 1930,2218 34300,2218 34300,9373 18115,9373 Z"/>
 <path fill="none" stroke="rgb(179,179,179)" stroke-linejoin="round" d="M 34299,9372 L 1930,9372"/>
 <path fill="none" stroke="rgb(179,179,179)" stroke-linejoin="round" d="M 34299,8576 L 1930,8576"/>
 <path fill="none" stroke="rgb(179,179,179)" stroke-linejoin="round" d="M 34299,7781 L 1930,7781"/>
 <path fill="none" stroke="rgb(179,179,179)" stroke-linejoin="round" d="M 34299,6986 L 1930,6986"/>
 <path fill="none" stroke="rgb(179,179,179)" stroke-linejoin="round" d="M 34299,6192 L 1930,6192"/>
 <path fill="none" stroke="rgb(179,179,179)" stroke-linejoin="round" d="M 34299,5397 L 1930,5397"/>
 <path fill="none" stroke="rgb(179,179,179)" stroke-linejoin="round" d="M 34299,4602 L 1930,4602"/>
 <path fill="none" stroke="rgb(179,179,179)" stroke-linejoin="round" d="M 34299,3807 L 1930,3807"/>
 <path fill="none" stroke="rgb(179,179,179)" stroke-linejoin="round" d="M 34299,3012 L 1930,3012"/>
 <path fill="none" stroke="rgb(179,179,179)" stroke-linejoin="round" d="M 34299,2217 L 1930,2217"/>
 <path fill="none" stroke="rgb(179,179,179)" stroke-linejoin="round" d="M 1930,9522 L 1930,9372"/>
 <path fill="none" stroke="rgb(179,179,179)" stroke-linejoin="round" d="M 2590,9522 L 2590,9372"/>
 <path fill="none" stroke="rgb(179,179,179)" stroke-linejoin="round" d="M 3251,9522 L 3251,9372"/>
 <path fill="none" stroke="rgb(179,179,179)" stroke-linejoin="round" d="M 3911,9522 L 3911,9372"/>
 <path fill="none" stroke="rgb(179,179,179)" stroke-linejoin="round" d="M 4572,9522 L 4572,9372"/>
 <path fill="none" stroke="rgb(179,179,179)" stroke-linejoin="round" d="M 5233,9522 L 5233,9372"/>
 <path fill="none" stroke="rgb(179,179,179)" stroke-linejoin="round" d="M 5893,9522 L 5893,9372"/>
 <path fill="none" stroke="rgb(179,179,179)" stroke-linejoin="round" d="M 6554,9522 L 6554,9372"/>
 <path fill="none" stroke="rgb(179,179,179)" stroke-linejoin="round" d="M 7215,9522 L 7215,9372"/>
 <path fill="none" stroke="rgb(179,179,179)" stroke-linejoin="round" d="M 7875,9522 L 7875,9372"/>
 <path fill="none" stroke="rgb(179,179,179)" stroke-linejoin="round" d="M 8536,9522 L 8536,9372"/>
 <path fill="none" stroke="rgb(179,179,179)" stroke-linejoin="round" d="M 9196,9522 L 9196,9372"/>
 <path fill="none" stroke="rgb(179,179,179)" stroke-linejoin="round" d="M 9857,9522 L 9857,9372"/>
 <path fill="none" stroke="rgb(179,179,179)" stroke-linejoin="round" d="M 10518,9522 L 10518,9372"/>
 <path fill="none" stroke="rgb(179,179,179)" stroke-linejoin="round" d="M 11178,9522 L 11178,9372"/>
 <path fill="none" stroke="rgb(179,179,179)" stroke-linejoin="round" d="M 11839,9522 L 11839,9372"/>
 <path fill="none" stroke="rgb(179,179,179)" stroke-linejoin="round" d="M 12500,9522 L 12500,9372"/>
 <path fill="none" stroke="rgb(179,179,179)" stroke-linejoin="round" d="M 13160,9522 L 13160,9372"/>
 <path fill="none" stroke="rgb(179,179,179)" stroke-linejoin="round" d="M 13821,9522 L 13821,9372"/>
 <path fill="none" stroke="rgb(179,179,179)" stroke-linejoin="round" d="M 14482,9522 L 14482,9372"/>
 <path fill="none" stroke="rgb(179,179,179)" stroke-linejoin="round" d="M 15142,9522 L 15142,9372"/>
 <path fill="none" stroke="rgb(179,179,179)" stroke-linejoin="round" d="M 15803,9522 L 15803,9372"/>
 <path fill="none" stroke="rgb(179,179,179)" stroke-linejoin="round" d="M 16463,9522 L 16463,9372"/>
 <path fill="none" stroke="rgb(179,179,179)" stroke-linejoin="round" d="M 17124,9522 L 17124,9372"/>
 <path fill="none" stroke="rgb(179,179,179)" stroke-linejoin="round" d="M 17784,9522 L 17784,9372"/>
 <path fill="none" stroke="rgb(179,179,179)" stroke-linejoin="round" d="M 18444,9522 L 18444,9372"/>
 <path fill="none" stroke="rgb(179,179,179)" stroke-linejoin="round" d="M 19105,9522 L 19105,9372"/>
 <path fill="none" stroke="rgb(179,179,179)" stroke-linejoin="round" d="M 19766,9522 L 19766,9372"/>
 <path fill="none" stroke="rgb(179,179,179)" stroke-linejoin="round" d="M 20426,9522 L 20426,9372"/>
 <path fill="none" stroke="rgb(179,179,179)" stroke-linejoin="round" d="M 21087,9522 L 21087,9372"/>
 <path fill="none" stroke="rgb(179,179,179)" stroke-linejoin="round" d="M 21747,9522 L 21747,9372"/>
 <path fill="none" stroke="rgb(179,179,179)" stroke-linejoin="round" d="M 22408,9522 L 22408,9372"/>
 <path fill="none" stroke="rgb(179,179,179)" stroke-linejoin="round" d="M 23069,9522 L 23069,9372"/>
 <path fill="none" stroke="rgb(179,179,179)" stroke-linejoin="round" d="M 23729,9522 L 23729,9372"/>
 <path fill="none" stroke="rgb(179,179,179)" stroke-linejoin="round" d="M 24390,9522 L 24390,9372"/>
 <path fill="none" stroke="rgb(179,179,179)" stroke-linejoin="round" d="M 25051,9522 L 25051,9372"/>
 <path fill="none" stroke="rgb(179,179,179)" stroke-linejoin="round" d="M 25711,9522 L 25711,9372"/>
 <path fill="none" stroke="rgb(179,179,179)" stroke-linejoin="round" d="M 26372,9522 L 26372,9372"/>
 <path fill="none" stroke="rgb(179,179,179)" stroke-linejoin="round" d="M 27033,9522 L 27033,9372"/>
 <path fill="none" stroke="rgb(179,179,179)" stroke-linejoin="round" d="M 27693,9522 L 27693,9372"/>
 <path fill="none" stroke="rgb(179,179,179)" stroke-linejoin="round" d="M 28354,9522 L 28354,9372"/>
 <path fill="none" stroke="rgb(179,179,179)" stroke-linejoin="round" d="M 29014,9522 L 29014,9372"/>
 <path fill="none" stroke="rgb(179,179,179)" stroke-linejoin="round" d="M 29675,9522 L 29675,9372"/>
 <path fill="none" stroke="rgb(179,179,179)" stroke-linejoin="round" d="M 30336,9522 L 30336,9372"/>
 <path fill="none" stroke="rgb(179,179,179)" stroke-linejoin="round" d="M 30996,9522 L 30996,9372"/>
 <path fill="none" stroke="rgb(179,179,179)" stroke-linejoin="round" d="M 31657,9522 L 31657,9372"/>
 <path fill="none" stroke="rgb(179,179,179)" stroke-linejoin="round" d="M 32318,9522 L 32318,9372"/>
 <path fill="none" stroke="rgb(179,179,179)" stroke-linejoin="round" d="M 32978,9522 L 32978,9372"/>
 <path fill="none" stroke="rgb(179,179,179)" stroke-linejoin="round" d="M 33639,9522 L 33639,9372"/>
 <path fill="none" stroke="rgb(179,179,179)" stroke-linejoin="round" d="M 34299,9522 L 34299,9372"/>
 <path fill="none" stroke="rgb(179,179,179)" stroke-linejoin="round" d="M 1930,9372 L 34299,9372"/>
 <path fill="none" stroke="rgb(179,179,179)" stroke-linejoin="round" d="M 1780,9372 L 1930,9372"/>
 <path fill="none" stroke="rgb(179,179,179)" stroke-linejoin="round" d="M 1780,8576 L 1930,8576"/>
 <path fill="none" stroke="rgb(179,179,179)" stroke-linejoin="round" d="M 1780,7781 L 1930,7781"/>
 <path fill="none" stroke="rgb(179,179,179)" stroke-linejoin="round" d="M 1780,6986 L 1930,6986"/>
 <path fill="none" stroke="rgb(179,179,179)" stroke-linejoin="round" d="M 1780,6192 L 1930,6192"/>
 <path fill="none" stroke="rgb(179,179,179)" stroke-linejoin="round" d="M 1780,5397 L 1930,5397"/>
 <path fill="none" stroke="rgb(179,179,179)" stroke-linejoin="round" d="M 1780,4602 L 1930,4602"/>
 <path fill="none" stroke="rgb(179,179,179)" stroke-linejoin="round" d="M 1780,3807 L 1930,3807"/>
 <path fill="none" stroke="rgb(179,179,179)" stroke-linejoin="round" d="M 1780,3012 L 1930,3012"/>
 <path fill="none" stroke="rgb(179,179,179)" stroke-linejoin="round" d="M 1780,2217 L 1930,2217"/>
 <path fill="none" stroke="rgb(179,179,179)" stroke-linejoin="round" d="M 1930,9372 L 1930,2217"/>
 <path fill="rgb(0,69,134)" stroke="none" d="M 33804,9372 L 34134,9372 34134,9371 33804,9371 33804,9372 Z"/>
 <path fill="rgb(0,69,134)" stroke="none" d="M 33143,9372 L 33474,9372 33474,9369 33143,9369 33143,9372 Z"/>
 <path fill="rgb(0,69,134)" stroke="none" d="M 32483,9372 L 32813,9372 32813,9368 32483,9368 32483,9372 Z"/>
 <path fill="rgb(0,69,134)" stroke="none" d="M 31822,9372 L 32152,9372 32152,9368 31822,9368 31822,9372 Z"/>
 <path fill="rgb(0,69,134)" stroke="none" d="M 31161,9372 L 31492,9372 31492,9361 31161,9361 31161,9372 Z"/>
 <path fill="rgb(0,69,134)" stroke="none" d="M 30501,9372 L 30831,9372 30831,9360 30501,9360 30501,9372 Z"/>
 <path fill="rgb(0,69,134)" stroke="none" d="M 29840,9372 L 30171,9372 30171,9356 29840,9356 29840,9372 Z"/>
 <path fill="rgb(0,69,134)" stroke="none" d="M 29180,9372 L 29510,9372 29510,9352 29180,9352 29180,9372 Z"/>
 <path fill="rgb(0,69,134)" stroke="none" d="M 28519,9372 L 28849,9372 28849,9351 28519,9351 28519,9372 Z"/>
 <path fill="rgb(0,69,134)" stroke="none" d="M 27858,9372 L 28189,9372 28189,9350 27858,9350 27858,9372 Z"/>
 <path fill="rgb(0,69,134)" stroke="none" d="M 27198,9372 L 27528,9372 27528,9340 27198,9340 27198,9372 Z"/>
 <path fill="rgb(0,69,134)" stroke="none" d="M 26537,9372 L 26867,9372 26867,9330 26537,9330 26537,9372 Z"/>
 <path fill="rgb(0,69,134)" stroke="none" d="M 25876,9372 L 26207,9372 26207,9330 25876,9330 25876,9372 Z"/>
 <path fill="rgb(0,69,134)" stroke="none" d="M 25216,9372 L 25546,9372 25546,9324 25216,9324 25216,9372 Z"/>
 <path fill="rgb(0,69,134)" stroke="none" d="M 24555,9372 L 24885,9372 24885,9316 24555,9316 24555,9372 Z"/>
 <path fill="rgb(0,69,134)" stroke="none" d="M 23895,9372 L 24225,9372 24225,9315 23895,9315 23895,9372 Z"/>
 <path fill="rgb(0,69,134)" stroke="none" d="M 23234,9372 L 23564,9372 23564,9299 23234,9299 23234,9372 Z"/>
 <path fill="rgb(0,69,134)" stroke="none" d="M 22573,9372 L 22904,9372 22904,9299 22573,9299 22573,9372 Z"/>
 <path fill="rgb(0,69,134)" stroke="none" d="M 21913,9372 L 22243,9372 22243,9293 21913,9293 21913,9372 Z"/>
 <path fill="rgb(0,69,134)" stroke="none" d="M 21252,9372 L 21582,9372 21582,9277 21252,9277 21252,9372 Z"/>
 <path fill="rgb(0,69,134)" stroke="none" d="M 20591,9372 L 20922,9372 20922,9267 20591,9267 20591,9372 Z"/>
 <path fill="rgb(0,69,134)" stroke="none" d="M 19931,9372 L 20261,9372 20261,9264 19931,9264 19931,9372 Z"/>
 <path fill="rgb(0,69,134)" stroke="none" d="M 19270,9372 L 19600,9372 19600,9251 19270,9251 19270,9372 Z"/>
 <path fill="rgb(0,69,134)" stroke="none" d="M 18609,9372 L 18940,9372 18940,9242 18609,9242 18609,9372 Z"/>
 <path fill="rgb(255,0,0)" stroke="none" d="M 17949,9372 L 18279,9372 18279,9193 17949,9193 17949,9372 Z"/>
 <path fill="rgb(0,69,134)" stroke="none" d="M 17289,9372 L 17619,9372 17619,9172 17289,9172 17289,9372 Z"/>
 <path fill="rgb(0,69,134)" stroke="none" d="M 16629,9372 L 16959,9372 16959,9163 16629,9163 16629,9372 Z"/>
 <path fill="rgb(0,69,134)" stroke="none" d="M 15968,9372 L 16298,9372 16298,9151 15968,9151 15968,9372 Z"/>
 <path fill="rgb(0,69,134)" stroke="none" d="M 15307,9372 L 15638,9372 15638,9134 15307,9134 15307,9372 Z"/>
 <path fill="rgb(0,69,134)" stroke="none" d="M 14647,9372 L 14977,9372 14977,9126 14647,9126 14647,9372 Z"/>
 <path fill="rgb(0,69,134)" stroke="none" d="M 13986,9372 L 14316,9372 14316,9115 13986,9115 13986,9372 Z"/>
 <path fill="rgb(0,69,134)" stroke="none" d="M 13325,9372 L 13656,9372 13656,9050 13325,9050 13325,9372 Z"/>
 <path fill="rgb(0,69,134)" stroke="none" d="M 12665,9372 L 12995,9372 12995,8955 12665,8955 12665,9372 Z"/>
 <path fill="rgb(0,69,134)" stroke="none" d="M 12004,9372 L 12334,9372 12334,8933 12004,8933 12004,9372 Z"/>
 <path fill="rgb(0,69,134)" stroke="none" d="M 11344,9372 L 11674,9372 11674,8915 11344,8915 11344,9372 Z"/>
 <path fill="rgb(0,69,134)" stroke="none" d="M 10683,9372 L 11013,9372 11013,8909 10683,8909 10683,9372 Z"/>
 <path fill="rgb(0,69,134)" stroke="none" d="M 10022,9372 L 10353,9372 10353,8836 10022,8836 10022,9372 Z"/>
 <path fill="rgb(0,69,134)" stroke="none" d="M 9362,9372 L 9692,9372 9692,8823 9362,8823 9362,9372 Z"/>
 <path fill="rgb(0,69,134)" stroke="none" d="M 8701,9372 L 9031,9372 9031,8808 8701,8808 8701,9372 Z"/>
 <path fill="rgb(0,69,134)" stroke="none" d="M 8040,9372 L 8371,9372 8371,8736 8040,8736 8040,9372 Z"/>
 <path fill="rgb(0,69,134)" stroke="none" d="M 7380,9372 L 7710,9372 7710,8164 7380,8164 7380,9372 Z"/>
 <path fill="rgb(0,69,134)" stroke="none" d="M 6719,9372 L 7049,9372 7049,8161 6719,8161 6719,9372 Z"/>
 <path fill="rgb(0,69,134)" stroke="none" d="M 6058,9372 L 6389,9372 6389,7906 6058,7906 6058,9372 Z"/>
 <path fill="rgb(0,69,134)" stroke="none" d="M 5398,9372 L 5728,9372 5728,7428 5398,7428 5398,9372 Z"/>
 <path fill="rgb(0,69,134)" stroke="none" d="M 4737,9372 L 5068,9372 5068,6474 4737,6474 4737,9372 Z"/>
 <path fill="rgb(0,69,134)" stroke="none" d="M 4077,9372 L 4407,9372 4407,6330 4077,6330 4077,9372 Z"/>
 <path fill="rgb(0,69,134)" stroke="none" d="M 3416,9372 L 3746,9372 3746,6278 3416,6278 3416,9372 Z"/>
 <path fill="rgb(0,69,134)" stroke="none" d="M 2755,9372 L 3086,9372 3086,4809 2755,4809 2755,9372 Z"/>
 <path fill="rgb(0,69,134)" stroke="none" d="M 2095,9372 L 2425,9372 2425,3127 2095,3127 2095,9372 Z"/>
 <text class="TextShape" transform="rotate(-44.9 2007 10183)"><tspan class="TextParagraph" font-family="Arial, sans-serif" font-size="353px" font-weight="400"><tspan class="TextPosition" x="2007" y="10183"><tspan fill="rgb(0,0,0)" stroke="none">UK</tspan></tspan></tspan></text>
 <text class="TextShape" transform="rotate(-44.9 2142 10708)"><tspan class="TextParagraph" font-family="Arial, sans-serif" font-size="353px" font-weight="400"><tspan class="TextPosition" x="2142" y="10708"><tspan fill="rgb(0,0,0)" stroke="none">Sweden</tspan></tspan></tspan></text>
 <text class="TextShape" transform="rotate(-44.9 3046 10465)"><tspan class="TextParagraph" font-family="Arial, sans-serif" font-size="353px" font-weight="400"><tspan class="TextPosition" x="3046" y="10465"><tspan fill="rgb(0,0,0)" stroke="none">Spain</tspan></tspan></tspan></text>
 <text class="TextShape" transform="rotate(-44.9 3445 10727)"><tspan class="TextParagraph" font-family="Arial, sans-serif" font-size="353px" font-weight="400"><tspan class="TextPosition" x="3445" y="10727"><tspan fill="rgb(0,0,0)" stroke="none">Belgium</tspan></tspan></tspan></text>
 <text class="TextShape" transform="rotate(-44.9 4481 10352)"><tspan class="TextParagraph" font-family="Arial, sans-serif" font-size="353px" font-weight="400"><tspan class="TextPosition" x="4481" y="10352"><tspan fill="rgb(0,0,0)" stroke="none">USA</tspan></tspan></tspan></text>
 <text class="TextShape" transform="rotate(-44.9 4916 10577)"><tspan class="TextParagraph" font-family="Arial, sans-serif" font-size="353px" font-weight="400"><tspan class="TextPosition" x="4916" y="10577"><tspan fill="rgb(0,0,0)" stroke="none">Ireland</tspan></tspan></tspan></text>
 <text class="TextShape" transform="rotate(-44.9 5559 10595)"><tspan class="TextParagraph" font-family="Arial, sans-serif" font-size="353px" font-weight="400"><tspan class="TextPosition" x="5559" y="10595"><tspan fill="rgb(0,0,0)" stroke="none">France</tspan></tspan></tspan></text>
 <text class="TextShape" transform="rotate(-44.9 5675 11139)"><tspan class="TextParagraph" font-family="Arial, sans-serif" font-size="353px" font-weight="400"><tspan class="TextPosition" x="5675" y="11139"><tspan fill="rgb(0,0,0)" stroke="none">Netherlands</tspan></tspan></tspan></text>
 <text class="TextShape" transform="rotate(-44.9 7160 10315)"><tspan class="TextParagraph" font-family="Arial, sans-serif" font-size="353px" font-weight="400"><tspan class="TextPosition" x="7160" y="10315"><tspan fill="rgb(0,0,0)" stroke="none">Italy</tspan></tspan></tspan></text>
 <text class="TextShape" transform="rotate(-44.9 7391 10745)"><tspan class="TextParagraph" font-family="Arial, sans-serif" font-size="353px" font-weight="400"><tspan class="TextPosition" x="7391" y="10745"><tspan fill="rgb(0,0,0)" stroke="none">Portugal</tspan></tspan></tspan></text>
 <text class="TextShape" transform="rotate(-44.9 8201 10595)"><tspan class="TextParagraph" font-family="Arial, sans-serif" font-size="353px" font-weight="400"><tspan class="TextPosition" x="8201" y="10595"><tspan fill="rgb(0,0,0)" stroke="none">Turkey</tspan></tspan></tspan></text>
 <text class="TextShape" transform="rotate(-44.9 8638 10820)"><tspan class="TextParagraph" font-family="Arial, sans-serif" font-size="353px" font-weight="400"><tspan class="TextPosition" x="8638" y="10820"><tspan fill="rgb(0,0,0)" stroke="none">Denmark</tspan></tspan></tspan></text>
 <text class="TextShape" transform="rotate(-44.9 9354 10763)"><tspan class="TextParagraph" font-family="Arial, sans-serif" font-size="353px" font-weight="400"><tspan class="TextPosition" x="9354" y="10763"><tspan fill="rgb(0,0,0)" stroke="none">Moldova</tspan></tspan></tspan></text>
 <text class="TextShape" transform="rotate(-44.9 10145 10633)"><tspan class="TextParagraph" font-family="Arial, sans-serif" font-size="353px" font-weight="400"><tspan class="TextPosition" x="10145" y="10633"><tspan fill="rgb(0,0,0)" stroke="none">Finland</tspan></tspan></tspan></text>
 <text class="TextShape" transform="rotate(-44.9 10844 10595)"><tspan class="TextParagraph" font-family="Arial, sans-serif" font-size="353px" font-weight="400"><tspan class="TextPosition" x="10844" y="10595"><tspan fill="rgb(0,0,0)" stroke="none">Russia</tspan></tspan></tspan></text>
 <text class="TextShape" transform="rotate(-44.9 11354 10745)"><tspan class="TextParagraph" font-family="Arial, sans-serif" font-size="353px" font-weight="400"><tspan class="TextPosition" x="11354" y="10745"><tspan fill="rgb(0,0,0)" stroke="none">Armenia</tspan></tspan></tspan></text>
 <text class="TextShape" transform="rotate(-44.9 11959 10801)"><tspan class="TextParagraph" font-family="Arial, sans-serif" font-size="353px" font-weight="400"><tspan class="TextPosition" x="11959" y="10801"><tspan fill="rgb(0,0,0)" stroke="none">Romania</tspan></tspan></tspan></text>
 <text class="TextShape" transform="rotate(-44.9 12751 10671)"><tspan class="TextParagraph" font-family="Arial, sans-serif" font-size="353px" font-weight="400"><tspan class="TextPosition" x="12751" y="10671"><tspan fill="rgb(0,0,0)" stroke="none">Belarus</tspan></tspan></tspan></text>
 <text class="TextShape" transform="rotate(-44.9 12400 11681)"><tspan class="TextParagraph" font-family="Arial, sans-serif" font-size="353px" font-weight="400"><tspan class="TextPosition" x="12400" y="11681"><tspan fill="rgb(0,0,0)" stroke="none">North Macedonia</tspan></tspan></tspan></text>
 <text class="TextShape" transform="rotate(-44.9 13566 11177)"><tspan class="TextParagraph" font-family="Arial, sans-serif" font-size="353px" font-weight="400"><tspan class="TextPosition" x="13566" y="11177"><tspan fill="rgb(0,0,0)" stroke="none">Luxembourg</tspan></tspan></tspan></text>
 <text class="TextShape" transform="rotate(-44.9 12917 12485)"><tspan class="TextParagraph" font-family="Arial, sans-serif" font-size="353px" font-weight="400"><tspan class="TextPosition" x="12917" y="12485"><tspan fill="rgb(0,0,0)" stroke="none">Bosnia and Herzegovina</tspan></tspan></tspan></text>
 <text class="TextShape" transform="rotate(-44.9 15468 10595)"><tspan class="TextParagraph" font-family="Arial, sans-serif" font-size="353px" font-weight="400"><tspan class="TextPosition" x="15468" y="10595"><tspan fill="rgb(0,0,0)" stroke="none">Poland</tspan></tspan></tspan></text>
 <text class="TextShape" transform="rotate(-44.9 15885 10839)"><tspan class="TextParagraph" font-family="Arial, sans-serif" font-size="353px" font-weight="400"><tspan class="TextPosition" x="15885" y="10839"><tspan fill="rgb(0,0,0)" stroke="none">Germany</tspan></tspan></tspan></text>
 <text class="TextShape" transform="rotate(-44.9 16283 11101)"><tspan class="TextParagraph" font-family="Arial, sans-serif" font-size="353px" font-weight="400"><tspan class="TextPosition" x="16283" y="11101"><tspan fill="rgb(0,0,0)" stroke="none">Switzerland</tspan></tspan></tspan></text>
 <text class="TextShape" transform="rotate(-44.9 17300 10745)"><tspan class="TextParagraph" font-family="Arial, sans-serif" font-size="353px" font-weight="400"><tspan class="TextPosition" x="17300" y="10745"><tspan fill="rgb(0,0,0)" stroke="none">Hungary</tspan></tspan></tspan></text>
 <text class="TextShape" transform="rotate(-44.9 17979 10727)"><tspan class="TextParagraph" font-family="Arial, sans-serif" font-size="353px" font-weight="400"><tspan class="TextPosition" x="17979" y="10727"><tspan fill="rgb(0,0,0)" stroke="none">Bulgaria</tspan></tspan></tspan></text>
 <text class="TextShape" transform="rotate(-44.9 18696 10671)"><tspan class="TextParagraph" font-family="Arial, sans-serif" font-size="353px" font-weight="400"><tspan class="TextPosition" x="18696" y="10671"><tspan fill="rgb(0,0,0)" stroke="none">Ukraine</tspan></tspan></tspan></text>
 <text class="TextShape" transform="rotate(-44.9 19376 10652)"><tspan class="TextParagraph" font-family="Arial, sans-serif" font-size="353px" font-weight="400"><tspan class="TextPosition" x="19376" y="10652"><tspan fill="rgb(0,0,0)" stroke="none">Norway</tspan></tspan></tspan></text>
 <text class="TextShape" transform="rotate(-44.9 20149 10539)"><tspan class="TextParagraph" font-family="Arial, sans-serif" font-size="353px" font-weight="400"><tspan class="TextPosition" x="20149" y="10539"><tspan fill="rgb(0,0,0)" stroke="none">Serbia</tspan></tspan></tspan></text>
 <text class="TextShape" transform="rotate(-44.9 20359 10989)"><tspan class="TextParagraph" font-family="Arial, sans-serif" font-size="353px" font-weight="400"><tspan class="TextPosition" x="20359" y="10989"><tspan fill="rgb(0,0,0)" stroke="none">Azerbaijan</tspan></tspan></tspan></text>
 <text class="TextShape" transform="rotate(-44.9 21394 10615)"><tspan class="TextParagraph" font-family="Arial, sans-serif" font-size="353px" font-weight="400"><tspan class="TextPosition" x="21394" y="10615"><tspan fill="rgb(0,0,0)" stroke="none">Austria</tspan></tspan></tspan></text>
 <text class="TextShape" transform="rotate(-44.9 22018 10652)"><tspan class="TextParagraph" font-family="Arial, sans-serif" font-size="353px" font-weight="400"><tspan class="TextPosition" x="22018" y="10652"><tspan fill="rgb(0,0,0)" stroke="none">Albania</tspan></tspan></tspan></text>
 <text class="TextShape" transform="rotate(-44.9 22603 10727)"><tspan class="TextParagraph" font-family="Arial, sans-serif" font-size="353px" font-weight="400"><tspan class="TextPosition" x="22603" y="10727"><tspan fill="rgb(0,0,0)" stroke="none">Czechia</tspan></tspan></tspan></text>
 <text class="TextShape" transform="rotate(-44.9 23321 10671)"><tspan class="TextParagraph" font-family="Arial, sans-serif" font-size="353px" font-weight="400"><tspan class="TextPosition" x="23321" y="10671"><tspan fill="rgb(0,0,0)" stroke="none">Estonia</tspan></tspan></tspan></text>
 <text class="TextShape" transform="rotate(-44.9 24205 10447)"><tspan class="TextParagraph" font-family="Arial, sans-serif" font-size="353px" font-weight="400"><tspan class="TextPosition" x="24205" y="10447"><tspan fill="rgb(0,0,0)" stroke="none">Israel</tspan></tspan></tspan></text>
 <text class="TextShape" transform="rotate(-44.9 24697 10615)"><tspan class="TextParagraph" font-family="Arial, sans-serif" font-size="353px" font-weight="400"><tspan class="TextPosition" x="24697" y="10615"><tspan fill="rgb(0,0,0)" stroke="none">Croatia</tspan></tspan></tspan></text>
 <text class="TextShape" transform="rotate(-44.9 25357 10615)"><tspan class="TextParagraph" font-family="Arial, sans-serif" font-size="353px" font-weight="400"><tspan class="TextPosition" x="25357" y="10615"><tspan fill="rgb(0,0,0)" stroke="none">Cyprus</tspan></tspan></tspan></text>
 <text class="TextShape" transform="rotate(-44.9 25849 10783)"><tspan class="TextParagraph" font-family="Arial, sans-serif" font-size="353px" font-weight="400"><tspan class="TextPosition" x="25849" y="10783"><tspan fill="rgb(0,0,0)" stroke="none">Slovenia</tspan></tspan></tspan></text>
 <text class="TextShape" transform="rotate(-44.9 26660 10633)"><tspan class="TextParagraph" font-family="Arial, sans-serif" font-size="353px" font-weight="400"><tspan class="TextPosition" x="26660" y="10633"><tspan fill="rgb(0,0,0)" stroke="none">Greece</tspan></tspan></tspan></text>
 <text class="TextShape" transform="rotate(-44.9 27507 10447)"><tspan class="TextParagraph" font-family="Arial, sans-serif" font-size="353px" font-weight="400"><tspan class="TextPosition" x="27507" y="10447"><tspan fill="rgb(0,0,0)" stroke="none">Malta</tspan></tspan></tspan></text>
 <text class="TextShape" transform="rotate(-44.9 28113 10502)"><tspan class="TextParagraph" font-family="Arial, sans-serif" font-size="353px" font-weight="400"><tspan class="TextPosition" x="28113" y="10502"><tspan fill="rgb(0,0,0)" stroke="none">Latvia</tspan></tspan></tspan></text>
 <text class="TextShape" transform="rotate(-44.9 28456 10820)"><tspan class="TextParagraph" font-family="Arial, sans-serif" font-size="353px" font-weight="400"><tspan class="TextPosition" x="28456" y="10820"><tspan fill="rgb(0,0,0)" stroke="none">Lithuania</tspan></tspan></tspan></text>
 <text class="TextShape" transform="rotate(-44.9 29434 10502)"><tspan class="TextParagraph" font-family="Arial, sans-serif" font-size="353px" font-weight="400"><tspan class="TextPosition" x="29434" y="10502"><tspan fill="rgb(0,0,0)" stroke="none">Japan</tspan></tspan></tspan></text>
 <text class="TextShape" transform="rotate(-44.9 29813 10783)"><tspan class="TextParagraph" font-family="Arial, sans-serif" font-size="353px" font-weight="400"><tspan class="TextPosition" x="29813" y="10783"><tspan fill="rgb(0,0,0)" stroke="none">Slovakia</tspan></tspan></tspan></text>
 <text class="TextShape" transform="rotate(-44.9 30568 10689)"><tspan class="TextParagraph" font-family="Arial, sans-serif" font-size="353px" font-weight="400"><tspan class="TextPosition" x="30568" y="10689"><tspan fill="rgb(0,0,0)" stroke="none">Georgia</tspan></tspan></tspan></text>
 <text class="TextShape" transform="rotate(-44.9 31284 10633)"><tspan class="TextParagraph" font-family="Arial, sans-serif" font-size="353px" font-weight="400"><tspan class="TextPosition" x="31284" y="10633"><tspan fill="rgb(0,0,0)" stroke="none">Iceland</tspan></tspan></tspan></text>
 <text class="TextShape" transform="rotate(-44.9 31459 11119)"><tspan class="TextParagraph" font-family="Arial, sans-serif" font-size="353px" font-weight="400"><tspan class="TextPosition" x="31459" y="11119"><tspan fill="rgb(0,0,0)" stroke="none">Montenegro</tspan></tspan></tspan></text>
 <text class="TextShape" transform="rotate(-44.9 32438 10801)"><tspan class="TextParagraph" font-family="Arial, sans-serif" font-size="353px" font-weight="400"><tspan class="TextPosition" x="32438" y="10801"><tspan fill="rgb(0,0,0)" stroke="none">S. Korea</tspan></tspan></tspan></text>
 <text class="TextShape" transform="rotate(-44.9 33434 10465)"><tspan class="TextParagraph" font-family="Arial, sans-serif" font-size="353px" font-weight="400"><tspan class="TextPosition" x="33434" y="10465"><tspan fill="rgb(0,0,0)" stroke="none">China</tspan></tspan></tspan></text>
 <text class="TextShape"><tspan class="TextParagraph" font-family="Arial, sans-serif" font-size="353px" font-weight="400"><tspan class="TextPosition" x="701" y="9493"><tspan fill="rgb(0,0,0)" stroke="none">0,00%</tspan></tspan></tspan></text>
 <text class="TextShape"><tspan class="TextParagraph" font-family="Arial, sans-serif" font-size="353px" font-weight="400"><tspan class="TextPosition" x="701" y="8697"><tspan fill="rgb(0,0,0)" stroke="none">1,00%</tspan></tspan></tspan></text>
 <text class="TextShape"><tspan class="TextParagraph" font-family="Arial, sans-serif" font-size="353px" font-weight="400"><tspan class="TextPosition" x="701" y="7902"><tspan fill="rgb(0,0,0)" stroke="none">2,00%</tspan></tspan></tspan></text>
 <text class="TextShape"><tspan class="TextParagraph" font-family="Arial, sans-serif" font-size="353px" font-weight="400"><tspan class="TextPosition" x="701" y="7107"><tspan fill="rgb(0,0,0)" stroke="none">3,00%</tspan></tspan></tspan></text>
 <text class="TextShape"><tspan class="TextParagraph" font-family="Arial, sans-serif" font-size="353px" font-weight="400"><tspan class="TextPosition" x="701" y="6312"><tspan fill="rgb(0,0,0)" stroke="none">4,00%</tspan></tspan></tspan></text>
 <text class="TextShape"><tspan class="TextParagraph" font-family="Arial, sans-serif" font-size="353px" font-weight="400"><tspan class="TextPosition" x="701" y="5517"><tspan fill="rgb(0,0,0)" stroke="none">5,00%</tspan></tspan></tspan></text>
 <text class="TextShape"><tspan class="TextParagraph" font-family="Arial, sans-serif" font-size="353px" font-weight="400"><tspan class="TextPosition" x="701" y="4722"><tspan fill="rgb(0,0,0)" stroke="none">6,00%</tspan></tspan></tspan></text>
 <text class="TextShape"><tspan class="TextParagraph" font-family="Arial, sans-serif" font-size="353px" font-weight="400"><tspan class="TextPosition" x="701" y="3927"><tspan fill="rgb(0,0,0)" stroke="none">7,00%</tspan></tspan></tspan></text>
 <text class="TextShape"><tspan class="TextParagraph" font-family="Arial, sans-serif" font-size="353px" font-weight="400"><tspan class="TextPosition" x="701" y="3132"><tspan fill="rgb(0,0,0)" stroke="none">8,00%</tspan></tspan></tspan></text>
 <text class="TextShape"><tspan class="TextParagraph" font-family="Arial, sans-serif" font-size="353px" font-weight="400"><tspan class="TextPosition" x="701" y="2337"><tspan fill="rgb(0,0,0)" stroke="none">9,00%</tspan></tspan></tspan></text>
 <text class="TextShape"><tspan class="TextParagraph" font-family="Arial, sans-serif" font-size="459px" font-weight="400"><tspan class="TextPosition" x="9483" y="931"><tspan fill="rgb(0,0,0)" stroke="none">Active cases per population/ Aktív esetek száma a lakosság %-ában 2020.05.09.</tspan></tspan></tspan></text>
 <path fill="rgb(0,69,134)" stroke="none" d="M 13929,1764 L 13824,1764 13824,1553 14035,1553 14035,1764 13929,1764 Z"/>
 <text class="TextShape"><tspan class="TextParagraph" font-family="Arial, sans-serif" font-size="353px" font-weight="400"><tspan class="TextPosition" x="14135" y="1778"><tspan fill="rgb(0,0,0)" stroke="none">Active cases based on new cases Serum/pop</tspan></tspan></tspan></text>
</svg>