<?xml version="1.0" encoding="UTF-8"?>
<!DOCTYPE svg PUBLIC "-//W3C//DTD SVG 1.1//EN" "http://www.w3.org/Graphics/SVG/1.1/DTD/svg11.dtd">
<svg width="303mm" height="170mm" viewBox="0 0 30300 17000" version="1.1" xmlns="http://www.w3.org/2000/svg" xmlns:xlink="http://www.w3.org/1999/xlink" stroke-width="28.222" stroke-linejoin="round" xml:space="preserve">
 <path fill="rgb(255,255,255)" stroke="none" d="M 15150,17000 L 0,17000 0,10 30300,10 30300,17000 15150,17000 Z"/>
 <path fill="none" stroke="rgb(179,179,179)" stroke-linejoin="round" d="M 15764,13294 L 1836,13294 1836,10 29693,10 29693,13294 15764,13294 Z"/>
 <path fill="none" stroke="rgb(179,179,179)" stroke-width="18" stroke-linejoin="round" d="M 29693,13293 L 1836,13293"/>
 <path fill="none" stroke="rgb(179,179,179)" stroke-width="18" stroke-linejoin="round" d="M 29693,12085 L 1836,12085"/>
 <path fill="none" stroke="rgb(179,179,179)" stroke-width="18" stroke-linejoin="round" d="M 29693,10878 L 1836,10878"/>
 <path fill="none" stroke="rgb(179,179,179)" stroke-width="18" stroke-linejoin="round" d="M 29693,9670 L 1836,9670"/>
 <path fill="none" stroke="rgb(179,179,179)" stroke-width="18" stroke-linejoin="round" d="M 29693,8463 L 1836,8463"/>
 <path fill="none" stroke="rgb(179,179,179)" stroke-width="18" stroke-linejoin="round" d="M 29693,7254 L 1836,7254"/>
 <path fill="none" stroke="rgb(179,179,179)" stroke-width="18" stroke-linejoin="round" d="M 29693,6047 L 1836,6047"/>
 <path fill="none" stroke="rgb(179,179,179)" stroke-width="18" stroke-linejoin="round" d="M 29693,4839 L 1836,4839"/>
 <path fill="none" stroke="rgb(179,179,179)" stroke-width="18" stroke-linejoin="round" d="M 29693,3632 L 1836,3632"/>
 <path fill="none" stroke="rgb(179,179,179)" stroke-width="18" stroke-linejoin="round" d="M 29693,2423 L 1836,2423"/>
 <path fill="none" stroke="rgb(179,179,179)" stroke-width="18" stroke-linejoin="round" d="M 29693,1216 L 1836,1216"/>
 <path fill="none" stroke="rgb(179,179,179)" stroke-width="18" stroke-linejoin="round" d="M 1836,13443 L 1836,13293"/>
 <path fill="none" stroke="rgb(179,179,179)" stroke-width="18" stroke-linejoin="round" d="M 2404,13443 L 2404,13293"/>
 <path fill="none" stroke="rgb(179,179,179)" stroke-width="18" stroke-linejoin="round" d="M 2973,13443 L 2973,13293"/>
 <path fill="none" stroke="rgb(179,179,179)" stroke-width="18" stroke-linejoin="round" d="M 3541,13443 L 3541,13293"/>
 <path fill="none" stroke="rgb(179,179,179)" stroke-width="18" stroke-linejoin="round" d="M 4110,13443 L 4110,13293"/>
 <path fill="none" stroke="rgb(179,179,179)" stroke-width="18" stroke-linejoin="round" d="M 4678,13443 L 4678,13293"/>
 <path fill="none" stroke="rgb(179,179,179)" stroke-width="18" stroke-linejoin="round" d="M 5247,13443 L 5247,13293"/>
 <path fill="none" stroke="rgb(179,179,179)" stroke-width="18" stroke-linejoin="round" d="M 5815,13443 L 5815,13293"/>
 <path fill="none" stroke="rgb(179,179,179)" stroke-width="18" stroke-linejoin="round" d="M 6384,13443 L 6384,13293"/>
 <path fill="none" stroke="rgb(179,179,179)" stroke-width="18" stroke-linejoin="round" d="M 6952,13443 L 6952,13293"/>
 <path fill="none" stroke="rgb(179,179,179)" stroke-width="18" stroke-linejoin="round" d="M 7521,13443 L 7521,13293"/>
 <path fill="none" stroke="rgb(179,179,179)" stroke-width="18" stroke-linejoin="round" d="M 8089,13443 L 8089,13293"/>
 <path fill="none" stroke="rgb(179,179,179)" stroke-width="18" stroke-linejoin="round" d="M 8658,13443 L 8658,13293"/>
 <path fill="none" stroke="rgb(179,179,179)" stroke-width="18" stroke-linejoin="round" d="M 9226,13443 L 9226,13293"/>
 <path fill="none" stroke="rgb(179,179,179)" stroke-width="18" stroke-linejoin="round" d="M 9795,13443 L 9795,13293"/>
 <path fill="none" stroke="rgb(179,179,179)" stroke-width="18" stroke-linejoin="round" d="M 10363,13443 L 10363,13293"/>
 <path fill="none" stroke="rgb(179,179,179)" stroke-width="18" stroke-linejoin="round" d="M 10932,13443 L 10932,13293"/>
 <path fill="none" stroke="rgb(179,179,179)" stroke-width="18" stroke-linejoin="round" d="M 11501,13443 L 11501,13293"/>
 <path fill="none" stroke="rgb(179,179,179)" stroke-width="18" stroke-linejoin="round" d="M 12069,13443 L 12069,13293"/>
 <path fill="none" stroke="rgb(179,179,179)" stroke-width="18" stroke-linejoin="round" d="M 12638,13443 L 12638,13293"/>
 <path fill="none" stroke="rgb(179,179,179)" stroke-width="18" stroke-linejoin="round" d="M 13206,13443 L 13206,13293"/>
 <path fill="none" stroke="rgb(179,179,179)" stroke-width="18" stroke-linejoin="round" d="M 13775,13443 L 13775,13293"/>
 <path fill="none" stroke="rgb(179,179,179)" stroke-width="18" stroke-linejoin="round" d="M 14343,13443 L 14343,13293"/>
 <path fill="none" stroke="rgb(179,179,179)" stroke-width="18" stroke-linejoin="round" d="M 14912,13443 L 14912,13293"/>
 <path fill="none" stroke="rgb(179,179,179)" stroke-width="18" stroke-linejoin="round" d="M 15479,13443 L 15479,13293"/>
 <path fill="none" stroke="rgb(179,179,179)" stroke-width="18" stroke-linejoin="round" d="M 16048,13443 L 16048,13293"/>
 <path fill="none" stroke="rgb(179,179,179)" stroke-width="18" stroke-linejoin="round" d="M 16616,13443 L 16616,13293"/>
 <path fill="none" stroke="rgb(179,179,179)" stroke-width="18" stroke-linejoin="round" d="M 17185,13443 L 17185,13293"/>
 <path fill="none" stroke="rgb(179,179,179)" stroke-width="18" stroke-linejoin="round" d="M 17753,13443 L 17753,13293"/>
 <path fill="none" stroke="rgb(179,179,179)" stroke-width="18" stroke-linejoin="round" d="M 18322,13443 L 18322,13293"/>
 <path fill="none" stroke="rgb(179,179,179)" stroke-width="18" stroke-linejoin="round" d="M 18890,13443 L 18890,13293"/>
 <path fill="none" stroke="rgb(179,179,179)" stroke-width="18" stroke-linejoin="round" d="M 19459,13443 L 19459,13293"/>
 <path fill="none" stroke="rgb(179,179,179)" stroke-width="18" stroke-linejoin="round" d="M 20027,13443 L 20027,13293"/>
 <path fill="none" stroke="rgb(179,179,179)" stroke-width="18" stroke-linejoin="round" d="M 20596,13443 L 20596,13293"/>
 <path fill="none" stroke="rgb(179,179,179)" stroke-width="18" stroke-linejoin="round" d="M 21165,13443 L 21165,13293"/>
 <path fill="none" stroke="rgb(179,179,179)" stroke-width="18" stroke-linejoin="round" d="M 21733,13443 L 21733,13293"/>
 <path fill="none" stroke="rgb(179,179,179)" stroke-width="18" stroke-linejoin="round" d="M 22302,13443 L 22302,13293"/>
 <path fill="none" stroke="rgb(179,179,179)" stroke-width="18" stroke-linejoin="round" d="M 22870,13443 L 22870,13293"/>
 <path fill="none" stroke="rgb(179,179,179)" stroke-width="18" stroke-linejoin="round" d="M 23439,13443 L 23439,13293"/>
 <path fill="none" stroke="rgb(179,179,179)" stroke-width="18" stroke-linejoin="round" d="M 24007,13443 L 24007,13293"/>
 <path fill="none" stroke="rgb(179,179,179)" stroke-width="18" stroke-linejoin="round" d="M 24576,13443 L 24576,13293"/>
 <path fill="none" stroke="rgb(179,179,179)" stroke-width="18" stroke-linejoin="round" d="M 25144,13443 L 25144,13293"/>
 <path fill="none" stroke="rgb(179,179,179)" stroke-width="18" stroke-linejoin="round" d="M 25713,13443 L 25713,13293"/>
 <path fill="none" stroke="rgb(179,179,179)" stroke-width="18" stroke-linejoin="round" d="M 26281,13443 L 26281,13293"/>
 <path fill="none" stroke="rgb(179,179,179)" stroke-width="18" stroke-linejoin="round" d="M 26850,13443 L 26850,13293"/>
 <path fill="none" stroke="rgb(179,179,179)" stroke-width="18" stroke-linejoin="round" d="M 27418,13443 L 27418,13293"/>
 <path fill="none" stroke="rgb(179,179,179)" stroke-width="18" stroke-linejoin="round" d="M 27987,13443 L 27987,13293"/>
 <path fill="none" stroke="rgb(179,179,179)" stroke-width="18" stroke-linejoin="round" d="M 28555,13443 L 28555,13293"/>
 <path fill="none" stroke="rgb(179,179,179)" stroke-width="18" stroke-linejoin="round" d="M 29124,13443 L 29124,13293"/>
 <path fill="none" stroke="rgb(179,179,179)" stroke-width="18" stroke-linejoin="round" d="M 29692,13443 L 29692,13293"/>
 <path fill="none" stroke="rgb(179,179,179)" stroke-width="18" stroke-linejoin="round" d="M 1836,13293 L 29693,13293"/>
 <path fill="none" stroke="rgb(179,179,179)" stroke-width="18" stroke-linejoin="round" d="M 1686,13293 L 1836,13293"/>
 <path fill="none" stroke="rgb(179,179,179)" stroke-width="18" stroke-linejoin="round" d="M 1686,12085 L 1836,12085"/>
 <path fill="none" stroke="rgb(179,179,179)" stroke-width="18" stroke-linejoin="round" d="M 1686,10878 L 1836,10878"/>
 <path fill="none" stroke="rgb(179,179,179)" stroke-width="18" stroke-linejoin="round" d="M 1686,9670 L 1836,9670"/>
 <path fill="none" stroke="rgb(179,179,179)" stroke-width="18" stroke-linejoin="round" d="M 1686,8463 L 1836,8463"/>
 <path fill="none" stroke="rgb(179,179,179)" stroke-width="18" stroke-linejoin="round" d="M 1686,7254 L 1836,7254"/>
 <path fill="none" stroke="rgb(179,179,179)" stroke-width="18" stroke-linejoin="round" d="M 1686,6047 L 1836,6047"/>
 <path fill="none" stroke="rgb(179,179,179)" stroke-width="18" stroke-linejoin="round" d="M 1686,4839 L 1836,4839"/>
 <path fill="none" stroke="rgb(179,179,179)" stroke-width="18" stroke-linejoin="round" d="M 1686,3632 L 1836,3632"/>
 <path fill="none" stroke="rgb(179,179,179)" stroke-width="18" stroke-linejoin="round" d="M 1686,2423 L 1836,2423"/>
 <path fill="none" stroke="rgb(179,179,179)" stroke-width="18" stroke-linejoin="round" d="M 1686,1216 L 1836,1216"/>
 <path fill="none" stroke="rgb(179,179,179)" stroke-width="18" stroke-linejoin="round" d="M 1836,13293 L 1836,9"/>
 <path fill="rgb(0,255,0)" stroke="none" d="M 29266,13293 L 29550,13293 29550,13292 29266,13292 29266,13293 Z"/>
 <path fill="rgb(0,255,0)" stroke="none" d="M 28698,13293 L 28982,13293 28982,13266 28698,13266 28698,13293 Z"/>
 <path fill="rgb(0,255,0)" stroke="none" d="M 28129,13293 L 28413,13293 28413,13230 28129,13230 28129,13293 Z"/>
 <path fill="rgb(0,255,0)" stroke="none" d="M 27561,13293 L 27845,13293 27845,13127 27561,13127 27561,13293 Z"/>
 <path fill="rgb(0,255,0)" stroke="none" d="M 26992,13293 L 27276,13293 27276,12993 26992,12993 26992,13293 Z"/>
 <path fill="rgb(0,255,0)" stroke="none" d="M 26423,13293 L 26708,13293 26708,12919 26423,12919 26423,13293 Z"/>
 <path fill="rgb(255,255,0)" stroke="none" d="M 25855,13293 L 26139,13293 26139,12835 25855,12835 25855,13293 Z"/>
 <path fill="rgb(255,255,0)" stroke="none" d="M 25286,13293 L 25571,13293 25571,12685 25286,12685 25286,13293 Z"/>
 <path fill="rgb(255,255,0)" stroke="none" d="M 24718,13293 L 25002,13293 25002,12549 24718,12549 24718,13293 Z"/>
 <path fill="rgb(255,255,0)" stroke="none" d="M 24149,13293 L 24434,13293 24434,12525 24149,12525 24149,13293 Z"/>
 <path fill="rgb(255,255,0)" stroke="none" d="M 23581,13293 L 23865,13293 23865,12505 23581,12505 23581,13293 Z"/>
 <path fill="rgb(255,255,0)" stroke="none" d="M 23012,13293 L 23297,13293 23297,12427 23012,12427 23012,13293 Z"/>
 <path fill="rgb(255,255,0)" stroke="none" d="M 22444,13293 L 22728,13293 22728,12414 22444,12414 22444,13293 Z"/>
 <path fill="rgb(255,255,0)" stroke="none" d="M 21875,13293 L 22159,13293 22159,12358 21875,12358 21875,13293 Z"/>
 <path fill="rgb(255,255,0)" stroke="none" d="M 21307,13293 L 21591,13293 21591,12351 21307,12351 21307,13293 Z"/>
 <path fill="rgb(255,255,0)" stroke="none" d="M 20738,13293 L 21022,13293 21022,12285 20738,12285 20738,13293 Z"/>
 <path fill="rgb(255,255,0)" stroke="none" d="M 20170,13293 L 20454,13293 20454,12246 20170,12246 20170,13293 Z"/>
 <path fill="rgb(255,255,0)" stroke="none" d="M 19601,13293 L 19885,13293 19885,12217 19601,12217 19601,13293 Z"/>
 <path fill="rgb(255,255,0)" stroke="none" d="M 19033,13293 L 19317,13293 19317,12151 19033,12151 19033,13293 Z"/>
 <path fill="rgb(255,0,0)" stroke="none" d="M 18464,13293 L 18748,13293 18748,11938 18464,11938 18464,13293 Z"/>
 <path fill="rgb(154,0,126)" stroke="none" d="M 17895,13293 L 18180,13293 18180,11833 17895,11833 17895,13293 Z"/>
 <path fill="rgb(255,0,0)" stroke="none" d="M 17327,13293 L 17611,13293 17611,11826 17327,11826 17327,13293 Z"/>
 <path fill="rgb(255,0,0)" stroke="none" d="M 16758,13293 L 17043,13293 17043,11790 16758,11790 16758,13293 Z"/>
 <path fill="rgb(255,0,0)" stroke="none" d="M 16190,13293 L 16474,13293 16474,11774 16190,11774 16190,13293 Z"/>
 <path fill="rgb(255,0,0)" stroke="none" d="M 15621,13293 L 15906,13293 15906,11759 15621,11759 15621,13293 Z"/>
 <path fill="rgb(255,0,0)" stroke="none" d="M 15054,13293 L 15337,13293 15337,11744 15054,11744 15054,13293 Z"/>
 <path fill="rgb(255,0,0)" stroke="none" d="M 14485,13293 L 14770,13293 14770,11456 14485,11456 14485,13293 Z"/>
 <path fill="rgb(255,0,0)" stroke="none" d="M 13917,13293 L 14201,13293 14201,11455 13917,11455 13917,13293 Z"/>
 <path fill="rgb(255,0,0)" stroke="none" d="M 13348,13293 L 13633,13293 13633,11378 13348,11378 13348,13293 Z"/>
 <path fill="rgb(255,0,0)" stroke="none" d="M 12780,13293 L 13064,13293 13064,11314 12780,11314 12780,13293 Z"/>
 <path fill="rgb(255,0,0)" stroke="none" d="M 12211,13293 L 12495,13293 12495,11305 12211,11305 12211,13293 Z"/>
 <path fill="rgb(255,0,0)" stroke="none" d="M 11643,13293 L 11927,13293 11927,11230 11643,11230 11643,13293 Z"/>
 <path fill="rgb(255,0,0)" stroke="none" d="M 11074,13293 L 11358,13293 11358,11174 11074,11174 11074,13293 Z"/>
 <path fill="rgb(255,0,0)" stroke="none" d="M 10506,13293 L 10790,13293 10790,11146 10506,11146 10506,13293 Z"/>
 <path fill="rgb(255,0,0)" stroke="none" d="M 9937,13293 L 10221,13293 10221,10720 9937,10720 9937,13293 Z"/>
 <path fill="rgb(255,0,0)" stroke="none" d="M 9369,13293 L 9653,13293 9653,10710 9369,10710 9369,13293 Z"/>
 <path fill="rgb(255,0,0)" stroke="none" d="M 8800,13293 L 9084,13293 9084,10627 8800,10627 8800,13293 Z"/>
 <path fill="rgb(255,0,0)" stroke="none" d="M 8231,13293 L 8516,13293 8516,10379 8231,10379 8231,13293 Z"/>
 <path fill="rgb(255,0,0)" stroke="none" d="M 7663,13293 L 7947,13293 7947,10114 7663,10114 7663,13293 Z"/>
 <path fill="rgb(255,0,0)" stroke="none" d="M 7094,13293 L 7379,13293 7379,9920 7094,9920 7094,13293 Z"/>
 <path fill="rgb(255,0,0)" stroke="none" d="M 6526,13293 L 6810,13293 6810,9548 6526,9548 6526,13293 Z"/>
 <path fill="rgb(255,0,0)" stroke="none" d="M 5957,13293 L 6242,13293 6242,9540 5957,9540 5957,13293 Z"/>
 <path fill="rgb(255,0,0)" stroke="none" d="M 5389,13293 L 5673,13293 5673,9257 5389,9257 5389,13293 Z"/>
 <path fill="rgb(255,0,0)" stroke="none" d="M 4820,13293 L 5105,13293 5105,8181 4820,8181 4820,13293 Z"/>
 <path fill="rgb(255,0,0)" stroke="none" d="M 4252,13293 L 4536,13293 4536,8023 4252,8023 4252,13293 Z"/>
 <path fill="rgb(255,0,0)" stroke="none" d="M 3683,13293 L 3967,13293 3967,7707 3683,7707 3683,13293 Z"/>
 <path fill="rgb(255,0,0)" stroke="none" d="M 3115,13293 L 3399,13293 3399,6649 3115,6649 3115,13293 Z"/>
 <path fill="rgb(255,0,0)" stroke="none" d="M 2546,13293 L 2830,13293 2830,2852 2546,2852 2546,13293 Z"/>
 <path fill="rgb(255,0,0)" stroke="none" d="M 1978,13293 L 2262,13293 2262,9 1978,9 1978,13293 Z"/>
 <path fill="none" stroke="rgb(0,69,134)" stroke-linejoin="round" d="M 1836,10870 L 29693,10870"/>
 <text class="TextShape" transform="rotate(-59.9 1641 14709)"><tspan class="TextParagraph" font-family="Arial, sans-serif" font-size="353px" font-weight="400"><tspan class="TextPosition" x="1641" y="14709"><tspan fill="rgb(0,0,0)" stroke="none">Belarus</tspan></tspan></tspan></text>
 <text class="TextShape" transform="rotate(-59.9 2261 14617)"><tspan class="TextParagraph" font-family="Arial, sans-serif" font-size="353px" font-weight="400"><tspan class="TextPosition" x="2261" y="14617"><tspan fill="rgb(0,0,0)" stroke="none">Russia</tspan></tspan></tspan></text>
 <text class="TextShape" transform="rotate(-59.9 2552 15099)"><tspan class="TextParagraph" font-family="Arial, sans-serif" font-size="353px" font-weight="400"><tspan class="TextPosition" x="2552" y="15099"><tspan fill="rgb(0,0,0)" stroke="none">Azerbaijan</tspan></tspan></tspan></text>
 <text class="TextShape" transform="rotate(-59.9 3332 14733)"><tspan class="TextParagraph" font-family="Arial, sans-serif" font-size="353px" font-weight="400"><tspan class="TextPosition" x="3332" y="14733"><tspan fill="rgb(0,0,0)" stroke="none">Georgia</tspan></tspan></tspan></text>
 <text class="TextShape" transform="rotate(-59.9 4033 14503)"><tspan class="TextParagraph" font-family="Arial, sans-serif" font-size="353px" font-weight="400"><tspan class="TextPosition" x="4033" y="14503"><tspan fill="rgb(0,0,0)" stroke="none">Japan</tspan></tspan></tspan></text>
 <text class="TextShape" transform="rotate(-59.9 4508 14664)"><tspan class="TextParagraph" font-family="Arial, sans-serif" font-size="353px" font-weight="400"><tspan class="TextPosition" x="4508" y="14664"><tspan fill="rgb(0,0,0)" stroke="none">Greece</tspan></tspan></tspan></text>
 <text class="TextShape" transform="rotate(-59.9 4945 14893)"><tspan class="TextParagraph" font-family="Arial, sans-serif" font-size="353px" font-weight="400"><tspan class="TextPosition" x="4945" y="14893"><tspan fill="rgb(0,0,0)" stroke="none">Lithuania</tspan></tspan></tspan></text>
 <text class="TextShape" transform="rotate(-59.9 5565 14801)"><tspan class="TextParagraph" font-family="Arial, sans-serif" font-size="353px" font-weight="400"><tspan class="TextPosition" x="5565" y="14801"><tspan fill="rgb(0,0,0)" stroke="none">Armenia</tspan></tspan></tspan></text>
 <text class="TextShape" transform="rotate(-59.9 4904 16932)"><tspan class="TextParagraph" font-family="Arial, sans-serif" font-size="353px" font-weight="400"><tspan class="TextPosition" x="4904" y="16932"><tspan fill="rgb(0,0,0)" stroke="none">Bosnia and Herzegovina</tspan></tspan></tspan></text>
 <text class="TextShape" transform="rotate(-59.9 6809 14617)"><tspan class="TextParagraph" font-family="Arial, sans-serif" font-size="353px" font-weight="400"><tspan class="TextPosition" x="6809" y="14617"><tspan fill="rgb(0,0,0)" stroke="none">Turkey</tspan></tspan></tspan></text>
 <text class="TextShape" transform="rotate(-59.9 7325 14709)"><tspan class="TextParagraph" font-family="Arial, sans-serif" font-size="353px" font-weight="400"><tspan class="TextPosition" x="7325" y="14709"><tspan fill="rgb(0,0,0)" stroke="none">Ukraine</tspan></tspan></tspan></text>
 <text class="TextShape" transform="rotate(-59.9 7576 15259)"><tspan class="TextParagraph" font-family="Arial, sans-serif" font-size="353px" font-weight="400"><tspan class="TextPosition" x="7576" y="15259"><tspan fill="rgb(0,0,0)" stroke="none">Montenegro</tspan></tspan></tspan></text>
 <text class="TextShape" transform="rotate(-59.9 8382 14847)"><tspan class="TextParagraph" font-family="Arial, sans-serif" font-size="353px" font-weight="400"><tspan class="TextPosition" x="8382" y="14847"><tspan fill="rgb(0,0,0)" stroke="none">Slovakia</tspan></tspan></tspan></text>
 <text class="TextShape" transform="rotate(-59.9 9149 14503)"><tspan class="TextParagraph" font-family="Arial, sans-serif" font-size="353px" font-weight="400"><tspan class="TextPosition" x="9149" y="14503"><tspan fill="rgb(0,0,0)" stroke="none">Latvia</tspan></tspan></tspan></text>
 <text class="TextShape" transform="rotate(-59.9 9743 14457)"><tspan class="TextParagraph" font-family="Arial, sans-serif" font-size="353px" font-weight="400"><tspan class="TextPosition" x="9743" y="14457"><tspan fill="rgb(0,0,0)" stroke="none">Spain</tspan></tspan></tspan></text>
 <text class="TextShape" transform="rotate(-59.9 10168 14709)"><tspan class="TextParagraph" font-family="Arial, sans-serif" font-size="353px" font-weight="400"><tspan class="TextPosition" x="10168" y="14709"><tspan fill="rgb(0,0,0)" stroke="none">Estonia</tspan></tspan></tspan></text>
 <text class="TextShape" transform="rotate(-59.9 10696 14779)"><tspan class="TextParagraph" font-family="Arial, sans-serif" font-size="353px" font-weight="400"><tspan class="TextPosition" x="10696" y="14779"><tspan fill="rgb(0,0,0)" stroke="none">Bulgaria</tspan></tspan></tspan></text>
 <text class="TextShape" transform="rotate(-59.9 11343 14641)"><tspan class="TextParagraph" font-family="Arial, sans-serif" font-size="353px" font-weight="400"><tspan class="TextPosition" x="11343" y="14641"><tspan fill="rgb(0,0,0)" stroke="none">Croatia</tspan></tspan></tspan></text>
 <text class="TextShape" transform="rotate(-59.9 12097 14320)"><tspan class="TextParagraph" font-family="Arial, sans-serif" font-size="353px" font-weight="400"><tspan class="TextPosition" x="12097" y="14320"><tspan fill="rgb(0,0,0)" stroke="none">USA</tspan></tspan></tspan></text>
 <text class="TextShape" transform="rotate(-59.9 12494 14617)"><tspan class="TextParagraph" font-family="Arial, sans-serif" font-size="353px" font-weight="400"><tspan class="TextPosition" x="12494" y="14617"><tspan fill="rgb(0,0,0)" stroke="none">Poland</tspan></tspan></tspan></text>
 <text class="TextShape" transform="rotate(-59.9 13260 14275)"><tspan class="TextParagraph" font-family="Arial, sans-serif" font-size="353px" font-weight="400"><tspan class="TextPosition" x="13260" y="14275"><tspan fill="rgb(0,0,0)" stroke="none">Italy</tspan></tspan></tspan></text>
 <text class="TextShape" transform="rotate(-59.9 13671 14549)"><tspan class="TextParagraph" font-family="Arial, sans-serif" font-size="353px" font-weight="400"><tspan class="TextPosition" x="13671" y="14549"><tspan fill="rgb(0,0,0)" stroke="none">Serbia</tspan></tspan></tspan></text>
 <text class="TextShape" transform="rotate(-59.9 14107 14779)"><tspan class="TextParagraph" font-family="Arial, sans-serif" font-size="353px" font-weight="400"><tspan class="TextPosition" x="14107" y="14779"><tspan fill="rgb(0,0,0)" stroke="none">Belgium</tspan></tspan></tspan></text>
 <text class="TextShape" transform="rotate(-59.9 14000 15946)"><tspan class="TextParagraph" font-family="Arial, sans-serif" font-size="353px" font-weight="400"><tspan class="TextPosition" x="14000" y="15946"><tspan fill="rgb(0,0,0)" stroke="none">North Macedonia</tspan></tspan></tspan></text>
 <text class="TextShape" transform="rotate(-59.9 15336 14617)"><tspan class="TextParagraph" font-family="Arial, sans-serif" font-size="353px" font-weight="400"><tspan class="TextPosition" x="15336" y="14617"><tspan fill="rgb(0,0,0)" stroke="none">France</tspan></tspan></tspan></text>
 <text class="TextShape" transform="rotate(-59.9 15773 14847)"><tspan class="TextParagraph" font-family="Arial, sans-serif" font-size="353px" font-weight="400"><tspan class="TextPosition" x="15773" y="14847"><tspan fill="rgb(0,0,0)" stroke="none">Slovenia</tspan></tspan></tspan></text>
 <text class="TextShape" transform="rotate(-59.9 16382 14779)"><tspan class="TextParagraph" font-family="Arial, sans-serif" font-size="353px" font-weight="400"><tspan class="TextPosition" x="16382" y="14779"><tspan fill="rgb(0,0,0)" stroke="none">Czechia</tspan></tspan></tspan></text>
 <text class="TextShape" transform="rotate(-59.9 16896 14871)"><tspan class="TextParagraph" font-family="Arial, sans-serif" font-size="353px" font-weight="400"><tspan class="TextPosition" x="16896" y="14871"><tspan fill="rgb(0,0,0)" stroke="none">Romania</tspan></tspan></tspan></text>
 <text class="TextShape" transform="rotate(-59.9 17505 14801)"><tspan class="TextParagraph" font-family="Arial, sans-serif" font-size="353px" font-weight="400"><tspan class="TextPosition" x="17505" y="14801"><tspan fill="rgb(0,0,0)" stroke="none">Hungary</tspan></tspan></tspan></text>
 <text class="TextShape" transform="rotate(-59.9 18033 14871)"><tspan class="TextParagraph" font-family="Arial, sans-serif" font-size="353px" font-weight="400"><tspan class="TextPosition" x="18033" y="14871"><tspan fill="rgb(0,0,0)" stroke="none">S. Korea</tspan></tspan></tspan></text>
 <text class="TextShape" transform="rotate(-59.9 18364 15283)"><tspan class="TextParagraph" font-family="Arial, sans-serif" font-size="353px" font-weight="400"><tspan class="TextPosition" x="18364" y="15283"><tspan fill="rgb(0,0,0)" stroke="none">Netherlands</tspan></tspan></tspan></text>
 <text class="TextShape" transform="rotate(-59.9 19330 14595)"><tspan class="TextParagraph" font-family="Arial, sans-serif" font-size="353px" font-weight="400"><tspan class="TextPosition" x="19330" y="14595"><tspan fill="rgb(0,0,0)" stroke="none">Ireland</tspan></tspan></tspan></text>
 <text class="TextShape" transform="rotate(-59.9 19767 14824)"><tspan class="TextParagraph" font-family="Arial, sans-serif" font-size="353px" font-weight="400"><tspan class="TextPosition" x="19767" y="14824"><tspan fill="rgb(0,0,0)" stroke="none">Moldova</tspan></tspan></tspan></text>
 <text class="TextShape" transform="rotate(-59.9 20413 14687)"><tspan class="TextParagraph" font-family="Arial, sans-serif" font-size="353px" font-weight="400"><tspan class="TextPosition" x="20413" y="14687"><tspan fill="rgb(0,0,0)" stroke="none">Albania</tspan></tspan></tspan></text>
 <text class="TextShape" transform="rotate(-59.9 20942 14755)"><tspan class="TextParagraph" font-family="Arial, sans-serif" font-size="353px" font-weight="400"><tspan class="TextPosition" x="20942" y="14755"><tspan fill="rgb(0,0,0)" stroke="none">Sweden</tspan></tspan></tspan></text>
 <text class="TextShape" transform="rotate(-59.9 21576 14641)"><tspan class="TextParagraph" font-family="Arial, sans-serif" font-size="353px" font-weight="400"><tspan class="TextPosition" x="21576" y="14641"><tspan fill="rgb(0,0,0)" stroke="none">Cyprus</tspan></tspan></tspan></text>
 <text class="TextShape" transform="rotate(-59.9 21987 14915)"><tspan class="TextParagraph" font-family="Arial, sans-serif" font-size="353px" font-weight="400"><tspan class="TextPosition" x="21987" y="14915"><tspan fill="rgb(0,0,0)" stroke="none">Germany</tspan></tspan></tspan></text>
 <text class="TextShape" transform="rotate(-59.9 22569 14893)"><tspan class="TextParagraph" font-family="Arial, sans-serif" font-size="353px" font-weight="400"><tspan class="TextPosition" x="22569" y="14893"><tspan fill="rgb(0,0,0)" stroke="none">Denmark</tspan></tspan></tspan></text>
 <text class="TextShape" transform="rotate(-59.9 22886 15329)"><tspan class="TextParagraph" font-family="Arial, sans-serif" font-size="353px" font-weight="400"><tspan class="TextPosition" x="22886" y="15329"><tspan fill="rgb(0,0,0)" stroke="none">Luxembourg</tspan></tspan></tspan></text>
 <text class="TextShape" transform="rotate(-59.9 23506 15237)"><tspan class="TextParagraph" font-family="Arial, sans-serif" font-size="353px" font-weight="400"><tspan class="TextPosition" x="23506" y="15237"><tspan fill="rgb(0,0,0)" stroke="none">Switzerland</tspan></tspan></tspan></text>
 <text class="TextShape" transform="rotate(-59.9 24419 14641)"><tspan class="TextParagraph" font-family="Arial, sans-serif" font-size="353px" font-weight="400"><tspan class="TextPosition" x="24419" y="14641"><tspan fill="rgb(0,0,0)" stroke="none">Austria</tspan></tspan></tspan></text>
 <text class="TextShape" transform="rotate(-59.9 24896 14801)"><tspan class="TextParagraph" font-family="Arial, sans-serif" font-size="353px" font-weight="400"><tspan class="TextPosition" x="24896" y="14801"><tspan fill="rgb(0,0,0)" stroke="none">Portugal</tspan></tspan></tspan></text>
 <text class="TextShape" transform="rotate(-59.9 25530 14687)"><tspan class="TextParagraph" font-family="Arial, sans-serif" font-size="353px" font-weight="400"><tspan class="TextPosition" x="25530" y="14687"><tspan fill="rgb(0,0,0)" stroke="none">Norway</tspan></tspan></tspan></text>
 <text class="TextShape" transform="rotate(-59.9 26431 14113)"><tspan class="TextParagraph" font-family="Arial, sans-serif" font-size="353px" font-weight="400"><tspan class="TextPosition" x="26431" y="14113"><tspan fill="rgb(0,0,0)" stroke="none">UK</tspan></tspan></tspan></text>
 <text class="TextShape" transform="rotate(-59.9 26681 14664)"><tspan class="TextParagraph" font-family="Arial, sans-serif" font-size="353px" font-weight="400"><tspan class="TextPosition" x="26681" y="14664"><tspan fill="rgb(0,0,0)" stroke="none">Finland</tspan></tspan></tspan></text>
 <text class="TextShape" transform="rotate(-59.9 27382 14435)"><tspan class="TextParagraph" font-family="Arial, sans-serif" font-size="353px" font-weight="400"><tspan class="TextPosition" x="27382" y="14435"><tspan fill="rgb(0,0,0)" stroke="none">Malta</tspan></tspan></tspan></text>
 <text class="TextShape" transform="rotate(-59.9 27950 14435)"><tspan class="TextParagraph" font-family="Arial, sans-serif" font-size="353px" font-weight="400"><tspan class="TextPosition" x="27950" y="14435"><tspan fill="rgb(0,0,0)" stroke="none">Israel</tspan></tspan></tspan></text>
 <text class="TextShape" transform="rotate(-59.9 28387 14664)"><tspan class="TextParagraph" font-family="Arial, sans-serif" font-size="353px" font-weight="400"><tspan class="TextPosition" x="28387" y="14664"><tspan fill="rgb(0,0,0)" stroke="none">Iceland</tspan></tspan></tspan></text>
 <text class="TextShape" transform="rotate(-59.9 29073 14457)"><tspan class="TextParagraph" font-family="Arial, sans-serif" font-size="353px" font-weight="400"><tspan class="TextPosition" x="29073" y="14457"><tspan fill="rgb(0,0,0)" stroke="none">China</tspan></tspan></tspan></text>
 <text class="TextShape"><tspan class="TextParagraph" font-family="Arial, sans-serif" font-size="353px" font-weight="400"><tspan class="TextPosition" x="607" y="13414"><tspan fill="rgb(0,0,0)" stroke="none">0,00%</tspan></tspan></tspan></text>
 <text class="TextShape"><tspan class="TextParagraph" font-family="Arial, sans-serif" font-size="353px" font-weight="400"><tspan class="TextPosition" x="607" y="12206"><tspan fill="rgb(0,0,0)" stroke="none">0,33%</tspan></tspan></tspan></text>
 <text class="TextShape"><tspan class="TextParagraph" font-family="Arial, sans-serif" font-size="353px" font-weight="400"><tspan class="TextPosition" x="607" y="10998"><tspan fill="rgb(0,0,0)" stroke="none">0,67%</tspan></tspan></tspan></text>
 <text class="TextShape"><tspan class="TextParagraph" font-family="Arial, sans-serif" font-size="353px" font-weight="400"><tspan class="TextPosition" x="607" y="9790"><tspan fill="rgb(0,0,0)" stroke="none">1,00%</tspan></tspan></tspan></text>
 <text class="TextShape"><tspan class="TextParagraph" font-family="Arial, sans-serif" font-size="353px" font-weight="400"><tspan class="TextPosition" x="607" y="8583"><tspan fill="rgb(0,0,0)" stroke="none">1,33%</tspan></tspan></tspan></text>
 <text class="TextShape"><tspan class="TextParagraph" font-family="Arial, sans-serif" font-size="353px" font-weight="400"><tspan class="TextPosition" x="607" y="7375"><tspan fill="rgb(0,0,0)" stroke="none">1,67%</tspan></tspan></tspan></text>
 <text class="TextShape"><tspan class="TextParagraph" font-family="Arial, sans-serif" font-size="353px" font-weight="400"><tspan class="TextPosition" x="607" y="6168"><tspan fill="rgb(0,0,0)" stroke="none">2,00%</tspan></tspan></tspan></text>
 <text class="TextShape"><tspan class="TextParagraph" font-family="Arial, sans-serif" font-size="353px" font-weight="400"><tspan class="TextPosition" x="607" y="4959"><tspan fill="rgb(0,0,0)" stroke="none">2,33%</tspan></tspan></tspan></text>
 <text class="TextShape"><tspan class="TextParagraph" font-family="Arial, sans-serif" font-size="353px" font-weight="400"><tspan class="TextPosition" x="607" y="3752"><tspan fill="rgb(0,0,0)" stroke="none">2,67%</tspan></tspan></tspan></text>
 <text class="TextShape"><tspan class="TextParagraph" font-family="Arial, sans-serif" font-size="353px" font-weight="400"><tspan class="TextPosition" x="607" y="2544"><tspan fill="rgb(0,0,0)" stroke="none">3,00%</tspan></tspan></tspan></text>
 <text class="TextShape"><tspan class="TextParagraph" font-family="Arial, sans-serif" font-size="353px" font-weight="400"><tspan class="TextPosition" x="607" y="1337"><tspan fill="rgb(0,0,0)" stroke="none">3,33%</tspan></tspan></tspan></text>
 <text class="TextShape" transform="rotate(-44.9 1859 13138)"><tspan class="TextParagraph" font-family="Arial, sans-serif" font-size="353px" font-weight="400"><tspan class="TextPosition" x="1859" y="13138"><tspan fill="rgb(160,160,160)" stroke="none">5,07%</tspan></tspan></tspan></text>
 <text class="TextShape" transform="rotate(-44.9 2427 13138)"><tspan class="TextParagraph" font-family="Arial, sans-serif" font-size="353px" font-weight="400"><tspan class="TextPosition" x="2427" y="13138"><tspan fill="rgb(160,160,160)" stroke="none">2,88%</tspan></tspan></tspan></text>
 <text class="TextShape" transform="rotate(-44.9 2996 13138)"><tspan class="TextParagraph" font-family="Arial, sans-serif" font-size="353px" font-weight="400"><tspan class="TextPosition" x="2996" y="13138"><tspan fill="rgb(160,160,160)" stroke="none">1,83%</tspan></tspan></tspan></text>
 <text class="TextShape" transform="rotate(-44.9 3564 13138)"><tspan class="TextParagraph" font-family="Arial, sans-serif" font-size="353px" font-weight="400"><tspan class="TextPosition" x="3564" y="13138"><tspan fill="rgb(160,160,160)" stroke="none">1,54%</tspan></tspan></tspan></text>
 <text class="TextShape" transform="rotate(-44.9 4133 13138)"><tspan class="TextParagraph" font-family="Arial, sans-serif" font-size="353px" font-weight="400"><tspan class="TextPosition" x="4133" y="13138"><tspan fill="rgb(160,160,160)" stroke="none">1,45%</tspan></tspan></tspan></text>
 <text class="TextShape" transform="rotate(-44.9 4701 13138)"><tspan class="TextParagraph" font-family="Arial, sans-serif" font-size="353px" font-weight="400"><tspan class="TextPosition" x="4701" y="13138"><tspan fill="rgb(160,160,160)" stroke="none">1,41%</tspan></tspan></tspan></text>
 <text class="TextShape" transform="rotate(-44.9 5270 13138)"><tspan class="TextParagraph" font-family="Arial, sans-serif" font-size="353px" font-weight="400"><tspan class="TextPosition" x="5270" y="13138"><tspan fill="rgb(160,160,160)" stroke="none">1,11%</tspan></tspan></tspan></text>
 <text class="TextShape" transform="rotate(-44.9 5838 13138)"><tspan class="TextParagraph" font-family="Arial, sans-serif" font-size="353px" font-weight="400"><tspan class="TextPosition" x="5838" y="13138"><tspan fill="rgb(160,160,160)" stroke="none">1,04%</tspan></tspan></tspan></text>
 <text class="TextShape" transform="rotate(-44.9 6407 13138)"><tspan class="TextParagraph" font-family="Arial, sans-serif" font-size="353px" font-weight="400"><tspan class="TextPosition" x="6407" y="13138"><tspan fill="rgb(160,160,160)" stroke="none">1,03%</tspan></tspan></tspan></text>
 <text class="TextShape" transform="rotate(-44.9 6976 13138)"><tspan class="TextParagraph" font-family="Arial, sans-serif" font-size="353px" font-weight="400"><tspan class="TextPosition" x="6976" y="13138"><tspan fill="rgb(160,160,160)" stroke="none">0,93%</tspan></tspan></tspan></text>
 <text class="TextShape" transform="rotate(-44.9 7544 13138)"><tspan class="TextParagraph" font-family="Arial, sans-serif" font-size="353px" font-weight="400"><tspan class="TextPosition" x="7544" y="13138"><tspan fill="rgb(160,160,160)" stroke="none">0,88%</tspan></tspan></tspan></text>
 <text class="TextShape" transform="rotate(-44.9 8113 13138)"><tspan class="TextParagraph" font-family="Arial, sans-serif" font-size="353px" font-weight="400"><tspan class="TextPosition" x="8113" y="13138"><tspan fill="rgb(160,160,160)" stroke="none">0,80%</tspan></tspan></tspan></text>
 <text class="TextShape" transform="rotate(-44.9 8681 13138)"><tspan class="TextParagraph" font-family="Arial, sans-serif" font-size="353px" font-weight="400"><tspan class="TextPosition" x="8681" y="13138"><tspan fill="rgb(160,160,160)" stroke="none">0,74%</tspan></tspan></tspan></text>
 <text class="TextShape" transform="rotate(-44.9 9250 13138)"><tspan class="TextParagraph" font-family="Arial, sans-serif" font-size="353px" font-weight="400"><tspan class="TextPosition" x="9250" y="13138"><tspan fill="rgb(160,160,160)" stroke="none">0,71%</tspan></tspan></tspan></text>
 <text class="TextShape" transform="rotate(-44.9 9818 13138)"><tspan class="TextParagraph" font-family="Arial, sans-serif" font-size="353px" font-weight="400"><tspan class="TextPosition" x="9818" y="13138"><tspan fill="rgb(160,160,160)" stroke="none">0,71%</tspan></tspan></tspan></text>
 <text class="TextShape" transform="rotate(-44.9 10387 13138)"><tspan class="TextParagraph" font-family="Arial, sans-serif" font-size="353px" font-weight="400"><tspan class="TextPosition" x="10387" y="13138"><tspan fill="rgb(160,160,160)" stroke="none">0,59%</tspan></tspan></tspan></text>
 <text class="TextShape" transform="rotate(-44.9 10955 13138)"><tspan class="TextParagraph" font-family="Arial, sans-serif" font-size="353px" font-weight="400"><tspan class="TextPosition" x="10955" y="13138"><tspan fill="rgb(160,160,160)" stroke="none">0,58%</tspan></tspan></tspan></text>
 <text class="TextShape" transform="rotate(-44.9 11524 13138)"><tspan class="TextParagraph" font-family="Arial, sans-serif" font-size="353px" font-weight="400"><tspan class="TextPosition" x="11524" y="13138"><tspan fill="rgb(160,160,160)" stroke="none">0,57%</tspan></tspan></tspan></text>
 <text class="TextShape" transform="rotate(-44.9 12092 13138)"><tspan class="TextParagraph" font-family="Arial, sans-serif" font-size="353px" font-weight="400"><tspan class="TextPosition" x="12092" y="13138"><tspan fill="rgb(160,160,160)" stroke="none">0,55%</tspan></tspan></tspan></text>
 <text class="TextShape" transform="rotate(-44.9 12661 13138)"><tspan class="TextParagraph" font-family="Arial, sans-serif" font-size="353px" font-weight="400"><tspan class="TextPosition" x="12661" y="13138"><tspan fill="rgb(160,160,160)" stroke="none">0,55%</tspan></tspan></tspan></text>
 <text class="TextShape" transform="rotate(-44.9 13228 13138)"><tspan class="TextParagraph" font-family="Arial, sans-serif" font-size="353px" font-weight="400"><tspan class="TextPosition" x="13228" y="13138"><tspan fill="rgb(160,160,160)" stroke="none">0,53%</tspan></tspan></tspan></text>
 <text class="TextShape" transform="rotate(-44.9 13797 13138)"><tspan class="TextParagraph" font-family="Arial, sans-serif" font-size="353px" font-weight="400"><tspan class="TextPosition" x="13797" y="13138"><tspan fill="rgb(160,160,160)" stroke="none">0,51%</tspan></tspan></tspan></text>
 <text class="TextShape" transform="rotate(-44.9 14365 13138)"><tspan class="TextParagraph" font-family="Arial, sans-serif" font-size="353px" font-weight="400"><tspan class="TextPosition" x="14365" y="13138"><tspan fill="rgb(160,160,160)" stroke="none">0,51%</tspan></tspan></tspan></text>
 <text class="TextShape" transform="rotate(-44.9 14934 13138)"><tspan class="TextParagraph" font-family="Arial, sans-serif" font-size="353px" font-weight="400"><tspan class="TextPosition" x="14934" y="13138"><tspan fill="rgb(160,160,160)" stroke="none">0,43%</tspan></tspan></tspan></text>
 <text class="TextShape" transform="rotate(-44.9 15503 13138)"><tspan class="TextParagraph" font-family="Arial, sans-serif" font-size="353px" font-weight="400"><tspan class="TextPosition" x="15503" y="13138"><tspan fill="rgb(160,160,160)" stroke="none">0,42%</tspan></tspan></tspan></text>
 <text class="TextShape" transform="rotate(-44.9 16071 13138)"><tspan class="TextParagraph" font-family="Arial, sans-serif" font-size="353px" font-weight="400"><tspan class="TextPosition" x="16071" y="13138"><tspan fill="rgb(160,160,160)" stroke="none">0,42%</tspan></tspan></tspan></text>
 <text class="TextShape" transform="rotate(-44.9 16640 13138)"><tspan class="TextParagraph" font-family="Arial, sans-serif" font-size="353px" font-weight="400"><tspan class="TextPosition" x="16640" y="13138"><tspan fill="rgb(160,160,160)" stroke="none">0,41%</tspan></tspan></tspan></text>
 <text class="TextShape" transform="rotate(-44.9 17208 13138)"><tspan class="TextParagraph" font-family="Arial, sans-serif" font-size="353px" font-weight="400"><tspan class="TextPosition" x="17208" y="13138"><tspan fill="rgb(160,160,160)" stroke="none">0,40%</tspan></tspan></tspan></text>
 <text class="TextShape" transform="rotate(-44.9 17777 13138)"><tspan class="TextParagraph" font-family="Arial, sans-serif" font-size="353px" font-weight="400"><tspan class="TextPosition" x="17777" y="13138"><tspan fill="rgb(160,160,160)" stroke="none">0,40%</tspan></tspan></tspan></text>
 <text class="TextShape" transform="rotate(-44.9 18345 13138)"><tspan class="TextParagraph" font-family="Arial, sans-serif" font-size="353px" font-weight="400"><tspan class="TextPosition" x="18345" y="13138"><tspan fill="rgb(160,160,160)" stroke="none">0,37%</tspan></tspan></tspan></text>
 <text class="TextShape" transform="rotate(-44.9 18914 13138)"><tspan class="TextParagraph" font-family="Arial, sans-serif" font-size="353px" font-weight="400"><tspan class="TextPosition" x="18914" y="13138"><tspan fill="rgb(160,160,160)" stroke="none">0,32%</tspan></tspan></tspan></text>
 <text class="TextShape" transform="rotate(-44.9 19482 13138)"><tspan class="TextParagraph" font-family="Arial, sans-serif" font-size="353px" font-weight="400"><tspan class="TextPosition" x="19482" y="13138"><tspan fill="rgb(160,160,160)" stroke="none">0,30%</tspan></tspan></tspan></text>
 <text class="TextShape" transform="rotate(-44.9 20051 13138)"><tspan class="TextParagraph" font-family="Arial, sans-serif" font-size="353px" font-weight="400"><tspan class="TextPosition" x="20051" y="13138"><tspan fill="rgb(160,160,160)" stroke="none">0,29%</tspan></tspan></tspan></text>
 <text class="TextShape" transform="rotate(-44.9 20619 13138)"><tspan class="TextParagraph" font-family="Arial, sans-serif" font-size="353px" font-weight="400"><tspan class="TextPosition" x="20619" y="13138"><tspan fill="rgb(160,160,160)" stroke="none">0,28%</tspan></tspan></tspan></text>
 <text class="TextShape" transform="rotate(-44.9 21188 13138)"><tspan class="TextParagraph" font-family="Arial, sans-serif" font-size="353px" font-weight="400"><tspan class="TextPosition" x="21188" y="13138"><tspan fill="rgb(160,160,160)" stroke="none">0,26%</tspan></tspan></tspan></text>
 <text class="TextShape" transform="rotate(-44.9 21756 13138)"><tspan class="TextParagraph" font-family="Arial, sans-serif" font-size="353px" font-weight="400"><tspan class="TextPosition" x="21756" y="13138"><tspan fill="rgb(160,160,160)" stroke="none">0,26%</tspan></tspan></tspan></text>
 <text class="TextShape" transform="rotate(-44.9 22325 13138)"><tspan class="TextParagraph" font-family="Arial, sans-serif" font-size="353px" font-weight="400"><tspan class="TextPosition" x="22325" y="13138"><tspan fill="rgb(160,160,160)" stroke="none">0,24%</tspan></tspan></tspan></text>
 <text class="TextShape" transform="rotate(-44.9 22893 13138)"><tspan class="TextParagraph" font-family="Arial, sans-serif" font-size="353px" font-weight="400"><tspan class="TextPosition" x="22893" y="13138"><tspan fill="rgb(160,160,160)" stroke="none">0,24%</tspan></tspan></tspan></text>
 <text class="TextShape" transform="rotate(-44.9 23462 13138)"><tspan class="TextParagraph" font-family="Arial, sans-serif" font-size="353px" font-weight="400"><tspan class="TextPosition" x="23462" y="13138"><tspan fill="rgb(160,160,160)" stroke="none">0,22%</tspan></tspan></tspan></text>
 <text class="TextShape" transform="rotate(-44.9 24030 13138)"><tspan class="TextParagraph" font-family="Arial, sans-serif" font-size="353px" font-weight="400"><tspan class="TextPosition" x="24030" y="13138"><tspan fill="rgb(160,160,160)" stroke="none">0,21%</tspan></tspan></tspan></text>
 <text class="TextShape" transform="rotate(-44.9 24599 13138)"><tspan class="TextParagraph" font-family="Arial, sans-serif" font-size="353px" font-weight="400"><tspan class="TextPosition" x="24599" y="13138"><tspan fill="rgb(160,160,160)" stroke="none">0,21%</tspan></tspan></tspan></text>
 <text class="TextShape" transform="rotate(-44.9 25168 13138)"><tspan class="TextParagraph" font-family="Arial, sans-serif" font-size="353px" font-weight="400"><tspan class="TextPosition" x="25168" y="13138"><tspan fill="rgb(160,160,160)" stroke="none">0,17%</tspan></tspan></tspan></text>
 <text class="TextShape" transform="rotate(-44.9 25736 13138)"><tspan class="TextParagraph" font-family="Arial, sans-serif" font-size="353px" font-weight="400"><tspan class="TextPosition" x="25736" y="13138"><tspan fill="rgb(160,160,160)" stroke="none">0,13%</tspan></tspan></tspan></text>
 <text class="TextShape" transform="rotate(-44.9 26305 13138)"><tspan class="TextParagraph" font-family="Arial, sans-serif" font-size="353px" font-weight="400"><tspan class="TextPosition" x="26305" y="13138"><tspan fill="rgb(160,160,160)" stroke="none">0,10%</tspan></tspan></tspan></text>
 <text class="TextShape" transform="rotate(-44.9 26873 13138)"><tspan class="TextParagraph" font-family="Arial, sans-serif" font-size="353px" font-weight="400"><tspan class="TextPosition" x="26873" y="13138"><tspan fill="rgb(160,160,160)" stroke="none">0,08%</tspan></tspan></tspan></text>
 <text class="TextShape" transform="rotate(-44.9 27442 13138)"><tspan class="TextParagraph" font-family="Arial, sans-serif" font-size="353px" font-weight="400"><tspan class="TextPosition" x="27442" y="13138"><tspan fill="rgb(160,160,160)" stroke="none">0,05%</tspan></tspan></tspan></text>
 <text class="TextShape" transform="rotate(-44.9 28010 13138)"><tspan class="TextParagraph" font-family="Arial, sans-serif" font-size="353px" font-weight="400"><tspan class="TextPosition" x="28010" y="13138"><tspan fill="rgb(160,160,160)" stroke="none">0,02%</tspan></tspan></tspan></text>
 <text class="TextShape" transform="rotate(-44.9 28579 13138)"><tspan class="TextParagraph" font-family="Arial, sans-serif" font-size="353px" font-weight="400"><tspan class="TextPosition" x="28579" y="13138"><tspan fill="rgb(160,160,160)" stroke="none">0,01%</tspan></tspan></tspan></text>
 <text class="TextShape" transform="rotate(-44.9 29147 13138)"><tspan class="TextParagraph" font-family="Arial, sans-serif" font-size="353px" font-weight="400"><tspan class="TextPosition" x="29147" y="13138"><tspan fill="rgb(160,160,160)" stroke="none">0,00%</tspan></tspan></tspan></text>
 <text class="TextShape"><tspan class="TextParagraph" font-family="Arial, sans-serif" font-size="459px" font-weight="400"><tspan class="TextPosition" x="7133" y="1021"><tspan fill="rgb(0,0,0)" stroke="none">Active cases per population/ Aktív esetek száma a lakosság %-ában 2021.05.26.</tspan></tspan></tspan></text>
 <path fill="rgb(0,69,134)" stroke="none" d="M 9412,1853 L 9012,1853 9012,1642 9812,1642 9812,1853 9412,1853 Z"/>
 <path fill="none" stroke="rgb(0,69,134)" stroke-linejoin="round" d="M 14617,1747 L 15416,1747"/>
 <text class="TextShape"><tspan class="TextParagraph" font-family="Arial, sans-serif" font-size="353px" font-weight="400"><tspan class="TextPosition" x="9912" y="1867"><tspan fill="rgb(0,0,0)" stroke="none">Active real cases percentage</tspan></tspan></tspan></text>
 <text class="TextShape"><tspan class="TextParagraph" font-family="Arial, sans-serif" font-size="353px" font-weight="400"><tspan class="TextPosition" x="15516" y="1867"><tspan fill="rgb(0,0,0)" stroke="none">Közép (Active real cases percentage)</tspan></tspan></tspan></text>
</svg>