<?xml version="1.0" encoding="UTF-8"?>
<!DOCTYPE svg PUBLIC "-//W3C//DTD SVG 1.1//EN" "http://www.w3.org/Graphics/SVG/1.1/DTD/svg11.dtd">
<svg width="303mm" height="170mm" viewBox="0 0 30300 17000" version="1.1" xmlns="http://www.w3.org/2000/svg" xmlns:xlink="http://www.w3.org/1999/xlink" stroke-width="28.222" stroke-linejoin="round" xml:space="preserve">
 <path fill="rgb(255,255,255)" stroke="none" d="M 15150,17000 L 0,17000 0,0 30300,0 30300,17000 15150,17000 Z"/>
 <path fill="none" stroke="rgb(179,179,179)" stroke-linejoin="round" d="M 15857,13293 L 2021,13293 2021,2378 29694,2378 29694,13293 15857,13293 Z"/>
 <path fill="none" stroke="rgb(179,179,179)" stroke-linejoin="round" d="M 29694,13292 L 2021,13292"/>
 <path fill="none" stroke="rgb(179,179,179)" stroke-linejoin="round" d="M 29694,12079 L 2021,12079"/>
 <path fill="none" stroke="rgb(179,179,179)" stroke-linejoin="round" d="M 29694,10866 L 2021,10866"/>
 <path fill="none" stroke="rgb(179,179,179)" stroke-linejoin="round" d="M 29694,9653 L 2021,9653"/>
 <path fill="none" stroke="rgb(179,179,179)" stroke-linejoin="round" d="M 29694,8441 L 2021,8441"/>
 <path fill="none" stroke="rgb(179,179,179)" stroke-linejoin="round" d="M 29694,7228 L 2021,7228"/>
 <path fill="none" stroke="rgb(179,179,179)" stroke-linejoin="round" d="M 29694,6015 L 2021,6015"/>
 <path fill="none" stroke="rgb(179,179,179)" stroke-linejoin="round" d="M 29694,4802 L 2021,4802"/>
 <path fill="none" stroke="rgb(179,179,179)" stroke-linejoin="round" d="M 29694,3589 L 2021,3589"/>
 <path fill="none" stroke="rgb(179,179,179)" stroke-linejoin="round" d="M 29694,2377 L 2021,2377"/>
 <path fill="none" stroke="rgb(179,179,179)" stroke-linejoin="round" d="M 2021,13442 L 2021,13292"/>
 <path fill="none" stroke="rgb(179,179,179)" stroke-linejoin="round" d="M 2585,13442 L 2585,13292"/>
 <path fill="none" stroke="rgb(179,179,179)" stroke-linejoin="round" d="M 3150,13442 L 3150,13292"/>
 <path fill="none" stroke="rgb(179,179,179)" stroke-linejoin="round" d="M 3715,13442 L 3715,13292"/>
 <path fill="none" stroke="rgb(179,179,179)" stroke-linejoin="round" d="M 4280,13442 L 4280,13292"/>
 <path fill="none" stroke="rgb(179,179,179)" stroke-linejoin="round" d="M 4844,13442 L 4844,13292"/>
 <path fill="none" stroke="rgb(179,179,179)" stroke-linejoin="round" d="M 5409,13442 L 5409,13292"/>
 <path fill="none" stroke="rgb(179,179,179)" stroke-linejoin="round" d="M 5974,13442 L 5974,13292"/>
 <path fill="none" stroke="rgb(179,179,179)" stroke-linejoin="round" d="M 6539,13442 L 6539,13292"/>
 <path fill="none" stroke="rgb(179,179,179)" stroke-linejoin="round" d="M 7103,13442 L 7103,13292"/>
 <path fill="none" stroke="rgb(179,179,179)" stroke-linejoin="round" d="M 7668,13442 L 7668,13292"/>
 <path fill="none" stroke="rgb(179,179,179)" stroke-linejoin="round" d="M 8233,13442 L 8233,13292"/>
 <path fill="none" stroke="rgb(179,179,179)" stroke-linejoin="round" d="M 8798,13442 L 8798,13292"/>
 <path fill="none" stroke="rgb(179,179,179)" stroke-linejoin="round" d="M 9363,13442 L 9363,13292"/>
 <path fill="none" stroke="rgb(179,179,179)" stroke-linejoin="round" d="M 9927,13442 L 9927,13292"/>
 <path fill="none" stroke="rgb(179,179,179)" stroke-linejoin="round" d="M 10492,13442 L 10492,13292"/>
 <path fill="none" stroke="rgb(179,179,179)" stroke-linejoin="round" d="M 11057,13442 L 11057,13292"/>
 <path fill="none" stroke="rgb(179,179,179)" stroke-linejoin="round" d="M 11622,13442 L 11622,13292"/>
 <path fill="none" stroke="rgb(179,179,179)" stroke-linejoin="round" d="M 12186,13442 L 12186,13292"/>
 <path fill="none" stroke="rgb(179,179,179)" stroke-linejoin="round" d="M 12751,13442 L 12751,13292"/>
 <path fill="none" stroke="rgb(179,179,179)" stroke-linejoin="round" d="M 13316,13442 L 13316,13292"/>
 <path fill="none" stroke="rgb(179,179,179)" stroke-linejoin="round" d="M 13881,13442 L 13881,13292"/>
 <path fill="none" stroke="rgb(179,179,179)" stroke-linejoin="round" d="M 14446,13442 L 14446,13292"/>
 <path fill="none" stroke="rgb(179,179,179)" stroke-linejoin="round" d="M 15010,13442 L 15010,13292"/>
 <path fill="none" stroke="rgb(179,179,179)" stroke-linejoin="round" d="M 15574,13442 L 15574,13292"/>
 <path fill="none" stroke="rgb(179,179,179)" stroke-linejoin="round" d="M 16139,13442 L 16139,13292"/>
 <path fill="none" stroke="rgb(179,179,179)" stroke-linejoin="round" d="M 16704,13442 L 16704,13292"/>
 <path fill="none" stroke="rgb(179,179,179)" stroke-linejoin="round" d="M 17268,13442 L 17268,13292"/>
 <path fill="none" stroke="rgb(179,179,179)" stroke-linejoin="round" d="M 17833,13442 L 17833,13292"/>
 <path fill="none" stroke="rgb(179,179,179)" stroke-linejoin="round" d="M 18398,13442 L 18398,13292"/>
 <path fill="none" stroke="rgb(179,179,179)" stroke-linejoin="round" d="M 18963,13442 L 18963,13292"/>
 <path fill="none" stroke="rgb(179,179,179)" stroke-linejoin="round" d="M 19528,13442 L 19528,13292"/>
 <path fill="none" stroke="rgb(179,179,179)" stroke-linejoin="round" d="M 20092,13442 L 20092,13292"/>
 <path fill="none" stroke="rgb(179,179,179)" stroke-linejoin="round" d="M 20657,13442 L 20657,13292"/>
 <path fill="none" stroke="rgb(179,179,179)" stroke-linejoin="round" d="M 21222,13442 L 21222,13292"/>
 <path fill="none" stroke="rgb(179,179,179)" stroke-linejoin="round" d="M 21787,13442 L 21787,13292"/>
 <path fill="none" stroke="rgb(179,179,179)" stroke-linejoin="round" d="M 22351,13442 L 22351,13292"/>
 <path fill="none" stroke="rgb(179,179,179)" stroke-linejoin="round" d="M 22916,13442 L 22916,13292"/>
 <path fill="none" stroke="rgb(179,179,179)" stroke-linejoin="round" d="M 23481,13442 L 23481,13292"/>
 <path fill="none" stroke="rgb(179,179,179)" stroke-linejoin="round" d="M 24046,13442 L 24046,13292"/>
 <path fill="none" stroke="rgb(179,179,179)" stroke-linejoin="round" d="M 24611,13442 L 24611,13292"/>
 <path fill="none" stroke="rgb(179,179,179)" stroke-linejoin="round" d="M 25175,13442 L 25175,13292"/>
 <path fill="none" stroke="rgb(179,179,179)" stroke-linejoin="round" d="M 25740,13442 L 25740,13292"/>
 <path fill="none" stroke="rgb(179,179,179)" stroke-linejoin="round" d="M 26305,13442 L 26305,13292"/>
 <path fill="none" stroke="rgb(179,179,179)" stroke-linejoin="round" d="M 26870,13442 L 26870,13292"/>
 <path fill="none" stroke="rgb(179,179,179)" stroke-linejoin="round" d="M 27434,13442 L 27434,13292"/>
 <path fill="none" stroke="rgb(179,179,179)" stroke-linejoin="round" d="M 27999,13442 L 27999,13292"/>
 <path fill="none" stroke="rgb(179,179,179)" stroke-linejoin="round" d="M 28564,13442 L 28564,13292"/>
 <path fill="none" stroke="rgb(179,179,179)" stroke-linejoin="round" d="M 29129,13442 L 29129,13292"/>
 <path fill="none" stroke="rgb(179,179,179)" stroke-linejoin="round" d="M 29693,13442 L 29693,13292"/>
 <path fill="none" stroke="rgb(179,179,179)" stroke-linejoin="round" d="M 2021,13292 L 29694,13292"/>
 <path fill="none" stroke="rgb(179,179,179)" stroke-linejoin="round" d="M 1871,13292 L 2021,13292"/>
 <path fill="none" stroke="rgb(179,179,179)" stroke-linejoin="round" d="M 1871,12079 L 2021,12079"/>
 <path fill="none" stroke="rgb(179,179,179)" stroke-linejoin="round" d="M 1871,10866 L 2021,10866"/>
 <path fill="none" stroke="rgb(179,179,179)" stroke-linejoin="round" d="M 1871,9653 L 2021,9653"/>
 <path fill="none" stroke="rgb(179,179,179)" stroke-linejoin="round" d="M 1871,8441 L 2021,8441"/>
 <path fill="none" stroke="rgb(179,179,179)" stroke-linejoin="round" d="M 1871,7228 L 2021,7228"/>
 <path fill="none" stroke="rgb(179,179,179)" stroke-linejoin="round" d="M 1871,6015 L 2021,6015"/>
 <path fill="none" stroke="rgb(179,179,179)" stroke-linejoin="round" d="M 1871,4802 L 2021,4802"/>
 <path fill="none" stroke="rgb(179,179,179)" stroke-linejoin="round" d="M 1871,3589 L 2021,3589"/>
 <path fill="none" stroke="rgb(179,179,179)" stroke-linejoin="round" d="M 1871,2377 L 2021,2377"/>
 <path fill="none" stroke="rgb(179,179,179)" stroke-linejoin="round" d="M 2021,13292 L 2021,2377"/>
 <path fill="rgb(0,69,134)" stroke="none" d="M 29270,13292 L 29552,13292 29552,13260 29270,13260 29270,13292 Z"/>
 <path fill="rgb(0,69,134)" stroke="none" d="M 28705,13292 L 28988,13292 28988,13248 28705,13248 28705,13292 Z"/>
 <path fill="rgb(0,69,134)" stroke="none" d="M 28140,13292 L 28423,13292 28423,13244 28140,13244 28140,13292 Z"/>
 <path fill="rgb(0,69,134)" stroke="none" d="M 27576,13292 L 27858,13292 27858,13218 27576,13218 27576,13292 Z"/>
 <path fill="rgb(0,69,134)" stroke="none" d="M 27011,13292 L 27293,13292 27293,13208 27011,13208 27011,13292 Z"/>
 <path fill="rgb(0,69,134)" stroke="none" d="M 26446,13292 L 26728,13292 26728,13201 26446,13201 26446,13292 Z"/>
 <path fill="rgb(0,69,134)" stroke="none" d="M 25881,13292 L 26164,13292 26164,13198 25881,13198 25881,13292 Z"/>
 <path fill="rgb(0,69,134)" stroke="none" d="M 25316,13292 L 25599,13292 25599,13180 25316,13180 25316,13292 Z"/>
 <path fill="rgb(0,69,134)" stroke="none" d="M 24752,13292 L 25034,13292 25034,13169 24752,13169 24752,13292 Z"/>
 <path fill="rgb(0,69,134)" stroke="none" d="M 24187,13292 L 24469,13292 24469,13131 24187,13131 24187,13292 Z"/>
 <path fill="rgb(0,69,134)" stroke="none" d="M 23622,13292 L 23905,13292 23905,13128 23622,13128 23622,13292 Z"/>
 <path fill="rgb(0,69,134)" stroke="none" d="M 23057,13292 L 23340,13292 23340,13106 23057,13106 23057,13292 Z"/>
 <path fill="rgb(0,69,134)" stroke="none" d="M 22493,13292 L 22775,13292 22775,13105 22493,13105 22493,13292 Z"/>
 <path fill="rgb(0,69,134)" stroke="none" d="M 21928,13292 L 22210,13292 22210,13084 21928,13084 21928,13292 Z"/>
 <path fill="rgb(0,69,134)" stroke="none" d="M 21363,13292 L 21645,13292 21645,13077 21363,13077 21363,13292 Z"/>
 <path fill="rgb(0,69,134)" stroke="none" d="M 20798,13292 L 21081,13292 21081,13037 20798,13037 20798,13292 Z"/>
 <path fill="rgb(0,69,134)" stroke="none" d="M 20234,13292 L 20516,13292 20516,13033 20234,13033 20234,13292 Z"/>
 <path fill="rgb(0,69,134)" stroke="none" d="M 19669,13292 L 19951,13292 19951,12993 19669,12993 19669,13292 Z"/>
 <path fill="rgb(0,69,134)" stroke="none" d="M 19104,13292 L 19386,13292 19386,12991 19104,12991 19104,13292 Z"/>
 <path fill="rgb(0,69,134)" stroke="none" d="M 18539,13292 L 18822,13292 18822,12970 18539,12970 18539,13292 Z"/>
 <path fill="rgb(0,69,134)" stroke="none" d="M 17974,13292 L 18257,13292 18257,12904 17974,12904 17974,13292 Z"/>
 <path fill="rgb(0,69,134)" stroke="none" d="M 17410,13292 L 17692,13292 17692,12868 17410,12868 17410,13292 Z"/>
 <path fill="rgb(255,0,0)" stroke="none" d="M 16845,13292 L 17127,13292 17127,12848 16845,12848 16845,13292 Z"/>
 <path fill="rgb(0,69,134)" stroke="none" d="M 16280,13292 L 16562,13292 16562,12810 16280,12810 16280,13292 Z"/>
 <path fill="rgb(0,69,134)" stroke="none" d="M 15715,13292 L 15998,13292 15998,12751 15715,12751 15715,13292 Z"/>
 <path fill="rgb(0,69,134)" stroke="none" d="M 15151,13292 L 15433,13292 15433,12714 15151,12714 15151,13292 Z"/>
 <path fill="rgb(0,69,134)" stroke="none" d="M 14587,13292 L 14869,13292 14869,12657 14587,12657 14587,13292 Z"/>
 <path fill="rgb(0,69,134)" stroke="none" d="M 14022,13292 L 14304,13292 14304,12637 14022,12637 14022,13292 Z"/>
 <path fill="rgb(0,69,134)" stroke="none" d="M 13457,13292 L 13740,13292 13740,12613 13457,12613 13457,13292 Z"/>
 <path fill="rgb(0,69,134)" stroke="none" d="M 12892,13292 L 13175,13292 13175,12575 12892,12575 12892,13292 Z"/>
 <path fill="rgb(0,69,134)" stroke="none" d="M 12328,13292 L 12610,13292 12610,12567 12328,12567 12328,13292 Z"/>
 <path fill="rgb(0,69,134)" stroke="none" d="M 11763,13292 L 12045,13292 12045,12533 11763,12533 11763,13292 Z"/>
 <path fill="rgb(0,69,134)" stroke="none" d="M 11198,13292 L 11480,13292 11480,12425 11198,12425 11198,13292 Z"/>
 <path fill="rgb(0,69,134)" stroke="none" d="M 10633,13292 L 10916,13292 10916,12316 10633,12316 10633,13292 Z"/>
 <path fill="rgb(0,69,134)" stroke="none" d="M 10069,13292 L 10351,13292 10351,12277 10069,12277 10069,13292 Z"/>
 <path fill="rgb(0,69,134)" stroke="none" d="M 9504,13292 L 9786,13292 9786,12044 9504,12044 9504,13292 Z"/>
 <path fill="rgb(0,69,134)" stroke="none" d="M 8939,13292 L 9221,13292 9221,11977 8939,11977 8939,13292 Z"/>
 <path fill="rgb(0,69,134)" stroke="none" d="M 8374,13292 L 8657,13292 8657,11869 8374,11869 8374,13292 Z"/>
 <path fill="rgb(0,69,134)" stroke="none" d="M 7809,13292 L 8092,13292 8092,10080 7809,10080 7809,13292 Z"/>
 <path fill="rgb(0,69,134)" stroke="none" d="M 7245,13292 L 7527,13292 7527,10001 7245,10001 7245,13292 Z"/>
 <path fill="rgb(0,69,134)" stroke="none" d="M 6680,13292 L 6962,13292 6962,9896 6680,9896 6680,13292 Z"/>
 <path fill="rgb(0,69,134)" stroke="none" d="M 6115,13292 L 6398,13292 6398,9176 6115,9176 6115,13292 Z"/>
 <path fill="rgb(0,69,134)" stroke="none" d="M 5550,13292 L 5833,13292 5833,8977 5550,8977 5550,13292 Z"/>
 <path fill="rgb(0,69,134)" stroke="none" d="M 4986,13292 L 5268,13292 5268,8693 4986,8693 4986,13292 Z"/>
 <path fill="rgb(0,69,134)" stroke="none" d="M 4421,13292 L 4703,13292 4703,8351 4421,8351 4421,13292 Z"/>
 <path fill="rgb(0,69,134)" stroke="none" d="M 3856,13292 L 4138,13292 4138,7133 3856,7133 3856,13292 Z"/>
 <path fill="rgb(0,69,134)" stroke="none" d="M 3291,13292 L 3574,13292 3574,7047 3291,7047 3291,13292 Z"/>
 <path fill="rgb(0,69,134)" stroke="none" d="M 2726,13292 L 3009,13292 3009,5964 2726,5964 2726,13292 Z"/>
 <path fill="rgb(0,69,134)" stroke="none" d="M 2162,13292 L 2444,13292 2444,3051 2162,3051 2162,13292 Z"/>
 <text class="TextShape" transform="rotate(-44.9 1506 14647)"><tspan class="TextParagraph" font-family="Arial, sans-serif" font-size="353px" font-weight="400"><tspan class="TextPosition" x="1506" y="14647"><tspan fill="rgb(0,0,0)" stroke="none">Belgium</tspan></tspan></tspan></text>
 <text class="TextShape" transform="rotate(-44.9 2333 14385)"><tspan class="TextParagraph" font-family="Arial, sans-serif" font-size="353px" font-weight="400"><tspan class="TextPosition" x="2333" y="14385"><tspan fill="rgb(0,0,0)" stroke="none">Spain</tspan></tspan></tspan></text>
 <text class="TextShape" transform="rotate(-44.9 3179 14103)"><tspan class="TextParagraph" font-family="Arial, sans-serif" font-size="353px" font-weight="400"><tspan class="TextPosition" x="3179" y="14103"><tspan fill="rgb(0,0,0)" stroke="none">UK</tspan></tspan></tspan></text>
 <text class="TextShape" transform="rotate(-44.9 3350 14497)"><tspan class="TextParagraph" font-family="Arial, sans-serif" font-size="353px" font-weight="400"><tspan class="TextPosition" x="3350" y="14497"><tspan fill="rgb(0,0,0)" stroke="none">Ireland</tspan></tspan></tspan></text>
 <text class="TextShape" transform="rotate(-44.9 4177 14235)"><tspan class="TextParagraph" font-family="Arial, sans-serif" font-size="353px" font-weight="400"><tspan class="TextPosition" x="4177" y="14235"><tspan fill="rgb(0,0,0)" stroke="none">Italy</tspan></tspan></tspan></text>
 <text class="TextShape" transform="rotate(-44.9 4349 14628)"><tspan class="TextParagraph" font-family="Arial, sans-serif" font-size="353px" font-weight="400"><tspan class="TextPosition" x="4349" y="14628"><tspan fill="rgb(0,0,0)" stroke="none">Sweden</tspan></tspan></tspan></text>
 <text class="TextShape" transform="rotate(-44.9 4483 15059)"><tspan class="TextParagraph" font-family="Arial, sans-serif" font-size="353px" font-weight="400"><tspan class="TextPosition" x="4483" y="15059"><tspan fill="rgb(0,0,0)" stroke="none">Netherlands</tspan></tspan></tspan></text>
 <text class="TextShape" transform="rotate(-44.9 5591 14515)"><tspan class="TextParagraph" font-family="Arial, sans-serif" font-size="353px" font-weight="400"><tspan class="TextPosition" x="5591" y="14515"><tspan fill="rgb(0,0,0)" stroke="none">France</tspan></tspan></tspan></text>
 <text class="TextShape" transform="rotate(-44.9 5575 15097)"><tspan class="TextParagraph" font-family="Arial, sans-serif" font-size="353px" font-weight="400"><tspan class="TextPosition" x="5575" y="15097"><tspan fill="rgb(0,0,0)" stroke="none">Luxembourg</tspan></tspan></tspan></text>
 <text class="TextShape" transform="rotate(-44.9 6215 15021)"><tspan class="TextParagraph" font-family="Arial, sans-serif" font-size="353px" font-weight="400"><tspan class="TextPosition" x="6215" y="15021"><tspan fill="rgb(0,0,0)" stroke="none">Switzerland</tspan></tspan></tspan></text>
 <text class="TextShape" transform="rotate(-44.9 7530 14272)"><tspan class="TextParagraph" font-family="Arial, sans-serif" font-size="353px" font-weight="400"><tspan class="TextPosition" x="7530" y="14272"><tspan fill="rgb(0,0,0)" stroke="none">USA</tspan></tspan></tspan></text>
 <text class="TextShape" transform="rotate(-44.9 7700 14665)"><tspan class="TextParagraph" font-family="Arial, sans-serif" font-size="353px" font-weight="400"><tspan class="TextPosition" x="7700" y="14665"><tspan fill="rgb(0,0,0)" stroke="none">Portugal</tspan></tspan></tspan></text>
 <text class="TextShape" transform="rotate(-44.9 8191 14740)"><tspan class="TextParagraph" font-family="Arial, sans-serif" font-size="353px" font-weight="400"><tspan class="TextPosition" x="8191" y="14740"><tspan fill="rgb(0,0,0)" stroke="none">Denmark</tspan></tspan></tspan></text>
 <text class="TextShape" transform="rotate(-44.9 8980 14515)"><tspan class="TextParagraph" font-family="Arial, sans-serif" font-size="353px" font-weight="400"><tspan class="TextPosition" x="8980" y="14515"><tspan fill="rgb(0,0,0)" stroke="none">Turkey</tspan></tspan></tspan></text>
 <text class="TextShape" transform="rotate(-44.9 9301 14759)"><tspan class="TextParagraph" font-family="Arial, sans-serif" font-size="353px" font-weight="400"><tspan class="TextPosition" x="9301" y="14759"><tspan fill="rgb(0,0,0)" stroke="none">Germany</tspan></tspan></tspan></text>
 <text class="TextShape" transform="rotate(-44.9 10090 14535)"><tspan class="TextParagraph" font-family="Arial, sans-serif" font-size="353px" font-weight="400"><tspan class="TextPosition" x="10090" y="14535"><tspan fill="rgb(0,0,0)" stroke="none">Austria</tspan></tspan></tspan></text>
 <text class="TextShape" transform="rotate(-44.9 10823 14367)"><tspan class="TextParagraph" font-family="Arial, sans-serif" font-size="353px" font-weight="400"><tspan class="TextPosition" x="10823" y="14367"><tspan fill="rgb(0,0,0)" stroke="none">Israel</tspan></tspan></tspan></text>
 <text class="TextShape" transform="rotate(-44.9 11201 14553)"><tspan class="TextParagraph" font-family="Arial, sans-serif" font-size="353px" font-weight="400"><tspan class="TextPosition" x="11201" y="14553"><tspan fill="rgb(0,0,0)" stroke="none">Finland</tspan></tspan></tspan></text>
 <text class="TextShape" transform="rotate(-44.9 11748 14572)"><tspan class="TextParagraph" font-family="Arial, sans-serif" font-size="353px" font-weight="400"><tspan class="TextPosition" x="11748" y="14572"><tspan fill="rgb(0,0,0)" stroke="none">Norway</tspan></tspan></tspan></text>
 <text class="TextShape" transform="rotate(-44.9 11283 15601)"><tspan class="TextParagraph" font-family="Arial, sans-serif" font-size="353px" font-weight="400"><tspan class="TextPosition" x="11283" y="15601"><tspan fill="rgb(0,0,0)" stroke="none">North Macedonia</tspan></tspan></tspan></text>
 <text class="TextShape" transform="rotate(-44.9 12745 14703)"><tspan class="TextParagraph" font-family="Arial, sans-serif" font-size="353px" font-weight="400"><tspan class="TextPosition" x="12745" y="14703"><tspan fill="rgb(0,0,0)" stroke="none">Slovenia</tspan></tspan></tspan></text>
 <text class="TextShape" transform="rotate(-44.9 13460 14553)"><tspan class="TextParagraph" font-family="Arial, sans-serif" font-size="353px" font-weight="400"><tspan class="TextPosition" x="13460" y="14553"><tspan fill="rgb(0,0,0)" stroke="none">Iceland</tspan></tspan></tspan></text>
 <text class="TextShape" transform="rotate(-44.9 13988 14591)"><tspan class="TextParagraph" font-family="Arial, sans-serif" font-size="353px" font-weight="400"><tspan class="TextPosition" x="13988" y="14591"><tspan fill="rgb(0,0,0)" stroke="none">Estonia</tspan></tspan></tspan></text>
 <text class="TextShape" transform="rotate(-44.9 14422 14721)"><tspan class="TextParagraph" font-family="Arial, sans-serif" font-size="353px" font-weight="400"><tspan class="TextPosition" x="14422" y="14721"><tspan fill="rgb(0,0,0)" stroke="none">Romania</tspan></tspan></tspan></text>
 <text class="TextShape" transform="rotate(-44.9 15024 14683)"><tspan class="TextParagraph" font-family="Arial, sans-serif" font-size="353px" font-weight="400"><tspan class="TextPosition" x="15024" y="14683"><tspan fill="rgb(0,0,0)" stroke="none">Moldova</tspan></tspan></tspan></text>
 <text class="TextShape" transform="rotate(-44.9 13867 16405)"><tspan class="TextParagraph" font-family="Arial, sans-serif" font-size="353px" font-weight="400"><tspan class="TextPosition" x="13867" y="16405"><tspan fill="rgb(0,0,0)" stroke="none">Bosnia and Herzegovina</tspan></tspan></tspan></text>
 <text class="TextShape" transform="rotate(-44.9 16172 14665)"><tspan class="TextParagraph" font-family="Arial, sans-serif" font-size="353px" font-weight="400"><tspan class="TextPosition" x="16172" y="14665"><tspan fill="rgb(0,0,0)" stroke="none">Hungary</tspan></tspan></tspan></text>
 <text class="TextShape" transform="rotate(-44.9 16867 14535)"><tspan class="TextParagraph" font-family="Arial, sans-serif" font-size="353px" font-weight="400"><tspan class="TextPosition" x="16867" y="14535"><tspan fill="rgb(0,0,0)" stroke="none">Cyprus</tspan></tspan></tspan></text>
 <text class="TextShape" transform="rotate(-44.9 17320 14647)"><tspan class="TextParagraph" font-family="Arial, sans-serif" font-size="353px" font-weight="400"><tspan class="TextPosition" x="17320" y="14647"><tspan fill="rgb(0,0,0)" stroke="none">Czechia</tspan></tspan></tspan></text>
 <text class="TextShape" transform="rotate(-44.9 18072 14459)"><tspan class="TextParagraph" font-family="Arial, sans-serif" font-size="353px" font-weight="400"><tspan class="TextPosition" x="18072" y="14459"><tspan fill="rgb(0,0,0)" stroke="none">Serbia</tspan></tspan></tspan></text>
 <text class="TextShape" transform="rotate(-44.9 18730 14367)"><tspan class="TextParagraph" font-family="Arial, sans-serif" font-size="353px" font-weight="400"><tspan class="TextPosition" x="18730" y="14367"><tspan fill="rgb(0,0,0)" stroke="none">Malta</tspan></tspan></tspan></text>
 <text class="TextShape" transform="rotate(-44.9 18996 14665)"><tspan class="TextParagraph" font-family="Arial, sans-serif" font-size="353px" font-weight="400"><tspan class="TextPosition" x="18996" y="14665"><tspan fill="rgb(0,0,0)" stroke="none">Armenia</tspan></tspan></tspan></text>
 <text class="TextShape" transform="rotate(-44.9 19711 14515)"><tspan class="TextParagraph" font-family="Arial, sans-serif" font-size="353px" font-weight="400"><tspan class="TextPosition" x="19711" y="14515"><tspan fill="rgb(0,0,0)" stroke="none">Poland</tspan></tspan></tspan></text>
 <text class="TextShape" transform="rotate(-44.9 20255 14535)"><tspan class="TextParagraph" font-family="Arial, sans-serif" font-size="353px" font-weight="400"><tspan class="TextPosition" x="20255" y="14535"><tspan fill="rgb(0,0,0)" stroke="none">Croatia</tspan></tspan></tspan></text>
 <text class="TextShape" transform="rotate(-44.9 20316 15039)"><tspan class="TextParagraph" font-family="Arial, sans-serif" font-size="353px" font-weight="400"><tspan class="TextPosition" x="20316" y="15039"><tspan fill="rgb(0,0,0)" stroke="none">Montenegro</tspan></tspan></tspan></text>
 <text class="TextShape" transform="rotate(-44.9 21330 14591)"><tspan class="TextParagraph" font-family="Arial, sans-serif" font-size="353px" font-weight="400"><tspan class="TextPosition" x="21330" y="14591"><tspan fill="rgb(0,0,0)" stroke="none">Belarus</tspan></tspan></tspan></text>
 <text class="TextShape" transform="rotate(-44.9 21745 14740)"><tspan class="TextParagraph" font-family="Arial, sans-serif" font-size="353px" font-weight="400"><tspan class="TextPosition" x="21745" y="14740"><tspan fill="rgb(0,0,0)" stroke="none">Lithuania</tspan></tspan></tspan></text>
 <text class="TextShape" transform="rotate(-44.9 22478 14572)"><tspan class="TextParagraph" font-family="Arial, sans-serif" font-size="353px" font-weight="400"><tspan class="TextPosition" x="22478" y="14572"><tspan fill="rgb(0,0,0)" stroke="none">Albania</tspan></tspan></tspan></text>
 <text class="TextShape" transform="rotate(-44.9 23060 14553)"><tspan class="TextParagraph" font-family="Arial, sans-serif" font-size="353px" font-weight="400"><tspan class="TextPosition" x="23060" y="14553"><tspan fill="rgb(0,0,0)" stroke="none">Greece</tspan></tspan></tspan></text>
 <text class="TextShape" transform="rotate(-44.9 23663 14515)"><tspan class="TextParagraph" font-family="Arial, sans-serif" font-size="353px" font-weight="400"><tspan class="TextPosition" x="23663" y="14515"><tspan fill="rgb(0,0,0)" stroke="none">Russia</tspan></tspan></tspan></text>
 <text class="TextShape" transform="rotate(-44.9 24322 14422)"><tspan class="TextParagraph" font-family="Arial, sans-serif" font-size="353px" font-weight="400"><tspan class="TextPosition" x="24322" y="14422"><tspan fill="rgb(0,0,0)" stroke="none">Latvia</tspan></tspan></tspan></text>
 <text class="TextShape" transform="rotate(-44.9 24661 14647)"><tspan class="TextParagraph" font-family="Arial, sans-serif" font-size="353px" font-weight="400"><tspan class="TextPosition" x="24661" y="14647"><tspan fill="rgb(0,0,0)" stroke="none">Bulgaria</tspan></tspan></tspan></text>
 <text class="TextShape" transform="rotate(-44.9 25282 14591)"><tspan class="TextParagraph" font-family="Arial, sans-serif" font-size="353px" font-weight="400"><tspan class="TextPosition" x="25282" y="14591"><tspan fill="rgb(0,0,0)" stroke="none">Ukraine</tspan></tspan></tspan></text>
 <text class="TextShape" transform="rotate(-44.9 25734 14703)"><tspan class="TextParagraph" font-family="Arial, sans-serif" font-size="353px" font-weight="400"><tspan class="TextPosition" x="25734" y="14703"><tspan fill="rgb(0,0,0)" stroke="none">Slovakia</tspan></tspan></tspan></text>
 <text class="TextShape" transform="rotate(-44.9 26281 14721)"><tspan class="TextParagraph" font-family="Arial, sans-serif" font-size="353px" font-weight="400"><tspan class="TextPosition" x="26281" y="14721"><tspan fill="rgb(0,0,0)" stroke="none">S. Korea</tspan></tspan></tspan></text>
 <text class="TextShape" transform="rotate(-44.9 26658 14909)"><tspan class="TextParagraph" font-family="Arial, sans-serif" font-size="353px" font-weight="400"><tspan class="TextPosition" x="26658" y="14909"><tspan fill="rgb(0,0,0)" stroke="none">Azerbaijan</tspan></tspan></tspan></text>
 <text class="TextShape" transform="rotate(-44.9 27523 14609)"><tspan class="TextParagraph" font-family="Arial, sans-serif" font-size="353px" font-weight="400"><tspan class="TextPosition" x="27523" y="14609"><tspan fill="rgb(0,0,0)" stroke="none">Georgia</tspan></tspan></tspan></text>
 <text class="TextShape" transform="rotate(-44.9 28275 14422)"><tspan class="TextParagraph" font-family="Arial, sans-serif" font-size="353px" font-weight="400"><tspan class="TextPosition" x="28275" y="14422"><tspan fill="rgb(0,0,0)" stroke="none">Japan</tspan></tspan></tspan></text>
 <text class="TextShape" transform="rotate(-44.9 28876 14385)"><tspan class="TextParagraph" font-family="Arial, sans-serif" font-size="353px" font-weight="400"><tspan class="TextPosition" x="28876" y="14385"><tspan fill="rgb(0,0,0)" stroke="none">China</tspan></tspan></tspan></text>
 <text class="TextShape"><tspan class="TextParagraph" font-family="Arial, sans-serif" font-size="353px" font-weight="400"><tspan class="TextPosition" x="792" y="13413"><tspan fill="rgb(0,0,0)" stroke="none">0,00%</tspan></tspan></tspan></text>
 <text class="TextShape"><tspan class="TextParagraph" font-family="Arial, sans-serif" font-size="353px" font-weight="400"><tspan class="TextPosition" x="792" y="12200"><tspan fill="rgb(0,0,0)" stroke="none">5,00%</tspan></tspan></tspan></text>
 <text class="TextShape"><tspan class="TextParagraph" font-family="Arial, sans-serif" font-size="353px" font-weight="400"><tspan class="TextPosition" x="607" y="10987"><tspan fill="rgb(0,0,0)" stroke="none">10,00%</tspan></tspan></tspan></text>
 <text class="TextShape"><tspan class="TextParagraph" font-family="Arial, sans-serif" font-size="353px" font-weight="400"><tspan class="TextPosition" x="607" y="9774"><tspan fill="rgb(0,0,0)" stroke="none">15,00%</tspan></tspan></tspan></text>
 <text class="TextShape"><tspan class="TextParagraph" font-family="Arial, sans-serif" font-size="353px" font-weight="400"><tspan class="TextPosition" x="607" y="8561"><tspan fill="rgb(0,0,0)" stroke="none">20,00%</tspan></tspan></tspan></text>
 <text class="TextShape"><tspan class="TextParagraph" font-family="Arial, sans-serif" font-size="353px" font-weight="400"><tspan class="TextPosition" x="607" y="7348"><tspan fill="rgb(0,0,0)" stroke="none">25,00%</tspan></tspan></tspan></text>
 <text class="TextShape"><tspan class="TextParagraph" font-family="Arial, sans-serif" font-size="353px" font-weight="400"><tspan class="TextPosition" x="607" y="6135"><tspan fill="rgb(0,0,0)" stroke="none">30,00%</tspan></tspan></tspan></text>
 <text class="TextShape"><tspan class="TextParagraph" font-family="Arial, sans-serif" font-size="353px" font-weight="400"><tspan class="TextPosition" x="607" y="4922"><tspan fill="rgb(0,0,0)" stroke="none">35,00%</tspan></tspan></tspan></text>
 <text class="TextShape"><tspan class="TextParagraph" font-family="Arial, sans-serif" font-size="353px" font-weight="400"><tspan class="TextPosition" x="607" y="3709"><tspan fill="rgb(0,0,0)" stroke="none">40,00%</tspan></tspan></tspan></text>
 <text class="TextShape"><tspan class="TextParagraph" font-family="Arial, sans-serif" font-size="353px" font-weight="400"><tspan class="TextPosition" x="607" y="2497"><tspan fill="rgb(0,0,0)" stroke="none">45,00%</tspan></tspan></tspan></text>
 <text class="TextShape"><tspan class="TextParagraph" font-family="Arial, sans-serif" font-size="459px" font-weight="400"><tspan class="TextPosition" x="4355" y="1011"><tspan fill="rgb(0,0,0)" stroke="none">Pandemic index based on number of deaths/ Járvány erősség index a halálesetek száma alapján 2020.05.11.</tspan></tspan></tspan></text>
 <path fill="rgb(0,69,134)" stroke="none" d="M 12691,1844 L 12586,1844 12586,1633 12797,1633 12797,1844 12691,1844 Z"/>
 <text class="TextShape"><tspan class="TextParagraph" font-family="Arial, sans-serif" font-size="353px" font-weight="400"><tspan class="TextPosition" x="12897" y="1858"><tspan fill="rgb(0,0,0)" stroke="none">Pandemic index/ Járvány index</tspan></tspan></tspan></text>
</svg>