<?xml version="1.0" encoding="UTF-8"?>
<!DOCTYPE svg PUBLIC "-//W3C//DTD SVG 1.1//EN" "http://www.w3.org/Graphics/SVG/1.1/DTD/svg11.dtd">
<svg width="350mm" height="130mm" viewBox="0 0 35000 13000" version="1.1" xmlns="http://www.w3.org/2000/svg" xmlns:xlink="http://www.w3.org/1999/xlink" stroke-width="28.222" stroke-linejoin="round" xml:space="preserve">
 <path fill="rgb(255,255,255)" stroke="none" d="M 17500,12999 L 0,12999 0,0 34999,0 34999,12999 17500,12999 Z"/>
 <path fill="none" stroke="rgb(179,179,179)" stroke-linejoin="round" d="M 18416,9375 L 2517,9375 2517,2217 34315,2217 34315,9375 18416,9375 Z"/>
 <path fill="none" stroke="rgb(179,179,179)" stroke-width="18" stroke-linejoin="round" d="M 34315,9374 L 2517,9374"/>
 <path fill="none" stroke="rgb(179,179,179)" stroke-width="18" stroke-linejoin="round" d="M 34315,8578 L 2517,8578"/>
 <path fill="none" stroke="rgb(179,179,179)" stroke-width="18" stroke-linejoin="round" d="M 34315,7783 L 2517,7783"/>
 <path fill="none" stroke="rgb(179,179,179)" stroke-width="18" stroke-linejoin="round" d="M 34315,6987 L 2517,6987"/>
 <path fill="none" stroke="rgb(179,179,179)" stroke-width="18" stroke-linejoin="round" d="M 34315,6193 L 2517,6193"/>
 <path fill="none" stroke="rgb(179,179,179)" stroke-width="18" stroke-linejoin="round" d="M 34315,5397 L 2517,5397"/>
 <path fill="none" stroke="rgb(179,179,179)" stroke-width="18" stroke-linejoin="round" d="M 34315,4602 L 2517,4602"/>
 <path fill="none" stroke="rgb(179,179,179)" stroke-width="18" stroke-linejoin="round" d="M 34315,3806 L 2517,3806"/>
 <path fill="none" stroke="rgb(179,179,179)" stroke-width="18" stroke-linejoin="round" d="M 34315,3011 L 2517,3011"/>
 <path fill="none" stroke="rgb(179,179,179)" stroke-width="18" stroke-linejoin="round" d="M 34315,2216 L 2517,2216"/>
 <path fill="none" stroke="rgb(179,179,179)" stroke-width="18" stroke-linejoin="round" d="M 2517,9524 L 2517,9374"/>
 <path fill="none" stroke="rgb(179,179,179)" stroke-width="18" stroke-linejoin="round" d="M 3152,9524 L 3152,9374"/>
 <path fill="none" stroke="rgb(179,179,179)" stroke-width="18" stroke-linejoin="round" d="M 3788,9524 L 3788,9374"/>
 <path fill="none" stroke="rgb(179,179,179)" stroke-width="18" stroke-linejoin="round" d="M 4424,9524 L 4424,9374"/>
 <path fill="none" stroke="rgb(179,179,179)" stroke-width="18" stroke-linejoin="round" d="M 5060,9524 L 5060,9374"/>
 <path fill="none" stroke="rgb(179,179,179)" stroke-width="18" stroke-linejoin="round" d="M 5696,9524 L 5696,9374"/>
 <path fill="none" stroke="rgb(179,179,179)" stroke-width="18" stroke-linejoin="round" d="M 6332,9524 L 6332,9374"/>
 <path fill="none" stroke="rgb(179,179,179)" stroke-width="18" stroke-linejoin="round" d="M 6968,9524 L 6968,9374"/>
 <path fill="none" stroke="rgb(179,179,179)" stroke-width="18" stroke-linejoin="round" d="M 7604,9524 L 7604,9374"/>
 <path fill="none" stroke="rgb(179,179,179)" stroke-width="18" stroke-linejoin="round" d="M 8240,9524 L 8240,9374"/>
 <path fill="none" stroke="rgb(179,179,179)" stroke-width="18" stroke-linejoin="round" d="M 8876,9524 L 8876,9374"/>
 <path fill="none" stroke="rgb(179,179,179)" stroke-width="18" stroke-linejoin="round" d="M 9512,9524 L 9512,9374"/>
 <path fill="none" stroke="rgb(179,179,179)" stroke-width="18" stroke-linejoin="round" d="M 10148,9524 L 10148,9374"/>
 <path fill="none" stroke="rgb(179,179,179)" stroke-width="18" stroke-linejoin="round" d="M 10784,9524 L 10784,9374"/>
 <path fill="none" stroke="rgb(179,179,179)" stroke-width="18" stroke-linejoin="round" d="M 11420,9524 L 11420,9374"/>
 <path fill="none" stroke="rgb(179,179,179)" stroke-width="18" stroke-linejoin="round" d="M 12056,9524 L 12056,9374"/>
 <path fill="none" stroke="rgb(179,179,179)" stroke-width="18" stroke-linejoin="round" d="M 12692,9524 L 12692,9374"/>
 <path fill="none" stroke="rgb(179,179,179)" stroke-width="18" stroke-linejoin="round" d="M 13328,9524 L 13328,9374"/>
 <path fill="none" stroke="rgb(179,179,179)" stroke-width="18" stroke-linejoin="round" d="M 13964,9524 L 13964,9374"/>
 <path fill="none" stroke="rgb(179,179,179)" stroke-width="18" stroke-linejoin="round" d="M 14600,9524 L 14600,9374"/>
 <path fill="none" stroke="rgb(179,179,179)" stroke-width="18" stroke-linejoin="round" d="M 15236,9524 L 15236,9374"/>
 <path fill="none" stroke="rgb(179,179,179)" stroke-width="18" stroke-linejoin="round" d="M 15872,9524 L 15872,9374"/>
 <path fill="none" stroke="rgb(179,179,179)" stroke-width="18" stroke-linejoin="round" d="M 16508,9524 L 16508,9374"/>
 <path fill="none" stroke="rgb(179,179,179)" stroke-width="18" stroke-linejoin="round" d="M 17144,9524 L 17144,9374"/>
 <path fill="none" stroke="rgb(179,179,179)" stroke-width="18" stroke-linejoin="round" d="M 17779,9524 L 17779,9374"/>
 <path fill="none" stroke="rgb(179,179,179)" stroke-width="18" stroke-linejoin="round" d="M 18415,9524 L 18415,9374"/>
 <path fill="none" stroke="rgb(179,179,179)" stroke-width="18" stroke-linejoin="round" d="M 19051,9524 L 19051,9374"/>
 <path fill="none" stroke="rgb(179,179,179)" stroke-width="18" stroke-linejoin="round" d="M 19687,9524 L 19687,9374"/>
 <path fill="none" stroke="rgb(179,179,179)" stroke-width="18" stroke-linejoin="round" d="M 20323,9524 L 20323,9374"/>
 <path fill="none" stroke="rgb(179,179,179)" stroke-width="18" stroke-linejoin="round" d="M 20959,9524 L 20959,9374"/>
 <path fill="none" stroke="rgb(179,179,179)" stroke-width="18" stroke-linejoin="round" d="M 21595,9524 L 21595,9374"/>
 <path fill="none" stroke="rgb(179,179,179)" stroke-width="18" stroke-linejoin="round" d="M 22231,9524 L 22231,9374"/>
 <path fill="none" stroke="rgb(179,179,179)" stroke-width="18" stroke-linejoin="round" d="M 22867,9524 L 22867,9374"/>
 <path fill="none" stroke="rgb(179,179,179)" stroke-width="18" stroke-linejoin="round" d="M 23503,9524 L 23503,9374"/>
 <path fill="none" stroke="rgb(179,179,179)" stroke-width="18" stroke-linejoin="round" d="M 24139,9524 L 24139,9374"/>
 <path fill="none" stroke="rgb(179,179,179)" stroke-width="18" stroke-linejoin="round" d="M 24775,9524 L 24775,9374"/>
 <path fill="none" stroke="rgb(179,179,179)" stroke-width="18" stroke-linejoin="round" d="M 25411,9524 L 25411,9374"/>
 <path fill="none" stroke="rgb(179,179,179)" stroke-width="18" stroke-linejoin="round" d="M 26047,9524 L 26047,9374"/>
 <path fill="none" stroke="rgb(179,179,179)" stroke-width="18" stroke-linejoin="round" d="M 26683,9524 L 26683,9374"/>
 <path fill="none" stroke="rgb(179,179,179)" stroke-width="18" stroke-linejoin="round" d="M 27319,9524 L 27319,9374"/>
 <path fill="none" stroke="rgb(179,179,179)" stroke-width="18" stroke-linejoin="round" d="M 27955,9524 L 27955,9374"/>
 <path fill="none" stroke="rgb(179,179,179)" stroke-width="18" stroke-linejoin="round" d="M 28591,9524 L 28591,9374"/>
 <path fill="none" stroke="rgb(179,179,179)" stroke-width="18" stroke-linejoin="round" d="M 29227,9524 L 29227,9374"/>
 <path fill="none" stroke="rgb(179,179,179)" stroke-width="18" stroke-linejoin="round" d="M 29863,9524 L 29863,9374"/>
 <path fill="none" stroke="rgb(179,179,179)" stroke-width="18" stroke-linejoin="round" d="M 30499,9524 L 30499,9374"/>
 <path fill="none" stroke="rgb(179,179,179)" stroke-width="18" stroke-linejoin="round" d="M 31135,9524 L 31135,9374"/>
 <path fill="none" stroke="rgb(179,179,179)" stroke-width="18" stroke-linejoin="round" d="M 31771,9524 L 31771,9374"/>
 <path fill="none" stroke="rgb(179,179,179)" stroke-width="18" stroke-linejoin="round" d="M 32407,9524 L 32407,9374"/>
 <path fill="none" stroke="rgb(179,179,179)" stroke-width="18" stroke-linejoin="round" d="M 33043,9524 L 33043,9374"/>
 <path fill="none" stroke="rgb(179,179,179)" stroke-width="18" stroke-linejoin="round" d="M 33679,9524 L 33679,9374"/>
 <path fill="none" stroke="rgb(179,179,179)" stroke-width="18" stroke-linejoin="round" d="M 34315,9524 L 34315,9374"/>
 <path fill="none" stroke="rgb(179,179,179)" stroke-width="18" stroke-linejoin="round" d="M 2517,9374 L 34315,9374"/>
 <path fill="none" stroke="rgb(179,179,179)" stroke-width="18" stroke-linejoin="round" d="M 2367,9374 L 2517,9374"/>
 <path fill="none" stroke="rgb(179,179,179)" stroke-width="18" stroke-linejoin="round" d="M 2367,8578 L 2517,8578"/>
 <path fill="none" stroke="rgb(179,179,179)" stroke-width="18" stroke-linejoin="round" d="M 2367,7783 L 2517,7783"/>
 <path fill="none" stroke="rgb(179,179,179)" stroke-width="18" stroke-linejoin="round" d="M 2367,6987 L 2517,6987"/>
 <path fill="none" stroke="rgb(179,179,179)" stroke-width="18" stroke-linejoin="round" d="M 2367,6193 L 2517,6193"/>
 <path fill="none" stroke="rgb(179,179,179)" stroke-width="18" stroke-linejoin="round" d="M 2367,5397 L 2517,5397"/>
 <path fill="none" stroke="rgb(179,179,179)" stroke-width="18" stroke-linejoin="round" d="M 2367,4602 L 2517,4602"/>
 <path fill="none" stroke="rgb(179,179,179)" stroke-width="18" stroke-linejoin="round" d="M 2367,3806 L 2517,3806"/>
 <path fill="none" stroke="rgb(179,179,179)" stroke-width="18" stroke-linejoin="round" d="M 2367,3011 L 2517,3011"/>
 <path fill="none" stroke="rgb(179,179,179)" stroke-width="18" stroke-linejoin="round" d="M 2367,2216 L 2517,2216"/>
 <path fill="none" stroke="rgb(179,179,179)" stroke-width="18" stroke-linejoin="round" d="M 2517,9374 L 2517,2216"/>
 <path fill="rgb(0,69,134)" stroke="none" d="M 33838,9374 L 34156,9374 34156,9167 33838,9167 33838,9374 Z"/>
 <path fill="rgb(0,69,134)" stroke="none" d="M 33202,9374 L 33520,9374 33520,9368 33202,9368 33202,9374 Z"/>
 <path fill="rgb(0,69,134)" stroke="none" d="M 32566,9374 L 32884,9374 32884,9239 32566,9239 32566,9374 Z"/>
 <path fill="rgb(0,69,134)" stroke="none" d="M 31930,9374 L 32248,9374 32248,9178 31930,9178 31930,9374 Z"/>
 <path fill="rgb(0,69,134)" stroke="none" d="M 31294,9374 L 31612,9374 31612,9154 31294,9154 31294,9374 Z"/>
 <path fill="rgb(0,69,134)" stroke="none" d="M 30658,9374 L 30976,9374 30976,9069 30658,9069 30658,9374 Z"/>
 <path fill="rgb(0,69,134)" stroke="none" d="M 30022,9374 L 30340,9374 30340,8898 30022,8898 30022,9374 Z"/>
 <path fill="rgb(0,69,134)" stroke="none" d="M 29386,9374 L 29704,9374 29704,8803 29386,8803 29386,9374 Z"/>
 <path fill="rgb(0,69,134)" stroke="none" d="M 28750,9374 L 29068,9374 29068,8496 28750,8496 28750,9374 Z"/>
 <path fill="rgb(0,69,134)" stroke="none" d="M 28114,9374 L 28432,9374 28432,8421 28114,8421 28114,9374 Z"/>
 <path fill="rgb(0,69,134)" stroke="none" d="M 27478,9374 L 27796,9374 27796,8358 27478,8358 27478,9374 Z"/>
 <path fill="rgb(0,69,134)" stroke="none" d="M 26842,9374 L 27160,9374 27160,8282 26842,8282 26842,9374 Z"/>
 <path fill="rgb(0,69,134)" stroke="none" d="M 26206,9374 L 26524,9374 26524,8032 26206,8032 26206,9374 Z"/>
 <path fill="rgb(0,69,134)" stroke="none" d="M 25570,9374 L 25888,9374 25888,8000 25570,8000 25570,9374 Z"/>
 <path fill="rgb(0,69,134)" stroke="none" d="M 24934,9374 L 25252,9374 25252,7754 24934,7754 24934,9374 Z"/>
 <path fill="rgb(0,69,134)" stroke="none" d="M 24298,9374 L 24616,9374 24616,7742 24298,7742 24298,9374 Z"/>
 <path fill="rgb(0,69,134)" stroke="none" d="M 23662,9374 L 23980,9374 23980,7672 23662,7672 23662,9374 Z"/>
 <path fill="rgb(0,69,134)" stroke="none" d="M 23026,9374 L 23344,9374 23344,7553 23026,7553 23026,9374 Z"/>
 <path fill="rgb(0,69,134)" stroke="none" d="M 22390,9374 L 22708,9374 22708,7549 22390,7549 22390,9374 Z"/>
 <path fill="rgb(0,69,134)" stroke="none" d="M 21754,9374 L 22072,9374 22072,7496 21754,7496 21754,9374 Z"/>
 <path fill="rgb(0,69,134)" stroke="none" d="M 21118,9374 L 21436,9374 21436,7472 21118,7472 21118,9374 Z"/>
 <path fill="rgb(0,69,134)" stroke="none" d="M 20482,9374 L 20800,9374 20800,7296 20482,7296 20482,9374 Z"/>
 <path fill="rgb(0,69,134)" stroke="none" d="M 19846,9374 L 20164,9374 20164,7265 19846,7265 19846,9374 Z"/>
 <path fill="rgb(0,69,134)" stroke="none" d="M 19210,9374 L 19528,9374 19528,7174 19210,7174 19210,9374 Z"/>
 <path fill="rgb(0,69,134)" stroke="none" d="M 18574,9374 L 18892,9374 18892,7003 18574,7003 18574,9374 Z"/>
 <path fill="rgb(0,69,134)" stroke="none" d="M 17938,9374 L 18256,9374 18256,6976 17938,6976 17938,9374 Z"/>
 <path fill="rgb(0,69,134)" stroke="none" d="M 17303,9374 L 17620,9374 17620,6680 17303,6680 17303,9374 Z"/>
 <path fill="rgb(0,69,134)" stroke="none" d="M 16667,9374 L 16985,9374 16985,6645 16667,6645 16667,9374 Z"/>
 <path fill="rgb(0,69,134)" stroke="none" d="M 16031,9374 L 16349,9374 16349,6626 16031,6626 16031,9374 Z"/>
 <path fill="rgb(0,69,134)" stroke="none" d="M 15395,9374 L 15713,9374 15713,6168 15395,6168 15395,9374 Z"/>
 <path fill="rgb(0,69,134)" stroke="none" d="M 14759,9374 L 15077,9374 15077,5893 14759,5893 14759,9374 Z"/>
 <path fill="rgb(0,69,134)" stroke="none" d="M 14123,9374 L 14441,9374 14441,5871 14123,5871 14123,9374 Z"/>
 <path fill="rgb(0,69,134)" stroke="none" d="M 13487,9374 L 13805,9374 13805,5855 13487,5855 13487,9374 Z"/>
 <path fill="rgb(255,0,0)" stroke="none" d="M 12851,9374 L 13169,9374 13169,5602 12851,5602 12851,9374 Z"/>
 <path fill="rgb(0,69,134)" stroke="none" d="M 12215,9374 L 12533,9374 12533,5576 12215,5576 12215,9374 Z"/>
 <path fill="rgb(0,69,134)" stroke="none" d="M 11579,9374 L 11897,9374 11897,5510 11579,5510 11579,9374 Z"/>
 <path fill="rgb(0,69,134)" stroke="none" d="M 10943,9374 L 11261,9374 11261,5433 10943,5433 10943,9374 Z"/>
 <path fill="rgb(0,69,134)" stroke="none" d="M 10307,9374 L 10625,9374 10625,4729 10307,4729 10307,9374 Z"/>
 <path fill="rgb(0,69,134)" stroke="none" d="M 9671,9374 L 9989,9374 9989,4652 9671,4652 9671,9374 Z"/>
 <path fill="rgb(0,69,134)" stroke="none" d="M 9035,9374 L 9353,9374 9353,4375 9035,4375 9035,9374 Z"/>
 <path fill="rgb(0,69,134)" stroke="none" d="M 8399,9374 L 8717,9374 8717,4320 8399,4320 8399,9374 Z"/>
 <path fill="rgb(0,69,134)" stroke="none" d="M 7763,9374 L 8081,9374 8081,3911 7763,3911 7763,9374 Z"/>
 <path fill="rgb(0,69,134)" stroke="none" d="M 7127,9374 L 7445,9374 7445,3646 7127,3646 7127,9374 Z"/>
 <path fill="rgb(0,69,134)" stroke="none" d="M 6491,9374 L 6809,9374 6809,3575 6491,3575 6491,9374 Z"/>
 <path fill="rgb(0,69,134)" stroke="none" d="M 5855,9374 L 6173,9374 6173,3040 5855,3040 5855,9374 Z"/>
 <path fill="rgb(0,69,134)" stroke="none" d="M 5219,9374 L 5537,9374 5537,3028 5219,3028 5219,9374 Z"/>
 <path fill="rgb(0,69,134)" stroke="none" d="M 4583,9374 L 4901,9374 4901,2945 4583,2945 4583,9374 Z"/>
 <path fill="rgb(0,69,134)" stroke="none" d="M 3947,9374 L 4265,9374 4265,2816 3947,2816 3947,9374 Z"/>
 <path fill="rgb(0,69,134)" stroke="none" d="M 3311,9374 L 3629,9374 3629,2645 3311,2645 3311,9374 Z"/>
 <path fill="rgb(0,69,134)" stroke="none" d="M 2675,9374 L 2993,9374 2993,2518 2675,2518 2675,9374 Z"/>
 <path fill="none" stroke="rgb(0,69,134)" stroke-linejoin="round" d="M 2517,6470 L 34315,6470"/>
 <text class="TextShape" transform="rotate(-44.9 279 12487)"><tspan class="TextParagraph" font-family="Arial, sans-serif" font-size="353px" font-weight="400"><tspan class="TextPosition" x="279" y="12487"><tspan fill="rgb(0,0,0)" stroke="none">Bosnia and Herzegovina</tspan></tspan></tspan></text>
 <text class="TextShape" transform="rotate(-44.9 1719 11683)"><tspan class="TextParagraph" font-family="Arial, sans-serif" font-size="353px" font-weight="400"><tspan class="TextPosition" x="1719" y="11683"><tspan fill="rgb(0,0,0)" stroke="none">North Macedonia</tspan></tspan></tspan></text>
 <text class="TextShape" transform="rotate(-44.9 3385 10654)"><tspan class="TextParagraph" font-family="Arial, sans-serif" font-size="353px" font-weight="400"><tspan class="TextPosition" x="3385" y="10654"><tspan fill="rgb(0,0,0)" stroke="none">Albania</tspan></tspan></tspan></text>
 <text class="TextShape" transform="rotate(-44.9 4002 10673)"><tspan class="TextParagraph" font-family="Arial, sans-serif" font-size="353px" font-weight="400"><tspan class="TextPosition" x="4002" y="10673"><tspan fill="rgb(0,0,0)" stroke="none">Belarus</tspan></tspan></tspan></text>
 <text class="TextShape" transform="rotate(-44.9 4563 10747)"><tspan class="TextParagraph" font-family="Arial, sans-serif" font-size="353px" font-weight="400"><tspan class="TextPosition" x="4563" y="10747"><tspan fill="rgb(0,0,0)" stroke="none">Armenia</tspan></tspan></tspan></text>
 <text class="TextShape" transform="rotate(-44.9 5217 10729)"><tspan class="TextParagraph" font-family="Arial, sans-serif" font-size="353px" font-weight="400"><tspan class="TextPosition" x="5217" y="10729"><tspan fill="rgb(0,0,0)" stroke="none">Bulgaria</tspan></tspan></tspan></text>
 <text class="TextShape" transform="rotate(-44.9 5797 10785)"><tspan class="TextParagraph" font-family="Arial, sans-serif" font-size="353px" font-weight="400"><tspan class="TextPosition" x="5797" y="10785"><tspan fill="rgb(0,0,0)" stroke="none">Slovakia</tspan></tspan></tspan></text>
 <text class="TextShape" transform="rotate(-44.9 6489 10729)"><tspan class="TextParagraph" font-family="Arial, sans-serif" font-size="353px" font-weight="400"><tspan class="TextPosition" x="6489" y="10729"><tspan fill="rgb(0,0,0)" stroke="none">Czechia</tspan></tspan></tspan></text>
 <text class="TextShape" transform="rotate(-44.9 7257 10597)"><tspan class="TextParagraph" font-family="Arial, sans-serif" font-size="353px" font-weight="400"><tspan class="TextPosition" x="7257" y="10597"><tspan fill="rgb(0,0,0)" stroke="none">Poland</tspan></tspan></tspan></text>
 <text class="TextShape" transform="rotate(-44.9 7893 10597)"><tspan class="TextParagraph" font-family="Arial, sans-serif" font-size="353px" font-weight="400"><tspan class="TextPosition" x="7893" y="10597"><tspan fill="rgb(0,0,0)" stroke="none">Russia</tspan></tspan></tspan></text>
 <text class="TextShape" transform="rotate(-44.9 8135 10991)"><tspan class="TextParagraph" font-family="Arial, sans-serif" font-size="353px" font-weight="400"><tspan class="TextPosition" x="8135" y="10991"><tspan fill="rgb(0,0,0)" stroke="none">Azerbaijan</tspan></tspan></tspan></text>
 <text class="TextShape" transform="rotate(-44.9 8641 11121)"><tspan class="TextParagraph" font-family="Arial, sans-serif" font-size="353px" font-weight="400"><tspan class="TextPosition" x="8641" y="11121"><tspan fill="rgb(0,0,0)" stroke="none">Montenegro</tspan></tspan></tspan></text>
 <text class="TextShape" transform="rotate(-44.9 9595 10803)"><tspan class="TextParagraph" font-family="Arial, sans-serif" font-size="353px" font-weight="400"><tspan class="TextPosition" x="9595" y="10803"><tspan fill="rgb(0,0,0)" stroke="none">Romania</tspan></tspan></tspan></text>
 <text class="TextShape" transform="rotate(-44.9 10493 10541)"><tspan class="TextParagraph" font-family="Arial, sans-serif" font-size="353px" font-weight="400"><tspan class="TextPosition" x="10493" y="10541"><tspan fill="rgb(0,0,0)" stroke="none">Serbia</tspan></tspan></tspan></text>
 <text class="TextShape" transform="rotate(-44.9 11353 10317)"><tspan class="TextParagraph" font-family="Arial, sans-serif" font-size="353px" font-weight="400"><tspan class="TextPosition" x="11353" y="10317"><tspan fill="rgb(0,0,0)" stroke="none">Italy</tspan></tspan></tspan></text>
 <text class="TextShape" transform="rotate(-44.9 11953 10354)"><tspan class="TextParagraph" font-family="Arial, sans-serif" font-size="353px" font-weight="400"><tspan class="TextPosition" x="11953" y="10354"><tspan fill="rgb(0,0,0)" stroke="none">USA</tspan></tspan></tspan></text>
 <text class="TextShape" transform="rotate(-44.9 12195 10747)"><tspan class="TextParagraph" font-family="Arial, sans-serif" font-size="353px" font-weight="400"><tspan class="TextPosition" x="12195" y="10747"><tspan fill="rgb(0,0,0)" stroke="none">Hungary</tspan></tspan></tspan></text>
 <text class="TextShape" transform="rotate(-44.9 12757 10822)"><tspan class="TextParagraph" font-family="Arial, sans-serif" font-size="353px" font-weight="400"><tspan class="TextPosition" x="12757" y="10822"><tspan fill="rgb(0,0,0)" stroke="none">Lithuania</tspan></tspan></tspan></text>
 <text class="TextShape" transform="rotate(-44.9 13429 10785)"><tspan class="TextParagraph" font-family="Arial, sans-serif" font-size="353px" font-weight="400"><tspan class="TextPosition" x="13429" y="10785"><tspan fill="rgb(0,0,0)" stroke="none">Slovenia</tspan></tspan></tspan></text>
 <text class="TextShape" transform="rotate(-44.9 14103 10747)"><tspan class="TextParagraph" font-family="Arial, sans-serif" font-size="353px" font-weight="400"><tspan class="TextPosition" x="14103" y="10747"><tspan fill="rgb(0,0,0)" stroke="none">Portugal</tspan></tspan></tspan></text>
 <text class="TextShape" transform="rotate(-44.9 15019 10467)"><tspan class="TextParagraph" font-family="Arial, sans-serif" font-size="353px" font-weight="400"><tspan class="TextPosition" x="15019" y="10467"><tspan fill="rgb(0,0,0)" stroke="none">Spain</tspan></tspan></tspan></text>
 <text class="TextShape" transform="rotate(-44.9 15937 10185)"><tspan class="TextParagraph" font-family="Arial, sans-serif" font-size="353px" font-weight="400"><tspan class="TextPosition" x="15937" y="10185"><tspan fill="rgb(0,0,0)" stroke="none">UK</tspan></tspan></tspan></text>
 <text class="TextShape" transform="rotate(-44.9 16141 10617)"><tspan class="TextParagraph" font-family="Arial, sans-serif" font-size="353px" font-weight="400"><tspan class="TextPosition" x="16141" y="10617"><tspan fill="rgb(0,0,0)" stroke="none">Croatia</tspan></tspan></tspan></text>
 <text class="TextShape" transform="rotate(-44.9 16629 10765)"><tspan class="TextParagraph" font-family="Arial, sans-serif" font-size="353px" font-weight="400"><tspan class="TextPosition" x="16629" y="10765"><tspan fill="rgb(0,0,0)" stroke="none">Moldova</tspan></tspan></tspan></text>
 <text class="TextShape" transform="rotate(-44.9 17301 10729)"><tspan class="TextParagraph" font-family="Arial, sans-serif" font-size="353px" font-weight="400"><tspan class="TextPosition" x="17301" y="10729"><tspan fill="rgb(0,0,0)" stroke="none">Belgium</tspan></tspan></tspan></text>
 <text class="TextShape" transform="rotate(-44.9 17994 10673)"><tspan class="TextParagraph" font-family="Arial, sans-serif" font-size="353px" font-weight="400"><tspan class="TextPosition" x="17994" y="10673"><tspan fill="rgb(0,0,0)" stroke="none">Ukraine</tspan></tspan></tspan></text>
 <text class="TextShape" transform="rotate(-44.9 18854 10449)"><tspan class="TextParagraph" font-family="Arial, sans-serif" font-size="353px" font-weight="400"><tspan class="TextPosition" x="18854" y="10449"><tspan fill="rgb(0,0,0)" stroke="none">Malta</tspan></tspan></tspan></text>
 <text class="TextShape" transform="rotate(-44.9 19266 10673)"><tspan class="TextParagraph" font-family="Arial, sans-serif" font-size="353px" font-weight="400"><tspan class="TextPosition" x="19266" y="10673"><tspan fill="rgb(0,0,0)" stroke="none">Estonia</tspan></tspan></tspan></text>
 <text class="TextShape" transform="rotate(-44.9 19977 10597)"><tspan class="TextParagraph" font-family="Arial, sans-serif" font-size="353px" font-weight="400"><tspan class="TextPosition" x="19977" y="10597"><tspan fill="rgb(0,0,0)" stroke="none">France</tspan></tspan></tspan></text>
 <text class="TextShape" transform="rotate(-44.9 20707 10504)"><tspan class="TextParagraph" font-family="Arial, sans-serif" font-size="353px" font-weight="400"><tspan class="TextPosition" x="20707" y="10504"><tspan fill="rgb(0,0,0)" stroke="none">Latvia</tspan></tspan></tspan></text>
 <text class="TextShape" transform="rotate(-44.9 21155 10691)"><tspan class="TextParagraph" font-family="Arial, sans-serif" font-size="353px" font-weight="400"><tspan class="TextPosition" x="21155" y="10691"><tspan fill="rgb(0,0,0)" stroke="none">Georgia</tspan></tspan></tspan></text>
 <text class="TextShape" transform="rotate(-44.9 21341 11141)"><tspan class="TextParagraph" font-family="Arial, sans-serif" font-size="353px" font-weight="400"><tspan class="TextPosition" x="21341" y="11141"><tspan fill="rgb(0,0,0)" stroke="none">Netherlands</tspan></tspan></tspan></text>
 <text class="TextShape" transform="rotate(-44.9 22501 10617)"><tspan class="TextParagraph" font-family="Arial, sans-serif" font-size="353px" font-weight="400"><tspan class="TextPosition" x="22501" y="10617"><tspan fill="rgb(0,0,0)" stroke="none">Austria</tspan></tspan></tspan></text>
 <text class="TextShape" transform="rotate(-44.9 22651 11103)"><tspan class="TextParagraph" font-family="Arial, sans-serif" font-size="353px" font-weight="400"><tspan class="TextPosition" x="22651" y="11103"><tspan fill="rgb(0,0,0)" stroke="none">Switzerland</tspan></tspan></tspan></text>
 <text class="TextShape" transform="rotate(-44.9 23212 11179)"><tspan class="TextParagraph" font-family="Arial, sans-serif" font-size="353px" font-weight="400"><tspan class="TextPosition" x="23212" y="11179"><tspan fill="rgb(0,0,0)" stroke="none">Luxembourg</tspan></tspan></tspan></text>
 <text class="TextShape" transform="rotate(-44.9 24391 10635)"><tspan class="TextParagraph" font-family="Arial, sans-serif" font-size="353px" font-weight="400"><tspan class="TextPosition" x="24391" y="10635"><tspan fill="rgb(0,0,0)" stroke="none">Greece</tspan></tspan></tspan></text>
 <text class="TextShape" transform="rotate(-44.9 24821 10841)"><tspan class="TextParagraph" font-family="Arial, sans-serif" font-size="353px" font-weight="400"><tspan class="TextPosition" x="24821" y="10841"><tspan fill="rgb(0,0,0)" stroke="none">Germany</tspan></tspan></tspan></text>
 <text class="TextShape" transform="rotate(-44.9 25700 10597)"><tspan class="TextParagraph" font-family="Arial, sans-serif" font-size="353px" font-weight="400"><tspan class="TextPosition" x="25700" y="10597"><tspan fill="rgb(0,0,0)" stroke="none">Turkey</tspan></tspan></tspan></text>
 <text class="TextShape" transform="rotate(-44.9 26223 10710)"><tspan class="TextParagraph" font-family="Arial, sans-serif" font-size="353px" font-weight="400"><tspan class="TextPosition" x="26223" y="10710"><tspan fill="rgb(0,0,0)" stroke="none">Sweden</tspan></tspan></tspan></text>
 <text class="TextShape" transform="rotate(-44.9 27121 10449)"><tspan class="TextParagraph" font-family="Arial, sans-serif" font-size="353px" font-weight="400"><tspan class="TextPosition" x="27121" y="10449"><tspan fill="rgb(0,0,0)" stroke="none">Israel</tspan></tspan></tspan></text>
 <text class="TextShape" transform="rotate(-44.9 27626 10579)"><tspan class="TextParagraph" font-family="Arial, sans-serif" font-size="353px" font-weight="400"><tspan class="TextPosition" x="27626" y="10579"><tspan fill="rgb(0,0,0)" stroke="none">Ireland</tspan></tspan></tspan></text>
 <text class="TextShape" transform="rotate(-44.9 28338 10504)"><tspan class="TextParagraph" font-family="Arial, sans-serif" font-size="353px" font-weight="400"><tspan class="TextPosition" x="28338" y="10504"><tspan fill="rgb(0,0,0)" stroke="none">Japan</tspan></tspan></tspan></text>
 <text class="TextShape" transform="rotate(-44.9 28860 10617)"><tspan class="TextParagraph" font-family="Arial, sans-serif" font-size="353px" font-weight="400"><tspan class="TextPosition" x="28860" y="10617"><tspan fill="rgb(0,0,0)" stroke="none">Cyprus</tspan></tspan></tspan></text>
 <text class="TextShape" transform="rotate(-44.9 29310 10803)"><tspan class="TextParagraph" font-family="Arial, sans-serif" font-size="353px" font-weight="400"><tspan class="TextPosition" x="29310" y="10803"><tspan fill="rgb(0,0,0)" stroke="none">S. Korea</tspan></tspan></tspan></text>
 <text class="TextShape" transform="rotate(-44.9 29928 10822)"><tspan class="TextParagraph" font-family="Arial, sans-serif" font-size="353px" font-weight="400"><tspan class="TextPosition" x="29928" y="10822"><tspan fill="rgb(0,0,0)" stroke="none">Denmark</tspan></tspan></tspan></text>
 <text class="TextShape" transform="rotate(-44.9 30732 10654)"><tspan class="TextParagraph" font-family="Arial, sans-serif" font-size="353px" font-weight="400"><tspan class="TextPosition" x="30732" y="10654"><tspan fill="rgb(0,0,0)" stroke="none">Norway</tspan></tspan></tspan></text>
 <text class="TextShape" transform="rotate(-44.9 31386 10635)"><tspan class="TextParagraph" font-family="Arial, sans-serif" font-size="353px" font-weight="400"><tspan class="TextPosition" x="31386" y="10635"><tspan fill="rgb(0,0,0)" stroke="none">Finland</tspan></tspan></tspan></text>
 <text class="TextShape" transform="rotate(-44.9 32022 10635)"><tspan class="TextParagraph" font-family="Arial, sans-serif" font-size="353px" font-weight="400"><tspan class="TextPosition" x="32022" y="10635"><tspan fill="rgb(0,0,0)" stroke="none">Iceland</tspan></tspan></tspan></text>
 <text class="TextShape" transform="rotate(-44.9 32826 10467)"><tspan class="TextParagraph" font-family="Arial, sans-serif" font-size="353px" font-weight="400"><tspan class="TextPosition" x="32826" y="10467"><tspan fill="rgb(0,0,0)" stroke="none">China</tspan></tspan></tspan></text>
 <text class="TextShape" transform="rotate(-44.9 32302 11627)"><tspan class="TextParagraph" font-family="Arial, sans-serif" font-size="353px" font-weight="400"><tspan class="TextPosition" x="32302" y="11627"><tspan fill="rgb(0,0,0)" stroke="none">2018 Flu Europe</tspan></tspan></tspan></text>
 <text class="TextShape"><tspan class="TextParagraph" font-family="Arial, sans-serif" font-size="353px" font-weight="400"><tspan class="TextPosition" x="1288" y="9495"><tspan fill="rgb(0,0,0)" stroke="none">0,00%</tspan></tspan></tspan></text>
 <text class="TextShape"><tspan class="TextParagraph" font-family="Arial, sans-serif" font-size="353px" font-weight="400"><tspan class="TextPosition" x="1288" y="8699"><tspan fill="rgb(0,0,0)" stroke="none">0,05%</tspan></tspan></tspan></text>
 <text class="TextShape"><tspan class="TextParagraph" font-family="Arial, sans-serif" font-size="353px" font-weight="400"><tspan class="TextPosition" x="1288" y="7904"><tspan fill="rgb(0,0,0)" stroke="none">0,10%</tspan></tspan></tspan></text>
 <text class="TextShape"><tspan class="TextParagraph" font-family="Arial, sans-serif" font-size="353px" font-weight="400"><tspan class="TextPosition" x="1288" y="7108"><tspan fill="rgb(0,0,0)" stroke="none">0,15%</tspan></tspan></tspan></text>
 <text class="TextShape"><tspan class="TextParagraph" font-family="Arial, sans-serif" font-size="353px" font-weight="400"><tspan class="TextPosition" x="1288" y="6313"><tspan fill="rgb(0,0,0)" stroke="none">0,20%</tspan></tspan></tspan></text>
 <text class="TextShape"><tspan class="TextParagraph" font-family="Arial, sans-serif" font-size="353px" font-weight="400"><tspan class="TextPosition" x="1288" y="5517"><tspan fill="rgb(0,0,0)" stroke="none">0,25%</tspan></tspan></tspan></text>
 <text class="TextShape"><tspan class="TextParagraph" font-family="Arial, sans-serif" font-size="353px" font-weight="400"><tspan class="TextPosition" x="1288" y="4722"><tspan fill="rgb(0,0,0)" stroke="none">0,30%</tspan></tspan></tspan></text>
 <text class="TextShape"><tspan class="TextParagraph" font-family="Arial, sans-serif" font-size="353px" font-weight="400"><tspan class="TextPosition" x="1288" y="3926"><tspan fill="rgb(0,0,0)" stroke="none">0,35%</tspan></tspan></tspan></text>
 <text class="TextShape"><tspan class="TextParagraph" font-family="Arial, sans-serif" font-size="353px" font-weight="400"><tspan class="TextPosition" x="1288" y="3131"><tspan fill="rgb(0,0,0)" stroke="none">0,40%</tspan></tspan></tspan></text>
 <text class="TextShape"><tspan class="TextParagraph" font-family="Arial, sans-serif" font-size="353px" font-weight="400"><tspan class="TextPosition" x="1288" y="2336"><tspan fill="rgb(0,0,0)" stroke="none">0,45%</tspan></tspan></tspan></text>
 <text class="TextShape"><tspan class="TextParagraph" font-family="Arial, sans-serif" font-size="459px" font-weight="400"><tspan class="TextPosition" x="6705" y="931"><tspan fill="rgb(0,0,0)" stroke="none">Pandemic index based on number of deaths/ Járvány erősség index a halálesetek száma alapján 2021.04.28.</tspan></tspan></tspan></text>
 <path fill="rgb(0,69,134)" stroke="none" d="M 8984,1764 L 8584,1764 8584,1553 9384,1553 9384,1764 8984,1764 Z"/>
 <path fill="none" stroke="rgb(0,69,134)" stroke-linejoin="round" d="M 16968,1658 L 17767,1658"/>
 <text class="TextShape"><tspan class="TextParagraph" font-family="Arial, sans-serif" font-size="353px" font-weight="400"><tspan class="TextPosition" x="9484" y="1778"><tspan fill="rgb(0,0,0)" stroke="none">Pandemic Index Excess Deaths per Population</tspan></tspan></tspan></text>
 <text class="TextShape"><tspan class="TextParagraph" font-family="Arial, sans-serif" font-size="353px" font-weight="400"><tspan class="TextPosition" x="17867" y="1778"><tspan fill="rgb(0,0,0)" stroke="none">Közép (Pandemic Index Excess Deaths per Population)</tspan></tspan></tspan></text>
</svg>