<?xml version="1.0" encoding="UTF-8"?>
<!DOCTYPE svg PUBLIC "-//W3C//DTD SVG 1.1//EN" "http://www.w3.org/Graphics/SVG/1.1/DTD/svg11.dtd">
<svg width="350mm" height="130mm" viewBox="0 0 35000 13000" version="1.1" xmlns="http://www.w3.org/2000/svg" xmlns:xlink="http://www.w3.org/1999/xlink" stroke-width="28.222" stroke-linejoin="round" xml:space="preserve">
 <path fill="rgb(255,255,255)" stroke="none" d="M 17500,12999 L 0,12999 0,0 34999,0 34999,12999 17500,12999 Z"/>
 <path fill="none" stroke="rgb(179,179,179)" stroke-linejoin="round" d="M 18207,9372 L 2115,9372 2115,2218 34299,2218 34299,9372 18207,9372 Z"/>
 <path fill="none" stroke="rgb(179,179,179)" stroke-width="18" stroke-linejoin="round" d="M 34299,9371 L 2115,9371"/>
 <path fill="none" stroke="rgb(179,179,179)" stroke-width="18" stroke-linejoin="round" d="M 34299,8576 L 2115,8576"/>
 <path fill="none" stroke="rgb(179,179,179)" stroke-width="18" stroke-linejoin="round" d="M 34299,7781 L 2115,7781"/>
 <path fill="none" stroke="rgb(179,179,179)" stroke-width="18" stroke-linejoin="round" d="M 34299,6986 L 2115,6986"/>
 <path fill="none" stroke="rgb(179,179,179)" stroke-width="18" stroke-linejoin="round" d="M 34299,6192 L 2115,6192"/>
 <path fill="none" stroke="rgb(179,179,179)" stroke-width="18" stroke-linejoin="round" d="M 34299,5397 L 2115,5397"/>
 <path fill="none" stroke="rgb(179,179,179)" stroke-width="18" stroke-linejoin="round" d="M 34299,4601 L 2115,4601"/>
 <path fill="none" stroke="rgb(179,179,179)" stroke-width="18" stroke-linejoin="round" d="M 34299,3806 L 2115,3806"/>
 <path fill="none" stroke="rgb(179,179,179)" stroke-width="18" stroke-linejoin="round" d="M 34299,3012 L 2115,3012"/>
 <path fill="none" stroke="rgb(179,179,179)" stroke-width="18" stroke-linejoin="round" d="M 34299,2217 L 2115,2217"/>
 <path fill="none" stroke="rgb(179,179,179)" stroke-width="18" stroke-linejoin="round" d="M 2115,9521 L 2115,9371"/>
 <path fill="none" stroke="rgb(179,179,179)" stroke-width="18" stroke-linejoin="round" d="M 2771,9521 L 2771,9371"/>
 <path fill="none" stroke="rgb(179,179,179)" stroke-width="18" stroke-linejoin="round" d="M 3428,9521 L 3428,9371"/>
 <path fill="none" stroke="rgb(179,179,179)" stroke-width="18" stroke-linejoin="round" d="M 4085,9521 L 4085,9371"/>
 <path fill="none" stroke="rgb(179,179,179)" stroke-width="18" stroke-linejoin="round" d="M 4742,9521 L 4742,9371"/>
 <path fill="none" stroke="rgb(179,179,179)" stroke-width="18" stroke-linejoin="round" d="M 5399,9521 L 5399,9371"/>
 <path fill="none" stroke="rgb(179,179,179)" stroke-width="18" stroke-linejoin="round" d="M 6056,9521 L 6056,9371"/>
 <path fill="none" stroke="rgb(179,179,179)" stroke-width="18" stroke-linejoin="round" d="M 6712,9521 L 6712,9371"/>
 <path fill="none" stroke="rgb(179,179,179)" stroke-width="18" stroke-linejoin="round" d="M 7369,9521 L 7369,9371"/>
 <path fill="none" stroke="rgb(179,179,179)" stroke-width="18" stroke-linejoin="round" d="M 8026,9521 L 8026,9371"/>
 <path fill="none" stroke="rgb(179,179,179)" stroke-width="18" stroke-linejoin="round" d="M 8683,9521 L 8683,9371"/>
 <path fill="none" stroke="rgb(179,179,179)" stroke-width="18" stroke-linejoin="round" d="M 9340,9521 L 9340,9371"/>
 <path fill="none" stroke="rgb(179,179,179)" stroke-width="18" stroke-linejoin="round" d="M 9997,9521 L 9997,9371"/>
 <path fill="none" stroke="rgb(179,179,179)" stroke-width="18" stroke-linejoin="round" d="M 10653,9521 L 10653,9371"/>
 <path fill="none" stroke="rgb(179,179,179)" stroke-width="18" stroke-linejoin="round" d="M 11310,9521 L 11310,9371"/>
 <path fill="none" stroke="rgb(179,179,179)" stroke-width="18" stroke-linejoin="round" d="M 11967,9521 L 11967,9371"/>
 <path fill="none" stroke="rgb(179,179,179)" stroke-width="18" stroke-linejoin="round" d="M 12624,9521 L 12624,9371"/>
 <path fill="none" stroke="rgb(179,179,179)" stroke-width="18" stroke-linejoin="round" d="M 13281,9521 L 13281,9371"/>
 <path fill="none" stroke="rgb(179,179,179)" stroke-width="18" stroke-linejoin="round" d="M 13938,9521 L 13938,9371"/>
 <path fill="none" stroke="rgb(179,179,179)" stroke-width="18" stroke-linejoin="round" d="M 14594,9521 L 14594,9371"/>
 <path fill="none" stroke="rgb(179,179,179)" stroke-width="18" stroke-linejoin="round" d="M 15251,9521 L 15251,9371"/>
 <path fill="none" stroke="rgb(179,179,179)" stroke-width="18" stroke-linejoin="round" d="M 15908,9521 L 15908,9371"/>
 <path fill="none" stroke="rgb(179,179,179)" stroke-width="18" stroke-linejoin="round" d="M 16565,9521 L 16565,9371"/>
 <path fill="none" stroke="rgb(179,179,179)" stroke-width="18" stroke-linejoin="round" d="M 17222,9521 L 17222,9371"/>
 <path fill="none" stroke="rgb(179,179,179)" stroke-width="18" stroke-linejoin="round" d="M 17878,9521 L 17878,9371"/>
 <path fill="none" stroke="rgb(179,179,179)" stroke-width="18" stroke-linejoin="round" d="M 18534,9521 L 18534,9371"/>
 <path fill="none" stroke="rgb(179,179,179)" stroke-width="18" stroke-linejoin="round" d="M 19191,9521 L 19191,9371"/>
 <path fill="none" stroke="rgb(179,179,179)" stroke-width="18" stroke-linejoin="round" d="M 19848,9521 L 19848,9371"/>
 <path fill="none" stroke="rgb(179,179,179)" stroke-width="18" stroke-linejoin="round" d="M 20505,9521 L 20505,9371"/>
 <path fill="none" stroke="rgb(179,179,179)" stroke-width="18" stroke-linejoin="round" d="M 21162,9521 L 21162,9371"/>
 <path fill="none" stroke="rgb(179,179,179)" stroke-width="18" stroke-linejoin="round" d="M 21819,9521 L 21819,9371"/>
 <path fill="none" stroke="rgb(179,179,179)" stroke-width="18" stroke-linejoin="round" d="M 22475,9521 L 22475,9371"/>
 <path fill="none" stroke="rgb(179,179,179)" stroke-width="18" stroke-linejoin="round" d="M 23132,9521 L 23132,9371"/>
 <path fill="none" stroke="rgb(179,179,179)" stroke-width="18" stroke-linejoin="round" d="M 23789,9521 L 23789,9371"/>
 <path fill="none" stroke="rgb(179,179,179)" stroke-width="18" stroke-linejoin="round" d="M 24446,9521 L 24446,9371"/>
 <path fill="none" stroke="rgb(179,179,179)" stroke-width="18" stroke-linejoin="round" d="M 25103,9521 L 25103,9371"/>
 <path fill="none" stroke="rgb(179,179,179)" stroke-width="18" stroke-linejoin="round" d="M 25760,9521 L 25760,9371"/>
 <path fill="none" stroke="rgb(179,179,179)" stroke-width="18" stroke-linejoin="round" d="M 26416,9521 L 26416,9371"/>
 <path fill="none" stroke="rgb(179,179,179)" stroke-width="18" stroke-linejoin="round" d="M 27073,9521 L 27073,9371"/>
 <path fill="none" stroke="rgb(179,179,179)" stroke-width="18" stroke-linejoin="round" d="M 27730,9521 L 27730,9371"/>
 <path fill="none" stroke="rgb(179,179,179)" stroke-width="18" stroke-linejoin="round" d="M 28387,9521 L 28387,9371"/>
 <path fill="none" stroke="rgb(179,179,179)" stroke-width="18" stroke-linejoin="round" d="M 29044,9521 L 29044,9371"/>
 <path fill="none" stroke="rgb(179,179,179)" stroke-width="18" stroke-linejoin="round" d="M 29701,9521 L 29701,9371"/>
 <path fill="none" stroke="rgb(179,179,179)" stroke-width="18" stroke-linejoin="round" d="M 30357,9521 L 30357,9371"/>
 <path fill="none" stroke="rgb(179,179,179)" stroke-width="18" stroke-linejoin="round" d="M 31014,9521 L 31014,9371"/>
 <path fill="none" stroke="rgb(179,179,179)" stroke-width="18" stroke-linejoin="round" d="M 31671,9521 L 31671,9371"/>
 <path fill="none" stroke="rgb(179,179,179)" stroke-width="18" stroke-linejoin="round" d="M 32328,9521 L 32328,9371"/>
 <path fill="none" stroke="rgb(179,179,179)" stroke-width="18" stroke-linejoin="round" d="M 32985,9521 L 32985,9371"/>
 <path fill="none" stroke="rgb(179,179,179)" stroke-width="18" stroke-linejoin="round" d="M 33642,9521 L 33642,9371"/>
 <path fill="none" stroke="rgb(179,179,179)" stroke-width="18" stroke-linejoin="round" d="M 34299,9521 L 34299,9371"/>
 <path fill="none" stroke="rgb(179,179,179)" stroke-width="18" stroke-linejoin="round" d="M 2115,9371 L 34299,9371"/>
 <path fill="none" stroke="rgb(179,179,179)" stroke-width="18" stroke-linejoin="round" d="M 1965,9371 L 2115,9371"/>
 <path fill="none" stroke="rgb(179,179,179)" stroke-width="18" stroke-linejoin="round" d="M 1965,8576 L 2115,8576"/>
 <path fill="none" stroke="rgb(179,179,179)" stroke-width="18" stroke-linejoin="round" d="M 1965,7781 L 2115,7781"/>
 <path fill="none" stroke="rgb(179,179,179)" stroke-width="18" stroke-linejoin="round" d="M 1965,6986 L 2115,6986"/>
 <path fill="none" stroke="rgb(179,179,179)" stroke-width="18" stroke-linejoin="round" d="M 1965,6192 L 2115,6192"/>
 <path fill="none" stroke="rgb(179,179,179)" stroke-width="18" stroke-linejoin="round" d="M 1965,5397 L 2115,5397"/>
 <path fill="none" stroke="rgb(179,179,179)" stroke-width="18" stroke-linejoin="round" d="M 1965,4601 L 2115,4601"/>
 <path fill="none" stroke="rgb(179,179,179)" stroke-width="18" stroke-linejoin="round" d="M 1965,3806 L 2115,3806"/>
 <path fill="none" stroke="rgb(179,179,179)" stroke-width="18" stroke-linejoin="round" d="M 1965,3012 L 2115,3012"/>
 <path fill="none" stroke="rgb(179,179,179)" stroke-width="18" stroke-linejoin="round" d="M 1965,2217 L 2115,2217"/>
 <path fill="none" stroke="rgb(179,179,179)" stroke-width="18" stroke-linejoin="round" d="M 2115,9371 L 2115,2217"/>
 <path fill="rgb(0,69,134)" stroke="none" d="M 33806,9371 L 34134,9371 34134,9361 33806,9361 33806,9371 Z"/>
 <path fill="rgb(0,69,134)" stroke="none" d="M 33149,9371 L 33477,9371 33477,9342 33149,9342 33149,9371 Z"/>
 <path fill="rgb(0,69,134)" stroke="none" d="M 32492,9371 L 32821,9371 32821,9340 32492,9340 32492,9371 Z"/>
 <path fill="rgb(0,69,134)" stroke="none" d="M 31835,9371 L 32164,9371 32164,9337 31835,9337 31835,9371 Z"/>
 <path fill="rgb(0,69,134)" stroke="none" d="M 31179,9371 L 31507,9371 31507,9335 31179,9335 31179,9371 Z"/>
 <path fill="rgb(0,69,134)" stroke="none" d="M 30522,9371 L 30850,9371 30850,9330 30522,9330 30522,9371 Z"/>
 <path fill="rgb(0,69,134)" stroke="none" d="M 29865,9371 L 30193,9371 30193,9304 29865,9304 29865,9371 Z"/>
 <path fill="rgb(0,69,134)" stroke="none" d="M 29208,9371 L 29536,9371 29536,9277 29208,9277 29208,9371 Z"/>
 <path fill="rgb(0,69,134)" stroke="none" d="M 28551,9371 L 28880,9371 28880,9263 28551,9263 28551,9371 Z"/>
 <path fill="rgb(0,69,134)" stroke="none" d="M 27894,9371 L 28223,9371 28223,9248 27894,9248 27894,9371 Z"/>
 <path fill="rgb(0,69,134)" stroke="none" d="M 27238,9371 L 27566,9371 27566,9246 27238,9246 27238,9371 Z"/>
 <path fill="rgb(0,69,134)" stroke="none" d="M 26581,9371 L 26909,9371 26909,9211 26581,9211 26581,9371 Z"/>
 <path fill="rgb(0,69,134)" stroke="none" d="M 25924,9371 L 26252,9371 26252,9196 25924,9196 25924,9371 Z"/>
 <path fill="rgb(255,0,0)" stroke="none" d="M 25267,9371 L 25595,9371 25595,9196 25267,9196 25267,9371 Z"/>
 <path fill="rgb(0,69,134)" stroke="none" d="M 24610,9371 L 24939,9371 24939,9191 24610,9191 24610,9371 Z"/>
 <path fill="rgb(0,69,134)" stroke="none" d="M 23953,9371 L 24282,9371 24282,9188 23953,9188 23953,9371 Z"/>
 <path fill="rgb(0,69,134)" stroke="none" d="M 23296,9371 L 23625,9371 23625,9180 23296,9180 23296,9371 Z"/>
 <path fill="rgb(0,69,134)" stroke="none" d="M 22640,9371 L 22968,9371 22968,9165 22640,9165 22640,9371 Z"/>
 <path fill="rgb(0,69,134)" stroke="none" d="M 21983,9371 L 22311,9371 22311,9162 21983,9162 21983,9371 Z"/>
 <path fill="rgb(0,69,134)" stroke="none" d="M 21326,9371 L 21654,9371 21654,9161 21326,9161 21326,9371 Z"/>
 <path fill="rgb(0,69,134)" stroke="none" d="M 20669,9371 L 20998,9371 20998,9158 20669,9158 20669,9371 Z"/>
 <path fill="rgb(0,69,134)" stroke="none" d="M 20012,9371 L 20341,9371 20341,9157 20012,9157 20012,9371 Z"/>
 <path fill="rgb(0,69,134)" stroke="none" d="M 19355,9371 L 19684,9371 19684,9106 19355,9106 19355,9371 Z"/>
 <path fill="rgb(0,69,134)" stroke="none" d="M 18699,9371 L 19027,9371 19027,9101 18699,9101 18699,9371 Z"/>
 <path fill="rgb(0,69,134)" stroke="none" d="M 18042,9371 L 18370,9371 18370,9087 18042,9087 18042,9371 Z"/>
 <path fill="rgb(0,69,134)" stroke="none" d="M 17386,9371 L 17713,9371 17713,9046 17386,9046 17386,9371 Z"/>
 <path fill="rgb(0,69,134)" stroke="none" d="M 16729,9371 L 17058,9371 17058,9044 16729,9044 16729,9371 Z"/>
 <path fill="rgb(0,69,134)" stroke="none" d="M 16072,9371 L 16401,9371 16401,9042 16072,9042 16072,9371 Z"/>
 <path fill="rgb(0,69,134)" stroke="none" d="M 15415,9371 L 15744,9371 15744,8877 15415,8877 15415,9371 Z"/>
 <path fill="rgb(0,69,134)" stroke="none" d="M 14759,9371 L 15087,9371 15087,8875 14759,8875 14759,9371 Z"/>
 <path fill="rgb(0,69,134)" stroke="none" d="M 14102,9371 L 14430,9371 14430,8826 14102,8826 14102,9371 Z"/>
 <path fill="rgb(0,69,134)" stroke="none" d="M 13445,9371 L 13773,9371 13773,8822 13445,8822 13445,9371 Z"/>
 <path fill="rgb(0,69,134)" stroke="none" d="M 12788,9371 L 13117,9371 13117,8669 12788,8669 12788,9371 Z"/>
 <path fill="rgb(0,69,134)" stroke="none" d="M 12131,9371 L 12460,9371 12460,8574 12131,8574 12131,9371 Z"/>
 <path fill="rgb(0,69,134)" stroke="none" d="M 11474,9371 L 11803,9371 11803,8557 11474,8557 11474,9371 Z"/>
 <path fill="rgb(0,69,134)" stroke="none" d="M 10818,9371 L 11146,9371 11146,8554 10818,8554 10818,9371 Z"/>
 <path fill="rgb(0,69,134)" stroke="none" d="M 10161,9371 L 10489,9371 10489,8550 10161,8550 10161,9371 Z"/>
 <path fill="rgb(0,69,134)" stroke="none" d="M 9504,9371 L 9832,9371 9832,8274 9504,8274 9504,9371 Z"/>
 <path fill="rgb(0,69,134)" stroke="none" d="M 8847,9371 L 9175,9371 9175,8263 8847,8263 8847,9371 Z"/>
 <path fill="rgb(0,69,134)" stroke="none" d="M 8190,9371 L 8519,9371 8519,8262 8190,8262 8190,9371 Z"/>
 <path fill="rgb(0,69,134)" stroke="none" d="M 7533,9371 L 7862,9371 7862,8259 7533,8259 7533,9371 Z"/>
 <path fill="rgb(0,69,134)" stroke="none" d="M 6877,9371 L 7205,9371 7205,8095 6877,8095 6877,9371 Z"/>
 <path fill="rgb(0,69,134)" stroke="none" d="M 6220,9371 L 6548,9371 6548,7960 6220,7960 6220,9371 Z"/>
 <path fill="rgb(0,69,134)" stroke="none" d="M 5563,9371 L 5891,9371 5891,7795 5563,7795 5563,9371 Z"/>
 <path fill="rgb(0,69,134)" stroke="none" d="M 4906,9371 L 5234,9371 5234,7649 4906,7649 4906,9371 Z"/>
 <path fill="rgb(0,69,134)" stroke="none" d="M 4249,9371 L 4578,9371 4578,7559 4249,7559 4249,9371 Z"/>
 <path fill="rgb(0,69,134)" stroke="none" d="M 3592,9371 L 3921,9371 3921,7436 3592,7436 3592,9371 Z"/>
 <path fill="rgb(0,69,134)" stroke="none" d="M 2936,9371 L 3264,9371 3264,7398 2936,7398 2936,9371 Z"/>
 <path fill="rgb(0,69,134)" stroke="none" d="M 2279,9371 L 2607,9371 2607,6916 2279,6916 2279,9371 Z"/>
 <path fill="none" stroke="rgb(0,69,134)" stroke-linejoin="round" d="M 2115,8774 L 34299,8774"/>
 <text class="TextShape" transform="rotate(-44.9 1646 10726)"><tspan class="TextParagraph" font-family="Arial, sans-serif" font-size="353px" font-weight="400"><tspan class="TextPosition" x="1646" y="10726"><tspan fill="rgb(0,0,0)" stroke="none">Belgium</tspan></tspan></tspan></text>
 <text class="TextShape" transform="rotate(-44.9 2565 10464)"><tspan class="TextParagraph" font-family="Arial, sans-serif" font-size="353px" font-weight="400"><tspan class="TextPosition" x="2565" y="10464"><tspan fill="rgb(0,0,0)" stroke="none">Spain</tspan></tspan></tspan></text>
 <text class="TextShape" transform="rotate(-44.9 3336 10351)"><tspan class="TextParagraph" font-family="Arial, sans-serif" font-size="353px" font-weight="400"><tspan class="TextPosition" x="3336" y="10351"><tspan fill="rgb(0,0,0)" stroke="none">USA</tspan></tspan></tspan></text>
 <text class="TextShape" transform="rotate(-44.9 4160 10182)"><tspan class="TextParagraph" font-family="Arial, sans-serif" font-size="353px" font-weight="400"><tspan class="TextPosition" x="4160" y="10182"><tspan fill="rgb(0,0,0)" stroke="none">UK</tspan></tspan></tspan></text>
 <text class="TextShape" transform="rotate(-44.9 4292 10707)"><tspan class="TextParagraph" font-family="Arial, sans-serif" font-size="353px" font-weight="400"><tspan class="TextPosition" x="4292" y="10707"><tspan fill="rgb(0,0,0)" stroke="none">Sweden</tspan></tspan></tspan></text>
 <text class="TextShape" transform="rotate(-44.9 5080 10576)"><tspan class="TextParagraph" font-family="Arial, sans-serif" font-size="353px" font-weight="400"><tspan class="TextPosition" x="5080" y="10576"><tspan fill="rgb(0,0,0)" stroke="none">Ireland</tspan></tspan></tspan></text>
 <text class="TextShape" transform="rotate(-44.9 5999 10314)"><tspan class="TextParagraph" font-family="Arial, sans-serif" font-size="353px" font-weight="400"><tspan class="TextPosition" x="5999" y="10314"><tspan fill="rgb(0,0,0)" stroke="none">Italy</tspan></tspan></tspan></text>
 <text class="TextShape" transform="rotate(-44.9 6376 10594)"><tspan class="TextParagraph" font-family="Arial, sans-serif" font-size="353px" font-weight="400"><tspan class="TextPosition" x="6376" y="10594"><tspan fill="rgb(0,0,0)" stroke="none">France</tspan></tspan></tspan></text>
 <text class="TextShape" transform="rotate(-44.9 6489 11138)"><tspan class="TextParagraph" font-family="Arial, sans-serif" font-size="353px" font-weight="400"><tspan class="TextPosition" x="6489" y="11138"><tspan fill="rgb(0,0,0)" stroke="none">Netherlands</tspan></tspan></tspan></text>
 <text class="TextShape" transform="rotate(-44.9 7539 10744)"><tspan class="TextParagraph" font-family="Arial, sans-serif" font-size="353px" font-weight="400"><tspan class="TextPosition" x="7539" y="10744"><tspan fill="rgb(0,0,0)" stroke="none">Armenia</tspan></tspan></tspan></text>
 <text class="TextShape" transform="rotate(-44.9 8495 10446)"><tspan class="TextParagraph" font-family="Arial, sans-serif" font-size="353px" font-weight="400"><tspan class="TextPosition" x="8495" y="10446"><tspan fill="rgb(0,0,0)" stroke="none">Israel</tspan></tspan></tspan></text>
 <text class="TextShape" transform="rotate(-44.9 7917 11680)"><tspan class="TextParagraph" font-family="Arial, sans-serif" font-size="353px" font-weight="400"><tspan class="TextPosition" x="7917" y="11680"><tspan fill="rgb(0,0,0)" stroke="none">North Macedonia</tspan></tspan></tspan></text>
 <text class="TextShape" transform="rotate(-44.9 9079 11176)"><tspan class="TextParagraph" font-family="Arial, sans-serif" font-size="353px" font-weight="400"><tspan class="TextPosition" x="9079" y="11176"><tspan fill="rgb(0,0,0)" stroke="none">Luxembourg</tspan></tspan></tspan></text>
 <text class="TextShape" transform="rotate(-44.9 10149 10762)"><tspan class="TextParagraph" font-family="Arial, sans-serif" font-size="353px" font-weight="400"><tspan class="TextPosition" x="10149" y="10762"><tspan fill="rgb(0,0,0)" stroke="none">Moldova</tspan></tspan></tspan></text>
 <text class="TextShape" transform="rotate(-44.9 10468 11100)"><tspan class="TextParagraph" font-family="Arial, sans-serif" font-size="353px" font-weight="400"><tspan class="TextPosition" x="10468" y="11100"><tspan fill="rgb(0,0,0)" stroke="none">Switzerland</tspan></tspan></tspan></text>
 <text class="TextShape" transform="rotate(-44.9 11106 11118)"><tspan class="TextParagraph" font-family="Arial, sans-serif" font-size="353px" font-weight="400"><tspan class="TextPosition" x="11106" y="11118"><tspan fill="rgb(0,0,0)" stroke="none">Montenegro</tspan></tspan></tspan></text>
 <text class="TextShape" transform="rotate(-44.9 10397 12484)"><tspan class="TextParagraph" font-family="Arial, sans-serif" font-size="353px" font-weight="400"><tspan class="TextPosition" x="10397" y="12484"><tspan fill="rgb(0,0,0)" stroke="none">Bosnia and Herzegovina</tspan></tspan></tspan></text>
 <text class="TextShape" transform="rotate(-44.9 12944 10594)"><tspan class="TextParagraph" font-family="Arial, sans-serif" font-size="353px" font-weight="400"><tspan class="TextPosition" x="12944" y="10594"><tspan fill="rgb(0,0,0)" stroke="none">Turkey</tspan></tspan></tspan></text>
 <text class="TextShape" transform="rotate(-44.9 13395 10800)"><tspan class="TextParagraph" font-family="Arial, sans-serif" font-size="353px" font-weight="400"><tspan class="TextPosition" x="13395" y="10800"><tspan fill="rgb(0,0,0)" stroke="none">Romania</tspan></tspan></tspan></text>
 <text class="TextShape" transform="rotate(-44.9 14202 10651)"><tspan class="TextParagraph" font-family="Arial, sans-serif" font-size="353px" font-weight="400"><tspan class="TextPosition" x="14202" y="10651"><tspan fill="rgb(0,0,0)" stroke="none">Albania</tspan></tspan></tspan></text>
 <text class="TextShape" transform="rotate(-44.9 14765 10744)"><tspan class="TextParagraph" font-family="Arial, sans-serif" font-size="353px" font-weight="400"><tspan class="TextPosition" x="14765" y="10744"><tspan fill="rgb(0,0,0)" stroke="none">Portugal</tspan></tspan></tspan></text>
 <text class="TextShape" transform="rotate(-44.9 15720 10446)"><tspan class="TextParagraph" font-family="Arial, sans-serif" font-size="353px" font-weight="400"><tspan class="TextPosition" x="15720" y="10446"><tspan fill="rgb(0,0,0)" stroke="none">Malta</tspan></tspan></tspan></text>
 <text class="TextShape" transform="rotate(-44.9 16004 10819)"><tspan class="TextParagraph" font-family="Arial, sans-serif" font-size="353px" font-weight="400"><tspan class="TextPosition" x="16004" y="10819"><tspan fill="rgb(0,0,0)" stroke="none">Denmark</tspan></tspan></tspan></text>
 <text class="TextShape" transform="rotate(-44.9 16885 10594)"><tspan class="TextParagraph" font-family="Arial, sans-serif" font-size="353px" font-weight="400"><tspan class="TextPosition" x="16885" y="10594"><tspan fill="rgb(0,0,0)" stroke="none">Russia</tspan></tspan></tspan></text>
 <text class="TextShape" transform="rotate(-44.9 17148 10988)"><tspan class="TextParagraph" font-family="Arial, sans-serif" font-size="353px" font-weight="400"><tspan class="TextPosition" x="17148" y="10988"><tspan fill="rgb(0,0,0)" stroke="none">Azerbaijan</tspan></tspan></tspan></text>
 <text class="TextShape" transform="rotate(-44.9 17955 10838)"><tspan class="TextParagraph" font-family="Arial, sans-serif" font-size="353px" font-weight="400"><tspan class="TextPosition" x="17955" y="10838"><tspan fill="rgb(0,0,0)" stroke="none">Germany</tspan></tspan></tspan></text>
 <text class="TextShape" transform="rotate(-44.9 18836 10614)"><tspan class="TextParagraph" font-family="Arial, sans-serif" font-size="353px" font-weight="400"><tspan class="TextPosition" x="18836" y="10614"><tspan fill="rgb(0,0,0)" stroke="none">Austria</tspan></tspan></tspan></text>
 <text class="TextShape" transform="rotate(-44.9 19438 10670)"><tspan class="TextParagraph" font-family="Arial, sans-serif" font-size="353px" font-weight="400"><tspan class="TextPosition" x="19438" y="10670"><tspan fill="rgb(0,0,0)" stroke="none">Belarus</tspan></tspan></tspan></text>
 <text class="TextShape" transform="rotate(-44.9 20037 10726)"><tspan class="TextParagraph" font-family="Arial, sans-serif" font-size="353px" font-weight="400"><tspan class="TextPosition" x="20037" y="10726"><tspan fill="rgb(0,0,0)" stroke="none">Bulgaria</tspan></tspan></tspan></text>
 <text class="TextShape" transform="rotate(-44.9 20882 10538)"><tspan class="TextParagraph" font-family="Arial, sans-serif" font-size="353px" font-weight="400"><tspan class="TextPosition" x="20882" y="10538"><tspan fill="rgb(0,0,0)" stroke="none">Serbia</tspan></tspan></tspan></text>
 <text class="TextShape" transform="rotate(-44.9 21295 10782)"><tspan class="TextParagraph" font-family="Arial, sans-serif" font-size="353px" font-weight="400"><tspan class="TextPosition" x="21295" y="10782"><tspan fill="rgb(0,0,0)" stroke="none">Slovenia</tspan></tspan></tspan></text>
 <text class="TextShape" transform="rotate(-44.9 22065 10670)"><tspan class="TextParagraph" font-family="Arial, sans-serif" font-size="353px" font-weight="400"><tspan class="TextPosition" x="22065" y="10670"><tspan fill="rgb(0,0,0)" stroke="none">Ukraine</tspan></tspan></tspan></text>
 <text class="TextShape" transform="rotate(-44.9 22665 10726)"><tspan class="TextParagraph" font-family="Arial, sans-serif" font-size="353px" font-weight="400"><tspan class="TextPosition" x="22665" y="10726"><tspan fill="rgb(0,0,0)" stroke="none">Czechia</tspan></tspan></tspan></text>
 <text class="TextShape" transform="rotate(-44.9 23398 10651)"><tspan class="TextParagraph" font-family="Arial, sans-serif" font-size="353px" font-weight="400"><tspan class="TextPosition" x="23398" y="10651"><tspan fill="rgb(0,0,0)" stroke="none">Norway</tspan></tspan></tspan></text>
 <text class="TextShape" transform="rotate(-44.9 24072 10632)"><tspan class="TextParagraph" font-family="Arial, sans-serif" font-size="353px" font-weight="400"><tspan class="TextPosition" x="24072" y="10632"><tspan fill="rgb(0,0,0)" stroke="none">Finland</tspan></tspan></tspan></text>
 <text class="TextShape" transform="rotate(-44.9 24617 10744)"><tspan class="TextParagraph" font-family="Arial, sans-serif" font-size="353px" font-weight="400"><tspan class="TextPosition" x="24617" y="10744"><tspan fill="rgb(0,0,0)" stroke="none">Hungary</tspan></tspan></tspan></text>
 <text class="TextShape" transform="rotate(-44.9 25423 10594)"><tspan class="TextParagraph" font-family="Arial, sans-serif" font-size="353px" font-weight="400"><tspan class="TextPosition" x="25423" y="10594"><tspan fill="rgb(0,0,0)" stroke="none">Poland</tspan></tspan></tspan></text>
 <text class="TextShape" transform="rotate(-44.9 26060 10614)"><tspan class="TextParagraph" font-family="Arial, sans-serif" font-size="353px" font-weight="400"><tspan class="TextPosition" x="26060" y="10614"><tspan fill="rgb(0,0,0)" stroke="none">Croatia</tspan></tspan></tspan></text>
 <text class="TextShape" transform="rotate(-44.9 26699 10632)"><tspan class="TextParagraph" font-family="Arial, sans-serif" font-size="353px" font-weight="400"><tspan class="TextPosition" x="26699" y="10632"><tspan fill="rgb(0,0,0)" stroke="none">Iceland</tspan></tspan></tspan></text>
 <text class="TextShape" transform="rotate(-44.9 27319 10670)"><tspan class="TextParagraph" font-family="Arial, sans-serif" font-size="353px" font-weight="400"><tspan class="TextPosition" x="27319" y="10670"><tspan fill="rgb(0,0,0)" stroke="none">Estonia</tspan></tspan></tspan></text>
 <text class="TextShape" transform="rotate(-44.9 28030 10614)"><tspan class="TextParagraph" font-family="Arial, sans-serif" font-size="353px" font-weight="400"><tspan class="TextPosition" x="28030" y="10614"><tspan fill="rgb(0,0,0)" stroke="none">Cyprus</tspan></tspan></tspan></text>
 <text class="TextShape" transform="rotate(-44.9 28669 10632)"><tspan class="TextParagraph" font-family="Arial, sans-serif" font-size="353px" font-weight="400"><tspan class="TextPosition" x="28669" y="10632"><tspan fill="rgb(0,0,0)" stroke="none">Greece</tspan></tspan></tspan></text>
 <text class="TextShape" transform="rotate(-44.9 29140 10819)"><tspan class="TextParagraph" font-family="Arial, sans-serif" font-size="353px" font-weight="400"><tspan class="TextPosition" x="29140" y="10819"><tspan fill="rgb(0,0,0)" stroke="none">Lithuania</tspan></tspan></tspan></text>
 <text class="TextShape" transform="rotate(-44.9 30115 10501)"><tspan class="TextParagraph" font-family="Arial, sans-serif" font-size="353px" font-weight="400"><tspan class="TextPosition" x="30115" y="10501"><tspan fill="rgb(0,0,0)" stroke="none">Latvia</tspan></tspan></tspan></text>
 <text class="TextShape" transform="rotate(-44.9 30584 10688)"><tspan class="TextParagraph" font-family="Arial, sans-serif" font-size="353px" font-weight="400"><tspan class="TextPosition" x="30584" y="10688"><tspan fill="rgb(0,0,0)" stroke="none">Georgia</tspan></tspan></tspan></text>
 <text class="TextShape" transform="rotate(-44.9 31129 10800)"><tspan class="TextParagraph" font-family="Arial, sans-serif" font-size="353px" font-weight="400"><tspan class="TextPosition" x="31129" y="10800"><tspan fill="rgb(0,0,0)" stroke="none">S. Korea</tspan></tspan></tspan></text>
 <text class="TextShape" transform="rotate(-44.9 31803 10782)"><tspan class="TextParagraph" font-family="Arial, sans-serif" font-size="353px" font-weight="400"><tspan class="TextPosition" x="31803" y="10782"><tspan fill="rgb(0,0,0)" stroke="none">Slovakia</tspan></tspan></tspan></text>
 <text class="TextShape" transform="rotate(-44.9 32742 10501)"><tspan class="TextParagraph" font-family="Arial, sans-serif" font-size="353px" font-weight="400"><tspan class="TextPosition" x="32742" y="10501"><tspan fill="rgb(0,0,0)" stroke="none">Japan</tspan></tspan></tspan></text>
 <text class="TextShape" transform="rotate(-44.9 33435 10464)"><tspan class="TextParagraph" font-family="Arial, sans-serif" font-size="353px" font-weight="400"><tspan class="TextPosition" x="33435" y="10464"><tspan fill="rgb(0,0,0)" stroke="none">China</tspan></tspan></tspan></text>
 <text class="TextShape"><tspan class="TextParagraph" font-family="Arial, sans-serif" font-size="353px" font-weight="400"><tspan class="TextPosition" x="886" y="9492"><tspan fill="rgb(0,0,0)" stroke="none">0,00%</tspan></tspan></tspan></text>
 <text class="TextShape"><tspan class="TextParagraph" font-family="Arial, sans-serif" font-size="353px" font-weight="400"><tspan class="TextPosition" x="886" y="8697"><tspan fill="rgb(0,0,0)" stroke="none">5,00%</tspan></tspan></tspan></text>
 <text class="TextShape"><tspan class="TextParagraph" font-family="Arial, sans-serif" font-size="353px" font-weight="400"><tspan class="TextPosition" x="701" y="7902"><tspan fill="rgb(0,0,0)" stroke="none">10,00%</tspan></tspan></tspan></text>
 <text class="TextShape"><tspan class="TextParagraph" font-family="Arial, sans-serif" font-size="353px" font-weight="400"><tspan class="TextPosition" x="701" y="7107"><tspan fill="rgb(0,0,0)" stroke="none">15,00%</tspan></tspan></tspan></text>
 <text class="TextShape"><tspan class="TextParagraph" font-family="Arial, sans-serif" font-size="353px" font-weight="400"><tspan class="TextPosition" x="701" y="6312"><tspan fill="rgb(0,0,0)" stroke="none">20,00%</tspan></tspan></tspan></text>
 <text class="TextShape"><tspan class="TextParagraph" font-family="Arial, sans-serif" font-size="353px" font-weight="400"><tspan class="TextPosition" x="701" y="5517"><tspan fill="rgb(0,0,0)" stroke="none">25,00%</tspan></tspan></tspan></text>
 <text class="TextShape"><tspan class="TextParagraph" font-family="Arial, sans-serif" font-size="353px" font-weight="400"><tspan class="TextPosition" x="701" y="4721"><tspan fill="rgb(0,0,0)" stroke="none">30,00%</tspan></tspan></tspan></text>
 <text class="TextShape"><tspan class="TextParagraph" font-family="Arial, sans-serif" font-size="353px" font-weight="400"><tspan class="TextPosition" x="701" y="3926"><tspan fill="rgb(0,0,0)" stroke="none">35,00%</tspan></tspan></tspan></text>
 <text class="TextShape"><tspan class="TextParagraph" font-family="Arial, sans-serif" font-size="353px" font-weight="400"><tspan class="TextPosition" x="701" y="3132"><tspan fill="rgb(0,0,0)" stroke="none">40,00%</tspan></tspan></tspan></text>
 <text class="TextShape"><tspan class="TextParagraph" font-family="Arial, sans-serif" font-size="353px" font-weight="400"><tspan class="TextPosition" x="701" y="2337"><tspan fill="rgb(0,0,0)" stroke="none">45,00%</tspan></tspan></tspan></text>
 <text class="TextShape"><tspan class="TextParagraph" font-family="Arial, sans-serif" font-size="459px" font-weight="400"><tspan class="TextPosition" x="6705" y="931"><tspan fill="rgb(0,0,0)" stroke="none">Pandemic index based on number of deaths/ Járvány erősség index a halálesetek száma alapján 2020.10.05.</tspan></tspan></tspan></text>
 <path fill="rgb(0,69,134)" stroke="none" d="M 11418,1764 L 11018,1764 11018,1553 11818,1553 11818,1764 11418,1764 Z"/>
 <path fill="none" stroke="rgb(0,69,134)" stroke-linejoin="round" d="M 16967,1658 L 17766,1658"/>
 <text class="TextShape"><tspan class="TextParagraph" font-family="Arial, sans-serif" font-size="353px" font-weight="400"><tspan class="TextPosition" x="11918" y="1778"><tspan fill="rgb(0,0,0)" stroke="none">Pandemic index/ Járvány index</tspan></tspan></tspan></text>
 <text class="TextShape"><tspan class="TextParagraph" font-family="Arial, sans-serif" font-size="353px" font-weight="400"><tspan class="TextPosition" x="17866" y="1778"><tspan fill="rgb(0,0,0)" stroke="none">Közép (Pandemic index/ Járvány index)</tspan></tspan></tspan></text>
</svg>