<?xml version="1.0" encoding="UTF-8"?>
<!DOCTYPE svg PUBLIC "-//W3C//DTD SVG 1.1//EN" "http://www.w3.org/Graphics/SVG/1.1/DTD/svg11.dtd">
<svg width="350mm" height="130mm" viewBox="0 0 35000 13000" version="1.1" xmlns="http://www.w3.org/2000/svg" xmlns:xlink="http://www.w3.org/1999/xlink" stroke-width="28.222" stroke-linejoin="round" xml:space="preserve">
 <path fill="rgb(255,255,255)" stroke="none" d="M 17500,12999 L 0,12999 0,0 34999,0 34999,12999 17500,12999 Z"/>
 <path fill="none" stroke="rgb(179,179,179)" stroke-linejoin="round" d="M 18207,9372 L 2115,9372 2115,2218 34299,2218 34299,9372 18207,9372 Z"/>
 <path fill="none" stroke="rgb(179,179,179)" stroke-width="18" stroke-linejoin="round" d="M 34299,9371 L 2115,9371"/>
 <path fill="none" stroke="rgb(179,179,179)" stroke-width="18" stroke-linejoin="round" d="M 34299,8576 L 2115,8576"/>
 <path fill="none" stroke="rgb(179,179,179)" stroke-width="18" stroke-linejoin="round" d="M 34299,7781 L 2115,7781"/>
 <path fill="none" stroke="rgb(179,179,179)" stroke-width="18" stroke-linejoin="round" d="M 34299,6986 L 2115,6986"/>
 <path fill="none" stroke="rgb(179,179,179)" stroke-width="18" stroke-linejoin="round" d="M 34299,6192 L 2115,6192"/>
 <path fill="none" stroke="rgb(179,179,179)" stroke-width="18" stroke-linejoin="round" d="M 34299,5397 L 2115,5397"/>
 <path fill="none" stroke="rgb(179,179,179)" stroke-width="18" stroke-linejoin="round" d="M 34299,4601 L 2115,4601"/>
 <path fill="none" stroke="rgb(179,179,179)" stroke-width="18" stroke-linejoin="round" d="M 34299,3806 L 2115,3806"/>
 <path fill="none" stroke="rgb(179,179,179)" stroke-width="18" stroke-linejoin="round" d="M 34299,3012 L 2115,3012"/>
 <path fill="none" stroke="rgb(179,179,179)" stroke-width="18" stroke-linejoin="round" d="M 34299,2217 L 2115,2217"/>
 <path fill="none" stroke="rgb(179,179,179)" stroke-width="18" stroke-linejoin="round" d="M 2115,9521 L 2115,9371"/>
 <path fill="none" stroke="rgb(179,179,179)" stroke-width="18" stroke-linejoin="round" d="M 2771,9521 L 2771,9371"/>
 <path fill="none" stroke="rgb(179,179,179)" stroke-width="18" stroke-linejoin="round" d="M 3428,9521 L 3428,9371"/>
 <path fill="none" stroke="rgb(179,179,179)" stroke-width="18" stroke-linejoin="round" d="M 4085,9521 L 4085,9371"/>
 <path fill="none" stroke="rgb(179,179,179)" stroke-width="18" stroke-linejoin="round" d="M 4742,9521 L 4742,9371"/>
 <path fill="none" stroke="rgb(179,179,179)" stroke-width="18" stroke-linejoin="round" d="M 5399,9521 L 5399,9371"/>
 <path fill="none" stroke="rgb(179,179,179)" stroke-width="18" stroke-linejoin="round" d="M 6056,9521 L 6056,9371"/>
 <path fill="none" stroke="rgb(179,179,179)" stroke-width="18" stroke-linejoin="round" d="M 6712,9521 L 6712,9371"/>
 <path fill="none" stroke="rgb(179,179,179)" stroke-width="18" stroke-linejoin="round" d="M 7369,9521 L 7369,9371"/>
 <path fill="none" stroke="rgb(179,179,179)" stroke-width="18" stroke-linejoin="round" d="M 8026,9521 L 8026,9371"/>
 <path fill="none" stroke="rgb(179,179,179)" stroke-width="18" stroke-linejoin="round" d="M 8683,9521 L 8683,9371"/>
 <path fill="none" stroke="rgb(179,179,179)" stroke-width="18" stroke-linejoin="round" d="M 9340,9521 L 9340,9371"/>
 <path fill="none" stroke="rgb(179,179,179)" stroke-width="18" stroke-linejoin="round" d="M 9997,9521 L 9997,9371"/>
 <path fill="none" stroke="rgb(179,179,179)" stroke-width="18" stroke-linejoin="round" d="M 10653,9521 L 10653,9371"/>
 <path fill="none" stroke="rgb(179,179,179)" stroke-width="18" stroke-linejoin="round" d="M 11310,9521 L 11310,9371"/>
 <path fill="none" stroke="rgb(179,179,179)" stroke-width="18" stroke-linejoin="round" d="M 11967,9521 L 11967,9371"/>
 <path fill="none" stroke="rgb(179,179,179)" stroke-width="18" stroke-linejoin="round" d="M 12624,9521 L 12624,9371"/>
 <path fill="none" stroke="rgb(179,179,179)" stroke-width="18" stroke-linejoin="round" d="M 13281,9521 L 13281,9371"/>
 <path fill="none" stroke="rgb(179,179,179)" stroke-width="18" stroke-linejoin="round" d="M 13938,9521 L 13938,9371"/>
 <path fill="none" stroke="rgb(179,179,179)" stroke-width="18" stroke-linejoin="round" d="M 14594,9521 L 14594,9371"/>
 <path fill="none" stroke="rgb(179,179,179)" stroke-width="18" stroke-linejoin="round" d="M 15251,9521 L 15251,9371"/>
 <path fill="none" stroke="rgb(179,179,179)" stroke-width="18" stroke-linejoin="round" d="M 15908,9521 L 15908,9371"/>
 <path fill="none" stroke="rgb(179,179,179)" stroke-width="18" stroke-linejoin="round" d="M 16565,9521 L 16565,9371"/>
 <path fill="none" stroke="rgb(179,179,179)" stroke-width="18" stroke-linejoin="round" d="M 17222,9521 L 17222,9371"/>
 <path fill="none" stroke="rgb(179,179,179)" stroke-width="18" stroke-linejoin="round" d="M 17878,9521 L 17878,9371"/>
 <path fill="none" stroke="rgb(179,179,179)" stroke-width="18" stroke-linejoin="round" d="M 18534,9521 L 18534,9371"/>
 <path fill="none" stroke="rgb(179,179,179)" stroke-width="18" stroke-linejoin="round" d="M 19191,9521 L 19191,9371"/>
 <path fill="none" stroke="rgb(179,179,179)" stroke-width="18" stroke-linejoin="round" d="M 19848,9521 L 19848,9371"/>
 <path fill="none" stroke="rgb(179,179,179)" stroke-width="18" stroke-linejoin="round" d="M 20505,9521 L 20505,9371"/>
 <path fill="none" stroke="rgb(179,179,179)" stroke-width="18" stroke-linejoin="round" d="M 21162,9521 L 21162,9371"/>
 <path fill="none" stroke="rgb(179,179,179)" stroke-width="18" stroke-linejoin="round" d="M 21819,9521 L 21819,9371"/>
 <path fill="none" stroke="rgb(179,179,179)" stroke-width="18" stroke-linejoin="round" d="M 22475,9521 L 22475,9371"/>
 <path fill="none" stroke="rgb(179,179,179)" stroke-width="18" stroke-linejoin="round" d="M 23132,9521 L 23132,9371"/>
 <path fill="none" stroke="rgb(179,179,179)" stroke-width="18" stroke-linejoin="round" d="M 23789,9521 L 23789,9371"/>
 <path fill="none" stroke="rgb(179,179,179)" stroke-width="18" stroke-linejoin="round" d="M 24446,9521 L 24446,9371"/>
 <path fill="none" stroke="rgb(179,179,179)" stroke-width="18" stroke-linejoin="round" d="M 25103,9521 L 25103,9371"/>
 <path fill="none" stroke="rgb(179,179,179)" stroke-width="18" stroke-linejoin="round" d="M 25760,9521 L 25760,9371"/>
 <path fill="none" stroke="rgb(179,179,179)" stroke-width="18" stroke-linejoin="round" d="M 26416,9521 L 26416,9371"/>
 <path fill="none" stroke="rgb(179,179,179)" stroke-width="18" stroke-linejoin="round" d="M 27073,9521 L 27073,9371"/>
 <path fill="none" stroke="rgb(179,179,179)" stroke-width="18" stroke-linejoin="round" d="M 27730,9521 L 27730,9371"/>
 <path fill="none" stroke="rgb(179,179,179)" stroke-width="18" stroke-linejoin="round" d="M 28387,9521 L 28387,9371"/>
 <path fill="none" stroke="rgb(179,179,179)" stroke-width="18" stroke-linejoin="round" d="M 29044,9521 L 29044,9371"/>
 <path fill="none" stroke="rgb(179,179,179)" stroke-width="18" stroke-linejoin="round" d="M 29701,9521 L 29701,9371"/>
 <path fill="none" stroke="rgb(179,179,179)" stroke-width="18" stroke-linejoin="round" d="M 30357,9521 L 30357,9371"/>
 <path fill="none" stroke="rgb(179,179,179)" stroke-width="18" stroke-linejoin="round" d="M 31014,9521 L 31014,9371"/>
 <path fill="none" stroke="rgb(179,179,179)" stroke-width="18" stroke-linejoin="round" d="M 31671,9521 L 31671,9371"/>
 <path fill="none" stroke="rgb(179,179,179)" stroke-width="18" stroke-linejoin="round" d="M 32328,9521 L 32328,9371"/>
 <path fill="none" stroke="rgb(179,179,179)" stroke-width="18" stroke-linejoin="round" d="M 32985,9521 L 32985,9371"/>
 <path fill="none" stroke="rgb(179,179,179)" stroke-width="18" stroke-linejoin="round" d="M 33642,9521 L 33642,9371"/>
 <path fill="none" stroke="rgb(179,179,179)" stroke-width="18" stroke-linejoin="round" d="M 34299,9521 L 34299,9371"/>
 <path fill="none" stroke="rgb(179,179,179)" stroke-width="18" stroke-linejoin="round" d="M 2115,9371 L 34299,9371"/>
 <path fill="none" stroke="rgb(179,179,179)" stroke-width="18" stroke-linejoin="round" d="M 1965,9371 L 2115,9371"/>
 <path fill="none" stroke="rgb(179,179,179)" stroke-width="18" stroke-linejoin="round" d="M 1965,8576 L 2115,8576"/>
 <path fill="none" stroke="rgb(179,179,179)" stroke-width="18" stroke-linejoin="round" d="M 1965,7781 L 2115,7781"/>
 <path fill="none" stroke="rgb(179,179,179)" stroke-width="18" stroke-linejoin="round" d="M 1965,6986 L 2115,6986"/>
 <path fill="none" stroke="rgb(179,179,179)" stroke-width="18" stroke-linejoin="round" d="M 1965,6192 L 2115,6192"/>
 <path fill="none" stroke="rgb(179,179,179)" stroke-width="18" stroke-linejoin="round" d="M 1965,5397 L 2115,5397"/>
 <path fill="none" stroke="rgb(179,179,179)" stroke-width="18" stroke-linejoin="round" d="M 1965,4601 L 2115,4601"/>
 <path fill="none" stroke="rgb(179,179,179)" stroke-width="18" stroke-linejoin="round" d="M 1965,3806 L 2115,3806"/>
 <path fill="none" stroke="rgb(179,179,179)" stroke-width="18" stroke-linejoin="round" d="M 1965,3012 L 2115,3012"/>
 <path fill="none" stroke="rgb(179,179,179)" stroke-width="18" stroke-linejoin="round" d="M 1965,2217 L 2115,2217"/>
 <path fill="none" stroke="rgb(179,179,179)" stroke-width="18" stroke-linejoin="round" d="M 2115,9371 L 2115,2217"/>
 <path fill="rgb(0,69,134)" stroke="none" d="M 33806,9371 L 34134,9371 34134,9365 33806,9365 33806,9371 Z"/>
 <path fill="rgb(0,69,134)" stroke="none" d="M 33149,9371 L 33477,9371 33477,9170 33149,9170 33149,9371 Z"/>
 <path fill="rgb(0,69,134)" stroke="none" d="M 32492,9371 L 32821,9371 32821,9128 32492,9128 32492,9371 Z"/>
 <path fill="rgb(0,69,134)" stroke="none" d="M 31835,9371 L 32164,9371 32164,9095 31835,9095 31835,9371 Z"/>
 <path fill="rgb(0,69,134)" stroke="none" d="M 31179,9371 L 31507,9371 31507,8937 31179,8937 31179,9371 Z"/>
 <path fill="rgb(0,69,134)" stroke="none" d="M 30522,9371 L 30850,9371 30850,8603 30522,8603 30522,9371 Z"/>
 <path fill="rgb(0,69,134)" stroke="none" d="M 29865,9371 L 30193,9371 30193,8289 29865,8289 29865,9371 Z"/>
 <path fill="rgb(0,69,134)" stroke="none" d="M 29208,9371 L 29536,9371 29536,8134 29208,8134 29208,9371 Z"/>
 <path fill="rgb(0,69,134)" stroke="none" d="M 28551,9371 L 28880,9371 28880,8098 28551,8098 28551,9371 Z"/>
 <path fill="rgb(0,69,134)" stroke="none" d="M 27894,9371 L 28223,9371 28223,8084 27894,8084 27894,9371 Z"/>
 <path fill="rgb(0,69,134)" stroke="none" d="M 27238,9371 L 27566,9371 27566,8080 27238,8080 27238,9371 Z"/>
 <path fill="rgb(0,69,134)" stroke="none" d="M 26581,9371 L 26909,9371 26909,8053 26581,8053 26581,9371 Z"/>
 <path fill="rgb(0,69,134)" stroke="none" d="M 25924,9371 L 26252,9371 26252,7933 25924,7933 25924,9371 Z"/>
 <path fill="rgb(0,69,134)" stroke="none" d="M 25267,9371 L 25595,9371 25595,7879 25267,7879 25267,9371 Z"/>
 <path fill="rgb(0,69,134)" stroke="none" d="M 24610,9371 L 24939,9371 24939,7829 24610,7829 24610,9371 Z"/>
 <path fill="rgb(0,69,134)" stroke="none" d="M 23953,9371 L 24282,9371 24282,7767 23953,7767 23953,9371 Z"/>
 <path fill="rgb(0,69,134)" stroke="none" d="M 23296,9371 L 23625,9371 23625,7524 23296,7524 23296,9371 Z"/>
 <path fill="rgb(255,0,0)" stroke="none" d="M 22640,9371 L 22968,9371 22968,7521 22640,7521 22640,9371 Z"/>
 <path fill="rgb(0,69,134)" stroke="none" d="M 21983,9371 L 22311,9371 22311,7491 21983,7491 21983,9371 Z"/>
 <path fill="rgb(0,69,134)" stroke="none" d="M 21326,9371 L 21654,9371 21654,7389 21326,7389 21326,9371 Z"/>
 <path fill="rgb(0,69,134)" stroke="none" d="M 20669,9371 L 20998,9371 20998,7322 20669,7322 20669,9371 Z"/>
 <path fill="rgb(0,69,134)" stroke="none" d="M 20012,9371 L 20341,9371 20341,7136 20012,7136 20012,9371 Z"/>
 <path fill="rgb(0,69,134)" stroke="none" d="M 19355,9371 L 19684,9371 19684,7117 19355,7117 19355,9371 Z"/>
 <path fill="rgb(0,69,134)" stroke="none" d="M 18699,9371 L 19027,9371 19027,7096 18699,7096 18699,9371 Z"/>
 <path fill="rgb(0,69,134)" stroke="none" d="M 18042,9371 L 18370,9371 18370,7034 18042,7034 18042,9371 Z"/>
 <path fill="rgb(0,69,134)" stroke="none" d="M 17386,9371 L 17713,9371 17713,6884 17386,6884 17386,9371 Z"/>
 <path fill="rgb(0,69,134)" stroke="none" d="M 16729,9371 L 17058,9371 17058,6877 16729,6877 16729,9371 Z"/>
 <path fill="rgb(0,69,134)" stroke="none" d="M 16072,9371 L 16401,9371 16401,6709 16072,6709 16072,9371 Z"/>
 <path fill="rgb(0,69,134)" stroke="none" d="M 15415,9371 L 15744,9371 15744,6683 15415,6683 15415,9371 Z"/>
 <path fill="rgb(0,69,134)" stroke="none" d="M 14759,9371 L 15087,9371 15087,6600 14759,6600 14759,9371 Z"/>
 <path fill="rgb(0,69,134)" stroke="none" d="M 14102,9371 L 14430,9371 14430,6516 14102,6516 14102,9371 Z"/>
 <path fill="rgb(0,69,134)" stroke="none" d="M 13445,9371 L 13773,9371 13773,6169 13445,6169 13445,9371 Z"/>
 <path fill="rgb(0,69,134)" stroke="none" d="M 12788,9371 L 13117,9371 13117,6013 12788,6013 12788,9371 Z"/>
 <path fill="rgb(0,69,134)" stroke="none" d="M 12131,9371 L 12460,9371 12460,5983 12131,5983 12131,9371 Z"/>
 <path fill="rgb(0,69,134)" stroke="none" d="M 11474,9371 L 11803,9371 11803,5976 11474,5976 11474,9371 Z"/>
 <path fill="rgb(0,69,134)" stroke="none" d="M 10818,9371 L 11146,9371 11146,5919 10818,5919 10818,9371 Z"/>
 <path fill="rgb(0,69,134)" stroke="none" d="M 10161,9371 L 10489,9371 10489,5721 10161,5721 10161,9371 Z"/>
 <path fill="rgb(0,69,134)" stroke="none" d="M 9504,9371 L 9832,9371 9832,5659 9504,5659 9504,9371 Z"/>
 <path fill="rgb(0,69,134)" stroke="none" d="M 8847,9371 L 9175,9371 9175,5569 8847,5569 8847,9371 Z"/>
 <path fill="rgb(0,69,134)" stroke="none" d="M 8190,9371 L 8519,9371 8519,5024 8190,5024 8190,9371 Z"/>
 <path fill="rgb(0,69,134)" stroke="none" d="M 7533,9371 L 7862,9371 7862,4946 7533,4946 7533,9371 Z"/>
 <path fill="rgb(0,69,134)" stroke="none" d="M 6877,9371 L 7205,9371 7205,4924 6877,4924 6877,9371 Z"/>
 <path fill="rgb(0,69,134)" stroke="none" d="M 6220,9371 L 6548,9371 6548,4446 6220,4446 6220,9371 Z"/>
 <path fill="rgb(0,69,134)" stroke="none" d="M 5563,9371 L 5891,9371 5891,4441 5563,4441 5563,9371 Z"/>
 <path fill="rgb(0,69,134)" stroke="none" d="M 4906,9371 L 5234,9371 5234,4105 4906,4105 4906,9371 Z"/>
 <path fill="rgb(0,69,134)" stroke="none" d="M 4249,9371 L 4578,9371 4578,3715 4249,3715 4249,9371 Z"/>
 <path fill="rgb(0,69,134)" stroke="none" d="M 3592,9371 L 3921,9371 3921,3533 3592,3533 3592,9371 Z"/>
 <path fill="rgb(0,69,134)" stroke="none" d="M 2936,9371 L 3264,9371 3264,3329 2936,3329 2936,9371 Z"/>
 <path fill="rgb(0,69,134)" stroke="none" d="M 2279,9371 L 2607,9371 2607,2973 2279,2973 2279,9371 Z"/>
 <path fill="none" stroke="rgb(0,69,134)" stroke-linejoin="round" d="M 2115,6710 L 34299,6710"/>
 <text class="TextShape" transform="rotate(-44.9 1384 10988)"><tspan class="TextParagraph" font-family="Arial, sans-serif" font-size="353px" font-weight="400"><tspan class="TextPosition" x="1384" y="10988"><tspan fill="rgb(0,0,0)" stroke="none">Azerbaijan</tspan></tspan></tspan></text>
 <text class="TextShape" transform="rotate(-44.9 2285 10744)"><tspan class="TextParagraph" font-family="Arial, sans-serif" font-size="353px" font-weight="400"><tspan class="TextPosition" x="2285" y="10744"><tspan fill="rgb(0,0,0)" stroke="none">Armenia</tspan></tspan></tspan></text>
 <text class="TextShape" transform="rotate(-44.9 3036 10651)"><tspan class="TextParagraph" font-family="Arial, sans-serif" font-size="353px" font-weight="400"><tspan class="TextPosition" x="3036" y="10651"><tspan fill="rgb(0,0,0)" stroke="none">Albania</tspan></tspan></tspan></text>
 <text class="TextShape" transform="rotate(-44.9 2662 11680)"><tspan class="TextParagraph" font-family="Arial, sans-serif" font-size="353px" font-weight="400"><tspan class="TextPosition" x="2662" y="11680"><tspan fill="rgb(0,0,0)" stroke="none">North Macedonia</tspan></tspan></tspan></text>
 <text class="TextShape" transform="rotate(-44.9 4217 10782)"><tspan class="TextParagraph" font-family="Arial, sans-serif" font-size="353px" font-weight="400"><tspan class="TextPosition" x="4217" y="10782"><tspan fill="rgb(0,0,0)" stroke="none">Slovakia</tspan></tspan></tspan></text>
 <text class="TextShape" transform="rotate(-44.9 3172 12484)"><tspan class="TextParagraph" font-family="Arial, sans-serif" font-size="353px" font-weight="400"><tspan class="TextPosition" x="3172" y="12484"><tspan fill="rgb(0,0,0)" stroke="none">Bosnia and Herzegovina</tspan></tspan></tspan></text>
 <text class="TextShape" transform="rotate(-44.9 5587 10726)"><tspan class="TextParagraph" font-family="Arial, sans-serif" font-size="353px" font-weight="400"><tspan class="TextPosition" x="5587" y="10726"><tspan fill="rgb(0,0,0)" stroke="none">Czechia</tspan></tspan></tspan></text>
 <text class="TextShape" transform="rotate(-44.9 6620 10351)"><tspan class="TextParagraph" font-family="Arial, sans-serif" font-size="353px" font-weight="400"><tspan class="TextPosition" x="6620" y="10351"><tspan fill="rgb(0,0,0)" stroke="none">USA</tspan></tspan></tspan></text>
 <text class="TextShape" transform="rotate(-44.9 6509 11118)"><tspan class="TextParagraph" font-family="Arial, sans-serif" font-size="353px" font-weight="400"><tspan class="TextPosition" x="6509" y="11118"><tspan fill="rgb(0,0,0)" stroke="none">Montenegro</tspan></tspan></tspan></text>
 <text class="TextShape" transform="rotate(-44.9 7614 10670)"><tspan class="TextParagraph" font-family="Arial, sans-serif" font-size="353px" font-weight="400"><tspan class="TextPosition" x="7614" y="10670"><tspan fill="rgb(0,0,0)" stroke="none">Belarus</tspan></tspan></tspan></text>
 <text class="TextShape" transform="rotate(-44.9 8178 10762)"><tspan class="TextParagraph" font-family="Arial, sans-serif" font-size="353px" font-weight="400"><tspan class="TextPosition" x="8178" y="10762"><tspan fill="rgb(0,0,0)" stroke="none">Moldova</tspan></tspan></tspan></text>
 <text class="TextShape" transform="rotate(-44.9 9003 10594)"><tspan class="TextParagraph" font-family="Arial, sans-serif" font-size="353px" font-weight="400"><tspan class="TextPosition" x="9003" y="10594"><tspan fill="rgb(0,0,0)" stroke="none">Russia</tspan></tspan></tspan></text>
 <text class="TextShape" transform="rotate(-44.9 9660 10594)"><tspan class="TextParagraph" font-family="Arial, sans-serif" font-size="353px" font-weight="400"><tspan class="TextPosition" x="9660" y="10594"><tspan fill="rgb(0,0,0)" stroke="none">Poland</tspan></tspan></tspan></text>
 <text class="TextShape" transform="rotate(-44.9 10129 10782)"><tspan class="TextParagraph" font-family="Arial, sans-serif" font-size="353px" font-weight="400"><tspan class="TextPosition" x="10129" y="10782"><tspan fill="rgb(0,0,0)" stroke="none">Slovenia</tspan></tspan></tspan></text>
 <text class="TextShape" transform="rotate(-44.9 11104 10464)"><tspan class="TextParagraph" font-family="Arial, sans-serif" font-size="353px" font-weight="400"><tspan class="TextPosition" x="11104" y="10464"><tspan fill="rgb(0,0,0)" stroke="none">Spain</tspan></tspan></tspan></text>
 <text class="TextShape" transform="rotate(-44.9 11910 10314)"><tspan class="TextParagraph" font-family="Arial, sans-serif" font-size="353px" font-weight="400"><tspan class="TextPosition" x="11910" y="10314"><tspan fill="rgb(0,0,0)" stroke="none">Italy</tspan></tspan></tspan></text>
 <text class="TextShape" transform="rotate(-44.9 12699 10182)"><tspan class="TextParagraph" font-family="Arial, sans-serif" font-size="353px" font-weight="400"><tspan class="TextPosition" x="12699" y="10182"><tspan fill="rgb(0,0,0)" stroke="none">UK</tspan></tspan></tspan></text>
 <text class="TextShape" transform="rotate(-44.9 12794 10744)"><tspan class="TextParagraph" font-family="Arial, sans-serif" font-size="353px" font-weight="400"><tspan class="TextPosition" x="12794" y="10744"><tspan fill="rgb(0,0,0)" stroke="none">Portugal</tspan></tspan></tspan></text>
 <text class="TextShape" transform="rotate(-44.9 13395 10800)"><tspan class="TextParagraph" font-family="Arial, sans-serif" font-size="353px" font-weight="400"><tspan class="TextPosition" x="13395" y="10800"><tspan fill="rgb(0,0,0)" stroke="none">Romania</tspan></tspan></tspan></text>
 <text class="TextShape" transform="rotate(-44.9 14126 10726)"><tspan class="TextParagraph" font-family="Arial, sans-serif" font-size="353px" font-weight="400"><tspan class="TextPosition" x="14126" y="10726"><tspan fill="rgb(0,0,0)" stroke="none">Bulgaria</tspan></tspan></tspan></text>
 <text class="TextShape" transform="rotate(-44.9 14334 11176)"><tspan class="TextParagraph" font-family="Arial, sans-serif" font-size="353px" font-weight="400"><tspan class="TextPosition" x="14334" y="11176"><tspan fill="rgb(0,0,0)" stroke="none">Luxembourg</tspan></tspan></tspan></text>
 <text class="TextShape" transform="rotate(-44.9 15627 10538)"><tspan class="TextParagraph" font-family="Arial, sans-serif" font-size="353px" font-weight="400"><tspan class="TextPosition" x="15627" y="10538"><tspan fill="rgb(0,0,0)" stroke="none">Serbia</tspan></tspan></tspan></text>
 <text class="TextShape" transform="rotate(-44.9 16377 10446)"><tspan class="TextParagraph" font-family="Arial, sans-serif" font-size="353px" font-weight="400"><tspan class="TextPosition" x="16377" y="10446"><tspan fill="rgb(0,0,0)" stroke="none">Malta</tspan></tspan></tspan></text>
 <text class="TextShape" transform="rotate(-44.9 16753 10726)"><tspan class="TextParagraph" font-family="Arial, sans-serif" font-size="353px" font-weight="400"><tspan class="TextPosition" x="16753" y="10726"><tspan fill="rgb(0,0,0)" stroke="none">Belgium</tspan></tspan></tspan></text>
 <text class="TextShape" transform="rotate(-44.9 17691 10446)"><tspan class="TextParagraph" font-family="Arial, sans-serif" font-size="353px" font-weight="400"><tspan class="TextPosition" x="17691" y="10446"><tspan fill="rgb(0,0,0)" stroke="none">Israel</tspan></tspan></tspan></text>
 <text class="TextShape" transform="rotate(-44.9 17693 11100)"><tspan class="TextParagraph" font-family="Arial, sans-serif" font-size="353px" font-weight="400"><tspan class="TextPosition" x="17693" y="11100"><tspan fill="rgb(0,0,0)" stroke="none">Switzerland</tspan></tspan></tspan></text>
 <text class="TextShape" transform="rotate(-44.9 18874 10576)"><tspan class="TextParagraph" font-family="Arial, sans-serif" font-size="353px" font-weight="400"><tspan class="TextPosition" x="18874" y="10576"><tspan fill="rgb(0,0,0)" stroke="none">Ireland</tspan></tspan></tspan></text>
 <text class="TextShape" transform="rotate(-44.9 18969 11138)"><tspan class="TextParagraph" font-family="Arial, sans-serif" font-size="353px" font-weight="400"><tspan class="TextPosition" x="18969" y="11138"><tspan fill="rgb(0,0,0)" stroke="none">Netherlands</tspan></tspan></tspan></text>
 <text class="TextShape" transform="rotate(-44.9 19945 10819)"><tspan class="TextParagraph" font-family="Arial, sans-serif" font-size="353px" font-weight="400"><tspan class="TextPosition" x="19945" y="10819"><tspan fill="rgb(0,0,0)" stroke="none">Lithuania</tspan></tspan></tspan></text>
 <text class="TextShape" transform="rotate(-44.9 20806 10614)"><tspan class="TextParagraph" font-family="Arial, sans-serif" font-size="353px" font-weight="400"><tspan class="TextPosition" x="20806" y="10614"><tspan fill="rgb(0,0,0)" stroke="none">Austria</tspan></tspan></tspan></text>
 <text class="TextShape" transform="rotate(-44.9 21463 10614)"><tspan class="TextParagraph" font-family="Arial, sans-serif" font-size="353px" font-weight="400"><tspan class="TextPosition" x="21463" y="10614"><tspan fill="rgb(0,0,0)" stroke="none">Croatia</tspan></tspan></tspan></text>
 <text class="TextShape" transform="rotate(-44.9 21990 10744)"><tspan class="TextParagraph" font-family="Arial, sans-serif" font-size="353px" font-weight="400"><tspan class="TextPosition" x="21990" y="10744"><tspan fill="rgb(0,0,0)" stroke="none">Hungary</tspan></tspan></tspan></text>
 <text class="TextShape" transform="rotate(-44.9 22797 10594)"><tspan class="TextParagraph" font-family="Arial, sans-serif" font-size="353px" font-weight="400"><tspan class="TextPosition" x="22797" y="10594"><tspan fill="rgb(0,0,0)" stroke="none">France</tspan></tspan></tspan></text>
 <text class="TextShape" transform="rotate(-44.9 23210 10838)"><tspan class="TextParagraph" font-family="Arial, sans-serif" font-size="353px" font-weight="400"><tspan class="TextPosition" x="23210" y="10838"><tspan fill="rgb(0,0,0)" stroke="none">Germany</tspan></tspan></tspan></text>
 <text class="TextShape" transform="rotate(-44.9 24072 10632)"><tspan class="TextParagraph" font-family="Arial, sans-serif" font-size="353px" font-weight="400"><tspan class="TextPosition" x="24072" y="10632"><tspan fill="rgb(0,0,0)" stroke="none">Greece</tspan></tspan></tspan></text>
 <text class="TextShape" transform="rotate(-44.9 24692 10670)"><tspan class="TextParagraph" font-family="Arial, sans-serif" font-size="353px" font-weight="400"><tspan class="TextPosition" x="24692" y="10670"><tspan fill="rgb(0,0,0)" stroke="none">Ukraine</tspan></tspan></tspan></text>
 <text class="TextShape" transform="rotate(-44.9 25403 10614)"><tspan class="TextParagraph" font-family="Arial, sans-serif" font-size="353px" font-weight="400"><tspan class="TextPosition" x="25403" y="10614"><tspan fill="rgb(0,0,0)" stroke="none">Cyprus</tspan></tspan></tspan></text>
 <text class="TextShape" transform="rotate(-44.9 26174 10501)"><tspan class="TextParagraph" font-family="Arial, sans-serif" font-size="353px" font-weight="400"><tspan class="TextPosition" x="26174" y="10501"><tspan fill="rgb(0,0,0)" stroke="none">Latvia</tspan></tspan></tspan></text>
 <text class="TextShape" transform="rotate(-44.9 26643 10688)"><tspan class="TextParagraph" font-family="Arial, sans-serif" font-size="353px" font-weight="400"><tspan class="TextPosition" x="26643" y="10688"><tspan fill="rgb(0,0,0)" stroke="none">Georgia</tspan></tspan></tspan></text>
 <text class="TextShape" transform="rotate(-44.9 27319 10670)"><tspan class="TextParagraph" font-family="Arial, sans-serif" font-size="353px" font-weight="400"><tspan class="TextPosition" x="27319" y="10670"><tspan fill="rgb(0,0,0)" stroke="none">Estonia</tspan></tspan></tspan></text>
 <text class="TextShape" transform="rotate(-44.9 27937 10707)"><tspan class="TextParagraph" font-family="Arial, sans-serif" font-size="353px" font-weight="400"><tspan class="TextPosition" x="27937" y="10707"><tspan fill="rgb(0,0,0)" stroke="none">Sweden</tspan></tspan></tspan></text>
 <text class="TextShape" transform="rotate(-44.9 28801 10501)"><tspan class="TextParagraph" font-family="Arial, sans-serif" font-size="353px" font-weight="400"><tspan class="TextPosition" x="28801" y="10501"><tspan fill="rgb(0,0,0)" stroke="none">Japan</tspan></tspan></tspan></text>
 <text class="TextShape" transform="rotate(-44.9 29364 10594)"><tspan class="TextParagraph" font-family="Arial, sans-serif" font-size="353px" font-weight="400"><tspan class="TextPosition" x="29364" y="10594"><tspan fill="rgb(0,0,0)" stroke="none">Turkey</tspan></tspan></tspan></text>
 <text class="TextShape" transform="rotate(-44.9 29815 10800)"><tspan class="TextParagraph" font-family="Arial, sans-serif" font-size="353px" font-weight="400"><tspan class="TextPosition" x="29815" y="10800"><tspan fill="rgb(0,0,0)" stroke="none">S. Korea</tspan></tspan></tspan></text>
 <text class="TextShape" transform="rotate(-44.9 30454 10819)"><tspan class="TextParagraph" font-family="Arial, sans-serif" font-size="353px" font-weight="400"><tspan class="TextPosition" x="30454" y="10819"><tspan fill="rgb(0,0,0)" stroke="none">Denmark</tspan></tspan></tspan></text>
 <text class="TextShape" transform="rotate(-44.9 31297 10632)"><tspan class="TextParagraph" font-family="Arial, sans-serif" font-size="353px" font-weight="400"><tspan class="TextPosition" x="31297" y="10632"><tspan fill="rgb(0,0,0)" stroke="none">Finland</tspan></tspan></tspan></text>
 <text class="TextShape" transform="rotate(-44.9 31935 10651)"><tspan class="TextParagraph" font-family="Arial, sans-serif" font-size="353px" font-weight="400"><tspan class="TextPosition" x="31935" y="10651"><tspan fill="rgb(0,0,0)" stroke="none">Norway</tspan></tspan></tspan></text>
 <text class="TextShape" transform="rotate(-44.9 32610 10632)"><tspan class="TextParagraph" font-family="Arial, sans-serif" font-size="353px" font-weight="400"><tspan class="TextPosition" x="32610" y="10632"><tspan fill="rgb(0,0,0)" stroke="none">Iceland</tspan></tspan></tspan></text>
 <text class="TextShape" transform="rotate(-44.9 33435 10464)"><tspan class="TextParagraph" font-family="Arial, sans-serif" font-size="353px" font-weight="400"><tspan class="TextPosition" x="33435" y="10464"><tspan fill="rgb(0,0,0)" stroke="none">China</tspan></tspan></tspan></text>
 <text class="TextShape"><tspan class="TextParagraph" font-family="Arial, sans-serif" font-size="353px" font-weight="400"><tspan class="TextPosition" x="886" y="9492"><tspan fill="rgb(0,0,0)" stroke="none">0,00%</tspan></tspan></tspan></text>
 <text class="TextShape"><tspan class="TextParagraph" font-family="Arial, sans-serif" font-size="353px" font-weight="400"><tspan class="TextPosition" x="886" y="8697"><tspan fill="rgb(0,0,0)" stroke="none">5,00%</tspan></tspan></tspan></text>
 <text class="TextShape"><tspan class="TextParagraph" font-family="Arial, sans-serif" font-size="353px" font-weight="400"><tspan class="TextPosition" x="701" y="7902"><tspan fill="rgb(0,0,0)" stroke="none">10,00%</tspan></tspan></tspan></text>
 <text class="TextShape"><tspan class="TextParagraph" font-family="Arial, sans-serif" font-size="353px" font-weight="400"><tspan class="TextPosition" x="701" y="7107"><tspan fill="rgb(0,0,0)" stroke="none">15,00%</tspan></tspan></tspan></text>
 <text class="TextShape"><tspan class="TextParagraph" font-family="Arial, sans-serif" font-size="353px" font-weight="400"><tspan class="TextPosition" x="701" y="6312"><tspan fill="rgb(0,0,0)" stroke="none">20,00%</tspan></tspan></tspan></text>
 <text class="TextShape"><tspan class="TextParagraph" font-family="Arial, sans-serif" font-size="353px" font-weight="400"><tspan class="TextPosition" x="701" y="5517"><tspan fill="rgb(0,0,0)" stroke="none">25,00%</tspan></tspan></tspan></text>
 <text class="TextShape"><tspan class="TextParagraph" font-family="Arial, sans-serif" font-size="353px" font-weight="400"><tspan class="TextPosition" x="701" y="4721"><tspan fill="rgb(0,0,0)" stroke="none">30,00%</tspan></tspan></tspan></text>
 <text class="TextShape"><tspan class="TextParagraph" font-family="Arial, sans-serif" font-size="353px" font-weight="400"><tspan class="TextPosition" x="701" y="3926"><tspan fill="rgb(0,0,0)" stroke="none">35,00%</tspan></tspan></tspan></text>
 <text class="TextShape"><tspan class="TextParagraph" font-family="Arial, sans-serif" font-size="353px" font-weight="400"><tspan class="TextPosition" x="701" y="3132"><tspan fill="rgb(0,0,0)" stroke="none">40,00%</tspan></tspan></tspan></text>
 <text class="TextShape"><tspan class="TextParagraph" font-family="Arial, sans-serif" font-size="353px" font-weight="400"><tspan class="TextPosition" x="701" y="2337"><tspan fill="rgb(0,0,0)" stroke="none">45,00%</tspan></tspan></tspan></text>
 <text class="TextShape"><tspan class="TextParagraph" font-family="Arial, sans-serif" font-size="459px" font-weight="400"><tspan class="TextPosition" x="6705" y="931"><tspan fill="rgb(0,0,0)" stroke="none">Pandemic index based on number of deaths/ Járvány erősség index a halálesetek száma alapján 2021.03.19.</tspan></tspan></tspan></text>
 <path fill="rgb(0,69,134)" stroke="none" d="M 11418,1764 L 11018,1764 11018,1553 11818,1553 11818,1764 11418,1764 Z"/>
 <path fill="none" stroke="rgb(0,69,134)" stroke-linejoin="round" d="M 16967,1658 L 17766,1658"/>
 <text class="TextShape"><tspan class="TextParagraph" font-family="Arial, sans-serif" font-size="353px" font-weight="400"><tspan class="TextPosition" x="11918" y="1778"><tspan fill="rgb(0,0,0)" stroke="none">Pandemic index/ Járvány index</tspan></tspan></tspan></text>
 <text class="TextShape"><tspan class="TextParagraph" font-family="Arial, sans-serif" font-size="353px" font-weight="400"><tspan class="TextPosition" x="17866" y="1778"><tspan fill="rgb(0,0,0)" stroke="none">Közép (Pandemic index/ Járvány index)</tspan></tspan></tspan></text>
</svg>