<?xml version="1.0" encoding="UTF-8"?>
<!DOCTYPE svg PUBLIC "-//W3C//DTD SVG 1.1//EN" "http://www.w3.org/Graphics/SVG/1.1/DTD/svg11.dtd">
<svg width="350mm" height="130mm" viewBox="0 0 35000 13000" version="1.1" xmlns="http://www.w3.org/2000/svg" xmlns:xlink="http://www.w3.org/1999/xlink" stroke-width="28.222" stroke-linejoin="round" xml:space="preserve">
 <path fill="rgb(255,255,255)" stroke="none" d="M 17499,12997 L 0,12997 0,0 34997,0 34997,12997 17499,12997 Z"/>
 <path fill="none" stroke="rgb(179,179,179)" stroke-linejoin="round" d="M 18206,9371 L 2114,9371 2114,2216 34298,2216 34298,9371 18206,9371 Z"/>
 <path fill="none" stroke="rgb(179,179,179)" stroke-width="18" stroke-linejoin="round" d="M 34298,9370 L 2114,9370"/>
 <path fill="none" stroke="rgb(179,179,179)" stroke-width="18" stroke-linejoin="round" d="M 34298,8574 L 2114,8574"/>
 <path fill="none" stroke="rgb(179,179,179)" stroke-width="18" stroke-linejoin="round" d="M 34298,7779 L 2114,7779"/>
 <path fill="none" stroke="rgb(179,179,179)" stroke-width="18" stroke-linejoin="round" d="M 34298,6984 L 2114,6984"/>
 <path fill="none" stroke="rgb(179,179,179)" stroke-width="18" stroke-linejoin="round" d="M 34298,6190 L 2114,6190"/>
 <path fill="none" stroke="rgb(179,179,179)" stroke-width="18" stroke-linejoin="round" d="M 34298,5395 L 2114,5395"/>
 <path fill="none" stroke="rgb(179,179,179)" stroke-width="18" stroke-linejoin="round" d="M 34298,4600 L 2114,4600"/>
 <path fill="none" stroke="rgb(179,179,179)" stroke-width="18" stroke-linejoin="round" d="M 34298,3805 L 2114,3805"/>
 <path fill="none" stroke="rgb(179,179,179)" stroke-width="18" stroke-linejoin="round" d="M 34298,3010 L 2114,3010"/>
 <path fill="none" stroke="rgb(179,179,179)" stroke-width="18" stroke-linejoin="round" d="M 34298,2215 L 2114,2215"/>
 <path fill="none" stroke="rgb(179,179,179)" stroke-width="18" stroke-linejoin="round" d="M 2114,9520 L 2114,9370"/>
 <path fill="none" stroke="rgb(179,179,179)" stroke-width="18" stroke-linejoin="round" d="M 2770,9520 L 2770,9370"/>
 <path fill="none" stroke="rgb(179,179,179)" stroke-width="18" stroke-linejoin="round" d="M 3427,9520 L 3427,9370"/>
 <path fill="none" stroke="rgb(179,179,179)" stroke-width="18" stroke-linejoin="round" d="M 4084,9520 L 4084,9370"/>
 <path fill="none" stroke="rgb(179,179,179)" stroke-width="18" stroke-linejoin="round" d="M 4741,9520 L 4741,9370"/>
 <path fill="none" stroke="rgb(179,179,179)" stroke-width="18" stroke-linejoin="round" d="M 5398,9520 L 5398,9370"/>
 <path fill="none" stroke="rgb(179,179,179)" stroke-width="18" stroke-linejoin="round" d="M 6055,9520 L 6055,9370"/>
 <path fill="none" stroke="rgb(179,179,179)" stroke-width="18" stroke-linejoin="round" d="M 6711,9520 L 6711,9370"/>
 <path fill="none" stroke="rgb(179,179,179)" stroke-width="18" stroke-linejoin="round" d="M 7368,9520 L 7368,9370"/>
 <path fill="none" stroke="rgb(179,179,179)" stroke-width="18" stroke-linejoin="round" d="M 8025,9520 L 8025,9370"/>
 <path fill="none" stroke="rgb(179,179,179)" stroke-width="18" stroke-linejoin="round" d="M 8682,9520 L 8682,9370"/>
 <path fill="none" stroke="rgb(179,179,179)" stroke-width="18" stroke-linejoin="round" d="M 9339,9520 L 9339,9370"/>
 <path fill="none" stroke="rgb(179,179,179)" stroke-width="18" stroke-linejoin="round" d="M 9996,9520 L 9996,9370"/>
 <path fill="none" stroke="rgb(179,179,179)" stroke-width="18" stroke-linejoin="round" d="M 10652,9520 L 10652,9370"/>
 <path fill="none" stroke="rgb(179,179,179)" stroke-width="18" stroke-linejoin="round" d="M 11309,9520 L 11309,9370"/>
 <path fill="none" stroke="rgb(179,179,179)" stroke-width="18" stroke-linejoin="round" d="M 11966,9520 L 11966,9370"/>
 <path fill="none" stroke="rgb(179,179,179)" stroke-width="18" stroke-linejoin="round" d="M 12623,9520 L 12623,9370"/>
 <path fill="none" stroke="rgb(179,179,179)" stroke-width="18" stroke-linejoin="round" d="M 13280,9520 L 13280,9370"/>
 <path fill="none" stroke="rgb(179,179,179)" stroke-width="18" stroke-linejoin="round" d="M 13937,9520 L 13937,9370"/>
 <path fill="none" stroke="rgb(179,179,179)" stroke-width="18" stroke-linejoin="round" d="M 14593,9520 L 14593,9370"/>
 <path fill="none" stroke="rgb(179,179,179)" stroke-width="18" stroke-linejoin="round" d="M 15250,9520 L 15250,9370"/>
 <path fill="none" stroke="rgb(179,179,179)" stroke-width="18" stroke-linejoin="round" d="M 15907,9520 L 15907,9370"/>
 <path fill="none" stroke="rgb(179,179,179)" stroke-width="18" stroke-linejoin="round" d="M 16564,9520 L 16564,9370"/>
 <path fill="none" stroke="rgb(179,179,179)" stroke-width="18" stroke-linejoin="round" d="M 17221,9520 L 17221,9370"/>
 <path fill="none" stroke="rgb(179,179,179)" stroke-width="18" stroke-linejoin="round" d="M 17877,9520 L 17877,9370"/>
 <path fill="none" stroke="rgb(179,179,179)" stroke-width="18" stroke-linejoin="round" d="M 18533,9520 L 18533,9370"/>
 <path fill="none" stroke="rgb(179,179,179)" stroke-width="18" stroke-linejoin="round" d="M 19190,9520 L 19190,9370"/>
 <path fill="none" stroke="rgb(179,179,179)" stroke-width="18" stroke-linejoin="round" d="M 19847,9520 L 19847,9370"/>
 <path fill="none" stroke="rgb(179,179,179)" stroke-width="18" stroke-linejoin="round" d="M 20504,9520 L 20504,9370"/>
 <path fill="none" stroke="rgb(179,179,179)" stroke-width="18" stroke-linejoin="round" d="M 21161,9520 L 21161,9370"/>
 <path fill="none" stroke="rgb(179,179,179)" stroke-width="18" stroke-linejoin="round" d="M 21818,9520 L 21818,9370"/>
 <path fill="none" stroke="rgb(179,179,179)" stroke-width="18" stroke-linejoin="round" d="M 22474,9520 L 22474,9370"/>
 <path fill="none" stroke="rgb(179,179,179)" stroke-width="18" stroke-linejoin="round" d="M 23131,9520 L 23131,9370"/>
 <path fill="none" stroke="rgb(179,179,179)" stroke-width="18" stroke-linejoin="round" d="M 23788,9520 L 23788,9370"/>
 <path fill="none" stroke="rgb(179,179,179)" stroke-width="18" stroke-linejoin="round" d="M 24445,9520 L 24445,9370"/>
 <path fill="none" stroke="rgb(179,179,179)" stroke-width="18" stroke-linejoin="round" d="M 25102,9520 L 25102,9370"/>
 <path fill="none" stroke="rgb(179,179,179)" stroke-width="18" stroke-linejoin="round" d="M 25759,9520 L 25759,9370"/>
 <path fill="none" stroke="rgb(179,179,179)" stroke-width="18" stroke-linejoin="round" d="M 26415,9520 L 26415,9370"/>
 <path fill="none" stroke="rgb(179,179,179)" stroke-width="18" stroke-linejoin="round" d="M 27072,9520 L 27072,9370"/>
 <path fill="none" stroke="rgb(179,179,179)" stroke-width="18" stroke-linejoin="round" d="M 27729,9520 L 27729,9370"/>
 <path fill="none" stroke="rgb(179,179,179)" stroke-width="18" stroke-linejoin="round" d="M 28386,9520 L 28386,9370"/>
 <path fill="none" stroke="rgb(179,179,179)" stroke-width="18" stroke-linejoin="round" d="M 29043,9520 L 29043,9370"/>
 <path fill="none" stroke="rgb(179,179,179)" stroke-width="18" stroke-linejoin="round" d="M 29700,9520 L 29700,9370"/>
 <path fill="none" stroke="rgb(179,179,179)" stroke-width="18" stroke-linejoin="round" d="M 30356,9520 L 30356,9370"/>
 <path fill="none" stroke="rgb(179,179,179)" stroke-width="18" stroke-linejoin="round" d="M 31013,9520 L 31013,9370"/>
 <path fill="none" stroke="rgb(179,179,179)" stroke-width="18" stroke-linejoin="round" d="M 31670,9520 L 31670,9370"/>
 <path fill="none" stroke="rgb(179,179,179)" stroke-width="18" stroke-linejoin="round" d="M 32327,9520 L 32327,9370"/>
 <path fill="none" stroke="rgb(179,179,179)" stroke-width="18" stroke-linejoin="round" d="M 32984,9520 L 32984,9370"/>
 <path fill="none" stroke="rgb(179,179,179)" stroke-width="18" stroke-linejoin="round" d="M 33641,9520 L 33641,9370"/>
 <path fill="none" stroke="rgb(179,179,179)" stroke-width="18" stroke-linejoin="round" d="M 34298,9520 L 34298,9370"/>
 <path fill="none" stroke="rgb(179,179,179)" stroke-width="18" stroke-linejoin="round" d="M 2114,9370 L 34298,9370"/>
 <path fill="none" stroke="rgb(179,179,179)" stroke-width="18" stroke-linejoin="round" d="M 1964,9370 L 2114,9370"/>
 <path fill="none" stroke="rgb(179,179,179)" stroke-width="18" stroke-linejoin="round" d="M 1964,8574 L 2114,8574"/>
 <path fill="none" stroke="rgb(179,179,179)" stroke-width="18" stroke-linejoin="round" d="M 1964,7779 L 2114,7779"/>
 <path fill="none" stroke="rgb(179,179,179)" stroke-width="18" stroke-linejoin="round" d="M 1964,6984 L 2114,6984"/>
 <path fill="none" stroke="rgb(179,179,179)" stroke-width="18" stroke-linejoin="round" d="M 1964,6190 L 2114,6190"/>
 <path fill="none" stroke="rgb(179,179,179)" stroke-width="18" stroke-linejoin="round" d="M 1964,5395 L 2114,5395"/>
 <path fill="none" stroke="rgb(179,179,179)" stroke-width="18" stroke-linejoin="round" d="M 1964,4600 L 2114,4600"/>
 <path fill="none" stroke="rgb(179,179,179)" stroke-width="18" stroke-linejoin="round" d="M 1964,3805 L 2114,3805"/>
 <path fill="none" stroke="rgb(179,179,179)" stroke-width="18" stroke-linejoin="round" d="M 1964,3010 L 2114,3010"/>
 <path fill="none" stroke="rgb(179,179,179)" stroke-width="18" stroke-linejoin="round" d="M 1964,2215 L 2114,2215"/>
 <path fill="none" stroke="rgb(179,179,179)" stroke-width="18" stroke-linejoin="round" d="M 2114,9370 L 2114,2215"/>
 <path fill="rgb(0,69,134)" stroke="none" d="M 33805,9370 L 34133,9370 34133,9356 33805,9356 33805,9370 Z"/>
 <path fill="rgb(0,69,134)" stroke="none" d="M 33148,9370 L 33476,9370 33476,9352 33148,9352 33148,9370 Z"/>
 <path fill="rgb(0,69,134)" stroke="none" d="M 32491,9370 L 32820,9370 32820,9343 32491,9343 32491,9370 Z"/>
 <path fill="rgb(0,69,134)" stroke="none" d="M 31834,9370 L 32163,9370 32163,9343 31834,9343 31834,9370 Z"/>
 <path fill="rgb(0,69,134)" stroke="none" d="M 31178,9370 L 31506,9370 31506,9334 31178,9334 31178,9370 Z"/>
 <path fill="rgb(0,69,134)" stroke="none" d="M 30521,9370 L 30849,9370 30849,9313 30521,9313 30521,9370 Z"/>
 <path fill="rgb(0,69,134)" stroke="none" d="M 29864,9370 L 30192,9370 30192,9299 29864,9299 29864,9370 Z"/>
 <path fill="rgb(0,69,134)" stroke="none" d="M 29207,9370 L 29535,9370 29535,9277 29207,9277 29207,9370 Z"/>
 <path fill="rgb(0,69,134)" stroke="none" d="M 28550,9370 L 28879,9370 28879,9264 28550,9264 28550,9370 Z"/>
 <path fill="rgb(0,69,134)" stroke="none" d="M 27893,9370 L 28222,9370 28222,9262 27893,9262 27893,9370 Z"/>
 <path fill="rgb(0,69,134)" stroke="none" d="M 27237,9370 L 27565,9370 27565,9253 27237,9253 27237,9370 Z"/>
 <path fill="rgb(0,69,134)" stroke="none" d="M 26580,9370 L 26908,9370 26908,9235 26580,9235 26580,9370 Z"/>
 <path fill="rgb(0,69,134)" stroke="none" d="M 25923,9370 L 26251,9370 26251,9220 25923,9220 25923,9370 Z"/>
 <path fill="rgb(0,69,134)" stroke="none" d="M 25266,9370 L 25594,9370 25594,9214 25266,9214 25266,9370 Z"/>
 <path fill="rgb(0,69,134)" stroke="none" d="M 24609,9370 L 24938,9370 24938,9200 24609,9200 24609,9370 Z"/>
 <path fill="rgb(0,69,134)" stroke="none" d="M 23952,9370 L 24281,9370 24281,9187 23952,9187 23952,9370 Z"/>
 <path fill="rgb(0,69,134)" stroke="none" d="M 23295,9370 L 23624,9370 23624,9172 23295,9172 23295,9370 Z"/>
 <path fill="rgb(0,69,134)" stroke="none" d="M 22639,9370 L 22967,9370 22967,9167 22639,9167 22639,9370 Z"/>
 <path fill="rgb(255,0,0)" stroke="none" d="M 21982,9370 L 22310,9370 22310,9166 21982,9166 21982,9370 Z"/>
 <path fill="rgb(0,69,134)" stroke="none" d="M 21325,9370 L 21653,9370 21653,9164 21325,9164 21325,9370 Z"/>
 <path fill="rgb(0,69,134)" stroke="none" d="M 20668,9370 L 20997,9370 20997,9163 20668,9163 20668,9370 Z"/>
 <path fill="rgb(0,69,134)" stroke="none" d="M 20011,9370 L 20340,9370 20340,9156 20011,9156 20011,9370 Z"/>
 <path fill="rgb(0,69,134)" stroke="none" d="M 19354,9370 L 19683,9370 19683,9128 19354,9128 19354,9370 Z"/>
 <path fill="rgb(0,69,134)" stroke="none" d="M 18698,9370 L 19026,9370 19026,9119 18698,9119 18698,9370 Z"/>
 <path fill="rgb(0,69,134)" stroke="none" d="M 18041,9370 L 18369,9370 18369,9097 18041,9097 18041,9370 Z"/>
 <path fill="rgb(0,69,134)" stroke="none" d="M 17385,9370 L 17712,9370 17712,9086 17385,9086 17385,9370 Z"/>
 <path fill="rgb(0,69,134)" stroke="none" d="M 16728,9370 L 17057,9370 17057,9075 16728,9075 16728,9370 Z"/>
 <path fill="rgb(0,69,134)" stroke="none" d="M 16071,9370 L 16400,9370 16400,9060 16071,9060 16071,9370 Z"/>
 <path fill="rgb(0,69,134)" stroke="none" d="M 15414,9370 L 15743,9370 15743,9018 15414,9018 15414,9370 Z"/>
 <path fill="rgb(0,69,134)" stroke="none" d="M 14758,9370 L 15086,9370 15086,8998 14758,8998 14758,9370 Z"/>
 <path fill="rgb(0,69,134)" stroke="none" d="M 14101,9370 L 14429,9370 14429,8976 14101,8976 14101,9370 Z"/>
 <path fill="rgb(0,69,134)" stroke="none" d="M 13444,9370 L 13772,9370 13772,8958 13444,8958 13444,9370 Z"/>
 <path fill="rgb(0,69,134)" stroke="none" d="M 12787,9370 L 13116,9370 13116,8876 12787,8876 12787,9370 Z"/>
 <path fill="rgb(0,69,134)" stroke="none" d="M 12130,9370 L 12459,9370 12459,8797 12130,8797 12130,9370 Z"/>
 <path fill="rgb(0,69,134)" stroke="none" d="M 11473,9370 L 11802,9370 11802,8724 11473,8724 11473,9370 Z"/>
 <path fill="rgb(0,69,134)" stroke="none" d="M 10817,9370 L 11145,9370 11145,8697 10817,8697 10817,9370 Z"/>
 <path fill="rgb(0,69,134)" stroke="none" d="M 10160,9370 L 10488,9370 10488,8422 10160,8422 10160,9370 Z"/>
 <path fill="rgb(0,69,134)" stroke="none" d="M 9503,9370 L 9831,9370 9831,8239 9503,8239 9503,9370 Z"/>
 <path fill="rgb(0,69,134)" stroke="none" d="M 8846,9370 L 9174,9370 9174,8185 8846,8185 8846,9370 Z"/>
 <path fill="rgb(0,69,134)" stroke="none" d="M 8189,9370 L 8518,9370 8518,8145 8189,8145 8189,9370 Z"/>
 <path fill="rgb(0,69,134)" stroke="none" d="M 7532,9370 L 7861,9370 7861,7687 7532,7687 7532,9370 Z"/>
 <path fill="rgb(0,69,134)" stroke="none" d="M 6876,9370 L 7204,9370 7204,7566 6876,7566 6876,9370 Z"/>
 <path fill="rgb(0,69,134)" stroke="none" d="M 6219,9370 L 6547,9370 6547,7390 6219,7390 6219,9370 Z"/>
 <path fill="rgb(0,69,134)" stroke="none" d="M 5562,9370 L 5890,9370 5890,7259 5562,7259 5562,9370 Z"/>
 <path fill="rgb(0,69,134)" stroke="none" d="M 4905,9370 L 5233,9370 5233,6909 4905,6909 4905,9370 Z"/>
 <path fill="rgb(0,69,134)" stroke="none" d="M 4248,9370 L 4577,9370 4577,6726 4248,6726 4248,9370 Z"/>
 <path fill="rgb(0,69,134)" stroke="none" d="M 3591,9370 L 3920,9370 3920,6618 3591,6618 3591,9370 Z"/>
 <path fill="rgb(0,69,134)" stroke="none" d="M 2935,9370 L 3263,9370 3263,6308 2935,6308 2935,9370 Z"/>
 <path fill="rgb(0,69,134)" stroke="none" d="M 2278,9370 L 2606,9370 2606,5512 2278,5512 2278,9370 Z"/>
 <path fill="none" stroke="rgb(0,69,134)" stroke-linejoin="round" d="M 2114,8653 L 34298,8653"/>
 <text class="TextShape" transform="rotate(-44.9 1645 10725)"><tspan class="TextParagraph" font-family="Arial, sans-serif" font-size="353px" font-weight="400"><tspan class="TextPosition" x="1645" y="10725"><tspan fill="rgb(0,0,0)" stroke="none">Belgium</tspan></tspan></tspan></text>
 <text class="TextShape" transform="rotate(-44.9 2846 10181)"><tspan class="TextParagraph" font-family="Arial, sans-serif" font-size="353px" font-weight="400"><tspan class="TextPosition" x="2846" y="10181"><tspan fill="rgb(0,0,0)" stroke="none">UK</tspan></tspan></tspan></text>
 <text class="TextShape" transform="rotate(-44.9 3221 10463)"><tspan class="TextParagraph" font-family="Arial, sans-serif" font-size="353px" font-weight="400"><tspan class="TextPosition" x="3221" y="10463"><tspan fill="rgb(0,0,0)" stroke="none">Spain</tspan></tspan></tspan></text>
 <text class="TextShape" transform="rotate(-44.9 3634 10706)"><tspan class="TextParagraph" font-family="Arial, sans-serif" font-size="353px" font-weight="400"><tspan class="TextPosition" x="3634" y="10706"><tspan fill="rgb(0,0,0)" stroke="none">Sweden</tspan></tspan></tspan></text>
 <text class="TextShape" transform="rotate(-44.9 4422 10575)"><tspan class="TextParagraph" font-family="Arial, sans-serif" font-size="353px" font-weight="400"><tspan class="TextPosition" x="4422" y="10575"><tspan fill="rgb(0,0,0)" stroke="none">Ireland</tspan></tspan></tspan></text>
 <text class="TextShape" transform="rotate(-44.9 5341 10313)"><tspan class="TextParagraph" font-family="Arial, sans-serif" font-size="353px" font-weight="400"><tspan class="TextPosition" x="5341" y="10313"><tspan fill="rgb(0,0,0)" stroke="none">Italy</tspan></tspan></tspan></text>
 <text class="TextShape" transform="rotate(-44.9 5962 10350)"><tspan class="TextParagraph" font-family="Arial, sans-serif" font-size="353px" font-weight="400"><tspan class="TextPosition" x="5962" y="10350"><tspan fill="rgb(0,0,0)" stroke="none">USA</tspan></tspan></tspan></text>
 <text class="TextShape" transform="rotate(-44.9 6375 10593)"><tspan class="TextParagraph" font-family="Arial, sans-serif" font-size="353px" font-weight="400"><tspan class="TextPosition" x="6375" y="10593"><tspan fill="rgb(0,0,0)" stroke="none">France</tspan></tspan></tspan></text>
 <text class="TextShape" transform="rotate(-44.9 6488 11137)"><tspan class="TextParagraph" font-family="Arial, sans-serif" font-size="353px" font-weight="400"><tspan class="TextPosition" x="6488" y="11137"><tspan fill="rgb(0,0,0)" stroke="none">Netherlands</tspan></tspan></tspan></text>
 <text class="TextShape" transform="rotate(-44.9 7182 11099)"><tspan class="TextParagraph" font-family="Arial, sans-serif" font-size="353px" font-weight="400"><tspan class="TextPosition" x="7182" y="11099"><tspan fill="rgb(0,0,0)" stroke="none">Switzerland</tspan></tspan></tspan></text>
 <text class="TextShape" transform="rotate(-44.9 7764 11175)"><tspan class="TextParagraph" font-family="Arial, sans-serif" font-size="353px" font-weight="400"><tspan class="TextPosition" x="7764" y="11175"><tspan fill="rgb(0,0,0)" stroke="none">Luxembourg</tspan></tspan></tspan></text>
 <text class="TextShape" transform="rotate(-44.9 8852 10743)"><tspan class="TextParagraph" font-family="Arial, sans-serif" font-size="353px" font-weight="400"><tspan class="TextPosition" x="8852" y="10743"><tspan fill="rgb(0,0,0)" stroke="none">Armenia</tspan></tspan></tspan></text>
 <text class="TextShape" transform="rotate(-44.9 8573 11679)"><tspan class="TextParagraph" font-family="Arial, sans-serif" font-size="353px" font-weight="400"><tspan class="TextPosition" x="8573" y="11679"><tspan fill="rgb(0,0,0)" stroke="none">North Macedonia</tspan></tspan></tspan></text>
 <text class="TextShape" transform="rotate(-44.9 10166 10743)"><tspan class="TextParagraph" font-family="Arial, sans-serif" font-size="353px" font-weight="400"><tspan class="TextPosition" x="10166" y="10743"><tspan fill="rgb(0,0,0)" stroke="none">Portugal</tspan></tspan></tspan></text>
 <text class="TextShape" transform="rotate(-44.9 10805 10761)"><tspan class="TextParagraph" font-family="Arial, sans-serif" font-size="353px" font-weight="400"><tspan class="TextPosition" x="10805" y="10761"><tspan fill="rgb(0,0,0)" stroke="none">Moldova</tspan></tspan></tspan></text>
 <text class="TextShape" transform="rotate(-44.9 11629 10593)"><tspan class="TextParagraph" font-family="Arial, sans-serif" font-size="353px" font-weight="400"><tspan class="TextPosition" x="11629" y="10593"><tspan fill="rgb(0,0,0)" stroke="none">Turkey</tspan></tspan></tspan></text>
 <text class="TextShape" transform="rotate(-44.9 12062 10818)"><tspan class="TextParagraph" font-family="Arial, sans-serif" font-size="353px" font-weight="400"><tspan class="TextPosition" x="12062" y="10818"><tspan fill="rgb(0,0,0)" stroke="none">Denmark</tspan></tspan></tspan></text>
 <text class="TextShape" transform="rotate(-44.9 12699 10837)"><tspan class="TextParagraph" font-family="Arial, sans-serif" font-size="353px" font-weight="400"><tspan class="TextPosition" x="12699" y="10837"><tspan fill="rgb(0,0,0)" stroke="none">Germany</tspan></tspan></tspan></text>
 <text class="TextShape" transform="rotate(-44.9 13749 10445)"><tspan class="TextParagraph" font-family="Arial, sans-serif" font-size="353px" font-weight="400"><tspan class="TextPosition" x="13749" y="10445"><tspan fill="rgb(0,0,0)" stroke="none">Israel</tspan></tspan></tspan></text>
 <text class="TextShape" transform="rotate(-44.9 14237 10613)"><tspan class="TextParagraph" font-family="Arial, sans-serif" font-size="353px" font-weight="400"><tspan class="TextPosition" x="14237" y="10613"><tspan fill="rgb(0,0,0)" stroke="none">Austria</tspan></tspan></tspan></text>
 <text class="TextShape" transform="rotate(-44.9 14708 10799)"><tspan class="TextParagraph" font-family="Arial, sans-serif" font-size="353px" font-weight="400"><tspan class="TextPosition" x="14708" y="10799"><tspan fill="rgb(0,0,0)" stroke="none">Romania</tspan></tspan></tspan></text>
 <text class="TextShape" transform="rotate(-44.9 13680 12483)"><tspan class="TextParagraph" font-family="Arial, sans-serif" font-size="353px" font-weight="400"><tspan class="TextPosition" x="13680" y="12483"><tspan fill="rgb(0,0,0)" stroke="none">Bosnia and Herzegovina</tspan></tspan></tspan></text>
 <text class="TextShape" transform="rotate(-44.9 16227 10593)"><tspan class="TextParagraph" font-family="Arial, sans-serif" font-size="353px" font-weight="400"><tspan class="TextPosition" x="16227" y="10593"><tspan fill="rgb(0,0,0)" stroke="none">Russia</tspan></tspan></tspan></text>
 <text class="TextShape" transform="rotate(-44.9 16846 10631)"><tspan class="TextParagraph" font-family="Arial, sans-serif" font-size="353px" font-weight="400"><tspan class="TextPosition" x="16846" y="10631"><tspan fill="rgb(0,0,0)" stroke="none">Finland</tspan></tspan></tspan></text>
 <text class="TextShape" transform="rotate(-44.9 17485 10650)"><tspan class="TextParagraph" font-family="Arial, sans-serif" font-size="353px" font-weight="400"><tspan class="TextPosition" x="17485" y="10650"><tspan fill="rgb(0,0,0)" stroke="none">Norway</tspan></tspan></tspan></text>
 <text class="TextShape" transform="rotate(-44.9 17804 10987)"><tspan class="TextParagraph" font-family="Arial, sans-serif" font-size="353px" font-weight="400"><tspan class="TextPosition" x="17804" y="10987"><tspan fill="rgb(0,0,0)" stroke="none">Azerbaijan</tspan></tspan></tspan></text>
 <text class="TextShape" transform="rotate(-44.9 18667 10781)"><tspan class="TextParagraph" font-family="Arial, sans-serif" font-size="353px" font-weight="400"><tspan class="TextPosition" x="18667" y="10781"><tspan fill="rgb(0,0,0)" stroke="none">Slovenia</tspan></tspan></tspan></text>
 <text class="TextShape" transform="rotate(-44.9 19437 10669)"><tspan class="TextParagraph" font-family="Arial, sans-serif" font-size="353px" font-weight="400"><tspan class="TextPosition" x="19437" y="10669"><tspan fill="rgb(0,0,0)" stroke="none">Estonia</tspan></tspan></tspan></text>
 <text class="TextShape" transform="rotate(-44.9 20130 10631)"><tspan class="TextParagraph" font-family="Arial, sans-serif" font-size="353px" font-weight="400"><tspan class="TextPosition" x="20130" y="10631"><tspan fill="rgb(0,0,0)" stroke="none">Iceland</tspan></tspan></tspan></text>
 <text class="TextShape" transform="rotate(-44.9 20750 10669)"><tspan class="TextParagraph" font-family="Arial, sans-serif" font-size="353px" font-weight="400"><tspan class="TextPosition" x="20750" y="10669"><tspan fill="rgb(0,0,0)" stroke="none">Belarus</tspan></tspan></tspan></text>
 <text class="TextShape" transform="rotate(-44.9 21332 10743)"><tspan class="TextParagraph" font-family="Arial, sans-serif" font-size="353px" font-weight="400"><tspan class="TextPosition" x="21332" y="10743"><tspan fill="rgb(0,0,0)" stroke="none">Hungary</tspan></tspan></tspan></text>
 <text class="TextShape" transform="rotate(-44.9 22083 10650)"><tspan class="TextParagraph" font-family="Arial, sans-serif" font-size="353px" font-weight="400"><tspan class="TextPosition" x="22083" y="10650"><tspan fill="rgb(0,0,0)" stroke="none">Albania</tspan></tspan></tspan></text>
 <text class="TextShape" transform="rotate(-44.9 22852 10537)"><tspan class="TextParagraph" font-family="Arial, sans-serif" font-size="353px" font-weight="400"><tspan class="TextPosition" x="22852" y="10537"><tspan fill="rgb(0,0,0)" stroke="none">Serbia</tspan></tspan></tspan></text>
 <text class="TextShape" transform="rotate(-44.9 22929 11117)"><tspan class="TextParagraph" font-family="Arial, sans-serif" font-size="353px" font-weight="400"><tspan class="TextPosition" x="22929" y="11117"><tspan fill="rgb(0,0,0)" stroke="none">Montenegro</tspan></tspan></tspan></text>
 <text class="TextShape" transform="rotate(-44.9 24109 10593)"><tspan class="TextParagraph" font-family="Arial, sans-serif" font-size="353px" font-weight="400"><tspan class="TextPosition" x="24109" y="10593"><tspan fill="rgb(0,0,0)" stroke="none">Poland</tspan></tspan></tspan></text>
 <text class="TextShape" transform="rotate(-44.9 24746 10613)"><tspan class="TextParagraph" font-family="Arial, sans-serif" font-size="353px" font-weight="400"><tspan class="TextPosition" x="24746" y="10613"><tspan fill="rgb(0,0,0)" stroke="none">Cyprus</tspan></tspan></tspan></text>
 <text class="TextShape" transform="rotate(-44.9 25290 10725)"><tspan class="TextParagraph" font-family="Arial, sans-serif" font-size="353px" font-weight="400"><tspan class="TextPosition" x="25290" y="10725"><tspan fill="rgb(0,0,0)" stroke="none">Czechia</tspan></tspan></tspan></text>
 <text class="TextShape" transform="rotate(-44.9 26228 10445)"><tspan class="TextParagraph" font-family="Arial, sans-serif" font-size="353px" font-weight="400"><tspan class="TextPosition" x="26228" y="10445"><tspan fill="rgb(0,0,0)" stroke="none">Malta</tspan></tspan></tspan></text>
 <text class="TextShape" transform="rotate(-44.9 26604 10725)"><tspan class="TextParagraph" font-family="Arial, sans-serif" font-size="353px" font-weight="400"><tspan class="TextPosition" x="26604" y="10725"><tspan fill="rgb(0,0,0)" stroke="none">Bulgaria</tspan></tspan></tspan></text>
 <text class="TextShape" transform="rotate(-44.9 27318 10669)"><tspan class="TextParagraph" font-family="Arial, sans-serif" font-size="353px" font-weight="400"><tspan class="TextPosition" x="27318" y="10669"><tspan fill="rgb(0,0,0)" stroke="none">Ukraine</tspan></tspan></tspan></text>
 <text class="TextShape" transform="rotate(-44.9 28029 10613)"><tspan class="TextParagraph" font-family="Arial, sans-serif" font-size="353px" font-weight="400"><tspan class="TextPosition" x="28029" y="10613"><tspan fill="rgb(0,0,0)" stroke="none">Croatia</tspan></tspan></tspan></text>
 <text class="TextShape" transform="rotate(-44.9 28482 10818)"><tspan class="TextParagraph" font-family="Arial, sans-serif" font-size="353px" font-weight="400"><tspan class="TextPosition" x="28482" y="10818"><tspan fill="rgb(0,0,0)" stroke="none">Lithuania</tspan></tspan></tspan></text>
 <text class="TextShape" transform="rotate(-44.9 29325 10631)"><tspan class="TextParagraph" font-family="Arial, sans-serif" font-size="353px" font-weight="400"><tspan class="TextPosition" x="29325" y="10631"><tspan fill="rgb(0,0,0)" stroke="none">Greece</tspan></tspan></tspan></text>
 <text class="TextShape" transform="rotate(-44.9 30114 10500)"><tspan class="TextParagraph" font-family="Arial, sans-serif" font-size="353px" font-weight="400"><tspan class="TextPosition" x="30114" y="10500"><tspan fill="rgb(0,0,0)" stroke="none">Latvia</tspan></tspan></tspan></text>
 <text class="TextShape" transform="rotate(-44.9 30471 10799)"><tspan class="TextParagraph" font-family="Arial, sans-serif" font-size="353px" font-weight="400"><tspan class="TextPosition" x="30471" y="10799"><tspan fill="rgb(0,0,0)" stroke="none">S. Korea</tspan></tspan></tspan></text>
 <text class="TextShape" transform="rotate(-44.9 31146 10781)"><tspan class="TextParagraph" font-family="Arial, sans-serif" font-size="353px" font-weight="400"><tspan class="TextPosition" x="31146" y="10781"><tspan fill="rgb(0,0,0)" stroke="none">Slovakia</tspan></tspan></tspan></text>
 <text class="TextShape" transform="rotate(-44.9 32084 10500)"><tspan class="TextParagraph" font-family="Arial, sans-serif" font-size="353px" font-weight="400"><tspan class="TextPosition" x="32084" y="10500"><tspan fill="rgb(0,0,0)" stroke="none">Japan</tspan></tspan></tspan></text>
 <text class="TextShape" transform="rotate(-44.9 32553 10687)"><tspan class="TextParagraph" font-family="Arial, sans-serif" font-size="353px" font-weight="400"><tspan class="TextPosition" x="32553" y="10687"><tspan fill="rgb(0,0,0)" stroke="none">Georgia</tspan></tspan></tspan></text>
 <text class="TextShape" transform="rotate(-44.9 33434 10463)"><tspan class="TextParagraph" font-family="Arial, sans-serif" font-size="353px" font-weight="400"><tspan class="TextPosition" x="33434" y="10463"><tspan fill="rgb(0,0,0)" stroke="none">China</tspan></tspan></tspan></text>
 <text class="TextShape"><tspan class="TextParagraph" font-family="Arial, sans-serif" font-size="353px" font-weight="400"><tspan class="TextPosition" x="885" y="9491"><tspan fill="rgb(0,0,0)" stroke="none">0,00%</tspan></tspan></tspan></text>
 <text class="TextShape"><tspan class="TextParagraph" font-family="Arial, sans-serif" font-size="353px" font-weight="400"><tspan class="TextPosition" x="885" y="8695"><tspan fill="rgb(0,0,0)" stroke="none">5,00%</tspan></tspan></tspan></text>
 <text class="TextShape"><tspan class="TextParagraph" font-family="Arial, sans-serif" font-size="353px" font-weight="400"><tspan class="TextPosition" x="700" y="7900"><tspan fill="rgb(0,0,0)" stroke="none">10,00%</tspan></tspan></tspan></text>
 <text class="TextShape"><tspan class="TextParagraph" font-family="Arial, sans-serif" font-size="353px" font-weight="400"><tspan class="TextPosition" x="700" y="7105"><tspan fill="rgb(0,0,0)" stroke="none">15,00%</tspan></tspan></tspan></text>
 <text class="TextShape"><tspan class="TextParagraph" font-family="Arial, sans-serif" font-size="353px" font-weight="400"><tspan class="TextPosition" x="700" y="6310"><tspan fill="rgb(0,0,0)" stroke="none">20,00%</tspan></tspan></tspan></text>
 <text class="TextShape"><tspan class="TextParagraph" font-family="Arial, sans-serif" font-size="353px" font-weight="400"><tspan class="TextPosition" x="700" y="5515"><tspan fill="rgb(0,0,0)" stroke="none">25,00%</tspan></tspan></tspan></text>
 <text class="TextShape"><tspan class="TextParagraph" font-family="Arial, sans-serif" font-size="353px" font-weight="400"><tspan class="TextPosition" x="700" y="4720"><tspan fill="rgb(0,0,0)" stroke="none">30,00%</tspan></tspan></tspan></text>
 <text class="TextShape"><tspan class="TextParagraph" font-family="Arial, sans-serif" font-size="353px" font-weight="400"><tspan class="TextPosition" x="700" y="3925"><tspan fill="rgb(0,0,0)" stroke="none">35,00%</tspan></tspan></tspan></text>
 <text class="TextShape"><tspan class="TextParagraph" font-family="Arial, sans-serif" font-size="353px" font-weight="400"><tspan class="TextPosition" x="700" y="3130"><tspan fill="rgb(0,0,0)" stroke="none">40,00%</tspan></tspan></tspan></text>
 <text class="TextShape"><tspan class="TextParagraph" font-family="Arial, sans-serif" font-size="353px" font-weight="400"><tspan class="TextPosition" x="700" y="2335"><tspan fill="rgb(0,0,0)" stroke="none">45,00%</tspan></tspan></tspan></text>
 <text class="TextShape"><tspan class="TextParagraph" font-family="Arial, sans-serif" font-size="459px" font-weight="400"><tspan class="TextPosition" x="6704" y="930"><tspan fill="rgb(0,0,0)" stroke="none">Pandemic index based on number of deaths/ Járvány erősség index a halálesetek száma alapján 2020.07.15.</tspan></tspan></tspan></text>
 <path fill="rgb(0,69,134)" stroke="none" d="M 11417,1763 L 11017,1763 11017,1552 11817,1552 11817,1763 11417,1763 Z"/>
 <path fill="none" stroke="rgb(0,69,134)" stroke-linejoin="round" d="M 16966,1657 L 17765,1657"/>
 <text class="TextShape"><tspan class="TextParagraph" font-family="Arial, sans-serif" font-size="353px" font-weight="400"><tspan class="TextPosition" x="11917" y="1777"><tspan fill="rgb(0,0,0)" stroke="none">Pandemic index/ Járvány index</tspan></tspan></tspan></text>
 <text class="TextShape"><tspan class="TextParagraph" font-family="Arial, sans-serif" font-size="353px" font-weight="400"><tspan class="TextPosition" x="17865" y="1777"><tspan fill="rgb(0,0,0)" stroke="none">Közép (Pandemic index/ Járvány index)</tspan></tspan></tspan></text>
</svg>